<svg width="254" height="88" viewBox="0 0 254 88" fill="none" xmlns="http://www.w3.org/2000/svg">
<path fill-rule="evenodd" clip-rule="evenodd" d="M28.7871 16.2799C26.2949 17.5744 24.1119 19.3923 22.3877 21.6091C20.6636 23.8259 19.4389 26.3892 18.7977 29.1234C14.0939 33.021 10.7067 38.2746 9.09826 44.1678C7.48977 50.061 7.73823 56.3069 9.80975 62.0537C11.8813 67.8005 15.675 72.7685 20.6736 76.2801C25.6722 79.7917 31.6322 81.676 37.741 81.676C43.8498 81.676 49.8099 79.7917 54.8084 76.2801C59.807 72.7685 63.6007 67.8005 65.6723 62.0537C67.7438 56.3069 67.9922 50.061 66.3838 44.1678C64.7753 38.2746 61.3881 33.021 56.6843 29.1234C55.9661 26.0562 54.5141 23.2091 52.453 20.8268C50.3918 18.4445 47.7832 16.5981 44.8511 15.4464C44.7499 14.6994 44.454 13.9921 43.9929 13.3958C43.5317 12.7995 42.9218 12.335 42.2243 12.0492C42.1615 10.7335 41.6563 9.47751 40.7905 8.48477C39.9248 7.49204 38.7492 6.82071 37.4542 6.57955C36.1593 6.33839 34.8209 6.54154 33.6558 7.15607C32.4907 7.7706 31.5673 8.76052 31.0351 9.96543C30.0585 11.9823 29.3047 14.0996 28.7871 16.2799Z" fill="#395360"/>
<path d="M30.4795 38.8351H45.6341V56.5155H30.4795V38.8351Z" fill="#FBAA6F"/>
<path fill-rule="evenodd" clip-rule="evenodd" d="M40.4183 47.9026L40.2668 47.8015C39.8816 47.5219 39.6233 47.1006 39.5487 46.6305C39.4741 46.1604 39.5893 45.6799 39.869 45.2947C40.1487 44.9095 40.5699 44.6512 41.04 44.5766C41.5101 44.502 41.9906 44.6172 42.3758 44.8969C42.0634 44.955 41.7659 45.0755 41.5012 45.2513C41.2364 45.4271 41.0099 45.6544 40.8351 45.9198C40.6213 46.1979 40.4728 46.5204 40.4006 46.8637C40.3285 47.2069 40.3345 47.562 40.4183 47.9026ZM34.7606 47.9026C34.8328 47.5623 34.8259 47.2101 34.7405 46.8729C34.6551 46.5357 34.4935 46.2226 34.2681 45.9577C34.0897 45.6929 33.8606 45.4661 33.594 45.2905C33.3273 45.1149 33.0285 44.994 32.7147 44.9348C33.0999 44.6551 33.5804 44.5399 34.0505 44.6145C34.5207 44.6891 34.9419 44.9474 35.2216 45.3326C35.5012 45.7178 35.6164 46.1983 35.5418 46.6684C35.4672 47.1385 35.2089 47.5598 34.8238 47.8394C34.804 47.8618 34.7829 47.8829 34.7606 47.9026ZM43.8786 43.8866H44.548L43.1967 49.9737L40.4941 58.0941H35.0763L31.0225 51.325L32.3737 47.2711C33.725 49.0771 34.6343 50.201 35.0763 50.6557C35.7583 51.325 38.4609 51.325 39.8122 49.9737C41.3889 48.1015 42.7527 46.06 43.8786 43.8866Z" fill="#DC7F3C"/>
<path fill-rule="evenodd" clip-rule="evenodd" d="M20.048 42.6237H26.6908V31.2577H21.5635C21.9539 28.5264 23.0263 25.9374 24.6818 23.7302C26.3373 21.5229 28.5223 19.7684 31.0351 18.6288C31.9949 14.4192 33.1357 11.5777 34.4575 10.1044L34.6849 9.88966L34.8238 9.76337C35.2177 9.44792 35.6884 9.24305 36.1877 9.16982C36.7754 9.07695 37.3775 9.16523 37.9138 9.42292C38.4502 9.68061 38.8953 10.0955 39.1901 10.6124C39.4848 11.1292 39.6153 11.7236 39.564 12.3164C39.5127 12.9092 39.2821 13.4723 38.9029 13.9309H38.8271C38.717 14.0686 38.5896 14.1917 38.4483 14.2971C37.8523 14.9196 37.2996 15.5821 36.7939 16.2799C37.801 15.231 39.1392 14.5619 40.5825 14.3855C40.8728 14.3835 41.159 14.4529 41.416 14.5876C41.7978 14.8053 42.079 15.1639 42.1994 15.5865C42.3198 16.009 42.2698 16.462 42.0601 16.8482C41.8913 17.1601 41.6252 17.4084 41.3024 17.5554C44.6077 18.2701 47.6117 19.9881 49.9038 22.4746C52.1959 24.961 53.6642 28.0947 54.1081 31.4471L54.2596 32.5458H49.4228V42.6489H55.5225L57.7831 59.6095C52.4537 62.9183 45.7814 64.5727 37.7663 64.5727C29.7512 64.5727 23.1126 62.9141 17.8506 59.5969L20.048 42.6237ZM39.1555 54.4822C42.4137 49.1023 44.0429 45.8988 44.0429 44.8716C44.0429 42.0554 39.9385 39.7443 37.8926 39.7443C35.8467 39.7443 31.7423 42.0428 31.7423 44.8716C31.7423 45.8988 33.3462 49.1065 36.5539 54.4948C36.6976 54.7186 36.8959 54.9021 37.1301 55.028C37.3643 55.154 37.6267 55.2182 37.8926 55.2147C38.1483 55.2272 38.4023 55.1675 38.6256 55.0424C38.8489 54.9173 39.0325 54.732 39.1555 54.5075V54.4822Z" fill="#BDCFC8"/>
<path fill-rule="evenodd" clip-rule="evenodd" d="M58.0229 67.6542C55.6724 70.8128 52.6161 73.3781 49.0979 75.1455C45.5797 76.9129 41.697 77.8333 37.7598 77.8333C33.8227 77.8333 29.94 76.9129 26.4218 75.1455C22.9036 73.3781 19.8473 70.8128 17.4968 67.6542L18.5577 59.9379C18.9594 60.0979 19.3881 60.1793 19.8205 60.1779C20.6827 60.1804 21.5168 59.8712 22.1689 59.3073C22.8211 58.7433 23.2474 57.9626 23.3693 57.1091V58.6498C23.3693 59.601 23.7471 60.5133 24.4197 61.1859C25.0924 61.8585 26.0046 62.2364 26.9558 62.2364C27.9071 62.2364 28.8193 61.8585 29.492 61.1859C30.1646 60.5133 30.5424 59.601 30.5424 58.6498V60.6957C30.5968 61.6117 30.999 62.4725 31.6668 63.1019C32.3347 63.7313 33.2177 64.0818 34.1354 64.0818C35.053 64.0818 35.9361 63.7313 36.6039 63.1019C37.2717 62.4725 37.6739 61.6117 37.7283 60.6957C37.7283 61.6469 38.1061 62.5592 38.7788 63.2318C39.4514 63.9044 40.3636 64.2823 41.3149 64.2823C42.2661 64.2823 43.1784 63.9044 43.851 63.2318C44.5236 62.5592 44.9015 61.6469 44.9015 60.6957V58.7129C44.9015 59.1839 44.9942 59.6503 45.1745 60.0855C45.3547 60.5206 45.6189 60.916 45.952 61.249C46.285 61.5821 46.6804 61.8463 47.1155 62.0265C47.5507 62.2068 48.0171 62.2995 48.4881 62.2995C48.9591 62.2995 49.4255 62.2068 49.8606 62.0265C50.2957 61.8463 50.6911 61.5821 51.0242 61.249C51.3572 60.916 51.6214 60.5206 51.8017 60.0855C51.9819 59.6503 52.0747 59.1839 52.0747 58.7129V57.1722C52.1872 58.0558 52.6245 58.866 53.3015 59.4449C53.9785 60.0238 54.8467 60.3301 55.737 60.3042C56.1682 60.3041 56.5958 60.2271 56.9999 60.0769L58.0229 67.6542Z" fill="#809EB0"/>
<path fill-rule="evenodd" clip-rule="evenodd" d="M18.2295 62.3879L18.5578 60.001C18.9596 60.161 19.3883 60.2424 19.8207 60.241C20.6829 60.2436 21.517 59.9344 22.1691 59.3704C22.8213 58.8064 23.2476 58.0257 23.3694 57.1722V58.7129C23.3694 59.6641 23.7473 60.5764 24.4199 61.249C25.0925 61.9216 26.0048 62.2995 26.956 62.2995C27.9073 62.2995 28.8195 61.9216 29.4921 61.249C30.1648 60.5764 30.5426 59.6641 30.5426 58.7129V60.7588C30.597 61.6749 30.9992 62.5356 31.667 63.165C32.3348 63.7944 33.2179 64.1449 34.1355 64.1449C35.0532 64.1449 35.9363 63.7944 36.6041 63.165C37.2719 62.5356 37.6741 61.6749 37.7285 60.7588C37.7285 61.71 38.1063 62.6223 38.779 63.2949C39.4516 63.9675 40.3638 64.3454 41.3151 64.3454C42.2663 64.3454 43.1785 63.9675 43.8512 63.2949C44.5238 62.6223 44.9017 61.71 44.9017 60.7588V58.7129C44.9017 59.6641 45.2795 60.5764 45.9521 61.249C46.6248 61.9216 47.537 62.2995 48.4883 62.2995C49.4395 62.2995 50.3517 61.9216 51.0244 61.249C51.697 60.5764 52.0749 59.6641 52.0749 58.7129V57.1722C52.1874 58.0558 52.6247 58.8659 53.3017 59.4449C53.9787 60.0238 54.8468 60.3301 55.7372 60.3041C56.1684 60.3041 56.596 60.2271 57.0001 60.0768L57.3158 62.4637C56.8076 62.712 56.2481 62.837 55.6825 62.8287C55.1169 62.8203 54.5613 62.6788 54.0607 62.4156C53.56 62.1523 53.1285 61.7748 52.801 61.3136C52.4735 60.8524 52.2594 60.3205 52.1759 59.7611V61.3018C52.1759 62.253 51.798 63.1653 51.1254 63.8379C50.4528 64.5105 49.5405 64.8884 48.5893 64.8884C47.6381 64.8884 46.7258 64.5105 46.0532 63.8379C45.3806 63.1653 45.0027 62.253 45.0027 61.3018V63.3477C45.0027 64.2989 44.6248 65.2112 43.9522 65.8838C43.2796 66.5564 42.3673 66.9343 41.4161 66.9343C40.4649 66.9343 39.5526 66.5564 38.88 65.8838C38.2074 65.2112 37.8295 64.2989 37.8295 63.3477C37.7752 64.2638 37.373 65.1245 36.7051 65.7539C36.0373 66.3833 35.1543 66.7338 34.2366 66.7338C33.3189 66.7338 32.4359 66.3833 31.768 65.7539C31.1002 65.1245 30.698 64.2638 30.6437 63.3477V61.2387C30.6437 62.1899 30.2658 63.1022 29.5932 63.7748C28.9206 64.4474 28.0083 64.8253 27.0571 64.8253C26.1058 64.8253 25.1936 64.4474 24.521 63.7748C23.8483 63.1022 23.4705 62.1899 23.4705 61.2387V59.698C23.3612 60.5761 22.9301 61.3825 22.2606 61.961C21.591 62.5396 20.7307 62.8492 19.846 62.8299C19.2853 62.829 18.7322 62.6994 18.2295 62.451V62.3879Z" fill="#738E9E"/>
<path fill-rule="evenodd" clip-rule="evenodd" d="M55.4593 34.2761C54.1964 30.6516 51.6706 28.3531 49.4984 28.5805C46.7201 28.8709 46.0381 33.3289 46.6064 38.6836C47.1747 44.0382 48.7533 48.231 51.5317 47.9405C54.31 47.65 56.5832 43.0279 56.1791 37.8374C56.0781 39.3908 55.5224 40.7168 54.4237 40.8052C53.0093 40.9315 52.6051 39.3024 52.4157 37.2439C52.2263 35.1854 52.2389 33.4552 53.6786 33.3542C54.0317 33.3273 54.3854 33.3994 54.6999 33.5622C55.0144 33.725 55.2773 33.9722 55.4593 34.2761Z" fill="#86A196"/>
<path fill-rule="evenodd" clip-rule="evenodd" d="M54.4743 33.4678C53.6787 31.9397 52.58 31.0052 51.456 31.1315C49.549 31.3209 49.0944 34.3771 49.4733 38.0395C49.8521 41.7019 50.9508 44.5812 52.8452 44.3539C54.247 44.2024 55.2825 42.4596 55.573 40.0854C55.4561 40.2858 55.2932 40.4556 55.0978 40.5807C54.9024 40.7059 54.68 40.7828 54.449 40.8052C53.0346 40.9315 52.6305 39.3024 52.441 37.2439C52.2516 35.1854 52.2642 33.4552 53.7039 33.3542C53.9656 33.3421 54.2272 33.3807 54.4743 33.4678Z" fill="white"/>
<path fill-rule="evenodd" clip-rule="evenodd" d="M19.8711 34.2761C21.134 30.6516 23.6597 28.3531 25.8319 28.5805C28.6102 28.8709 29.2922 33.3289 28.7239 38.6836C28.1556 44.0382 26.577 48.231 23.7986 47.9405C21.0203 47.65 18.7471 43.0279 19.1512 37.8374C19.2523 39.3908 19.7953 40.7168 20.9066 40.8052C22.3211 40.9315 22.7252 39.3024 22.902 37.2439C23.0788 35.1854 23.0914 33.4552 21.6391 33.3542C21.2844 33.3199 20.9272 33.3858 20.6079 33.5443C20.2887 33.7028 20.0203 33.9475 19.8332 34.2508L19.8711 34.2761Z" fill="#86A196"/>
<path fill-rule="evenodd" clip-rule="evenodd" d="M20.8436 33.4678C21.6392 31.9397 22.7505 31.0052 23.8745 31.1315C25.7688 31.3209 26.2361 34.3771 25.8446 38.0395C25.4531 41.7019 24.3797 44.5812 22.4727 44.3539C21.0709 44.2024 20.0353 42.4596 19.7449 40.0854C19.8646 40.2861 20.0299 40.4558 20.2273 40.5808C20.4248 40.7059 20.6488 40.7828 20.8815 40.8052C22.2833 40.9315 22.7 39.3024 22.8768 37.2439C23.0536 35.1854 23.0536 33.4552 21.6139 33.3542C21.3413 33.3313 21.0669 33.3613 20.8057 33.4426L20.8436 33.4678Z" fill="white"/>
<path fill-rule="evenodd" clip-rule="evenodd" d="M31.7424 42.1564C31.7236 41.8663 31.7236 41.5752 31.7424 41.285C31.7424 38.1657 33.2705 34.617 37.8926 34.617C42.5148 34.617 44.0429 38.1657 44.0429 41.285C44.0367 41.7109 43.9816 42.1346 43.8787 42.5479C42.8684 40.843 40.9741 39.7948 37.8168 39.7948C34.8238 39.8327 32.879 40.7041 31.7424 42.1564Z" fill="#F4F8FF"/>
<path fill-rule="evenodd" clip-rule="evenodd" d="M41.2391 17.5681L37.2231 17.366L42.1862 15.9011C42.2137 16.2419 42.1381 16.583 41.9692 16.8803C41.8003 17.1776 41.5459 17.4172 41.2391 17.5681ZM36.7937 16.2799L35.1267 17.5428C36.1633 16.0895 37.0119 14.511 37.6525 12.8449C38.0186 11.7609 38.1562 10.6128 38.0566 9.47296C38.5572 9.74998 38.9674 10.1652 39.2384 10.6691C39.5093 11.1729 39.6296 11.7441 39.5847 12.3145C39.5067 13.0428 39.1707 13.7192 38.6375 14.2214C37.9736 14.8618 37.3574 15.5498 36.7937 16.2799Z" fill="#86A196"/>
<path d="M103.938 46.4725C102.062 44.7225 101 42.2225 101 39.5975V39.285C101 34.91 104.125 31.16 108.438 30.4725C111.312 29.9725 114.188 30.91 116.25 32.91L117 33.66L117.75 32.91C119.75 30.91 122.688 29.9725 125.5 30.4725C129.812 31.16 133 34.91 133 39.285V39.5975C133 42.2225 131.875 44.7225 130 46.4725L118.688 57.035C118.25 57.4725 117.625 57.66 117 57.66C116.312 57.66 115.688 57.4725 115.25 57.035L103.938 46.4725Z" fill="#D63638"/>
<g clip-path="url(#clip0_1_1852)">
<path d="M242.629 36.7826H240.157C239.937 36.7826 239.717 36.7094 239.406 36.7094C238.435 36.4895 237.537 36.1049 236.639 35.6652C236.42 35.5187 236.2 35.4454 236.035 35.2989C235.962 35.2256 235.815 35.1523 235.742 35.079C235.595 35.0058 235.522 34.9325 235.376 34.786C235.009 34.4929 234.698 34.1815 234.331 33.8151L234.258 33.7418C234.038 33.522 233.892 33.3022 233.727 33.0641C233.507 32.771 233.361 32.4596 233.122 32.1665C232.903 31.7268 232.683 31.2689 232.445 30.7377C232.371 30.4446 232.225 30.1332 232.152 29.8401C232.078 29.6203 232.078 29.4004 232.005 29.2356C232.078 29.0158 232.005 28.7044 232.005 28.4113V28.1915C232.005 27.2939 232.078 26.4696 232.298 25.6452C232.664 24.3813 233.269 23.1723 233.947 22.0549C234.093 21.9084 234.24 21.7618 234.313 21.5237L235.65 20.0949C236.768 18.9775 236.841 17.109 235.797 15.9C234.46 14.2514 232.958 12.6761 231.309 11.2656L186.045 55.9983C185.294 56.676 184.103 56.2181 184.103 55.174C184.177 47.3155 184.323 33.9433 184.396 27.2023C184.396 26.0849 185.898 25.7002 186.485 26.6711L191.192 34.8959C191.559 35.5736 192.456 35.6469 192.988 35.1157L213.998 14.1049C213.998 14.1049 213.925 14.1049 213.925 14.0316C213.632 13.885 213.394 13.7385 213.101 13.592C212.954 13.4454 212.734 13.3721 212.57 13.2256C212.35 13.079 212.13 12.8592 211.892 12.6944C211.892 12.6944 211.843 12.6455 211.745 12.5478C211.067 11.8701 210.628 11.2106 210.17 10.4596C209.492 9.19562 209.052 7.84008 208.833 6.50286C208.759 6.28304 208.759 5.97164 208.686 5.75182V3.35215C208.686 1.63025 207.422 0.293036 205.774 0.128173C204.51 0.0549007 203.227 -0.0183716 201.963 -0.0183716C200.773 -0.0183716 199.49 0.0549007 198.3 0.128173C196.651 0.274718 195.387 1.63025 195.387 3.26056C195.387 4.23142 195.314 5.34882 195.094 6.48454C194.874 7.82176 194.416 9.1773 193.757 10.4412C193.391 11.1923 192.859 11.8701 192.182 12.4562C192.182 12.4562 192.133 12.5051 192.035 12.6028C191.815 12.8226 191.595 12.9691 191.357 13.134C191.211 13.2805 190.991 13.3538 190.826 13.5004C190.533 13.6469 190.295 13.7935 190.002 13.94C189.562 14.1598 189.031 14.3796 188.573 14.4712C188.207 14.6178 187.895 14.691 187.529 14.691C187.236 14.7643 186.998 14.7643 186.704 14.7643H185.202C185.056 14.7643 184.909 14.7643 184.763 14.691C184.616 14.691 184.47 14.6178 184.396 14.6178C184.177 14.5445 183.957 14.5445 183.719 14.4712C182.748 14.1781 181.85 13.7935 181.026 13.3538C180.586 13.134 180.202 12.8226 179.835 12.5295C179.689 12.383 179.542 12.3097 179.396 12.1631L177.893 10.5878C176.776 9.39712 174.834 9.25057 173.552 10.2947C171.537 12.0166 169.669 13.885 168.02 15.9C166.976 17.164 167.122 18.9591 168.167 20.0949L169.504 21.5237C169.65 21.6702 169.797 21.8168 169.87 22.0549C170.548 23.099 171.207 24.3813 171.519 25.6452C171.739 26.4696 171.812 27.2939 171.812 28.1915V28.4113C171.812 28.7044 171.739 28.9425 171.739 29.2356C171.739 29.4554 171.665 29.6752 171.592 29.8401C171.519 30.1332 171.445 30.4446 171.299 30.7377C171.152 31.2689 170.933 31.7085 170.621 32.1665C170.475 32.4596 170.255 32.771 170.017 33.0641C169.87 33.2839 169.65 33.5037 169.485 33.7418L169.412 33.8151C169.119 34.1815 168.734 34.4929 168.368 34.786C168.221 34.8592 168.148 35.0058 168.002 35.079C167.928 35.1523 167.782 35.2256 167.709 35.2989C167.489 35.4454 167.269 35.5187 167.104 35.6652C166.207 36.1049 165.309 36.4895 164.338 36.7094C164.118 36.7094 163.898 36.7826 163.587 36.7826H161.114C159.539 36.7826 158.128 37.9733 157.982 39.6219C158.055 41.0507 157.982 42.5345 157.982 43.9633C157.982 45.154 158.055 46.363 158.128 47.5536C158.275 49.2023 159.557 50.4662 161.187 50.4662L163.422 50.5395C163.642 50.5395 163.862 50.5395 164.1 50.6128C164.998 50.8326 165.822 51.144 166.646 51.5104C167.397 51.8767 168.075 52.4079 168.734 53.0124C168.734 53.0124 168.783 53.0613 168.881 53.159C169.101 53.3788 169.247 53.5986 169.412 53.7635C169.559 53.91 169.705 54.0566 169.779 54.2947C169.925 54.5878 170.145 54.8259 170.31 55.119C170.53 55.5586 170.749 56.0166 170.914 56.5478C171.061 56.9142 171.134 57.2256 171.207 57.592C171.281 57.885 171.281 58.1232 171.354 58.4163V58.4895C171.427 58.9292 171.427 59.4604 171.354 59.9183V60.358C171.354 60.5045 171.354 60.6511 171.281 60.7243C171.207 60.9442 171.207 61.164 171.134 61.4021C170.914 62.373 170.53 63.2706 170.09 64.0949C169.943 64.388 169.797 64.6994 169.559 64.9192C169.412 65.0657 169.339 65.2855 169.119 65.4504L167.69 67.0258C166.573 68.1432 166.426 69.9383 167.397 71.2206C168.973 73.2356 170.768 75.104 172.636 76.7526L218.688 31.5253C219.439 30.8476 220.629 31.3055 220.629 32.3497C220.556 40.2081 220.41 53.5803 220.336 60.3213C220.336 61.4387 218.834 61.8234 218.248 60.8526L213.54 52.6278C213.174 51.95 212.276 51.8767 211.745 52.4079L189.837 74.3163C189.837 74.3163 189.91 74.3163 189.91 74.3896C190.13 74.5362 190.35 74.6827 190.588 74.9208L190.661 74.9941C191.027 75.2872 191.339 75.5986 191.632 75.965C191.705 76.1115 191.852 76.1848 191.925 76.3313C191.998 76.4046 192.072 76.5512 192.145 76.6244C192.291 76.8442 192.365 76.9908 192.511 77.2289C193.042 78.0532 193.409 78.9508 193.629 79.9217C194.068 81.5703 194.233 83.2189 194.233 84.6294C194.233 86.278 195.497 87.6153 197.072 87.7618C198.648 87.9083 200.296 88.0549 201.927 88.0549C203.557 88.0549 205.151 87.9816 206.781 87.7618C208.356 87.6153 209.62 86.2597 209.62 84.6294C209.62 83.2006 209.767 81.497 210.225 79.9217C210.445 79.0241 210.829 78.1265 211.342 77.2289C211.489 77.0091 211.562 76.8626 211.709 76.6244C211.782 76.5512 211.855 76.4046 211.928 76.3313C212.002 76.1848 212.148 76.1115 212.221 75.965C212.515 75.5986 212.826 75.2872 213.192 74.9941L213.266 74.9208C213.485 74.7743 213.705 74.5545 213.943 74.3896C214.236 74.1698 214.548 74.0233 214.914 73.8584C215.354 73.6386 215.812 73.4188 216.343 73.2539C216.636 73.1806 216.948 73.1074 217.241 73.0341C217.46 72.9608 217.68 72.9608 217.918 72.9608C218.211 72.9608 218.45 72.8875 218.743 72.8875H218.963C219.86 72.8875 220.684 73.0341 221.509 73.2539C222.626 73.6203 223.67 74.1515 224.641 74.8292C224.788 74.9758 225.007 75.1223 225.172 75.2689L226.748 76.9175C227.938 78.1082 229.807 78.1815 231.089 77.1373C233.104 75.3422 234.899 73.4737 236.548 71.3855C237.519 70.1215 237.372 68.3263 236.255 67.1906L234.826 65.7618C234.679 65.6153 234.533 65.4687 234.386 65.2306C234.24 64.9375 234.02 64.6994 233.855 64.4063C233.415 63.582 233.031 62.6844 232.811 61.7135C232.738 61.4937 232.664 61.2739 232.664 61.0357C232.664 60.8892 232.591 60.7427 232.591 60.6694V58.7277C232.591 58.4346 232.664 58.1964 232.738 57.9034C232.811 57.537 232.884 57.2256 233.031 56.8592C233.177 56.4196 233.397 55.8884 233.635 55.4304C233.782 55.1373 233.928 54.8992 234.167 54.6061C234.313 54.4596 234.386 54.2397 234.533 54.0749C234.679 53.8551 234.899 53.6353 235.064 53.4704C235.064 53.4704 235.113 53.4215 235.211 53.3238C235.815 52.7193 236.548 52.2064 237.299 51.8218C238.123 51.3821 238.948 51.0707 239.845 50.9242C240.065 50.8509 240.285 50.8509 240.523 50.8509L242.758 50.7776C244.406 50.7044 245.67 49.4404 245.817 47.8651C245.89 46.6744 245.963 45.4654 245.963 44.2747C245.963 42.7726 245.89 41.3621 245.744 39.9333C245.524 38.0649 244.168 36.8742 242.611 36.8009L242.629 36.7826Z" fill="#FE4715"/>
</g>
<defs>
<clipPath id="clip0_1_1852">
<rect width="88" height="88" fill="white" transform="translate(158)"/>
</clipPath>
</defs>
</svg>
