<svg width="256" height="256" viewBox="0 0 256 256" fill="none" xmlns="http://www.w3.org/2000/svg">
<path d="M155.389 26.5151C160.077 25.1197 165.062 25.1197 169.749 26.5151C188.868 32.2066 212.116 39.3939 229.621 45.0774C237.998 47.7974 242.816 57.8341 242.816 69.3301C242.816 135.762 230.134 194.654 166.462 229.539C164.05 230.861 161.089 230.861 158.676 229.539C95.0036 194.654 82.3203 135.762 82.3203 69.3301C82.3204 57.834 87.1401 47.7973 95.5175 45.0774C113.023 39.3939 136.271 32.2066 155.389 26.5151Z" fill="url(#paint0_linear_370_4049)"/>
<path d="M92.9722 188.675C95.9556 194.157 94.1282 200.456 89.3854 203.099C84.6426 205.742 78.6419 204.357 75.65 199.266C54.911 163.27 46.1818 120.381 46.8958 79.0302C47.5503 66.8248 65.612 66.7568 66.1814 79.1322C66.4874 118.409 73.3551 154.43 92.9807 188.684L92.9722 188.675Z" fill="url(#paint1_linear_370_4049)"/>
<path d="M28.802 182.19C18.849 154.881 12.6952 131.668 13.2052 103.127C13.2477 100.908 13.9617 98.7155 15.4151 97.041C20.8889 90.7258 33.0943 93.9982 33.0943 104.266C34.1398 129.161 38.4066 152.025 47.5266 175.237C51.496 186.627 33.6298 194.149 28.802 182.19Z" fill="url(#paint2_linear_370_4049)"/>
<path d="M151.139 160.637C148.246 160.637 145.498 159.376 143.615 157.186L120.044 131.506C116.467 127.353 116.935 121.081 121.098 117.504C125.252 113.927 131.523 114.405 135.1 118.559L151.148 135.48L193.659 89.0496C197.236 84.8958 203.498 84.4183 207.661 87.9954C211.815 91.5725 212.292 97.8347 208.715 101.998L158.68 157.186C156.797 159.376 154.049 160.646 151.157 160.646L151.139 160.637Z" fill="white"/>
<defs>
<linearGradient id="paint0_linear_370_4049" x1="162.568" y1="24.3912" x2="162.568" y2="231.609" gradientUnits="userSpaceOnUse">
<stop offset="0.480769" stop-color="#10B981"/>
<stop offset="1" stop-color="#008A5C"/>
</linearGradient>
<linearGradient id="paint1_linear_370_4049" x1="70.6388" y1="69.8634" x2="70.6388" y2="204.411" gradientUnits="userSpaceOnUse">
<stop offset="0.480769" stop-color="#10B981"/>
<stop offset="1" stop-color="#008A5C"/>
</linearGradient>
<linearGradient id="paint2_linear_370_4049" x1="30.6366" y1="93.8218" x2="30.6366" y2="188.26" gradientUnits="userSpaceOnUse">
<stop offset="0.480769" stop-color="#10B981"/>
<stop offset="1" stop-color="#008A5C"/>
</linearGradient>
</defs>
</svg>
