<svg width="12" height="16" viewBox="0 0 12 16" fill="none" xmlns="http://www.w3.org/2000/svg">
	<path fill-rule="evenodd" clip-rule="evenodd" d="M4.44835 4.76484C4.44835 4.07912 5.01099 3.81538 5.94286 3.81538C7.27912 3.81538 8.96703 4.21978 10.3033 4.94066V0.808791C8.84396 0.228571 7.4022 0 5.94286 0C2.37363 0 0 1.86374 0 4.97582C0 9.82857 6.68132 9.05495 6.68132 11.1473C6.68132 11.956 5.97802 12.2198 4.99341 12.2198C3.53407 12.2198 1.67033 11.622 0.193407 10.8132V14.9978C1.82857 15.7011 3.48132 16 4.99341 16C8.65055 16 11.1648 14.189 11.1648 11.0418C11.1473 5.8022 4.44835 6.73407 4.44835 4.76484Z" fill="white"/>
</svg>
