<svg width="97" height="40" viewBox="0 0 97 40" fill="none" xmlns="http://www.w3.org/2000/svg">
	<path fill-rule="evenodd" clip-rule="evenodd" d="M96.1282 20.6676C96.1282 13.8318 92.8171 8.43792 86.4886 8.43792C80.1335 8.43792 76.2884 13.8318 76.2884 20.6142C76.2884 28.6515 80.8278 32.7103 87.3431 32.7103C90.5207 32.7103 92.9239 31.9893 94.7396 30.9746V25.6342C92.9239 26.5421 90.8411 27.1028 88.1976 27.1028C85.6075 27.1028 83.3111 26.1949 83.0174 23.0441H96.0748C96.0748 22.6969 96.1282 21.3084 96.1282 20.6676ZM82.9372 18.1308C82.9372 15.1135 84.7797 13.8585 86.4619 13.8585C88.0908 13.8585 89.8264 15.1135 89.8264 18.1308H82.9372ZM65.9813 8.43792C63.3645 8.43792 61.6822 9.66622 60.7477 10.5207L60.4005 8.86515H54.526V40L61.2016 38.5848L61.2283 31.028C62.1896 31.7223 63.6048 32.7103 65.9546 32.7103C70.7343 32.7103 75.0868 28.8652 75.0868 20.4005C75.0601 12.6569 70.6542 8.43792 65.9813 8.43792ZM64.3792 26.8358C62.8037 26.8358 61.8692 26.275 61.2283 25.5808L61.2016 15.6742C61.8959 14.8999 62.8571 14.3658 64.3792 14.3658C66.8091 14.3658 68.4913 17.0895 68.4913 20.5875C68.4913 24.1656 66.8358 26.8358 64.3792 26.8358ZM45.3405 6.86248L52.0427 5.42056V0L45.3405 1.41522V6.86248ZM45.3405 8.89186H52.0427V32.2563H45.3405V8.89186ZM38.1575 10.8678L37.7303 8.89186H31.9626V32.2563H38.6382V16.4219C40.2136 14.3658 42.8838 14.7397 43.7116 15.0334V8.89186C42.8571 8.57143 39.733 7.98398 38.1575 10.8678ZM24.8064 3.09746L18.2911 4.48598L18.2644 25.8745C18.2644 29.8264 21.2283 32.737 25.1802 32.737C27.3698 32.737 28.972 32.3364 29.8531 31.8558V26.4352C28.9987 26.7824 24.7797 28.0107 24.7797 24.0587V14.5794H29.8531V8.89186H24.7797L24.8064 3.09746ZM6.75568 15.6742C6.75568 14.6328 7.61015 14.2323 9.02537 14.2323C11.0547 14.2323 13.6182 14.8465 15.6475 15.9413V9.66622C13.4312 8.78505 11.2417 8.43792 9.02537 8.43792C3.60481 8.43792 0 11.2684 0 15.9947C0 23.3645 10.1469 22.1896 10.1469 25.3672C10.1469 26.5955 9.07877 26.996 7.58345 26.996C5.36716 26.996 2.53672 26.0881 0.293725 24.8598V31.215C2.77704 32.283 5.28705 32.737 7.58345 32.737C13.1375 32.737 16.9559 29.9866 16.9559 25.2069C16.9292 17.2497 6.75568 18.6649 6.75568 15.6742Z" fill="#061A31"/>
</svg>
