<svg width="230" height="76" viewBox="0 0 230 76" fill="none" xmlns="http://www.w3.org/2000/svg">
<path fill-rule="evenodd" clip-rule="evenodd" d="M28.7869 10.2799C26.2947 11.5744 24.1117 13.3923 22.3875 15.6091C20.6633 17.8259 19.4387 20.3892 18.7975 23.1234C14.0936 27.021 10.7065 32.2746 9.09801 38.1678C7.48953 44.061 7.73799 50.3069 9.80951 56.0537C11.881 61.8005 15.6748 66.7685 20.6733 70.2801C25.6719 73.7917 31.632 75.676 37.7408 75.676C43.8495 75.676 49.8096 73.7917 54.8082 70.2801C59.8068 66.7685 63.6005 61.8005 65.672 56.0537C67.7435 50.3069 67.992 44.061 66.3835 38.1678C64.775 32.2746 61.3879 27.021 56.6841 23.1234C55.9659 20.0562 54.5139 17.2091 52.4527 14.8268C50.3916 12.4445 47.7829 10.5981 44.8508 9.44635C44.7497 8.69935 44.4537 7.99214 43.9926 7.3958C43.5315 6.79947 42.9215 6.33503 42.224 6.04919C42.1612 4.73348 41.656 3.47751 40.7903 2.48477C39.9245 1.49204 38.749 0.820711 37.454 0.579553C36.1591 0.338395 34.8206 0.541539 33.6556 1.15607C32.4905 1.7706 31.567 2.76052 31.0348 3.96543C30.0582 5.98228 29.3045 8.0996 28.7869 10.2799Z" fill="#395360"/>
<path d="M30.4795 32.8351H45.6341V50.5155H30.4795V32.8351Z" fill="#FBAA6F"/>
<path fill-rule="evenodd" clip-rule="evenodd" d="M40.4183 41.9026L40.2668 41.8015C39.8816 41.5219 39.6233 41.1006 39.5487 40.6305C39.4741 40.1604 39.5893 39.6799 39.869 39.2947C40.1487 38.9095 40.5699 38.6512 41.04 38.5766C41.5101 38.502 41.9906 38.6172 42.3758 38.8969C42.0634 38.955 41.7659 39.0755 41.5012 39.2513C41.2364 39.4271 41.0099 39.6544 40.8351 39.9198C40.6213 40.1979 40.4728 40.5204 40.4006 40.8637C40.3285 41.2069 40.3345 41.562 40.4183 41.9026ZM34.7606 41.9026C34.8328 41.5623 34.8259 41.2101 34.7405 40.8729C34.6551 40.5357 34.4935 40.2226 34.2681 39.9577C34.0897 39.6929 33.8606 39.4661 33.594 39.2905C33.3273 39.1149 33.0285 38.994 32.7147 38.9348C33.0999 38.6551 33.5804 38.5399 34.0505 38.6145C34.5207 38.6891 34.9419 38.9474 35.2216 39.3326C35.5012 39.7178 35.6164 40.1983 35.5418 40.6684C35.4672 41.1385 35.2089 41.5598 34.8238 41.8394C34.804 41.8618 34.7829 41.8829 34.7606 41.9026ZM43.8786 37.8866H44.548L43.1967 43.9737L40.4941 52.0941H35.0763L31.0225 45.325L32.3737 41.2711C33.725 43.0771 34.6343 44.201 35.0763 44.6557C35.7583 45.325 38.4609 45.325 39.8122 43.9737C41.3889 42.1015 42.7527 40.06 43.8786 37.8866Z" fill="#DC7F3C"/>
<path fill-rule="evenodd" clip-rule="evenodd" d="M20.048 36.6237H26.6908V25.2577H21.5635C21.9539 22.5264 23.0263 19.9374 24.6818 17.7302C26.3373 15.5229 28.5223 13.7684 31.0351 12.6288C31.9949 8.41922 33.1357 5.57772 34.4575 4.10435L34.6849 3.88966L34.8238 3.76337C35.2177 3.44792 35.6884 3.24305 36.1877 3.16982C36.7754 3.07695 37.3775 3.16523 37.9138 3.42292C38.4502 3.68061 38.8953 4.09548 39.1901 4.61236C39.4848 5.12923 39.6153 5.7236 39.564 6.31641C39.5127 6.90921 39.2821 7.47235 38.9029 7.9309H38.8271C38.717 8.06861 38.5896 8.19169 38.4483 8.29714C37.8523 8.91965 37.2996 9.5821 36.7939 10.2799C37.801 9.23104 39.1392 8.56193 40.5825 8.38554C40.8728 8.38346 41.159 8.45286 41.416 8.5876C41.7978 8.80527 42.079 9.16385 42.1994 9.58645C42.3198 10.009 42.2698 10.462 42.0601 10.8482C41.8913 11.1601 41.6252 11.4084 41.3024 11.5554C44.6077 12.2701 47.6117 13.9881 49.9038 16.4746C52.1959 18.961 53.6642 22.0947 54.1081 25.4471L54.2596 26.5458H49.4228V36.6489H55.5225L57.7831 53.6095C52.4537 56.9183 45.7814 58.5727 37.7663 58.5727C29.7512 58.5727 23.1126 56.9141 17.8506 53.5969L20.048 36.6237ZM39.1555 48.4822C42.4137 43.1023 44.0429 39.8988 44.0429 38.8716C44.0429 36.0554 39.9385 33.7443 37.8926 33.7443C35.8467 33.7443 31.7423 36.0428 31.7423 38.8716C31.7423 39.8988 33.3462 43.1065 36.5539 48.4948C36.6976 48.7186 36.8959 48.9021 37.1301 49.028C37.3643 49.154 37.6267 49.2182 37.8926 49.2147C38.1483 49.2272 38.4023 49.1675 38.6256 49.0424C38.8489 48.9173 39.0325 48.732 39.1555 48.5075V48.4822Z" fill="#BDCFC8"/>
<path fill-rule="evenodd" clip-rule="evenodd" d="M58.0231 61.6542C55.6727 64.8128 52.6163 67.3781 49.0981 69.1455C45.5799 70.9129 41.6973 71.8333 37.7601 71.8333C33.8229 71.8333 29.9402 70.9129 26.422 69.1455C22.9038 67.3781 19.8475 64.8128 17.4971 61.6542L18.5579 53.9379C18.9597 54.0979 19.3884 54.1793 19.8208 54.1779C20.683 54.1804 21.517 53.8712 22.1692 53.3073C22.8213 52.7433 23.2476 51.9626 23.3695 51.1091V52.6498C23.3695 53.601 23.7474 54.5133 24.42 55.1859C25.0926 55.8585 26.0049 56.2364 26.9561 56.2364C27.9073 56.2364 28.8196 55.8585 29.4922 55.1859C30.1648 54.5133 30.5427 53.601 30.5427 52.6498V54.6957C30.597 55.6117 30.9992 56.4725 31.6671 57.1019C32.3349 57.7313 33.2179 58.0818 34.1356 58.0818C35.0533 58.0818 35.9363 57.7313 36.6042 57.1019C37.272 56.4725 37.6742 55.6117 37.7285 54.6957C37.7285 55.6469 38.1064 56.5592 38.779 57.2318C39.4516 57.9044 40.3639 58.2823 41.3151 58.2823C42.2663 58.2823 43.1786 57.9044 43.8512 57.2318C44.5238 56.5592 44.9017 55.6469 44.9017 54.6957V52.7129C44.9017 53.1839 44.9945 53.6503 45.1747 54.0855C45.355 54.5206 45.6192 54.916 45.9522 55.249C46.2853 55.5821 46.6806 55.8463 47.1158 56.0265C47.5509 56.2068 48.0173 56.2995 48.4883 56.2995C48.9593 56.2995 49.4257 56.2068 49.8608 56.0265C50.296 55.8463 50.6914 55.5821 51.0244 55.249C51.3575 54.916 51.6217 54.5206 51.8019 54.0855C51.9821 53.6503 52.0749 53.1839 52.0749 52.7129V51.1722C52.1874 52.0558 52.6248 52.866 53.3017 53.4449C53.9787 54.0238 54.8469 54.3301 55.7373 54.3042C56.1684 54.3041 56.5961 54.2271 57.0002 54.0769L58.0231 61.6542Z" fill="#809EB0"/>
<path fill-rule="evenodd" clip-rule="evenodd" d="M18.2295 56.3879L18.5578 54.001C18.9596 54.161 19.3883 54.2424 19.8207 54.241C20.6829 54.2436 21.517 53.9344 22.1691 53.3704C22.8213 52.8064 23.2476 52.0257 23.3694 51.1722V52.7129C23.3694 53.6641 23.7473 54.5764 24.4199 55.249C25.0925 55.9216 26.0048 56.2995 26.956 56.2995C27.9073 56.2995 28.8195 55.9216 29.4921 55.249C30.1648 54.5764 30.5426 53.6641 30.5426 52.7129V54.7588C30.597 55.6749 30.9992 56.5356 31.667 57.165C32.3348 57.7944 33.2179 58.1449 34.1355 58.1449C35.0532 58.1449 35.9363 57.7944 36.6041 57.165C37.2719 56.5356 37.6741 55.6749 37.7285 54.7588C37.7285 55.71 38.1063 56.6223 38.779 57.2949C39.4516 57.9675 40.3638 58.3454 41.3151 58.3454C42.2663 58.3454 43.1785 57.9675 43.8512 57.2949C44.5238 56.6223 44.9017 55.71 44.9017 54.7588V52.7129C44.9017 53.6641 45.2795 54.5764 45.9521 55.249C46.6248 55.9216 47.537 56.2995 48.4883 56.2995C49.4395 56.2995 50.3517 55.9216 51.0244 55.249C51.697 54.5764 52.0749 53.6641 52.0749 52.7129V51.1722C52.1874 52.0558 52.6247 52.8659 53.3017 53.4449C53.9787 54.0238 54.8468 54.3301 55.7372 54.3041C56.1684 54.3041 56.596 54.2271 57.0001 54.0768L57.3158 56.4637C56.8076 56.712 56.2481 56.837 55.6825 56.8287C55.1169 56.8203 54.5613 56.6788 54.0607 56.4156C53.56 56.1523 53.1285 55.7748 52.801 55.3136C52.4735 54.8524 52.2594 54.3205 52.1759 53.7611V55.3018C52.1759 56.253 51.798 57.1653 51.1254 57.8379C50.4528 58.5105 49.5405 58.8884 48.5893 58.8884C47.6381 58.8884 46.7258 58.5105 46.0532 57.8379C45.3806 57.1653 45.0027 56.253 45.0027 55.3018V57.3477C45.0027 58.2989 44.6248 59.2112 43.9522 59.8838C43.2796 60.5564 42.3673 60.9343 41.4161 60.9343C40.4649 60.9343 39.5526 60.5564 38.88 59.8838C38.2074 59.2112 37.8295 58.2989 37.8295 57.3477C37.7752 58.2638 37.373 59.1245 36.7051 59.7539C36.0373 60.3833 35.1543 60.7338 34.2366 60.7338C33.3189 60.7338 32.4359 60.3833 31.768 59.7539C31.1002 59.1245 30.698 58.2638 30.6437 57.3477V55.2387C30.6437 56.1899 30.2658 57.1022 29.5932 57.7748C28.9206 58.4474 28.0083 58.8253 27.0571 58.8253C26.1058 58.8253 25.1936 58.4474 24.521 57.7748C23.8483 57.1022 23.4705 56.1899 23.4705 55.2387V53.698C23.3612 54.5761 22.9301 55.3825 22.2606 55.961C21.591 56.5396 20.7307 56.8492 19.846 56.8299C19.2853 56.829 18.7322 56.6994 18.2295 56.451V56.3879Z" fill="#738E9E"/>
<path fill-rule="evenodd" clip-rule="evenodd" d="M55.4595 28.2761C54.1966 24.6516 51.6709 22.3531 49.4987 22.5805C46.7203 22.8709 46.0384 27.3289 46.6067 32.6836C47.175 38.0382 48.7536 42.231 51.5319 41.9405C54.3103 41.65 56.5835 37.0279 56.1794 31.8374C56.0783 33.3908 55.5227 34.7168 54.4239 34.8052C53.0095 34.9315 52.6054 33.3024 52.416 31.2439C52.2265 29.1854 52.2392 27.4552 53.6788 27.3542C54.032 27.3273 54.3856 27.3994 54.7001 27.5622C55.0146 27.725 55.2776 27.9722 55.4595 28.2761Z" fill="#86A196"/>
<path fill-rule="evenodd" clip-rule="evenodd" d="M54.4743 27.4678C53.6787 25.9397 52.58 25.0052 51.456 25.1315C49.549 25.3209 49.0944 28.3771 49.4733 32.0395C49.8521 35.7019 50.9508 38.5812 52.8452 38.3539C54.247 38.2024 55.2825 36.4596 55.573 34.0854C55.4561 34.2858 55.2932 34.4556 55.0978 34.5807C54.9024 34.7059 54.68 34.7828 54.449 34.8052C53.0346 34.9315 52.6305 33.3024 52.441 31.2439C52.2516 29.1854 52.2642 27.4552 53.7039 27.3542C53.9656 27.3421 54.2272 27.3807 54.4743 27.4678Z" fill="white"/>
<path fill-rule="evenodd" clip-rule="evenodd" d="M19.8711 28.2761C21.134 24.6516 23.6597 22.3531 25.8319 22.5805C28.6102 22.8709 29.2922 27.3289 28.7239 32.6836C28.1556 38.0382 26.577 42.231 23.7986 41.9405C21.0203 41.65 18.7471 37.0279 19.1512 31.8374C19.2523 33.3908 19.7953 34.7168 20.9066 34.8052C22.3211 34.9315 22.7252 33.3024 22.902 31.2439C23.0788 29.1854 23.0914 27.4552 21.6391 27.3542C21.2844 27.3199 20.9272 27.3858 20.6079 27.5443C20.2887 27.7028 20.0203 27.9475 19.8332 28.2508L19.8711 28.2761Z" fill="#86A196"/>
<path fill-rule="evenodd" clip-rule="evenodd" d="M20.8433 27.4678C21.639 25.9397 22.7503 25.0052 23.8743 25.1315C25.7686 25.3209 26.2359 28.3771 25.8444 32.0395C25.4529 35.7019 24.3794 38.5812 22.4725 38.3539C21.0707 38.2024 20.0351 36.4596 19.7446 34.0854C19.8644 34.2861 20.0296 34.4558 20.2271 34.5808C20.4245 34.7059 20.6486 34.7828 20.8812 34.8052C22.283 34.9315 22.6998 33.3024 22.8766 31.2439C23.0534 29.1854 23.0534 27.4552 21.6137 27.3542C21.3411 27.3313 21.0667 27.3613 20.8055 27.4426L20.8433 27.4678Z" fill="white"/>
<path fill-rule="evenodd" clip-rule="evenodd" d="M31.7421 36.1564C31.7233 35.8663 31.7233 35.5752 31.7421 35.285C31.7421 32.1657 33.2702 28.617 37.8924 28.617C42.5145 28.617 44.0426 32.1657 44.0426 35.285C44.0365 35.7109 43.9814 36.1346 43.8785 36.5479C42.8681 34.843 40.9738 33.7948 37.8166 33.7948C34.8236 33.8327 32.8787 34.7041 31.7421 36.1564Z" fill="#F4F8FF"/>
<path fill-rule="evenodd" clip-rule="evenodd" d="M41.2393 11.5681L37.2233 11.366L42.1865 9.90105C42.214 10.2419 42.1383 10.583 41.9694 10.8803C41.8005 11.1776 41.5462 11.4172 41.2393 11.5681ZM36.794 10.2799L35.127 11.5428C36.1635 10.0895 37.0122 8.51103 37.6527 6.84487C38.0188 5.76086 38.1564 4.61278 38.0568 3.47296C38.5574 3.74998 38.9677 4.1652 39.2386 4.66906C39.5096 5.17292 39.6298 5.74412 39.5849 6.31446C39.5069 7.04278 39.171 7.71917 38.6378 8.22142C37.9739 8.86178 37.3576 9.54978 36.794 10.2799Z" fill="#86A196"/>
<path d="M103.938 40.4725C102.062 38.7225 101 36.2225 101 33.5975V33.285C101 28.91 104.125 25.16 108.438 24.4725C111.312 23.9725 114.188 24.91 116.25 26.91L117 27.66L117.75 26.91C119.75 24.91 122.688 23.9725 125.5 24.4725C129.812 25.16 133 28.91 133 33.285V33.5975C133 36.2225 131.875 38.7225 130 40.4725L118.688 51.035C118.25 51.4725 117.625 51.66 117 51.66C116.312 51.66 115.688 51.4725 115.25 51.035L103.938 40.4725Z" fill="#D63638"/>
<mask id="mask0_1_2101" style="mask-type:luminance" maskUnits="userSpaceOnUse" x="158" y="0" width="65" height="76">
<path d="M222.295 0H158V76H222.295V0Z" fill="white"/>
</mask>
<g mask="url(#mask0_1_2101)">
<path d="M222.146 42.9091L222.284 18.7243C222.305 15.4693 220.386 12.5217 217.407 11.207L193.477 0.689174C192.416 0.222656 191.282 0 190.147 0C189.013 0 187.879 0.222656 186.818 0.689174L162.877 11.207C159.898 12.5217 157.979 15.4799 158 18.7243L158.149 42.9091C158.149 43.0893 158.149 43.259 158.127 43.4392C157.968 45.6763 157.682 63.457 187.083 75.4062C188.059 75.8091 189.108 76 190.147 75.9893C191.187 75.9893 192.226 75.7985 193.212 75.4062C222.613 63.457 222.327 45.6763 222.168 43.4392C222.157 43.259 222.146 43.0893 222.146 42.9091Z" fill="url(#paint0_linear_1_2101)"/>
<path d="M211.301 16.826L213.588 17.6685C214.138 17.8748 214.138 18.6486 213.588 18.855L211.301 19.6974C211.129 19.7662 210.991 19.9037 210.922 20.0757L210.08 22.3626C209.874 22.9127 209.1 22.9127 208.893 22.3626L208.051 20.0757C207.982 19.9037 207.845 19.7662 207.673 19.6974L205.386 18.855C204.836 18.6486 204.836 17.8748 205.386 17.6685L207.673 16.826C207.845 16.7572 207.982 16.6196 208.051 16.4477L208.893 14.1609C209.1 13.6106 209.874 13.6106 210.08 14.1609L210.922 16.4477C210.991 16.6196 211.129 16.7572 211.301 16.826Z" fill="white"/>
<mask id="mask1_1_2101" style="mask-type:luminance" maskUnits="userSpaceOnUse" x="168" y="54" width="6" height="6">
<path d="M173.581 54.1428H168.505V59.2187H173.581V54.1428Z" fill="white"/>
</mask>
<g mask="url(#mask1_1_2101)">
<path d="M172.063 55.8735L173.349 56.3472C173.658 56.4633 173.658 56.8983 173.349 57.0144L172.063 57.4881C171.966 57.5267 171.889 57.6042 171.85 57.7008L171.376 58.9866C171.26 59.2961 170.825 59.2961 170.709 58.9866L170.236 57.7008C170.197 57.6042 170.119 57.5267 170.023 57.4881L168.737 57.0144C168.428 56.8983 168.428 56.4633 168.737 56.3472L170.023 55.8735C170.119 55.8348 170.197 55.7574 170.236 55.6607L170.709 54.3748C170.825 54.0655 171.26 54.0655 171.376 54.3748L171.85 55.6607C171.889 55.7574 171.966 55.8348 172.063 55.8735Z" fill="white"/>
</g>
<mask id="mask2_1_2101" style="mask-type:luminance" maskUnits="userSpaceOnUse" x="171" y="19" width="38" height="38">
<path d="M208.827 19.1756H171.536V56.4665H208.827V19.1756Z" fill="white"/>
</mask>
<g mask="url(#mask2_1_2101)">
<path d="M199.869 33.4698C203.58 37.8506 205.992 42.3003 206.868 46.0904C208.108 43.5997 208.817 40.794 208.817 37.821C208.817 33.3812 207.262 29.3155 204.673 26.1061L199.987 30.8117C199.268 31.5304 199.219 32.6823 199.878 33.46L199.869 33.4698Z" fill="white"/>
<path d="M188.704 28.4689C183.192 24.6097 178.584 23.7533 177.098 25.2005L177.058 25.2399C175.365 26.9922 176.734 33.0367 182.325 39.8884C183.064 40.7842 184.422 40.8434 185.239 40.0263L189.305 35.9408C191.441 33.7947 191.175 30.2113 188.695 28.4689H188.704Z" fill="white"/>
<path d="M182.395 48.4629L178.516 52.3515C181.706 54.9209 185.762 56.4567 190.172 56.4567C192.456 56.4567 194.641 56.0235 196.669 55.2655C193.115 54.212 189.05 51.8494 185.063 48.3546C184.285 47.6754 183.114 47.7246 182.385 48.4531L182.395 48.4629Z" fill="white"/>
<path d="M179.786 42.9697C176.222 38.7366 173.859 34.4542 172.934 30.7527C172.038 32.9283 171.536 35.3107 171.536 37.8111C171.536 42.2707 173.111 46.366 175.72 49.5753L179.668 45.6178C180.386 44.8992 180.436 43.7473 179.786 42.9697Z" fill="white"/>
<path d="M194.405 36.4132L187.967 42.8811C187.16 43.6883 187.209 45.0272 188.075 45.7654C194.838 51.5442 200.873 53.0209 202.625 51.3177L202.665 51.2784C204.368 49.5163 202.98 43.4324 197.329 36.5412C196.591 35.6454 195.232 35.5863 194.415 36.4132H194.405Z" fill="white"/>
<path d="M197.25 27.9766L201.887 23.3201C198.688 20.731 194.622 19.1756 190.182 19.1756C187.307 19.1756 184.59 19.845 182.159 21.0066C185.9 21.8927 190.271 24.3341 194.573 28.075C195.35 28.7543 196.522 28.705 197.25 27.9766Z" fill="white"/>
</g>
</g>
<defs>
<linearGradient id="paint0_linear_1_2101" x1="167.61" y1="1.06592e-06" x2="212.548" y2="76.0642" gradientUnits="userSpaceOnUse">
<stop offset="0.159115" stop-color="#9718E7"/>
<stop offset="1" stop-color="#5A2ED4"/>
</linearGradient>
</defs>
</svg>
