<svg width="360" height="206" viewBox="0 0 360 206" fill="none" xmlns="http://www.w3.org/2000/svg">
<rect width="359.333" height="206" rx="4" fill="#F3F4F6"/>
<circle cx="231.365" cy="0.773252" r="0.773252" fill="#E2E8F0"/>
<circle cx="231.365" cy="5.41266" r="0.773252" fill="#E2E8F0"/>
<circle cx="231.365" cy="10.0525" r="0.773252" fill="#E2E8F0"/>
<circle cx="231.365" cy="14.6922" r="0.773252" fill="#E2E8F0"/>
<circle cx="231.365" cy="19.3309" r="0.773252" fill="#E2E8F0"/>
<circle cx="231.365" cy="23.9705" r="0.773252" fill="#E2E8F0"/>
<circle cx="231.365" cy="28.6104" r="0.773252" fill="#E2E8F0"/>
<circle cx="231.365" cy="33.2498" r="0.773252" fill="#E2E8F0"/>
<circle cx="231.365" cy="37.8892" r="0.773252" fill="#E2E8F0"/>
<circle cx="231.365" cy="42.5291" r="0.773252" fill="#E2E8F0"/>
<circle cx="231.365" cy="47.1688" r="0.773252" fill="#E2E8F0"/>
<circle cx="231.365" cy="51.8074" r="0.773252" fill="#E2E8F0"/>
<circle cx="236.005" cy="0.773252" r="0.773252" fill="#E2E8F0"/>
<circle cx="236.005" cy="5.41266" r="0.773252" fill="#E2E8F0"/>
<circle cx="236.005" cy="10.0525" r="0.773252" fill="#E2E8F0"/>
<circle cx="236.005" cy="14.6922" r="0.773252" fill="#E2E8F0"/>
<circle cx="236.005" cy="19.3309" r="0.773252" fill="#E2E8F0"/>
<circle cx="236.005" cy="23.9705" r="0.773252" fill="#E2E8F0"/>
<circle cx="236.005" cy="28.6104" r="0.773252" fill="#E2E8F0"/>
<circle cx="236.005" cy="33.2498" r="0.773252" fill="#E2E8F0"/>
<circle cx="236.005" cy="37.8892" r="0.773252" fill="#E2E8F0"/>
<circle cx="236.005" cy="42.5291" r="0.773252" fill="#E2E8F0"/>
<circle cx="236.005" cy="47.1688" r="0.773252" fill="#E2E8F0"/>
<circle cx="236.005" cy="51.8074" r="0.773252" fill="#E2E8F0"/>
<circle cx="240.644" cy="0.773252" r="0.773252" fill="#E2E8F0"/>
<circle cx="240.644" cy="5.41266" r="0.773252" fill="#E2E8F0"/>
<circle cx="240.644" cy="10.0525" r="0.773252" fill="#E2E8F0"/>
<circle cx="240.644" cy="14.6922" r="0.773252" fill="#E2E8F0"/>
<circle cx="240.644" cy="19.3309" r="0.773252" fill="#E2E8F0"/>
<circle cx="240.644" cy="23.9705" r="0.773252" fill="#E2E8F0"/>
<circle cx="240.644" cy="28.6104" r="0.773252" fill="#E2E8F0"/>
<circle cx="240.644" cy="33.2498" r="0.773252" fill="#E2E8F0"/>
<circle cx="240.644" cy="37.8892" r="0.773252" fill="#E2E8F0"/>
<circle cx="240.644" cy="42.5291" r="0.773252" fill="#E2E8F0"/>
<circle cx="240.644" cy="47.1688" r="0.773252" fill="#E2E8F0"/>
<circle cx="240.644" cy="51.8074" r="0.773252" fill="#E2E8F0"/>
<circle cx="245.284" cy="0.773252" r="0.773252" fill="#E2E8F0"/>
<circle cx="245.284" cy="5.41266" r="0.773252" fill="#E2E8F0"/>
<circle cx="245.284" cy="10.0525" r="0.773252" fill="#E2E8F0"/>
<circle cx="245.284" cy="14.6922" r="0.773252" fill="#E2E8F0"/>
<circle cx="245.284" cy="19.3309" r="0.773252" fill="#E2E8F0"/>
<circle cx="245.284" cy="23.9705" r="0.773252" fill="#E2E8F0"/>
<circle cx="245.284" cy="28.6104" r="0.773252" fill="#E2E8F0"/>
<circle cx="245.284" cy="33.2498" r="0.773252" fill="#E2E8F0"/>
<circle cx="245.284" cy="37.8892" r="0.773252" fill="#E2E8F0"/>
<circle cx="245.284" cy="42.5291" r="0.773252" fill="#E2E8F0"/>
<circle cx="245.284" cy="47.1688" r="0.773252" fill="#E2E8F0"/>
<circle cx="245.284" cy="51.8074" r="0.773252" fill="#E2E8F0"/>
<circle cx="249.924" cy="0.773252" r="0.773252" fill="#E2E8F0"/>
<circle cx="249.924" cy="5.41266" r="0.773252" fill="#E2E8F0"/>
<circle cx="249.924" cy="10.0525" r="0.773252" fill="#E2E8F0"/>
<circle cx="249.924" cy="14.6922" r="0.773252" fill="#E2E8F0"/>
<circle cx="249.924" cy="19.3309" r="0.773252" fill="#E2E8F0"/>
<circle cx="249.924" cy="23.9705" r="0.773252" fill="#E2E8F0"/>
<circle cx="249.924" cy="28.6104" r="0.773252" fill="#E2E8F0"/>
<circle cx="249.924" cy="33.2498" r="0.773252" fill="#E2E8F0"/>
<circle cx="249.924" cy="37.8892" r="0.773252" fill="#E2E8F0"/>
<circle cx="249.924" cy="42.5291" r="0.773252" fill="#E2E8F0"/>
<circle cx="249.924" cy="47.1688" r="0.773252" fill="#E2E8F0"/>
<circle cx="249.924" cy="51.8074" r="0.773252" fill="#E2E8F0"/>
<circle cx="254.562" cy="0.773252" r="0.773252" fill="#E2E8F0"/>
<circle cx="254.562" cy="5.41266" r="0.773252" fill="#E2E8F0"/>
<circle cx="254.562" cy="10.0525" r="0.773252" fill="#E2E8F0"/>
<circle cx="254.562" cy="14.6922" r="0.773252" fill="#E2E8F0"/>
<circle cx="254.562" cy="19.3309" r="0.773252" fill="#E2E8F0"/>
<circle cx="254.562" cy="23.9705" r="0.773252" fill="#E2E8F0"/>
<circle cx="254.562" cy="28.6104" r="0.773252" fill="#E2E8F0"/>
<circle cx="254.562" cy="33.2498" r="0.773252" fill="#E2E8F0"/>
<circle cx="254.562" cy="37.8892" r="0.773252" fill="#E2E8F0"/>
<circle cx="254.562" cy="42.5291" r="0.773252" fill="#E2E8F0"/>
<circle cx="254.562" cy="47.1688" r="0.773252" fill="#E2E8F0"/>
<circle cx="254.562" cy="51.8074" r="0.773252" fill="#E2E8F0"/>
<circle cx="259.202" cy="0.773252" r="0.773252" fill="#E2E8F0"/>
<circle cx="259.202" cy="5.41266" r="0.773252" fill="#E2E8F0"/>
<circle cx="259.202" cy="10.0525" r="0.773252" fill="#E2E8F0"/>
<circle cx="259.202" cy="14.6922" r="0.773252" fill="#E2E8F0"/>
<circle cx="259.202" cy="19.3309" r="0.773252" fill="#E2E8F0"/>
<circle cx="259.202" cy="23.9705" r="0.773252" fill="#E2E8F0"/>
<circle cx="259.202" cy="28.6104" r="0.773252" fill="#E2E8F0"/>
<circle cx="259.202" cy="33.2498" r="0.773252" fill="#E2E8F0"/>
<circle cx="259.202" cy="37.8892" r="0.773252" fill="#E2E8F0"/>
<circle cx="259.202" cy="42.5291" r="0.773252" fill="#E2E8F0"/>
<circle cx="259.202" cy="47.1688" r="0.773252" fill="#E2E8F0"/>
<circle cx="259.202" cy="51.8074" r="0.773252" fill="#E2E8F0"/>
<circle cx="263.843" cy="0.773252" r="0.773252" fill="#E2E8F0"/>
<circle cx="263.843" cy="5.41266" r="0.773252" fill="#E2E8F0"/>
<circle cx="263.843" cy="10.0525" r="0.773252" fill="#E2E8F0"/>
<circle cx="263.843" cy="14.6922" r="0.773252" fill="#E2E8F0"/>
<circle cx="263.843" cy="19.3309" r="0.773252" fill="#E2E8F0"/>
<circle cx="263.843" cy="23.9705" r="0.773252" fill="#E2E8F0"/>
<circle cx="263.843" cy="28.6104" r="0.773252" fill="#E2E8F0"/>
<circle cx="263.843" cy="33.2498" r="0.773252" fill="#E2E8F0"/>
<circle cx="263.843" cy="37.8892" r="0.773252" fill="#E2E8F0"/>
<circle cx="263.843" cy="42.5291" r="0.773252" fill="#E2E8F0"/>
<circle cx="263.843" cy="47.1688" r="0.773252" fill="#E2E8F0"/>
<circle cx="263.843" cy="51.8074" r="0.773252" fill="#E2E8F0"/>
<circle cx="268.481" cy="0.773252" r="0.773252" fill="#E2E8F0"/>
<circle cx="268.481" cy="5.41266" r="0.773252" fill="#E2E8F0"/>
<circle cx="268.481" cy="10.0525" r="0.773252" fill="#E2E8F0"/>
<circle cx="268.481" cy="14.6922" r="0.773252" fill="#E2E8F0"/>
<circle cx="268.481" cy="19.3309" r="0.773252" fill="#E2E8F0"/>
<circle cx="268.481" cy="23.9705" r="0.773252" fill="#E2E8F0"/>
<circle cx="268.481" cy="28.6104" r="0.773252" fill="#E2E8F0"/>
<circle cx="268.481" cy="33.2498" r="0.773252" fill="#E2E8F0"/>
<circle cx="268.481" cy="37.8892" r="0.773252" fill="#E2E8F0"/>
<circle cx="268.481" cy="42.5291" r="0.773252" fill="#E2E8F0"/>
<circle cx="268.481" cy="47.1688" r="0.773252" fill="#E2E8F0"/>
<circle cx="268.481" cy="51.8074" r="0.773252" fill="#E2E8F0"/>
<circle cx="273.121" cy="0.773252" r="0.773252" fill="#E2E8F0"/>
<circle cx="273.121" cy="5.41266" r="0.773252" fill="#E2E8F0"/>
<circle cx="273.121" cy="10.0525" r="0.773252" fill="#E2E8F0"/>
<circle cx="273.121" cy="14.6922" r="0.773252" fill="#E2E8F0"/>
<circle cx="273.121" cy="19.3309" r="0.773252" fill="#E2E8F0"/>
<circle cx="273.121" cy="23.9705" r="0.773252" fill="#E2E8F0"/>
<circle cx="273.121" cy="28.6104" r="0.773252" fill="#E2E8F0"/>
<circle cx="273.121" cy="33.2498" r="0.773252" fill="#E2E8F0"/>
<circle cx="273.121" cy="37.8892" r="0.773252" fill="#E2E8F0"/>
<circle cx="273.121" cy="42.5291" r="0.773252" fill="#E2E8F0"/>
<circle cx="273.121" cy="47.1688" r="0.773252" fill="#E2E8F0"/>
<circle cx="273.121" cy="51.8074" r="0.773252" fill="#E2E8F0"/>
<circle cx="277.761" cy="0.773252" r="0.773252" fill="#E2E8F0"/>
<circle cx="277.761" cy="5.4129" r="0.773252" fill="#E2E8F0"/>
<circle cx="277.761" cy="10.0525" r="0.773252" fill="#E2E8F0"/>
<circle cx="277.761" cy="14.6922" r="0.773252" fill="#E2E8F0"/>
<circle cx="277.761" cy="19.3309" r="0.773252" fill="#E2E8F0"/>
<circle cx="277.761" cy="23.9705" r="0.773252" fill="#E2E8F0"/>
<circle cx="277.761" cy="28.6102" r="0.773252" fill="#E2E8F0"/>
<circle cx="277.761" cy="33.2498" r="0.773252" fill="#E2E8F0"/>
<circle cx="277.761" cy="37.8895" r="0.773252" fill="#E2E8F0"/>
<circle cx="277.761" cy="42.5291" r="0.773252" fill="#E2E8F0"/>
<circle cx="277.761" cy="47.1688" r="0.773252" fill="#E2E8F0"/>
<circle cx="277.761" cy="51.8074" r="0.773252" fill="#E2E8F0"/>
<circle cx="282.4" cy="0.773252" r="0.773252" fill="#E2E8F0"/>
<circle cx="282.4" cy="5.41266" r="0.773252" fill="#E2E8F0"/>
<circle cx="282.4" cy="10.0525" r="0.773252" fill="#E2E8F0"/>
<circle cx="282.4" cy="14.6922" r="0.773252" fill="#E2E8F0"/>
<circle cx="282.4" cy="19.3309" r="0.773252" fill="#E2E8F0"/>
<circle cx="282.4" cy="23.9705" r="0.773252" fill="#E2E8F0"/>
<circle cx="282.4" cy="28.6104" r="0.773252" fill="#E2E8F0"/>
<circle cx="282.4" cy="33.2498" r="0.773252" fill="#E2E8F0"/>
<circle cx="282.4" cy="37.8892" r="0.773252" fill="#E2E8F0"/>
<circle cx="282.4" cy="42.5291" r="0.773252" fill="#E2E8F0"/>
<circle cx="282.4" cy="47.1688" r="0.773252" fill="#E2E8F0"/>
<circle cx="282.4" cy="51.8074" r="0.773252" fill="#E2E8F0"/>
<circle cx="56.7733" cy="154.026" r="0.773252" fill="#E2E8F0"/>
<circle cx="56.7733" cy="158.666" r="0.773252" fill="#E2E8F0"/>
<circle cx="56.7733" cy="163.305" r="0.773252" fill="#E2E8F0"/>
<circle cx="56.7733" cy="167.945" r="0.773252" fill="#E2E8F0"/>
<circle cx="56.7733" cy="172.584" r="0.773252" fill="#E2E8F0"/>
<circle cx="56.7733" cy="177.223" r="0.773252" fill="#E2E8F0"/>
<circle cx="56.7733" cy="181.863" r="0.773252" fill="#E2E8F0"/>
<circle cx="56.7733" cy="186.503" r="0.773252" fill="#E2E8F0"/>
<circle cx="56.7733" cy="191.142" r="0.773252" fill="#E2E8F0"/>
<circle cx="56.7733" cy="195.782" r="0.773252" fill="#E2E8F0"/>
<circle cx="56.7733" cy="200.422" r="0.773252" fill="#E2E8F0"/>
<circle cx="56.7733" cy="205.06" r="0.773252" fill="#E2E8F0"/>
<circle cx="61.4129" cy="154.026" r="0.773252" fill="#E2E8F0"/>
<circle cx="61.4129" cy="158.666" r="0.773252" fill="#E2E8F0"/>
<circle cx="61.4129" cy="163.305" r="0.773252" fill="#E2E8F0"/>
<circle cx="61.4129" cy="167.945" r="0.773252" fill="#E2E8F0"/>
<circle cx="61.4129" cy="172.584" r="0.773252" fill="#E2E8F0"/>
<circle cx="61.4129" cy="177.223" r="0.773252" fill="#E2E8F0"/>
<circle cx="61.4129" cy="181.863" r="0.773252" fill="#E2E8F0"/>
<circle cx="61.4129" cy="186.503" r="0.773252" fill="#E2E8F0"/>
<circle cx="61.4129" cy="191.142" r="0.773252" fill="#E2E8F0"/>
<circle cx="61.4129" cy="195.782" r="0.773252" fill="#E2E8F0"/>
<circle cx="61.4129" cy="200.422" r="0.773252" fill="#E2E8F0"/>
<circle cx="61.4129" cy="205.06" r="0.773252" fill="#E2E8F0"/>
<circle cx="66.0526" cy="154.026" r="0.773252" fill="#E2E8F0"/>
<circle cx="66.0526" cy="158.666" r="0.773252" fill="#E2E8F0"/>
<circle cx="66.0526" cy="163.305" r="0.773252" fill="#E2E8F0"/>
<circle cx="66.0526" cy="167.945" r="0.773252" fill="#E2E8F0"/>
<circle cx="66.0526" cy="172.584" r="0.773252" fill="#E2E8F0"/>
<circle cx="66.0526" cy="177.223" r="0.773252" fill="#E2E8F0"/>
<circle cx="66.0526" cy="181.863" r="0.773252" fill="#E2E8F0"/>
<circle cx="66.0526" cy="186.503" r="0.773252" fill="#E2E8F0"/>
<circle cx="66.0526" cy="191.142" r="0.773252" fill="#E2E8F0"/>
<circle cx="66.0526" cy="195.782" r="0.773252" fill="#E2E8F0"/>
<circle cx="66.0526" cy="200.422" r="0.773252" fill="#E2E8F0"/>
<circle cx="66.0526" cy="205.06" r="0.773252" fill="#E2E8F0"/>
<circle cx="70.6922" cy="154.026" r="0.773252" fill="#E2E8F0"/>
<circle cx="70.6922" cy="158.666" r="0.773252" fill="#E2E8F0"/>
<circle cx="70.6922" cy="163.305" r="0.773252" fill="#E2E8F0"/>
<circle cx="70.6922" cy="167.945" r="0.773252" fill="#E2E8F0"/>
<circle cx="70.6922" cy="172.584" r="0.773252" fill="#E2E8F0"/>
<circle cx="70.6922" cy="177.223" r="0.773252" fill="#E2E8F0"/>
<circle cx="70.6922" cy="181.863" r="0.773252" fill="#E2E8F0"/>
<circle cx="70.6922" cy="186.503" r="0.773252" fill="#E2E8F0"/>
<circle cx="70.6922" cy="191.142" r="0.773252" fill="#E2E8F0"/>
<circle cx="70.6922" cy="195.782" r="0.773252" fill="#E2E8F0"/>
<circle cx="70.6922" cy="200.422" r="0.773252" fill="#E2E8F0"/>
<circle cx="70.6922" cy="205.06" r="0.773252" fill="#E2E8F0"/>
<circle cx="75.3318" cy="154.026" r="0.773252" fill="#E2E8F0"/>
<circle cx="75.3318" cy="158.666" r="0.773252" fill="#E2E8F0"/>
<circle cx="75.3318" cy="163.305" r="0.773252" fill="#E2E8F0"/>
<circle cx="75.3318" cy="167.945" r="0.773252" fill="#E2E8F0"/>
<circle cx="75.3318" cy="172.584" r="0.773252" fill="#E2E8F0"/>
<circle cx="75.3318" cy="177.223" r="0.773252" fill="#E2E8F0"/>
<circle cx="75.3318" cy="181.863" r="0.773252" fill="#E2E8F0"/>
<circle cx="75.3318" cy="186.503" r="0.773252" fill="#E2E8F0"/>
<circle cx="75.3318" cy="191.142" r="0.773252" fill="#E2E8F0"/>
<circle cx="75.3318" cy="195.782" r="0.773252" fill="#E2E8F0"/>
<circle cx="75.3318" cy="200.422" r="0.773252" fill="#E2E8F0"/>
<circle cx="75.3318" cy="205.06" r="0.773252" fill="#E2E8F0"/>
<circle cx="79.9705" cy="154.026" r="0.773252" fill="#E2E8F0"/>
<circle cx="79.9705" cy="158.666" r="0.773252" fill="#E2E8F0"/>
<circle cx="79.9705" cy="163.305" r="0.773252" fill="#E2E8F0"/>
<circle cx="79.9705" cy="167.945" r="0.773252" fill="#E2E8F0"/>
<circle cx="79.9705" cy="172.584" r="0.773252" fill="#E2E8F0"/>
<circle cx="79.9705" cy="177.223" r="0.773252" fill="#E2E8F0"/>
<circle cx="79.9705" cy="181.863" r="0.773252" fill="#E2E8F0"/>
<circle cx="79.9705" cy="186.503" r="0.773252" fill="#E2E8F0"/>
<circle cx="79.9705" cy="191.142" r="0.773252" fill="#E2E8F0"/>
<circle cx="79.9705" cy="195.782" r="0.773252" fill="#E2E8F0"/>
<circle cx="79.9705" cy="200.422" r="0.773252" fill="#E2E8F0"/>
<circle cx="79.9705" cy="205.06" r="0.773252" fill="#E2E8F0"/>
<circle cx="84.6102" cy="154.026" r="0.773252" fill="#E2E8F0"/>
<circle cx="84.6102" cy="158.666" r="0.773252" fill="#E2E8F0"/>
<circle cx="84.6102" cy="163.305" r="0.773252" fill="#E2E8F0"/>
<circle cx="84.6102" cy="167.945" r="0.773252" fill="#E2E8F0"/>
<circle cx="84.6102" cy="172.584" r="0.773252" fill="#E2E8F0"/>
<circle cx="84.6102" cy="177.223" r="0.773252" fill="#E2E8F0"/>
<circle cx="84.6102" cy="181.863" r="0.773252" fill="#E2E8F0"/>
<circle cx="84.6102" cy="186.503" r="0.773252" fill="#E2E8F0"/>
<circle cx="84.6102" cy="191.142" r="0.773252" fill="#E2E8F0"/>
<circle cx="84.6102" cy="195.782" r="0.773252" fill="#E2E8F0"/>
<circle cx="84.6102" cy="200.422" r="0.773252" fill="#E2E8F0"/>
<circle cx="84.6102" cy="205.06" r="0.773252" fill="#E2E8F0"/>
<circle cx="89.2508" cy="154.026" r="0.773252" fill="#E2E8F0"/>
<circle cx="89.2508" cy="158.666" r="0.773252" fill="#E2E8F0"/>
<circle cx="89.2508" cy="163.305" r="0.773252" fill="#E2E8F0"/>
<circle cx="89.2508" cy="167.945" r="0.773252" fill="#E2E8F0"/>
<circle cx="89.2508" cy="172.584" r="0.773252" fill="#E2E8F0"/>
<circle cx="89.2508" cy="177.223" r="0.773252" fill="#E2E8F0"/>
<circle cx="89.2508" cy="181.863" r="0.773252" fill="#E2E8F0"/>
<circle cx="89.2508" cy="186.503" r="0.773252" fill="#E2E8F0"/>
<circle cx="89.2508" cy="191.142" r="0.773252" fill="#E2E8F0"/>
<circle cx="89.2508" cy="195.782" r="0.773252" fill="#E2E8F0"/>
<circle cx="89.2508" cy="200.422" r="0.773252" fill="#E2E8F0"/>
<circle cx="89.2508" cy="205.06" r="0.773252" fill="#E2E8F0"/>
<circle cx="93.8895" cy="154.026" r="0.773252" fill="#E2E8F0"/>
<circle cx="93.8895" cy="158.666" r="0.773252" fill="#E2E8F0"/>
<circle cx="93.8895" cy="163.305" r="0.773252" fill="#E2E8F0"/>
<circle cx="93.8895" cy="167.945" r="0.773252" fill="#E2E8F0"/>
<circle cx="93.8895" cy="172.584" r="0.773252" fill="#E2E8F0"/>
<circle cx="93.8895" cy="177.223" r="0.773252" fill="#E2E8F0"/>
<circle cx="93.8895" cy="181.863" r="0.773252" fill="#E2E8F0"/>
<circle cx="93.8895" cy="186.503" r="0.773252" fill="#E2E8F0"/>
<circle cx="93.8895" cy="191.142" r="0.773252" fill="#E2E8F0"/>
<circle cx="93.8895" cy="195.782" r="0.773252" fill="#E2E8F0"/>
<circle cx="93.8895" cy="200.422" r="0.773252" fill="#E2E8F0"/>
<circle cx="93.8895" cy="205.06" r="0.773252" fill="#E2E8F0"/>
<circle cx="98.5291" cy="154.026" r="0.773252" fill="#E2E8F0"/>
<circle cx="98.5291" cy="158.666" r="0.773252" fill="#E2E8F0"/>
<circle cx="98.5291" cy="163.305" r="0.773252" fill="#E2E8F0"/>
<circle cx="98.5291" cy="167.945" r="0.773252" fill="#E2E8F0"/>
<circle cx="98.5291" cy="172.584" r="0.773252" fill="#E2E8F0"/>
<circle cx="98.5291" cy="177.223" r="0.773252" fill="#E2E8F0"/>
<circle cx="98.5291" cy="181.863" r="0.773252" fill="#E2E8F0"/>
<circle cx="98.5291" cy="186.503" r="0.773252" fill="#E2E8F0"/>
<circle cx="98.5291" cy="191.142" r="0.773252" fill="#E2E8F0"/>
<circle cx="98.5291" cy="195.782" r="0.773252" fill="#E2E8F0"/>
<circle cx="98.5291" cy="200.422" r="0.773252" fill="#E2E8F0"/>
<circle cx="98.5291" cy="205.06" r="0.773252" fill="#E2E8F0"/>
<circle cx="103.169" cy="154.026" r="0.773252" fill="#E2E8F0"/>
<circle cx="103.169" cy="158.666" r="0.773252" fill="#E2E8F0"/>
<circle cx="103.169" cy="163.305" r="0.773252" fill="#E2E8F0"/>
<circle cx="103.169" cy="167.945" r="0.773252" fill="#E2E8F0"/>
<circle cx="103.169" cy="172.584" r="0.773252" fill="#E2E8F0"/>
<circle cx="103.169" cy="177.223" r="0.773252" fill="#E2E8F0"/>
<circle cx="103.169" cy="181.863" r="0.773252" fill="#E2E8F0"/>
<circle cx="103.169" cy="186.503" r="0.773252" fill="#E2E8F0"/>
<circle cx="103.169" cy="191.142" r="0.773252" fill="#E2E8F0"/>
<circle cx="103.169" cy="195.782" r="0.773252" fill="#E2E8F0"/>
<circle cx="103.169" cy="200.422" r="0.773252" fill="#E2E8F0"/>
<circle cx="103.169" cy="205.06" r="0.773252" fill="#E2E8F0"/>
<circle cx="107.808" cy="154.026" r="0.773252" fill="#E2E8F0"/>
<circle cx="107.808" cy="158.666" r="0.773252" fill="#E2E8F0"/>
<circle cx="107.808" cy="163.305" r="0.773252" fill="#E2E8F0"/>
<circle cx="107.808" cy="167.945" r="0.773252" fill="#E2E8F0"/>
<circle cx="107.808" cy="172.584" r="0.773252" fill="#E2E8F0"/>
<circle cx="107.808" cy="177.223" r="0.773252" fill="#E2E8F0"/>
<circle cx="107.808" cy="181.863" r="0.773252" fill="#E2E8F0"/>
<circle cx="107.808" cy="186.503" r="0.773252" fill="#E2E8F0"/>
<circle cx="107.808" cy="191.142" r="0.773252" fill="#E2E8F0"/>
<circle cx="107.808" cy="195.782" r="0.773252" fill="#E2E8F0"/>
<circle cx="107.808" cy="200.422" r="0.773252" fill="#E2E8F0"/>
<circle cx="107.808" cy="205.06" r="0.773252" fill="#E2E8F0"/>
<path d="M264.074 78.6937C264.074 79.8758 263.256 80.8154 262.164 81.0579C262.134 81.846 261.952 82.4522 261.558 82.9069C260.77 83.8768 259.436 84.0284 258.163 84.1496C257.345 84.2103 256.587 84.2709 256.072 84.5437C255.86 84.6649 255.648 84.8165 255.496 85.0893C256.527 85.3924 257.284 86.332 257.284 87.4232C257.284 88.7872 256.193 89.8481 254.859 89.8481C253.495 89.8481 252.435 88.7872 252.435 87.4232C252.435 86.2714 253.253 85.2711 254.374 85.059V79.1483C253.253 78.9058 252.435 77.9359 252.435 76.7538C252.435 75.4201 253.495 74.3289 254.859 74.3289C256.193 74.3289 257.284 75.4201 257.284 76.7538C257.284 77.9359 256.436 78.9058 255.344 79.1483V83.8465C255.435 83.7859 255.526 83.7253 255.617 83.695C256.314 83.3312 257.193 83.2403 258.072 83.1797C259.194 83.0584 260.285 82.9675 260.8 82.3007C261.043 82.0279 261.164 81.6035 261.194 81.0882C260.073 80.8761 259.224 79.9061 259.224 78.6937C259.224 77.36 260.285 76.2688 261.649 76.2688C262.983 76.2688 264.074 77.36 264.074 78.6937ZM253.405 76.7538C253.405 77.5722 254.041 78.2087 254.859 78.2087C255.648 78.2087 256.314 77.5722 256.314 76.7538C256.314 75.9657 255.648 75.2988 254.859 75.2988C254.041 75.2988 253.405 75.9657 253.405 76.7538ZM256.314 87.4232C256.314 86.6351 255.648 85.9986 254.859 85.9683H254.829C254.041 85.9986 253.405 86.6351 253.405 87.4232C253.405 88.2416 254.041 88.8782 254.859 88.8782C255.648 88.8782 256.314 88.2416 256.314 87.4232ZM261.983 80.1183C262.619 79.9667 263.104 79.3908 263.104 78.6937C263.104 77.9056 262.437 77.2387 261.649 77.2387C260.831 77.2387 260.194 77.9056 260.194 78.6937C260.194 79.5121 260.831 80.1486 261.649 80.1486L261.983 80.1183Z" fill="#E2E8F0"/>
<g filter="url(#filter0_d)">
<rect x="47.333" y="66.0002" width="74.5457" height="74.5457" rx="37.2729" fill="white" shape-rendering="crispEdges"/>
<g clip-path="url(#clip0)">
<path d="M67.7043 117.785H73.8979V102.744L65.0498 96.1079V115.131C65.0503 116.597 66.2387 117.785 67.7043 117.785Z" fill="#4285F4"/>
<path d="M95.1328 117.785H101.327C102.793 117.785 103.981 116.597 103.981 115.131V96.1074L95.1328 102.744V117.785Z" fill="#34A853"/>
<path d="M95.1328 91.2424V102.743L103.981 96.1078V92.5696C103.981 90.371 102.198 88.5884 99.9992 88.5884C99.1377 88.5884 98.2998 88.868 97.6106 89.3849L95.1328 91.2424Z" fill="#FBBC04"/>
<path d="M73.8984 102.744V91.2424L84.5154 99.2049L95.1324 91.2419V102.744L84.5154 110.706L73.8984 102.744Z" fill="#EA4335"/>
<path d="M65.0508 92.5692V96.1073L73.8989 102.744V91.2424L71.4211 89.3845C69.6622 88.0651 67.1667 88.4215 65.8473 90.1805C65.3299 90.8697 65.0508 91.7081 65.0508 92.5692Z" fill="#C5221F"/>
</g>
</g>
<g filter="url(#filter1_d)">
<rect x="110.818" y="66.0002" width="74.5457" height="74.5457" rx="37.2729" fill="white" shape-rendering="crispEdges"/>
<g clip-path="url(#clip1)">
<g clip-path="url(#clip2)">
<path d="M168.153 103.796C168.154 103.641 168.115 103.488 168.04 103.353C167.965 103.217 167.856 103.104 167.724 103.023H167.719L167.702 103.013L153.736 94.746C153.676 94.7052 153.613 94.668 153.549 94.6344C153.283 94.4973 152.988 94.4258 152.689 94.4258C152.39 94.4258 152.095 94.4973 151.83 94.6344C151.765 94.668 151.702 94.7052 151.642 94.746L137.676 103.013L137.659 103.023C137.232 103.288 137.101 103.849 137.367 104.276C137.445 104.402 137.553 104.507 137.681 104.581L151.647 112.849C151.707 112.889 151.77 112.926 151.834 112.96C152.1 113.097 152.395 113.169 152.694 113.169C152.993 113.169 153.288 113.097 153.553 112.96C153.618 112.926 153.68 112.889 153.741 112.849L167.707 104.581C167.844 104.501 167.958 104.387 168.036 104.249C168.114 104.111 168.155 103.955 168.153 103.796Z" fill="#0A2767"/>
<path d="M139.304 98.276H148.469V106.677H139.304V98.276ZM166.279 89.736V85.893C166.301 84.9321 165.54 84.1351 164.579 84.1121H140.796C139.835 84.1351 139.074 84.9321 139.096 85.893V89.736L153.156 93.4853L166.279 89.736Z" fill="#0364B8"/>
<path d="M139.097 89.7358H148.47V98.1718H139.097V89.7358Z" fill="#0078D4"/>
<path d="M157.843 89.7358H148.47V98.1718L157.843 106.608H166.279V98.1718L157.843 89.7358Z" fill="#28A8EA"/>
<path d="M148.47 98.1719H157.843V106.608H148.47V98.1719Z" fill="#0078D4"/>
<path d="M148.47 106.608H157.843V115.044H148.47V106.608Z" fill="#0364B8"/>
<path d="M139.305 106.677H148.47V114.315H139.305V106.677Z" fill="#14447D"/>
<path d="M157.843 106.608H166.279V115.044H157.843V106.608Z" fill="#0078D4"/>
<path d="M167.724 104.53L167.706 104.539L153.74 112.394C153.679 112.431 153.617 112.467 153.553 112.499C153.315 112.612 153.058 112.676 152.795 112.686L152.032 112.24C151.968 112.208 151.905 112.172 151.845 112.132L137.691 104.055H137.685L137.222 103.796V119.697C137.229 120.758 138.095 121.612 139.155 121.605H166.25C166.266 121.605 166.28 121.598 166.297 121.598C166.521 121.583 166.742 121.537 166.953 121.461C167.044 121.422 167.132 121.376 167.216 121.324C167.279 121.288 167.387 121.21 167.387 121.21C167.624 121.035 167.816 120.807 167.949 120.544C168.082 120.282 168.152 119.991 168.153 119.697V103.796C168.153 103.945 168.113 104.092 168.038 104.221C167.963 104.35 167.854 104.456 167.724 104.53Z" fill="url(#paint0_linear)"/>
<path opacity="0.5" d="M167.403 103.733V104.708L152.8 114.763L137.681 104.061C137.681 104.059 137.68 104.056 137.678 104.054C137.676 104.053 137.674 104.052 137.671 104.052L136.284 103.218V102.515L136.856 102.505L138.065 103.199L138.093 103.208L138.196 103.274C138.196 103.274 152.406 111.382 152.444 111.4L152.987 111.719C153.034 111.7 153.081 111.682 153.137 111.663C153.165 111.644 167.244 103.724 167.244 103.724L167.403 103.733Z" fill="#0A2767"/>
<path d="M167.724 104.53L167.706 104.54L153.74 112.395C153.679 112.432 153.617 112.468 153.553 112.5C153.285 112.631 152.991 112.699 152.693 112.699C152.395 112.699 152.101 112.631 151.834 112.5C151.769 112.468 151.707 112.433 151.646 112.395L137.68 104.54L137.663 104.53C137.531 104.458 137.42 104.352 137.342 104.223C137.265 104.094 137.223 103.947 137.222 103.796V119.697C137.228 120.757 138.094 121.612 139.154 121.605H166.221C167.281 121.612 168.147 120.757 168.153 119.697C168.153 119.697 168.153 119.697 168.153 119.697V103.796C168.153 103.945 168.113 104.092 168.038 104.221C167.963 104.35 167.854 104.456 167.724 104.53Z" fill="#1490DF"/>
<path opacity="0.1" d="M153.944 112.279L153.735 112.396C153.674 112.434 153.612 112.47 153.547 112.502C153.317 112.615 153.067 112.681 152.811 112.697L158.124 118.98L167.393 121.214C167.647 121.022 167.849 120.77 167.981 120.48L153.944 112.279Z" fill="black"/>
<path opacity="0.05" d="M154.89 111.746L153.735 112.396C153.674 112.434 153.612 112.47 153.547 112.502C153.317 112.615 153.067 112.681 152.811 112.697L155.3 119.561L167.396 121.211C167.631 121.035 167.822 120.806 167.954 120.543C168.085 120.28 168.154 119.991 168.154 119.697V119.491L154.89 111.746Z" fill="black"/>
<path d="M139.181 121.605H166.218C166.634 121.607 167.04 121.476 167.376 121.23L152.031 112.242C151.967 112.21 151.904 112.174 151.844 112.134L137.69 104.056H137.684L137.222 103.796V119.642C137.221 120.725 138.098 121.604 139.181 121.605C139.181 121.605 139.181 121.605 139.181 121.605Z" fill="#28A8EA"/>
<path opacity="0.1" d="M150.344 93.3287V113.322C150.343 114.023 149.916 114.653 149.266 114.915C149.065 115.002 148.848 115.046 148.629 115.047H137.222V92.5479H139.096V91.6106H148.629C149.576 91.6142 150.342 92.3818 150.344 93.3287Z" fill="black"/>
<path opacity="0.2" d="M149.407 94.266V114.259C149.409 114.486 149.361 114.71 149.266 114.915C149.006 115.557 148.384 115.978 147.692 115.981H137.222V92.5479H147.692C147.964 92.5452 148.232 92.613 148.47 92.7448C149.044 93.0343 149.407 93.6227 149.407 94.266Z" fill="black"/>
<path opacity="0.2" d="M149.407 94.266V112.385C149.403 113.331 148.638 114.098 147.692 114.106H137.222V92.5479H147.692C147.964 92.5452 148.232 92.613 148.47 92.7448C149.044 93.0343 149.407 93.6227 149.407 94.266Z" fill="black"/>
<path opacity="0.2" d="M148.47 94.266V112.384C148.469 113.332 147.702 114.102 146.754 114.106H137.222V92.5479H146.754C147.702 92.5484 148.47 93.3172 148.47 94.265C148.47 94.2653 148.47 94.2657 148.47 94.266Z" fill="black"/>
<path d="M129.567 92.5479H146.752C147.701 92.5479 148.47 93.3171 148.47 94.266V111.451C148.47 112.4 147.701 113.169 146.752 113.169H129.567C128.618 113.169 127.849 112.4 127.849 111.451V94.266C127.849 93.3171 128.618 92.5479 129.567 92.5479Z" fill="url(#paint1_linear)"/>
<path d="M133.218 99.7542C133.642 98.852 134.325 98.097 135.181 97.5862C136.129 97.0436 137.208 96.7731 138.3 96.8045C139.311 96.7825 140.31 97.039 141.186 97.5459C142.009 98.037 142.672 98.7566 143.095 99.6174C143.555 100.566 143.784 101.61 143.764 102.664C143.787 103.765 143.551 104.857 143.075 105.851C142.643 106.742 141.958 107.487 141.107 107.994C140.197 108.517 139.162 108.78 138.113 108.755C137.08 108.78 136.059 108.521 135.163 108.005C134.333 107.514 133.661 106.793 133.229 105.93C132.766 104.995 132.534 103.963 132.552 102.92C132.533 101.828 132.76 100.746 133.218 99.7542ZM135.31 104.844C135.536 105.414 135.919 105.909 136.415 106.271C136.919 106.623 137.524 106.805 138.139 106.79C138.795 106.816 139.441 106.628 139.98 106.254C140.469 105.893 140.842 105.397 141.053 104.827C141.288 104.19 141.404 103.516 141.395 102.837C141.402 102.152 141.293 101.471 141.072 100.822C140.877 100.236 140.516 99.7197 140.034 99.3352C139.508 98.9436 138.864 98.745 138.209 98.7728C137.58 98.7565 136.962 98.94 136.444 99.2968C135.94 99.6599 135.55 100.159 135.319 100.736C134.807 102.057 134.804 103.522 135.311 104.846L135.31 104.844Z" fill="white"/>
<path d="M157.843 89.7358H166.279V98.1718H157.843V89.7358Z" fill="#50D9FF"/>
</g>
</g>
</g>
<g filter="url(#filter2_d)">
<rect x="174.304" y="66.0002" width="74.5457" height="74.5457" rx="37.2729" fill="white" shape-rendering="crispEdges"/>
<g clip-path="url(#clip3)">
<path d="M192.089 112.805C192.207 112.616 192.396 112.604 192.655 112.769C198.554 116.191 204.973 117.901 211.91 117.901C216.535 117.901 221.101 117.04 225.608 115.317C225.726 115.27 225.897 115.199 226.121 115.105C226.345 115.01 226.505 114.939 226.599 114.892C226.953 114.751 227.231 114.821 227.432 115.105C227.632 115.388 227.567 115.647 227.237 115.883C226.812 116.19 226.269 116.544 225.609 116.945C223.579 118.149 221.314 119.081 218.813 119.741C216.312 120.402 213.87 120.733 211.486 120.733C207.805 120.733 204.324 120.09 201.044 118.804C197.764 117.518 194.827 115.707 192.231 113.371C192.089 113.253 192.019 113.135 192.019 113.017C192.019 112.947 192.042 112.875 192.089 112.805Z" fill="#FF9901"/>
<path d="M222.529 104.982C222.152 104.487 221.881 104.127 221.715 103.903C221.55 103.679 221.379 103.313 221.202 102.805C221.025 102.298 220.937 101.737 220.937 101.124V92.5582C220.937 92.4635 220.925 92.1628 220.901 91.6555C220.878 91.1481 220.843 90.8181 220.795 90.664C220.748 90.5107 220.677 90.2333 220.583 89.832C220.488 89.4306 220.382 89.1239 220.264 88.912C220.146 88.6992 219.987 88.458 219.786 88.1866C219.587 87.9168 219.368 87.6627 219.131 87.426C217.621 86.0339 215.521 85.3379 212.831 85.3379H211.946C209.846 85.4559 208.012 86.0219 206.442 87.0366C204.873 88.0513 203.888 89.6087 203.487 91.7088C203.463 91.8035 203.451 91.8855 203.451 91.9569C203.451 92.2868 203.652 92.4996 204.053 92.5943L208.124 93.0896C208.501 93.0189 208.737 92.7476 208.832 92.2756C208.997 91.5202 209.362 90.9309 209.929 90.5054C210.495 90.0808 211.168 89.8327 211.946 89.7621H212.23C213.292 89.7621 214.071 90.1161 214.566 90.8241C214.896 91.3435 215.061 92.3582 215.061 93.8683V94.4704C213.622 94.5884 212.584 94.6831 211.946 94.7537C210.082 94.9898 208.513 95.3791 207.239 95.9218C205.847 96.5118 204.75 97.3845 203.948 98.5413C203.146 99.6973 202.744 101.09 202.744 102.718C202.744 104.771 203.328 106.358 204.496 107.479C205.664 108.6 207.157 109.16 208.974 109.16C210.154 109.16 211.144 109.042 211.947 108.806C213.221 108.452 214.519 107.556 215.841 106.116C215.935 106.234 216.1 106.464 216.336 106.806C216.572 107.148 216.743 107.378 216.849 107.496C216.955 107.614 217.133 107.803 217.38 108.062C217.628 108.322 217.917 108.593 218.247 108.876C218.649 109.042 218.991 109.018 219.274 108.806C219.44 108.664 220.501 107.744 222.46 106.045C222.648 105.904 222.743 105.738 222.743 105.55C222.742 105.383 222.671 105.195 222.529 104.982ZM215.061 98.6818C215.061 99.4372 215.055 99.9799 215.043 100.31C215.031 100.64 214.96 101.071 214.83 101.602C214.7 102.133 214.506 102.623 214.246 103.071C213.704 104.085 212.937 104.723 211.946 104.982C211.898 104.982 211.81 104.994 211.68 105.017C211.55 105.041 211.45 105.053 211.38 105.053C210.601 105.053 209.982 104.775 209.522 104.221C209.062 103.666 208.832 102.929 208.832 102.009C208.832 99.9792 209.87 98.6698 211.946 98.0798C212.654 97.8911 213.692 97.7964 215.061 97.7964V98.6818Z" fill="#040505"/>
<path d="M223.697 113.406C223.745 113.312 223.815 113.218 223.91 113.123C224.5 112.722 225.066 112.45 225.609 112.309C226.506 112.073 227.379 111.943 228.228 111.92C228.464 111.896 228.688 111.908 228.901 111.955C229.963 112.05 230.6 112.226 230.813 112.486C230.907 112.627 230.954 112.84 230.954 113.123V113.371C230.954 114.197 230.73 115.171 230.281 116.291C229.833 117.412 229.208 118.315 228.405 118.999C228.287 119.093 228.181 119.14 228.086 119.14C228.039 119.14 227.992 119.128 227.945 119.105C227.804 119.034 227.768 118.904 227.839 118.715C228.712 116.663 229.148 115.234 229.148 114.432C229.148 114.173 229.101 113.984 229.007 113.866C228.771 113.583 228.11 113.442 227.025 113.442C226.624 113.442 226.152 113.465 225.609 113.512C225.019 113.583 224.476 113.654 223.981 113.725C223.84 113.725 223.745 113.702 223.697 113.654C223.65 113.607 223.639 113.56 223.662 113.513C223.662 113.489 223.674 113.454 223.697 113.406Z" fill="#FF9901"/>
</g>
</g>
<g filter="url(#filter3_d)">
<rect x="237.789" y="66.0002" width="74.5457" height="74.5457" rx="37.2729" fill="white" shape-rendering="crispEdges"/>
<path d="M286.473 110.073C285.842 110.073 285.332 109.563 285.332 108.932V102.729C285.332 102.085 284.808 101.561 284.164 101.561H265.958C265.314 101.561 264.79 102.085 264.79 102.729V104.032C264.79 104.663 264.28 105.173 263.649 105.173C263.018 105.173 262.508 104.663 262.508 104.032V102.729C262.508 100.836 264.052 99.2788 265.958 99.2788H284.164C286.057 99.2788 287.614 100.823 287.614 102.729V108.932C287.614 109.563 287.104 110.073 286.473 110.073Z" fill="#F9B21D"/>
<path d="M291.078 122.734H259.044C257.151 122.734 255.594 121.19 255.594 119.283V110.181C255.594 109.549 256.104 109.039 256.735 109.039C257.366 109.039 257.876 109.549 257.876 110.181V119.283C257.876 119.928 258.4 120.451 259.044 120.451H291.078C291.723 120.451 292.247 119.928 292.247 119.283V99.9768C292.247 99.6143 292.085 99.2921 291.803 99.0639L275.786 86.3495C275.357 86.0139 274.766 86.0139 274.336 86.3495L258.319 99.0639C258.037 99.2787 257.876 99.6143 257.876 99.9768V103.884C257.876 104.313 258.118 104.703 258.494 104.918L274.511 113.443C274.86 113.631 275.263 113.631 275.612 113.443L285.936 107.938C286.487 107.643 287.185 107.858 287.48 108.408C287.776 108.959 287.561 109.657 287.01 109.952L276.686 115.457C275.666 115.994 274.457 115.994 273.45 115.457L257.42 106.918C256.292 106.314 255.594 105.146 255.594 103.87V99.9634C255.594 98.9027 256.077 97.9227 256.896 97.2648L272.913 84.5639C273.517 84.0805 274.283 83.812 275.061 83.812C275.84 83.812 276.592 84.0805 277.209 84.5639L293.227 97.2782C294.059 97.9361 294.529 98.9162 294.529 99.9768V119.297C294.529 121.19 292.985 122.734 291.078 122.734Z" fill="#226DB4"/>
</g>
<defs>
<filter id="filter0_d" x="45.2031" y="64.9764" width="78.8057" height="78.8054" filterUnits="userSpaceOnUse" color-interpolation-filters="sRGB">
<feFlood flood-opacity="0" result="BackgroundImageFix"/>
<feColorMatrix in="SourceAlpha" type="matrix" values="0 0 0 0 0 0 0 0 0 0 0 0 0 0 0 0 0 0 127 0" result="hardAlpha"/>
<feOffset dy="1.10603"/>
<feGaussianBlur stdDeviation="1.06494"/>
<feComposite in2="hardAlpha" operator="out"/>
<feColorMatrix type="matrix" values="0 0 0 0 0 0 0 0 0 0 0 0 0 0 0 0 0 0 0.08 0"/>
<feBlend mode="normal" in2="BackgroundImageFix" result="effect1_dropShadow"/>
<feBlend mode="normal" in="SourceGraphic" in2="effect1_dropShadow" result="shape"/>
</filter>
<filter id="filter1_d" x="108.688" y="64.9764" width="78.8057" height="78.8054" filterUnits="userSpaceOnUse" color-interpolation-filters="sRGB">
<feFlood flood-opacity="0" result="BackgroundImageFix"/>
<feColorMatrix in="SourceAlpha" type="matrix" values="0 0 0 0 0 0 0 0 0 0 0 0 0 0 0 0 0 0 127 0" result="hardAlpha"/>
<feOffset dy="1.10603"/>
<feGaussianBlur stdDeviation="1.06494"/>
<feComposite in2="hardAlpha" operator="out"/>
<feColorMatrix type="matrix" values="0 0 0 0 0 0 0 0 0 0 0 0 0 0 0 0 0 0 0.08 0"/>
<feBlend mode="normal" in2="BackgroundImageFix" result="effect1_dropShadow"/>
<feBlend mode="normal" in="SourceGraphic" in2="effect1_dropShadow" result="shape"/>
</filter>
<filter id="filter2_d" x="172.174" y="64.9764" width="78.8057" height="78.8054" filterUnits="userSpaceOnUse" color-interpolation-filters="sRGB">
<feFlood flood-opacity="0" result="BackgroundImageFix"/>
<feColorMatrix in="SourceAlpha" type="matrix" values="0 0 0 0 0 0 0 0 0 0 0 0 0 0 0 0 0 0 127 0" result="hardAlpha"/>
<feOffset dy="1.10603"/>
<feGaussianBlur stdDeviation="1.06494"/>
<feComposite in2="hardAlpha" operator="out"/>
<feColorMatrix type="matrix" values="0 0 0 0 0 0 0 0 0 0 0 0 0 0 0 0 0 0 0.08 0"/>
<feBlend mode="normal" in2="BackgroundImageFix" result="effect1_dropShadow"/>
<feBlend mode="normal" in="SourceGraphic" in2="effect1_dropShadow" result="shape"/>
</filter>
<filter id="filter3_d" x="235.659" y="64.9764" width="78.8057" height="78.8054" filterUnits="userSpaceOnUse" color-interpolation-filters="sRGB">
<feFlood flood-opacity="0" result="BackgroundImageFix"/>
<feColorMatrix in="SourceAlpha" type="matrix" values="0 0 0 0 0 0 0 0 0 0 0 0 0 0 0 0 0 0 127 0" result="hardAlpha"/>
<feOffset dy="1.10603"/>
<feGaussianBlur stdDeviation="1.06494"/>
<feComposite in2="hardAlpha" operator="out"/>
<feColorMatrix type="matrix" values="0 0 0 0 0 0 0 0 0 0 0 0 0 0 0 0 0 0 0.08 0"/>
<feBlend mode="normal" in2="BackgroundImageFix" result="effect1_dropShadow"/>
<feBlend mode="normal" in="SourceGraphic" in2="effect1_dropShadow" result="shape"/>
</filter>
<linearGradient id="paint0_linear" x1="152.688" y1="103.796" x2="152.688" y2="121.605" gradientUnits="userSpaceOnUse">
<stop stop-color="#35B8F1"/>
<stop offset="1" stop-color="#28A8EA"/>
</linearGradient>
<linearGradient id="paint1_linear" x1="131.431" y1="91.2053" x2="144.887" y2="114.512" gradientUnits="userSpaceOnUse">
<stop stop-color="#1784D9"/>
<stop offset="0.5" stop-color="#107AD5"/>
<stop offset="1" stop-color="#0A63C9"/>
</linearGradient>
<clipPath id="clip0">
<rect width="38.9352" height="29.228" fill="white" transform="translate(65.0479 88.5825)"/>
</clipPath>
<clipPath id="clip1">
<rect width="42.1798" height="42.1798" fill="white" transform="translate(127.001 82.1831)"/>
</clipPath>
<clipPath id="clip2">
<rect width="42.1798" height="37.9618" fill="white" transform="translate(126.911 83.8777)"/>
</clipPath>
<clipPath id="clip3">
<rect width="38.9352" height="35.3957" fill="white" transform="translate(192.019 85.3379)"/>
</clipPath>
</defs>
</svg>
