<svg width="360" height="206" viewBox="0 0 360 206" fill="none" xmlns="http://www.w3.org/2000/svg">
<g clip-path="url(#clip0)">
<rect width="359.333" height="206" rx="4" fill="#F3F4F6"/>
<circle cx="231.365" cy="0.773252" r="0.773252" fill="#E2E8F0"/>
<circle cx="231.365" cy="5.41266" r="0.773252" fill="#E2E8F0"/>
<circle cx="231.365" cy="10.0525" r="0.773252" fill="#E2E8F0"/>
<circle cx="231.365" cy="14.6922" r="0.773252" fill="#E2E8F0"/>
<circle cx="231.365" cy="19.3309" r="0.773252" fill="#E2E8F0"/>
<circle cx="231.365" cy="23.9705" r="0.773252" fill="#E2E8F0"/>
<circle cx="231.365" cy="28.6104" r="0.773252" fill="#E2E8F0"/>
<circle cx="231.365" cy="33.2498" r="0.773252" fill="#E2E8F0"/>
<circle cx="231.365" cy="37.8892" r="0.773252" fill="#E2E8F0"/>
<circle cx="231.365" cy="42.5291" r="0.773252" fill="#E2E8F0"/>
<circle cx="231.365" cy="47.1688" r="0.773252" fill="#E2E8F0"/>
<circle cx="231.365" cy="51.8074" r="0.773252" fill="#E2E8F0"/>
<circle cx="236.005" cy="0.773252" r="0.773252" fill="#E2E8F0"/>
<circle cx="236.005" cy="5.41266" r="0.773252" fill="#E2E8F0"/>
<circle cx="236.005" cy="10.0525" r="0.773252" fill="#E2E8F0"/>
<circle cx="236.005" cy="14.6922" r="0.773252" fill="#E2E8F0"/>
<circle cx="236.005" cy="19.3309" r="0.773252" fill="#E2E8F0"/>
<circle cx="236.005" cy="23.9705" r="0.773252" fill="#E2E8F0"/>
<circle cx="236.005" cy="28.6104" r="0.773252" fill="#E2E8F0"/>
<circle cx="236.005" cy="33.2498" r="0.773252" fill="#E2E8F0"/>
<circle cx="236.005" cy="37.8892" r="0.773252" fill="#E2E8F0"/>
<circle cx="236.005" cy="42.5291" r="0.773252" fill="#E2E8F0"/>
<circle cx="236.005" cy="47.1688" r="0.773252" fill="#E2E8F0"/>
<circle cx="236.005" cy="51.8074" r="0.773252" fill="#E2E8F0"/>
<circle cx="240.644" cy="0.773252" r="0.773252" fill="#E2E8F0"/>
<circle cx="240.644" cy="5.41266" r="0.773252" fill="#E2E8F0"/>
<circle cx="240.644" cy="10.0525" r="0.773252" fill="#E2E8F0"/>
<circle cx="240.644" cy="14.6922" r="0.773252" fill="#E2E8F0"/>
<circle cx="240.644" cy="19.3309" r="0.773252" fill="#E2E8F0"/>
<circle cx="240.644" cy="23.9705" r="0.773252" fill="#E2E8F0"/>
<circle cx="240.644" cy="28.6104" r="0.773252" fill="#E2E8F0"/>
<circle cx="240.644" cy="33.2498" r="0.773252" fill="#E2E8F0"/>
<circle cx="240.644" cy="37.8892" r="0.773252" fill="#E2E8F0"/>
<circle cx="240.644" cy="42.5291" r="0.773252" fill="#E2E8F0"/>
<circle cx="240.644" cy="47.1688" r="0.773252" fill="#E2E8F0"/>
<circle cx="240.644" cy="51.8074" r="0.773252" fill="#E2E8F0"/>
<circle cx="245.284" cy="0.773252" r="0.773252" fill="#E2E8F0"/>
<circle cx="245.284" cy="5.41266" r="0.773252" fill="#E2E8F0"/>
<circle cx="245.284" cy="10.0525" r="0.773252" fill="#E2E8F0"/>
<circle cx="245.284" cy="14.6922" r="0.773252" fill="#E2E8F0"/>
<circle cx="245.284" cy="19.3309" r="0.773252" fill="#E2E8F0"/>
<circle cx="245.284" cy="23.9705" r="0.773252" fill="#E2E8F0"/>
<circle cx="245.284" cy="28.6104" r="0.773252" fill="#E2E8F0"/>
<circle cx="245.284" cy="33.2498" r="0.773252" fill="#E2E8F0"/>
<circle cx="245.284" cy="37.8892" r="0.773252" fill="#E2E8F0"/>
<circle cx="245.284" cy="42.5291" r="0.773252" fill="#E2E8F0"/>
<circle cx="245.284" cy="47.1688" r="0.773252" fill="#E2E8F0"/>
<circle cx="245.284" cy="51.8074" r="0.773252" fill="#E2E8F0"/>
<circle cx="249.924" cy="0.773252" r="0.773252" fill="#E2E8F0"/>
<circle cx="249.924" cy="5.41266" r="0.773252" fill="#E2E8F0"/>
<circle cx="249.924" cy="10.0525" r="0.773252" fill="#E2E8F0"/>
<circle cx="249.924" cy="14.6922" r="0.773252" fill="#E2E8F0"/>
<circle cx="249.924" cy="19.3309" r="0.773252" fill="#E2E8F0"/>
<circle cx="249.924" cy="23.9705" r="0.773252" fill="#E2E8F0"/>
<circle cx="249.924" cy="28.6104" r="0.773252" fill="#E2E8F0"/>
<circle cx="249.924" cy="33.2498" r="0.773252" fill="#E2E8F0"/>
<circle cx="249.924" cy="37.8892" r="0.773252" fill="#E2E8F0"/>
<circle cx="249.924" cy="42.5291" r="0.773252" fill="#E2E8F0"/>
<circle cx="249.924" cy="47.1688" r="0.773252" fill="#E2E8F0"/>
<circle cx="249.924" cy="51.8074" r="0.773252" fill="#E2E8F0"/>
<circle cx="254.562" cy="0.773252" r="0.773252" fill="#E2E8F0"/>
<circle cx="254.562" cy="5.41266" r="0.773252" fill="#E2E8F0"/>
<circle cx="254.562" cy="10.0525" r="0.773252" fill="#E2E8F0"/>
<circle cx="254.562" cy="14.6922" r="0.773252" fill="#E2E8F0"/>
<circle cx="254.562" cy="19.3309" r="0.773252" fill="#E2E8F0"/>
<circle cx="254.562" cy="23.9705" r="0.773252" fill="#E2E8F0"/>
<circle cx="254.562" cy="28.6104" r="0.773252" fill="#E2E8F0"/>
<circle cx="254.562" cy="33.2498" r="0.773252" fill="#E2E8F0"/>
<circle cx="254.562" cy="37.8892" r="0.773252" fill="#E2E8F0"/>
<circle cx="254.562" cy="42.5291" r="0.773252" fill="#E2E8F0"/>
<circle cx="254.562" cy="47.1688" r="0.773252" fill="#E2E8F0"/>
<circle cx="254.562" cy="51.8074" r="0.773252" fill="#E2E8F0"/>
<circle cx="259.202" cy="0.773252" r="0.773252" fill="#E2E8F0"/>
<circle cx="259.202" cy="5.41266" r="0.773252" fill="#E2E8F0"/>
<circle cx="259.202" cy="10.0525" r="0.773252" fill="#E2E8F0"/>
<circle cx="259.202" cy="14.6922" r="0.773252" fill="#E2E8F0"/>
<circle cx="259.202" cy="19.3309" r="0.773252" fill="#E2E8F0"/>
<circle cx="259.202" cy="23.9705" r="0.773252" fill="#E2E8F0"/>
<circle cx="259.202" cy="28.6104" r="0.773252" fill="#E2E8F0"/>
<circle cx="259.202" cy="33.2498" r="0.773252" fill="#E2E8F0"/>
<circle cx="259.202" cy="37.8892" r="0.773252" fill="#E2E8F0"/>
<circle cx="259.202" cy="42.5291" r="0.773252" fill="#E2E8F0"/>
<circle cx="259.202" cy="47.1688" r="0.773252" fill="#E2E8F0"/>
<circle cx="259.202" cy="51.8074" r="0.773252" fill="#E2E8F0"/>
<circle cx="263.843" cy="0.773252" r="0.773252" fill="#E2E8F0"/>
<circle cx="263.843" cy="5.41266" r="0.773252" fill="#E2E8F0"/>
<circle cx="263.843" cy="10.0525" r="0.773252" fill="#E2E8F0"/>
<circle cx="263.843" cy="14.6922" r="0.773252" fill="#E2E8F0"/>
<circle cx="263.843" cy="19.3309" r="0.773252" fill="#E2E8F0"/>
<circle cx="263.843" cy="23.9705" r="0.773252" fill="#E2E8F0"/>
<circle cx="263.843" cy="28.6104" r="0.773252" fill="#E2E8F0"/>
<circle cx="263.843" cy="33.2498" r="0.773252" fill="#E2E8F0"/>
<circle cx="263.843" cy="37.8892" r="0.773252" fill="#E2E8F0"/>
<circle cx="263.843" cy="42.5291" r="0.773252" fill="#E2E8F0"/>
<circle cx="263.843" cy="47.1688" r="0.773252" fill="#E2E8F0"/>
<circle cx="263.843" cy="51.8074" r="0.773252" fill="#E2E8F0"/>
<circle cx="268.481" cy="0.773252" r="0.773252" fill="#E2E8F0"/>
<circle cx="268.481" cy="5.41266" r="0.773252" fill="#E2E8F0"/>
<circle cx="268.481" cy="10.0525" r="0.773252" fill="#E2E8F0"/>
<circle cx="268.481" cy="14.6922" r="0.773252" fill="#E2E8F0"/>
<circle cx="268.481" cy="19.3309" r="0.773252" fill="#E2E8F0"/>
<circle cx="268.481" cy="23.9705" r="0.773252" fill="#E2E8F0"/>
<circle cx="268.481" cy="28.6104" r="0.773252" fill="#E2E8F0"/>
<circle cx="268.481" cy="33.2498" r="0.773252" fill="#E2E8F0"/>
<circle cx="268.481" cy="37.8892" r="0.773252" fill="#E2E8F0"/>
<circle cx="268.481" cy="42.5291" r="0.773252" fill="#E2E8F0"/>
<circle cx="268.481" cy="47.1688" r="0.773252" fill="#E2E8F0"/>
<circle cx="268.481" cy="51.8074" r="0.773252" fill="#E2E8F0"/>
<circle cx="273.121" cy="0.773252" r="0.773252" fill="#E2E8F0"/>
<circle cx="273.121" cy="5.41266" r="0.773252" fill="#E2E8F0"/>
<circle cx="273.121" cy="10.0525" r="0.773252" fill="#E2E8F0"/>
<circle cx="273.121" cy="14.6922" r="0.773252" fill="#E2E8F0"/>
<circle cx="273.121" cy="19.3309" r="0.773252" fill="#E2E8F0"/>
<circle cx="273.121" cy="23.9705" r="0.773252" fill="#E2E8F0"/>
<circle cx="273.121" cy="28.6104" r="0.773252" fill="#E2E8F0"/>
<circle cx="273.121" cy="33.2498" r="0.773252" fill="#E2E8F0"/>
<circle cx="273.121" cy="37.8892" r="0.773252" fill="#E2E8F0"/>
<circle cx="273.121" cy="42.5291" r="0.773252" fill="#E2E8F0"/>
<circle cx="273.121" cy="47.1688" r="0.773252" fill="#E2E8F0"/>
<circle cx="273.121" cy="51.8074" r="0.773252" fill="#E2E8F0"/>
<circle cx="277.761" cy="0.773252" r="0.773252" fill="#E2E8F0"/>
<circle cx="277.761" cy="5.4129" r="0.773252" fill="#E2E8F0"/>
<circle cx="277.761" cy="10.0525" r="0.773252" fill="#E2E8F0"/>
<circle cx="277.761" cy="14.6922" r="0.773252" fill="#E2E8F0"/>
<circle cx="277.761" cy="19.3309" r="0.773252" fill="#E2E8F0"/>
<circle cx="277.761" cy="23.9705" r="0.773252" fill="#E2E8F0"/>
<circle cx="277.761" cy="28.6102" r="0.773252" fill="#E2E8F0"/>
<circle cx="277.761" cy="33.2498" r="0.773252" fill="#E2E8F0"/>
<circle cx="277.761" cy="37.8895" r="0.773252" fill="#E2E8F0"/>
<circle cx="277.761" cy="42.5291" r="0.773252" fill="#E2E8F0"/>
<circle cx="277.761" cy="47.1688" r="0.773252" fill="#E2E8F0"/>
<circle cx="277.761" cy="51.8074" r="0.773252" fill="#E2E8F0"/>
<circle cx="282.4" cy="0.773252" r="0.773252" fill="#E2E8F0"/>
<circle cx="282.4" cy="5.41266" r="0.773252" fill="#E2E8F0"/>
<circle cx="282.4" cy="10.0525" r="0.773252" fill="#E2E8F0"/>
<circle cx="282.4" cy="14.6922" r="0.773252" fill="#E2E8F0"/>
<circle cx="282.4" cy="19.3309" r="0.773252" fill="#E2E8F0"/>
<circle cx="282.4" cy="23.9705" r="0.773252" fill="#E2E8F0"/>
<circle cx="282.4" cy="28.6104" r="0.773252" fill="#E2E8F0"/>
<circle cx="282.4" cy="33.2498" r="0.773252" fill="#E2E8F0"/>
<circle cx="282.4" cy="37.8892" r="0.773252" fill="#E2E8F0"/>
<circle cx="282.4" cy="42.5291" r="0.773252" fill="#E2E8F0"/>
<circle cx="282.4" cy="47.1688" r="0.773252" fill="#E2E8F0"/>
<circle cx="282.4" cy="51.8074" r="0.773252" fill="#E2E8F0"/>
<circle cx="56.7733" cy="154.026" r="0.773252" fill="#E2E8F0"/>
<circle cx="56.7733" cy="158.666" r="0.773252" fill="#E2E8F0"/>
<circle cx="56.7733" cy="163.305" r="0.773252" fill="#E2E8F0"/>
<circle cx="56.7733" cy="167.945" r="0.773252" fill="#E2E8F0"/>
<circle cx="56.7733" cy="172.584" r="0.773252" fill="#E2E8F0"/>
<circle cx="56.7733" cy="177.223" r="0.773252" fill="#E2E8F0"/>
<circle cx="56.7733" cy="181.863" r="0.773252" fill="#E2E8F0"/>
<circle cx="56.7733" cy="186.503" r="0.773252" fill="#E2E8F0"/>
<circle cx="56.7733" cy="191.142" r="0.773252" fill="#E2E8F0"/>
<circle cx="56.7733" cy="195.782" r="0.773252" fill="#E2E8F0"/>
<circle cx="56.7733" cy="200.422" r="0.773252" fill="#E2E8F0"/>
<circle cx="56.7733" cy="205.06" r="0.773252" fill="#E2E8F0"/>
<circle cx="61.4129" cy="154.026" r="0.773252" fill="#E2E8F0"/>
<circle cx="61.4129" cy="158.666" r="0.773252" fill="#E2E8F0"/>
<circle cx="61.4129" cy="163.305" r="0.773252" fill="#E2E8F0"/>
<circle cx="61.4129" cy="167.945" r="0.773252" fill="#E2E8F0"/>
<circle cx="61.4129" cy="172.584" r="0.773252" fill="#E2E8F0"/>
<circle cx="61.4129" cy="177.223" r="0.773252" fill="#E2E8F0"/>
<circle cx="61.4129" cy="181.863" r="0.773252" fill="#E2E8F0"/>
<circle cx="61.4129" cy="186.503" r="0.773252" fill="#E2E8F0"/>
<circle cx="61.4129" cy="191.142" r="0.773252" fill="#E2E8F0"/>
<circle cx="61.4129" cy="195.782" r="0.773252" fill="#E2E8F0"/>
<circle cx="61.4129" cy="200.422" r="0.773252" fill="#E2E8F0"/>
<circle cx="61.4129" cy="205.06" r="0.773252" fill="#E2E8F0"/>
<circle cx="66.0526" cy="154.026" r="0.773252" fill="#E2E8F0"/>
<circle cx="66.0526" cy="158.666" r="0.773252" fill="#E2E8F0"/>
<circle cx="66.0526" cy="163.305" r="0.773252" fill="#E2E8F0"/>
<circle cx="66.0526" cy="167.945" r="0.773252" fill="#E2E8F0"/>
<circle cx="66.0526" cy="172.584" r="0.773252" fill="#E2E8F0"/>
<circle cx="66.0526" cy="177.223" r="0.773252" fill="#E2E8F0"/>
<circle cx="66.0526" cy="181.863" r="0.773252" fill="#E2E8F0"/>
<circle cx="66.0526" cy="186.503" r="0.773252" fill="#E2E8F0"/>
<circle cx="66.0526" cy="191.142" r="0.773252" fill="#E2E8F0"/>
<circle cx="66.0526" cy="195.782" r="0.773252" fill="#E2E8F0"/>
<circle cx="66.0526" cy="200.422" r="0.773252" fill="#E2E8F0"/>
<circle cx="66.0526" cy="205.06" r="0.773252" fill="#E2E8F0"/>
<circle cx="70.6922" cy="154.026" r="0.773252" fill="#E2E8F0"/>
<circle cx="70.6922" cy="158.666" r="0.773252" fill="#E2E8F0"/>
<circle cx="70.6922" cy="163.305" r="0.773252" fill="#E2E8F0"/>
<circle cx="70.6922" cy="167.945" r="0.773252" fill="#E2E8F0"/>
<circle cx="70.6922" cy="172.584" r="0.773252" fill="#E2E8F0"/>
<circle cx="70.6922" cy="177.223" r="0.773252" fill="#E2E8F0"/>
<circle cx="70.6922" cy="181.863" r="0.773252" fill="#E2E8F0"/>
<circle cx="70.6922" cy="186.503" r="0.773252" fill="#E2E8F0"/>
<circle cx="70.6922" cy="191.142" r="0.773252" fill="#E2E8F0"/>
<circle cx="70.6922" cy="195.782" r="0.773252" fill="#E2E8F0"/>
<circle cx="70.6922" cy="200.422" r="0.773252" fill="#E2E8F0"/>
<circle cx="70.6922" cy="205.06" r="0.773252" fill="#E2E8F0"/>
<circle cx="75.3318" cy="154.026" r="0.773252" fill="#E2E8F0"/>
<circle cx="75.3318" cy="158.666" r="0.773252" fill="#E2E8F0"/>
<circle cx="75.3318" cy="163.305" r="0.773252" fill="#E2E8F0"/>
<circle cx="75.3318" cy="167.945" r="0.773252" fill="#E2E8F0"/>
<circle cx="75.3318" cy="172.584" r="0.773252" fill="#E2E8F0"/>
<circle cx="75.3318" cy="177.223" r="0.773252" fill="#E2E8F0"/>
<circle cx="75.3318" cy="181.863" r="0.773252" fill="#E2E8F0"/>
<circle cx="75.3318" cy="186.503" r="0.773252" fill="#E2E8F0"/>
<circle cx="75.3318" cy="191.142" r="0.773252" fill="#E2E8F0"/>
<circle cx="75.3318" cy="195.782" r="0.773252" fill="#E2E8F0"/>
<circle cx="75.3318" cy="200.422" r="0.773252" fill="#E2E8F0"/>
<circle cx="75.3318" cy="205.06" r="0.773252" fill="#E2E8F0"/>
<circle cx="79.9705" cy="154.026" r="0.773252" fill="#E2E8F0"/>
<circle cx="79.9705" cy="158.666" r="0.773252" fill="#E2E8F0"/>
<circle cx="79.9705" cy="163.305" r="0.773252" fill="#E2E8F0"/>
<circle cx="79.9705" cy="167.945" r="0.773252" fill="#E2E8F0"/>
<circle cx="79.9705" cy="172.584" r="0.773252" fill="#E2E8F0"/>
<circle cx="79.9705" cy="177.223" r="0.773252" fill="#E2E8F0"/>
<circle cx="79.9705" cy="181.863" r="0.773252" fill="#E2E8F0"/>
<circle cx="79.9705" cy="186.503" r="0.773252" fill="#E2E8F0"/>
<circle cx="79.9705" cy="191.142" r="0.773252" fill="#E2E8F0"/>
<circle cx="79.9705" cy="195.782" r="0.773252" fill="#E2E8F0"/>
<circle cx="79.9705" cy="200.422" r="0.773252" fill="#E2E8F0"/>
<circle cx="79.9705" cy="205.06" r="0.773252" fill="#E2E8F0"/>
<circle cx="84.6102" cy="154.026" r="0.773252" fill="#E2E8F0"/>
<circle cx="84.6102" cy="158.666" r="0.773252" fill="#E2E8F0"/>
<circle cx="84.6102" cy="163.305" r="0.773252" fill="#E2E8F0"/>
<circle cx="84.6102" cy="167.945" r="0.773252" fill="#E2E8F0"/>
<circle cx="84.6102" cy="172.584" r="0.773252" fill="#E2E8F0"/>
<circle cx="84.6102" cy="177.223" r="0.773252" fill="#E2E8F0"/>
<circle cx="84.6102" cy="181.863" r="0.773252" fill="#E2E8F0"/>
<circle cx="84.6102" cy="186.503" r="0.773252" fill="#E2E8F0"/>
<circle cx="84.6102" cy="191.142" r="0.773252" fill="#E2E8F0"/>
<circle cx="84.6102" cy="195.782" r="0.773252" fill="#E2E8F0"/>
<circle cx="84.6102" cy="200.422" r="0.773252" fill="#E2E8F0"/>
<circle cx="84.6102" cy="205.06" r="0.773252" fill="#E2E8F0"/>
<circle cx="89.2508" cy="154.026" r="0.773252" fill="#E2E8F0"/>
<circle cx="89.2508" cy="158.666" r="0.773252" fill="#E2E8F0"/>
<circle cx="89.2508" cy="163.305" r="0.773252" fill="#E2E8F0"/>
<circle cx="89.2508" cy="167.945" r="0.773252" fill="#E2E8F0"/>
<circle cx="89.2508" cy="172.584" r="0.773252" fill="#E2E8F0"/>
<circle cx="89.2508" cy="177.223" r="0.773252" fill="#E2E8F0"/>
<circle cx="89.2508" cy="181.863" r="0.773252" fill="#E2E8F0"/>
<circle cx="89.2508" cy="186.503" r="0.773252" fill="#E2E8F0"/>
<circle cx="89.2508" cy="191.142" r="0.773252" fill="#E2E8F0"/>
<circle cx="89.2508" cy="195.782" r="0.773252" fill="#E2E8F0"/>
<circle cx="89.2508" cy="200.422" r="0.773252" fill="#E2E8F0"/>
<circle cx="89.2508" cy="205.06" r="0.773252" fill="#E2E8F0"/>
<circle cx="93.8895" cy="154.026" r="0.773252" fill="#E2E8F0"/>
<circle cx="93.8895" cy="158.666" r="0.773252" fill="#E2E8F0"/>
<circle cx="93.8895" cy="163.305" r="0.773252" fill="#E2E8F0"/>
<circle cx="93.8895" cy="167.945" r="0.773252" fill="#E2E8F0"/>
<circle cx="93.8895" cy="172.584" r="0.773252" fill="#E2E8F0"/>
<circle cx="93.8895" cy="177.223" r="0.773252" fill="#E2E8F0"/>
<circle cx="93.8895" cy="181.863" r="0.773252" fill="#E2E8F0"/>
<circle cx="93.8895" cy="186.503" r="0.773252" fill="#E2E8F0"/>
<circle cx="93.8895" cy="191.142" r="0.773252" fill="#E2E8F0"/>
<circle cx="93.8895" cy="195.782" r="0.773252" fill="#E2E8F0"/>
<circle cx="93.8895" cy="200.422" r="0.773252" fill="#E2E8F0"/>
<circle cx="93.8895" cy="205.06" r="0.773252" fill="#E2E8F0"/>
<circle cx="98.5291" cy="154.026" r="0.773252" fill="#E2E8F0"/>
<circle cx="98.5291" cy="158.666" r="0.773252" fill="#E2E8F0"/>
<circle cx="98.5291" cy="163.305" r="0.773252" fill="#E2E8F0"/>
<circle cx="98.5291" cy="167.945" r="0.773252" fill="#E2E8F0"/>
<circle cx="98.5291" cy="172.584" r="0.773252" fill="#E2E8F0"/>
<circle cx="98.5291" cy="177.223" r="0.773252" fill="#E2E8F0"/>
<circle cx="98.5291" cy="181.863" r="0.773252" fill="#E2E8F0"/>
<circle cx="98.5291" cy="186.503" r="0.773252" fill="#E2E8F0"/>
<circle cx="98.5291" cy="191.142" r="0.773252" fill="#E2E8F0"/>
<circle cx="98.5291" cy="195.782" r="0.773252" fill="#E2E8F0"/>
<circle cx="98.5291" cy="200.422" r="0.773252" fill="#E2E8F0"/>
<circle cx="98.5291" cy="205.06" r="0.773252" fill="#E2E8F0"/>
<circle cx="103.169" cy="154.026" r="0.773252" fill="#E2E8F0"/>
<circle cx="103.169" cy="158.666" r="0.773252" fill="#E2E8F0"/>
<circle cx="103.169" cy="163.305" r="0.773252" fill="#E2E8F0"/>
<circle cx="103.169" cy="167.945" r="0.773252" fill="#E2E8F0"/>
<circle cx="103.169" cy="172.584" r="0.773252" fill="#E2E8F0"/>
<circle cx="103.169" cy="177.223" r="0.773252" fill="#E2E8F0"/>
<circle cx="103.169" cy="181.863" r="0.773252" fill="#E2E8F0"/>
<circle cx="103.169" cy="186.503" r="0.773252" fill="#E2E8F0"/>
<circle cx="103.169" cy="191.142" r="0.773252" fill="#E2E8F0"/>
<circle cx="103.169" cy="195.782" r="0.773252" fill="#E2E8F0"/>
<circle cx="103.169" cy="200.422" r="0.773252" fill="#E2E8F0"/>
<circle cx="103.169" cy="205.06" r="0.773252" fill="#E2E8F0"/>
<circle cx="107.808" cy="154.026" r="0.773252" fill="#E2E8F0"/>
<circle cx="107.808" cy="158.666" r="0.773252" fill="#E2E8F0"/>
<circle cx="107.808" cy="163.305" r="0.773252" fill="#E2E8F0"/>
<circle cx="107.808" cy="167.945" r="0.773252" fill="#E2E8F0"/>
<circle cx="107.808" cy="172.584" r="0.773252" fill="#E2E8F0"/>
<circle cx="107.808" cy="177.223" r="0.773252" fill="#E2E8F0"/>
<circle cx="107.808" cy="181.863" r="0.773252" fill="#E2E8F0"/>
<circle cx="107.808" cy="186.503" r="0.773252" fill="#E2E8F0"/>
<circle cx="107.808" cy="191.142" r="0.773252" fill="#E2E8F0"/>
<circle cx="107.808" cy="195.782" r="0.773252" fill="#E2E8F0"/>
<circle cx="107.808" cy="200.422" r="0.773252" fill="#E2E8F0"/>
<circle cx="107.808" cy="205.06" r="0.773252" fill="#E2E8F0"/>
<path d="M104.611 17.1015C105.399 17.1015 106.066 17.7684 106.066 18.5565V27.286C106.066 28.1044 105.399 28.741 104.611 28.741H92.0018C91.1834 28.741 90.5469 28.1044 90.5469 27.286V18.5565C90.5469 17.7684 91.1834 17.1015 92.0018 17.1015H104.611ZM92.0018 18.0715C91.729 18.0715 91.5168 18.314 91.5168 18.5565V19.8295C92.1534 20.3751 93.1233 21.1632 96.0635 23.4972C96.5788 23.9215 97.579 24.8915 98.3065 24.8612C99.0036 24.8915 100.004 23.9215 100.519 23.4972C103.459 21.1632 104.429 20.3751 105.096 19.8295V18.5565C105.096 18.314 104.854 18.0715 104.611 18.0715H92.0018ZM104.611 27.771C104.854 27.771 105.096 27.5588 105.096 27.286V21.0723C104.399 21.6482 103.308 22.5272 101.125 24.2549C100.489 24.7702 99.3977 25.8614 98.3065 25.8311C97.185 25.8614 96.0938 24.7702 95.4573 24.2549C93.2749 22.5272 92.1837 21.6482 91.5168 21.0723V27.286C91.5168 27.5588 91.729 27.771 92.0018 27.771H104.611Z" fill="#E2E8F0"/>
<path d="M264.074 78.6937C264.074 79.8758 263.256 80.8154 262.164 81.0579C262.134 81.846 261.952 82.4522 261.558 82.9069C260.77 83.8768 259.436 84.0284 258.163 84.1496C257.345 84.2103 256.587 84.2709 256.072 84.5437C255.86 84.6649 255.648 84.8165 255.496 85.0893C256.527 85.3924 257.284 86.332 257.284 87.4232C257.284 88.7872 256.193 89.8481 254.859 89.8481C253.495 89.8481 252.435 88.7872 252.435 87.4232C252.435 86.2714 253.253 85.2711 254.374 85.059V79.1483C253.253 78.9058 252.435 77.9359 252.435 76.7538C252.435 75.4201 253.495 74.3289 254.859 74.3289C256.193 74.3289 257.284 75.4201 257.284 76.7538C257.284 77.9359 256.436 78.9058 255.344 79.1483V83.8465C255.435 83.7859 255.526 83.7253 255.617 83.695C256.314 83.3312 257.193 83.2403 258.072 83.1797C259.194 83.0584 260.285 82.9675 260.8 82.3007C261.043 82.0279 261.164 81.6035 261.194 81.0882C260.073 80.8761 259.224 79.9061 259.224 78.6937C259.224 77.36 260.285 76.2688 261.649 76.2688C262.983 76.2688 264.074 77.36 264.074 78.6937ZM253.405 76.7538C253.405 77.5722 254.041 78.2087 254.859 78.2087C255.648 78.2087 256.314 77.5722 256.314 76.7538C256.314 75.9657 255.648 75.2988 254.859 75.2988C254.041 75.2988 253.405 75.9657 253.405 76.7538ZM256.314 87.4232C256.314 86.6351 255.648 85.9986 254.859 85.9683H254.829C254.041 85.9986 253.405 86.6351 253.405 87.4232C253.405 88.2416 254.041 88.8782 254.859 88.8782C255.648 88.8782 256.314 88.2416 256.314 87.4232ZM261.983 80.1183C262.619 79.9667 263.104 79.3908 263.104 78.6937C263.104 77.9056 262.437 77.2387 261.649 77.2387C260.831 77.2387 260.194 77.9056 260.194 78.6937C260.194 79.5121 260.831 80.1486 261.649 80.1486L261.983 80.1183Z" fill="#E2E8F0"/>
<g filter="url(#filter0_d)">
<rect x="36.667" y="18" width="285.302" height="209" rx="5.96154" fill="white" shape-rendering="crispEdges"/>
<g clip-path="url(#clip1)">
<mask id="path-295-inside-1" fill="white">
<path d="M61.5479 47.8571C61.5479 45.1088 63.7758 42.8809 66.524 42.8809H292.111C294.86 42.8809 297.088 45.1088 297.088 47.857V69.4205H61.5479V47.8571Z"/>
</mask>
<path d="M61.5479 42.8809H297.088H61.5479ZM297.088 70.2499H61.5479V68.5912H297.088V70.2499ZM61.5479 69.4205V42.8809V69.4205ZM297.088 42.8809V69.4205V42.8809Z" fill="#E5E7EB" mask="url(#path-295-inside-1)"/>
<path opacity="0.5" d="M84.6534 57.1741H70.8651C70.2999 57.1741 69.8418 56.7159 69.8418 56.1508C69.8418 55.5857 70.2999 55.1275 70.8651 55.1275H84.6534C85.2185 55.1275 85.6767 55.5857 85.6767 56.1508C85.6767 56.7159 85.2185 57.1741 84.6534 57.1741Z" fill="#3B82F6"/>
<path opacity="0.4" d="M150.173 57.1741L113.163 57.1741C112.598 57.1741 112.14 56.7159 112.14 56.1508C112.14 55.5857 112.598 55.1275 113.163 55.1275L150.173 55.1275C150.739 55.1275 151.197 55.5857 151.197 56.1508C151.197 56.7159 150.739 57.1741 150.173 57.1741Z" fill="#6B7280"/>
<path opacity="0.4" d="M207.953 57.1741L177.577 57.1741C177.012 57.1741 176.554 56.7159 176.554 56.1508C176.554 55.5857 177.012 55.1275 177.577 55.1275L207.953 55.1275C208.518 55.1275 208.976 55.5857 208.976 56.1508C208.976 56.7159 208.518 57.1741 207.953 57.1741Z" fill="#6B7280"/>
<rect x="235.991" y="48.4924" width="55.6444" height="15.3164" rx="7.65819" fill="#D1FAE5"/>
<path d="M282.319 57.1738L245.308 57.1738C244.743 57.1738 244.285 56.7157 244.285 56.1506C244.285 55.5854 244.743 55.1273 245.308 55.1273L282.319 55.1273C282.884 55.1273 283.342 55.5854 283.342 56.1506C283.342 56.7157 282.884 57.1738 282.319 57.1738Z" fill="#10B981"/>
<mask id="path-302-inside-2" fill="white">
<path d="M61.5479 69.4204H297.088V95.9601H61.5479V69.4204Z"/>
</mask>
<path d="M297.088 95.9601V95.1307H61.5479V95.9601V96.7895H297.088V95.9601Z" fill="#E5E7EB" mask="url(#path-302-inside-2)"/>
<path opacity="0.5" d="M87.9708 83.7136H70.8651C70.2999 83.7136 69.8418 83.2555 69.8418 82.6904C69.8418 82.1252 70.2999 81.6671 70.8651 81.6671H87.9708C88.536 81.6671 88.9941 82.1252 88.9941 82.6904C88.9941 83.2555 88.536 83.7136 87.9708 83.7136Z" fill="#3B82F6"/>
<path opacity="0.4" d="M141.88 83.7136H113.163C112.598 83.7136 112.14 83.2555 112.14 82.6904C112.14 82.1252 112.598 81.6671 113.163 81.6671H141.88C142.445 81.6671 142.903 82.1252 142.903 82.6904C142.903 83.2555 142.445 83.7136 141.88 83.7136Z" fill="#6B7280"/>
<path opacity="0.4" d="M194.683 83.7136H177.577C177.012 83.7136 176.554 83.2555 176.554 82.6904C176.554 82.1252 177.012 81.6671 177.577 81.6671H194.683C195.248 81.6671 195.706 82.1252 195.706 82.6904C195.706 83.2555 195.248 83.7136 194.683 83.7136Z" fill="#6B7280"/>
<rect x="235.991" y="75.0322" width="49.0095" height="15.3164" rx="7.65819" fill="#FEF9C3"/>
<path d="M275.684 83.7136H245.308C244.743 83.7136 244.285 83.2555 244.285 82.6904C244.285 82.1252 244.743 81.6671 245.308 81.6671H275.684C276.249 81.6671 276.707 82.1252 276.707 82.6904C276.707 83.2555 276.249 83.7136 275.684 83.7136Z" fill="#EAB308"/>
<mask id="path-309-inside-3" fill="white">
<path d="M61.5479 95.9602H297.088V122.5H61.5479V95.9602Z"/>
</mask>
<path d="M297.088 122.5V121.671H61.5479V122.5V123.329H297.088V122.5Z" fill="#E5E7EB" mask="url(#path-309-inside-3)"/>
<path opacity="0.5" d="M81.3359 110.253H70.8651C70.2999 110.253 69.8418 109.795 69.8418 109.23C69.8418 108.665 70.2999 108.207 70.8651 108.207H81.3359C81.9011 108.207 82.3592 108.665 82.3592 109.23C82.3592 109.795 81.9011 110.253 81.3359 110.253Z" fill="#3B82F6"/>
<path opacity="0.4" d="M155.15 110.253H113.163C112.598 110.253 112.14 109.795 112.14 109.23C112.14 108.665 112.598 108.207 113.163 108.207H155.15C155.715 108.207 156.173 108.665 156.173 109.23C156.173 109.795 155.715 110.253 155.15 110.253Z" fill="#6B7280"/>
<path opacity="0.4" d="M214.588 110.253H177.577C177.012 110.253 176.554 109.795 176.554 109.23C176.554 108.665 177.012 108.207 177.577 108.207H214.588C215.153 108.207 215.611 108.665 215.611 109.23C215.611 109.795 215.153 110.253 214.588 110.253Z" fill="#6B7280"/>
<rect x="235.991" y="101.572" width="55.6444" height="15.3164" rx="7.65819" fill="#D1FAE5"/>
<path d="M282.319 110.253H245.308C244.743 110.253 244.285 109.795 244.285 109.23C244.285 108.665 244.743 108.207 245.308 108.207H282.319C282.884 108.207 283.342 108.665 283.342 109.23C283.342 109.795 282.884 110.253 282.319 110.253Z" fill="#10B981"/>
<mask id="path-316-inside-4" fill="white">
<path d="M61.5479 122.5H297.088V149.039H61.5479V122.5Z"/>
</mask>
<path d="M297.088 149.039V148.21H61.5479V149.039V149.869H297.088V149.039Z" fill="#E5E7EB" mask="url(#path-316-inside-4)"/>
<path opacity="0.5" d="M87.9708 136.793H70.8651C70.2999 136.793 69.8418 136.335 69.8418 135.769C69.8418 135.204 70.2999 134.746 70.8651 134.746H87.9708C88.536 134.746 88.9941 135.204 88.9941 135.769C88.9941 136.335 88.536 136.793 87.9708 136.793Z" fill="#3B82F6"/>
<path opacity="0.4" d="M141.88 136.793H113.163C112.598 136.793 112.14 136.335 112.14 135.769C112.14 135.204 112.598 134.746 113.163 134.746H141.88C142.445 134.746 142.903 135.204 142.903 135.769C142.903 136.335 142.445 136.793 141.88 136.793Z" fill="#6B7280"/>
<path opacity="0.4" d="M194.683 136.793H177.577C177.012 136.793 176.554 136.335 176.554 135.769C176.554 135.204 177.012 134.746 177.577 134.746H194.683C195.248 134.746 195.706 135.204 195.706 135.769C195.706 136.335 195.248 136.793 194.683 136.793Z" fill="#6B7280"/>
<rect x="235.991" y="128.111" width="49.0095" height="15.3164" rx="7.65819" fill="#FEF9C3"/>
<path d="M275.684 136.793H245.308C244.743 136.793 244.285 136.335 244.285 135.769C244.285 135.204 244.743 134.746 245.308 134.746H275.684C276.249 134.746 276.707 135.204 276.707 135.769C276.707 136.335 276.249 136.793 275.684 136.793Z" fill="#EAB308"/>
<mask id="path-323-inside-5" fill="white">
<path d="M61.5479 149.04H297.088V175.579H61.5479V149.04Z"/>
</mask>
<path d="M297.088 175.579V174.75H61.5479V175.579V176.409H297.088V175.579Z" fill="#E5E7EB" mask="url(#path-323-inside-5)"/>
<path opacity="0.5" d="M89.6296 163.333H70.8651C70.2999 163.333 69.8418 162.875 69.8418 162.309C69.8418 161.744 70.2999 161.286 70.8651 161.286H89.6296C90.1947 161.286 90.6528 161.744 90.6528 162.309C90.6528 162.875 90.1947 163.333 89.6296 163.333Z" fill="#3B82F6"/>
<path opacity="0.4" d="M148.515 163.333H113.163C112.598 163.333 112.14 162.875 112.14 162.309C112.14 161.744 112.598 161.286 113.163 161.286H148.515C149.08 161.286 149.538 161.744 149.538 162.309C149.538 162.875 149.08 163.333 148.515 163.333Z" fill="#6B7280"/>
<path opacity="0.4" d="M204.635 163.333H177.577C177.012 163.333 176.554 162.875 176.554 162.309C176.554 161.744 177.012 161.286 177.577 161.286H204.635C205.2 161.286 205.658 161.744 205.658 162.309C205.658 162.875 205.2 163.333 204.635 163.333Z" fill="#6B7280"/>
<rect x="235.991" y="154.651" width="39.0571" height="15.3164" rx="7.65819" fill="#FEE2E2"/>
<path d="M265.732 163.333H245.308C244.743 163.333 244.285 162.874 244.285 162.309C244.285 161.744 244.743 161.286 245.308 161.286H265.732C266.297 161.286 266.755 161.744 266.755 162.309C266.755 162.874 266.297 163.333 265.732 163.333Z" fill="#EF4444"/>
<mask id="path-330-inside-6" fill="white">
<path d="M61.5479 175.579H297.088V202.119H61.5479V175.579Z"/>
</mask>
<path d="M297.088 202.119V201.29H61.5479V202.119V202.948H297.088V202.119Z" fill="#E5E7EB" mask="url(#path-330-inside-6)"/>
<path opacity="0.5" d="M81.3359 189.873H70.8651C70.2999 189.873 69.8418 189.414 69.8418 188.849C69.8418 188.284 70.2999 187.826 70.8651 187.826H81.3359C81.9011 187.826 82.3592 188.284 82.3592 188.849C82.3592 189.414 81.9011 189.873 81.3359 189.873Z" fill="#3B82F6"/>
<path opacity="0.4" d="M155.15 189.873H113.163C112.598 189.873 112.14 189.414 112.14 188.849C112.14 188.284 112.598 187.826 113.163 187.826H155.15C155.715 187.826 156.173 188.284 156.173 188.849C156.173 189.414 155.715 189.873 155.15 189.873Z" fill="#6B7280"/>
<path opacity="0.4" d="M214.588 189.873H177.577C177.012 189.873 176.554 189.414 176.554 188.849C176.554 188.284 177.012 187.826 177.577 187.826H214.588C215.153 187.826 215.611 188.284 215.611 188.849C215.611 189.414 215.153 189.873 214.588 189.873Z" fill="#6B7280"/>
<rect x="235.991" y="181.191" width="55.6444" height="15.3164" rx="7.65819" fill="#D1FAE5"/>
<path d="M282.319 189.873H245.308C244.743 189.873 244.285 189.414 244.285 188.849C244.285 188.284 244.743 187.826 245.308 187.826H282.319C282.884 187.826 283.342 188.284 283.342 188.849C283.342 189.414 282.884 189.873 282.319 189.873Z" fill="#10B981"/>
</g>
<rect x="61.9625" y="43.2955" width="234.71" height="158.409" rx="4.56151" stroke="#E5E7EB" stroke-width="0.829365"/>
</g>
</g>
<defs>
<filter id="filter0_d" x="23.7079" y="12.8164" width="311.22" height="234.918" filterUnits="userSpaceOnUse" color-interpolation-filters="sRGB">
<feFlood flood-opacity="0" result="BackgroundImageFix"/>
<feColorMatrix in="SourceAlpha" type="matrix" values="0 0 0 0 0 0 0 0 0 0 0 0 0 0 0 0 0 0 127 0" result="hardAlpha"/>
<feOffset dy="7.77547"/>
<feGaussianBlur stdDeviation="6.47956"/>
<feComposite in2="hardAlpha" operator="out"/>
<feColorMatrix type="matrix" values="0 0 0 0 0 0 0 0 0 0 0 0 0 0 0 0 0 0 0.1 0"/>
<feBlend mode="normal" in2="BackgroundImageFix" result="effect1_dropShadow"/>
<feBlend mode="normal" in="SourceGraphic" in2="effect1_dropShadow" result="shape"/>
</filter>
<clipPath id="clip0">
<rect width="359.333" height="206" rx="4" fill="white"/>
</clipPath>
<clipPath id="clip1">
<rect x="61.5479" y="42.8809" width="235.54" height="159.238" rx="4.97619" fill="white"/>
</clipPath>
</defs>
</svg>
