<svg width="360" height="206" viewBox="0 0 360 206" fill="none" xmlns="http://www.w3.org/2000/svg">
<g clip-path="url(#clip0)">
<rect width="359.333" height="206" rx="4" fill="#F3F4F6"/>
<circle cx="183" cy="103" r="151.25" stroke="#062291" stroke-opacity="0.04" stroke-width="1.5" stroke-dasharray="4 4"/>
<circle cx="183" cy="103" r="65.25" stroke="#062291" stroke-opacity="0.1" stroke-width="1.5" stroke-dasharray="4 4"/>
<circle cx="183" cy="103" r="109.25" stroke="#062291" stroke-opacity="0.06" stroke-width="1.5" stroke-dasharray="4 4"/>
<g opacity="0.5" filter="url(#filter0_f)">
<path d="M189 195H172C168.134 195 165 191.866 165 188C165 184.134 168.134 181 172 181H189C192.866 181 196 184.134 196 188C196 191.866 192.866 195 189 195Z" fill="#3B82F6" fill-opacity="0.5"/>
</g>
<g opacity="0.5" filter="url(#filter1_f)">
<path d="M188 66H171C167.134 66 164 62.866 164 59C164 55.134 167.134 52 171 52H188C191.866 52 195 55.134 195 59C195 62.866 191.866 66 188 66Z" fill="#3B82F6" fill-opacity="0.5"/>
</g>
<g filter="url(#filter2_dd)">
<rect x="153.961" y="65.0444" width="51.9999" height="51.9999" rx="25.9999" transform="rotate(-90 153.961 65.0444)" fill="white"/>
<rect x="154.441" y="64.564" width="51.039" height="51.039" rx="25.5195" transform="rotate(-90 154.441 64.564)" stroke="#EDEDED" stroke-width="0.960867"/>
<g clip-path="url(#clip1)">
<path d="M195.514 39.7656C195.514 38.4665 195.409 37.5185 195.183 36.5354H180.461V42.3988H189.102C188.928 43.856 187.987 46.0504 185.897 47.525L185.867 47.7213L190.522 51.3548L190.845 51.3873C193.806 48.631 195.514 44.5757 195.514 39.7656Z" fill="#4285F4"/>
<path d="M180.461 55.2135C184.694 55.2135 188.248 53.809 190.844 51.3865L185.897 47.5242C184.572 48.4547 182.795 49.1042 180.461 49.1042C176.314 49.1042 172.795 46.3481 171.54 42.5386L171.357 42.5543L166.516 46.3287L166.453 46.506C169.032 51.6673 174.328 55.2135 180.461 55.2135Z" fill="#34A853"/>
<path d="M171.542 42.5388C171.211 41.5557 171.019 40.5023 171.019 39.4139C171.019 38.3254 171.211 37.2721 171.525 36.2891L171.516 36.0797L166.615 32.2446L166.455 32.3215C165.392 34.4633 164.782 36.8684 164.782 39.4139C164.782 41.9594 165.392 44.3645 166.455 46.5062L171.542 42.5388Z" fill="#FBBC05"/>
<path d="M180.461 29.7235C183.405 29.7235 185.391 31.005 186.524 32.076L190.949 27.7222C188.231 25.1767 184.694 23.6143 180.461 23.6143C174.328 23.6143 169.032 27.1604 166.453 32.3217L171.523 36.2892C172.795 32.4797 176.314 29.7235 180.461 29.7235Z" fill="#EB4335"/>
</g>
</g>
<g filter="url(#filter3_ddd)">
<rect x="108.759" y="85.0444" width="142.403" height="34.8938" rx="7.21391" fill="url(#paint0_linear)"/>
<path d="M134.906 96.7568C135.188 96.9678 135.281 97.3193 135.164 97.6475L133.312 102.241H136.711C137.039 102.241 137.32 102.429 137.414 102.733C137.531 103.038 137.438 103.366 137.203 103.577L130.453 109.202C130.172 109.413 129.797 109.437 129.516 109.226C129.234 109.015 129.141 108.663 129.258 108.335L131.109 103.741H127.711C127.406 103.741 127.125 103.554 127.008 103.249C126.891 102.944 126.984 102.616 127.242 102.405L133.992 96.7803C134.25 96.5693 134.625 96.5459 134.906 96.7568Z" fill="#127DD6"/>
<path d="M150.466 102.241C150.466 103.157 150.294 103.942 149.951 104.595C149.611 105.245 149.146 105.743 148.556 106.089C147.97 106.434 147.304 106.607 146.56 106.607C145.816 106.607 145.149 106.434 144.56 106.089C143.973 105.74 143.508 105.241 143.165 104.59C142.825 103.937 142.655 103.154 142.655 102.241C142.655 101.326 142.825 100.543 143.165 99.8924C143.508 99.2395 143.973 98.7401 144.56 98.3942C145.149 98.0484 145.816 97.8754 146.56 97.8754C147.304 97.8754 147.97 98.0484 148.556 98.3942C149.146 98.7401 149.611 99.2395 149.951 99.8924C150.294 100.543 150.466 101.326 150.466 102.241ZM148.918 102.241C148.918 101.597 148.817 101.053 148.615 100.61C148.415 100.165 148.139 99.8288 147.785 99.6019C147.43 99.3723 147.022 99.2574 146.56 99.2574C146.098 99.2574 145.69 99.3723 145.336 99.6019C144.982 99.8288 144.704 100.165 144.502 100.61C144.303 101.053 144.203 101.597 144.203 102.241C144.203 102.886 144.303 103.431 144.502 103.877C144.704 104.319 144.982 104.655 145.336 104.885C145.69 105.112 146.098 105.225 146.56 105.225C147.022 105.225 147.43 105.112 147.785 104.885C148.139 104.655 148.415 104.319 148.615 103.877C148.817 103.431 148.918 102.886 148.918 102.241ZM153.386 102.756V106.491H151.884V100.117H153.32V101.2H153.395C153.541 100.843 153.775 100.559 154.096 100.349C154.42 100.139 154.82 100.034 155.295 100.034C155.735 100.034 156.119 100.128 156.445 100.316C156.774 100.504 157.029 100.776 157.209 101.133C157.391 101.49 157.481 101.923 157.478 102.432V106.491H155.976V102.665C155.976 102.239 155.865 101.905 155.644 101.665C155.426 101.424 155.123 101.303 154.735 101.303C154.472 101.303 154.239 101.362 154.034 101.478C153.832 101.591 153.673 101.756 153.557 101.972C153.443 102.187 153.386 102.449 153.386 102.756ZM161.857 106.616C161.218 106.616 160.666 106.483 160.201 106.217C159.739 105.949 159.384 105.57 159.135 105.08C158.886 104.588 158.761 104.008 158.761 103.341C158.761 102.685 158.886 102.11 159.135 101.615C159.386 101.117 159.738 100.729 160.189 100.453C160.64 100.173 161.17 100.034 161.778 100.034C162.171 100.034 162.542 100.097 162.891 100.224C163.242 100.349 163.552 100.543 163.82 100.805C164.091 101.068 164.304 101.403 164.459 101.81C164.614 102.214 164.692 102.695 164.692 103.254V103.715H159.467V102.702H163.252C163.249 102.414 163.187 102.158 163.065 101.934C162.943 101.707 162.773 101.529 162.554 101.399C162.339 101.269 162.087 101.204 161.799 101.204C161.492 101.204 161.222 101.279 160.99 101.428C160.757 101.575 160.576 101.768 160.446 102.009C160.319 102.247 160.254 102.508 160.251 102.793V103.677C160.251 104.048 160.319 104.366 160.454 104.632C160.59 104.895 160.779 105.097 161.023 105.238C161.266 105.376 161.551 105.445 161.878 105.445C162.096 105.445 162.294 105.415 162.471 105.354C162.648 105.29 162.802 105.198 162.932 105.076C163.062 104.954 163.16 104.803 163.227 104.624L164.629 104.781C164.541 105.152 164.372 105.476 164.123 105.752C163.877 106.026 163.561 106.239 163.177 106.392C162.792 106.541 162.352 106.616 161.857 106.616ZM176.262 100.859H174.71C174.665 100.605 174.584 100.379 174.465 100.183C174.346 99.9837 174.198 99.8149 174.021 99.6766C173.844 99.5383 173.642 99.4345 173.415 99.3653C173.191 99.2934 172.948 99.2574 172.688 99.2574C172.226 99.2574 171.817 99.3736 171.46 99.6061C171.103 99.8357 170.824 100.173 170.622 100.619C170.42 101.061 170.319 101.602 170.319 102.241C170.319 102.892 170.42 103.439 170.622 103.885C170.826 104.328 171.106 104.662 171.46 104.889C171.817 105.113 172.225 105.225 172.684 105.225C172.939 105.225 173.177 105.192 173.398 105.126C173.622 105.057 173.823 104.956 174 104.823C174.18 104.69 174.33 104.527 174.452 104.333C174.577 104.139 174.662 103.918 174.71 103.669L176.262 103.677C176.204 104.081 176.078 104.46 175.884 104.815C175.693 105.169 175.443 105.481 175.133 105.752C174.823 106.021 174.461 106.231 174.045 106.383C173.63 106.533 173.17 106.607 172.663 106.607C171.916 106.607 171.25 106.434 170.663 106.089C170.077 105.743 169.614 105.243 169.277 104.59C168.939 103.937 168.771 103.154 168.771 102.241C168.771 101.326 168.941 100.543 169.281 99.8924C169.621 99.2395 170.085 98.7401 170.671 98.3942C171.258 98.0484 171.922 97.8754 172.663 97.8754C173.137 97.8754 173.577 97.9418 173.983 98.0746C174.39 98.2074 174.752 98.4025 175.071 98.6598C175.389 98.9144 175.65 99.227 175.855 99.5978C176.062 99.9657 176.198 100.386 176.262 100.859ZM179.137 97.9916V106.491H177.635V97.9916H179.137ZM180.711 106.491V100.117H182.213V106.491H180.711ZM181.466 99.2118C181.228 99.2118 181.024 99.1329 180.852 98.9752C180.681 98.8148 180.595 98.6225 180.595 98.3984C180.595 98.1715 180.681 97.9792 180.852 97.8215C181.024 97.661 181.228 97.5808 181.466 97.5808C181.707 97.5808 181.912 97.661 182.081 97.8215C182.252 97.9792 182.338 98.1715 182.338 98.3984C182.338 98.6225 182.252 98.8148 182.081 98.9752C181.912 99.1329 181.707 99.2118 181.466 99.2118ZM186.568 106.616C185.932 106.616 185.385 106.476 184.929 106.197C184.475 105.917 184.125 105.531 183.879 105.039C183.635 104.543 183.514 103.973 183.514 103.329C183.514 102.681 183.638 102.11 183.887 101.615C184.136 101.117 184.488 100.729 184.941 100.453C185.398 100.173 185.937 100.034 186.56 100.034C187.077 100.034 187.535 100.129 187.934 100.32C188.335 100.508 188.654 100.775 188.892 101.121C189.13 101.464 189.266 101.865 189.299 102.324H187.863C187.805 102.017 187.667 101.761 187.448 101.557C187.232 101.349 186.943 101.245 186.581 101.245C186.273 101.245 186.004 101.328 185.771 101.494C185.539 101.658 185.358 101.893 185.228 102.2C185.1 102.507 185.037 102.875 185.037 103.304C185.037 103.738 185.1 104.112 185.228 104.424C185.355 104.734 185.533 104.974 185.763 105.142C185.995 105.308 186.268 105.391 186.581 105.391C186.802 105.391 187 105.35 187.174 105.267C187.351 105.181 187.499 105.058 187.618 104.898C187.737 104.737 187.819 104.542 187.863 104.312H189.299C189.263 104.763 189.13 105.163 188.901 105.512C188.671 105.858 188.358 106.129 187.963 106.325C187.567 106.519 187.102 106.616 186.568 106.616ZM191.931 104.491L191.927 102.677H192.168L194.459 100.117H196.214L193.396 103.254H193.085L191.931 104.491ZM190.562 106.491V97.9916H192.064V106.491H190.562ZM194.563 106.491L192.487 103.59L193.5 102.532L196.36 106.491H194.563ZM204.858 100.328C204.82 99.9657 204.657 99.6835 204.369 99.4816C204.084 99.2796 203.713 99.1786 203.257 99.1786C202.936 99.1786 202.66 99.227 202.431 99.3238C202.201 99.4207 202.025 99.5521 201.904 99.7181C201.782 99.8841 201.72 100.074 201.717 100.287C201.717 100.464 201.757 100.617 201.837 100.747C201.92 100.877 202.032 100.988 202.173 101.079C202.314 101.168 202.471 101.243 202.642 101.303C202.814 101.364 202.987 101.416 203.161 101.457L203.958 101.656C204.279 101.731 204.587 101.832 204.883 101.959C205.182 102.086 205.449 102.247 205.684 102.441C205.922 102.634 206.11 102.868 206.249 103.142C206.387 103.416 206.456 103.737 206.456 104.105C206.456 104.603 206.329 105.041 206.074 105.42C205.82 105.797 205.452 106.091 204.971 106.304C204.492 106.515 203.912 106.62 203.232 106.62C202.57 106.62 201.996 106.517 201.509 106.313C201.025 106.108 200.646 105.809 200.372 105.416C200.101 105.023 199.954 104.545 199.932 103.98H201.447C201.469 104.276 201.56 104.523 201.721 104.719C201.881 104.916 202.09 105.062 202.348 105.159C202.608 105.256 202.898 105.304 203.219 105.304C203.554 105.304 203.847 105.254 204.099 105.155C204.354 105.052 204.553 104.911 204.697 104.732C204.841 104.549 204.914 104.336 204.917 104.092C204.914 103.871 204.849 103.688 204.722 103.545C204.594 103.398 204.416 103.276 204.186 103.179C203.959 103.08 203.694 102.991 203.389 102.914L202.422 102.665C201.722 102.485 201.169 102.212 200.762 101.847C200.358 101.479 200.156 100.991 200.156 100.382C200.156 99.8814 200.292 99.4428 200.563 99.0665C200.837 98.6902 201.209 98.3984 201.679 98.1908C202.15 97.9806 202.682 97.8754 203.277 97.8754C203.88 97.8754 204.409 97.9806 204.863 98.1908C205.319 98.3984 205.677 98.6875 205.938 99.0582C206.198 99.4262 206.332 99.8495 206.34 100.328H204.858ZM210.614 106.616C209.975 106.616 209.423 106.483 208.958 106.217C208.496 105.949 208.14 105.57 207.891 105.08C207.642 104.588 207.518 104.008 207.518 103.341C207.518 102.685 207.642 102.11 207.891 101.615C208.143 101.117 208.495 100.729 208.946 100.453C209.397 100.173 209.926 100.034 210.535 100.034C210.928 100.034 211.299 100.097 211.647 100.224C211.999 100.349 212.309 100.543 212.577 100.805C212.848 101.068 213.061 101.403 213.216 101.81C213.371 102.214 213.449 102.695 213.449 103.254V103.715H208.223V102.702H212.008C212.006 102.414 211.943 102.158 211.822 101.934C211.7 101.707 211.53 101.529 211.311 101.399C211.095 101.269 210.844 101.204 210.556 101.204C210.249 101.204 209.979 101.279 209.747 101.428C209.514 101.575 209.333 101.768 209.203 102.009C209.076 102.247 209.011 102.508 209.008 102.793V103.677C209.008 104.048 209.076 104.366 209.211 104.632C209.347 104.895 209.536 105.097 209.78 105.238C210.023 105.376 210.308 105.445 210.635 105.445C210.853 105.445 211.051 105.415 211.228 105.354C211.405 105.29 211.559 105.198 211.689 105.076C211.819 104.954 211.917 104.803 211.983 104.624L213.386 104.781C213.298 105.152 213.129 105.476 212.88 105.752C212.634 106.026 212.318 106.239 211.934 106.392C211.549 106.541 211.109 106.616 210.614 106.616ZM217.932 100.117V101.279H214.267V100.117H217.932ZM215.172 98.5893H216.674V104.574C216.674 104.776 216.705 104.931 216.766 105.039C216.829 105.144 216.912 105.216 217.015 105.254C217.117 105.293 217.231 105.313 217.355 105.313C217.449 105.313 217.535 105.306 217.612 105.292C217.693 105.278 217.753 105.266 217.795 105.254L218.048 106.429C217.968 106.457 217.853 106.487 217.704 106.52C217.557 106.553 217.377 106.573 217.164 106.578C216.788 106.589 216.449 106.533 216.147 106.408C215.846 106.281 215.606 106.084 215.429 105.819C215.255 105.553 215.169 105.221 215.172 104.823V98.5893ZM223.281 103.81V100.117H224.783V106.491H223.326V105.358H223.26C223.116 105.715 222.879 106.007 222.55 106.234C222.224 106.461 221.821 106.574 221.342 106.574C220.925 106.574 220.555 106.482 220.234 106.296C219.916 106.108 219.667 105.835 219.487 105.479C219.308 105.119 219.218 104.684 219.218 104.175V100.117H220.72V103.943C220.72 104.347 220.831 104.668 221.052 104.906C221.273 105.144 221.564 105.263 221.924 105.263C222.145 105.263 222.359 105.209 222.567 105.101C222.774 104.993 222.944 104.833 223.077 104.619C223.213 104.404 223.281 104.134 223.281 103.81ZM226.357 108.882V100.117H227.835V101.171H227.922C227.999 101.016 228.108 100.851 228.25 100.677C228.391 100.5 228.582 100.349 228.822 100.224C229.063 100.097 229.37 100.034 229.744 100.034C230.236 100.034 230.68 100.159 231.076 100.411C231.474 100.66 231.79 101.03 232.022 101.519C232.257 102.006 232.375 102.604 232.375 103.312C232.375 104.012 232.26 104.607 232.03 105.097C231.801 105.586 231.488 105.96 231.092 106.217C230.697 106.475 230.249 106.603 229.748 106.603C229.383 106.603 229.08 106.542 228.839 106.421C228.598 106.299 228.405 106.152 228.258 105.981C228.114 105.806 228.002 105.642 227.922 105.487H227.859V108.882H226.357ZM227.83 103.304C227.83 103.716 227.889 104.077 228.005 104.387C228.124 104.697 228.294 104.939 228.515 105.113C228.739 105.285 229.01 105.371 229.329 105.371C229.661 105.371 229.939 105.282 230.163 105.105C230.387 104.925 230.556 104.68 230.669 104.37C230.785 104.058 230.843 103.702 230.843 103.304C230.843 102.908 230.787 102.557 230.673 102.25C230.56 101.943 230.391 101.702 230.167 101.528C229.943 101.353 229.663 101.266 229.329 101.266C229.008 101.266 228.735 101.351 228.511 101.519C228.287 101.688 228.117 101.925 228.001 102.229C227.887 102.533 227.83 102.892 227.83 103.304Z" fill="#101517"/>
</g>
<g filter="url(#filter4_dd)">
<rect x="152.978" y="193.905" width="53.9667" height="53.9667" rx="26.9833" transform="rotate(-90 152.978 193.905)" fill="white"/>
<rect x="153.476" y="193.406" width="52.9694" height="52.9694" rx="26.4847" transform="rotate(-90 153.476 193.406)" stroke="#EDEDED" stroke-width="0.99721"/>
<g clip-path="url(#clip2)">
<g clip-path="url(#clip3)">
<path d="M195.276 167.49C195.276 167.366 195.245 167.244 195.185 167.136C195.125 167.027 195.038 166.936 194.932 166.872H194.929L194.915 166.864L183.748 160.254C183.7 160.221 183.65 160.191 183.598 160.165C183.386 160.055 183.15 159.998 182.911 159.998C182.672 159.998 182.436 160.055 182.224 160.165C182.172 160.191 182.122 160.221 182.074 160.254L170.907 166.864L170.893 166.872C170.552 167.084 170.447 167.533 170.66 167.874C170.722 167.974 170.808 168.058 170.911 168.118L182.078 174.728C182.126 174.76 182.176 174.79 182.227 174.817C182.44 174.927 182.676 174.984 182.915 174.984C183.154 174.984 183.389 174.927 183.602 174.817C183.653 174.79 183.703 174.76 183.752 174.728L194.919 168.118C195.028 168.054 195.119 167.962 195.182 167.852C195.245 167.742 195.277 167.617 195.276 167.49Z" fill="#0A2767"/>
<path d="M172.208 163.076H179.536V169.794H172.208V163.076ZM193.776 156.248V153.175C193.793 152.407 193.185 151.769 192.417 151.751H173.4C172.632 151.769 172.024 152.407 172.041 153.175V156.248L183.283 159.246L193.776 156.248Z" fill="#0364B8"/>
<path d="M172.042 156.248H179.537V162.993H172.042V156.248Z" fill="#0078D4"/>
<path d="M187.031 156.248H179.536V162.993L187.031 169.738H193.776V162.993L187.031 156.248Z" fill="#28A8EA"/>
<path d="M179.536 162.993H187.031V169.738H179.536V162.993Z" fill="#0078D4"/>
<path d="M179.536 169.738H187.031V176.483H179.536V169.738Z" fill="#0364B8"/>
<path d="M172.208 169.794H179.536V175.9H172.208V169.794Z" fill="#14447D"/>
<path d="M187.031 169.738H193.776V176.483H187.031V169.738Z" fill="#0078D4"/>
<path d="M194.932 168.077L194.918 168.084L183.751 174.365C183.702 174.395 183.653 174.423 183.601 174.448C183.411 174.539 183.205 174.59 182.995 174.598L182.385 174.242C182.334 174.216 182.284 174.187 182.235 174.155L170.918 167.697H170.913L170.543 167.49V180.204C170.549 181.052 171.241 181.735 172.089 181.73H193.753C193.766 181.73 193.777 181.724 193.791 181.724C193.97 181.712 194.146 181.675 194.315 181.614C194.388 181.583 194.459 181.547 194.526 181.505C194.576 181.476 194.662 181.414 194.662 181.414C194.852 181.274 195.006 181.091 195.112 180.881C195.218 180.671 195.274 180.439 195.275 180.204V167.49C195.275 167.609 195.243 167.726 195.183 167.83C195.123 167.933 195.036 168.018 194.932 168.077Z" fill="url(#paint1_linear)"/>
<path opacity="0.5" d="M194.676 167.44V168.219L182.999 176.258L170.911 167.702C170.911 167.7 170.91 167.698 170.908 167.697C170.907 167.695 170.905 167.694 170.903 167.694L169.794 167.027V166.465L170.251 166.458L171.218 167.012L171.24 167.02L171.323 167.072C171.323 167.072 182.685 173.555 182.715 173.57L183.149 173.825C183.187 173.81 183.224 173.795 183.269 173.78C183.292 173.765 194.549 167.432 194.549 167.432L194.676 167.44Z" fill="#0A2767"/>
<path d="M194.932 168.077L194.918 168.085L183.751 174.365C183.702 174.395 183.653 174.424 183.601 174.449C183.387 174.554 183.152 174.608 182.914 174.608C182.675 174.608 182.44 174.554 182.226 174.449C182.175 174.424 182.125 174.396 182.076 174.365L170.909 168.085L170.896 168.077C170.79 168.019 170.702 167.934 170.639 167.831C170.577 167.728 170.544 167.61 170.543 167.49V180.204C170.548 181.052 171.24 181.735 172.088 181.73H193.73C194.578 181.735 195.27 181.052 195.275 180.204C195.275 180.204 195.275 180.204 195.275 180.204V167.49C195.275 167.609 195.243 167.726 195.183 167.83C195.123 167.933 195.036 168.018 194.932 168.077Z" fill="#1490DF"/>
<path opacity="0.1" d="M183.913 174.272L183.746 174.366C183.697 174.397 183.647 174.425 183.596 174.451C183.412 174.541 183.212 174.594 183.007 174.607L187.256 179.631L194.667 181.417C194.87 181.264 195.032 181.062 195.137 180.83L183.913 174.272Z" fill="black"/>
<path opacity="0.05" d="M184.67 173.847L183.746 174.366C183.697 174.397 183.647 174.425 183.596 174.451C183.412 174.541 183.212 174.594 183.007 174.607L184.997 180.095L194.669 181.415C194.857 181.274 195.01 181.091 195.115 180.881C195.22 180.67 195.275 180.439 195.275 180.204V180.039L184.67 173.847Z" fill="black"/>
<path d="M172.109 181.73H193.728C194.06 181.731 194.385 181.626 194.653 181.43L182.384 174.243C182.333 174.217 182.283 174.189 182.235 174.157L170.918 167.698H170.912L170.543 167.49V180.16C170.542 181.026 171.243 181.729 172.109 181.73C172.109 181.73 172.109 181.73 172.109 181.73Z" fill="#28A8EA"/>
<path opacity="0.1" d="M181.036 159.121V175.107C181.034 175.667 180.693 176.171 180.174 176.381C180.013 176.45 179.839 176.486 179.664 176.486H170.543V158.496H172.042V157.747H179.664C180.421 157.75 181.034 158.363 181.036 159.121Z" fill="black"/>
<path opacity="0.2" d="M180.286 159.87V175.856C180.288 176.037 180.25 176.216 180.174 176.381C179.966 176.894 179.468 177.23 178.915 177.233H170.543V158.496H178.915C179.132 158.494 179.346 158.548 179.537 158.654C179.996 158.885 180.286 159.355 180.286 159.87Z" fill="black"/>
<path opacity="0.2" d="M180.286 159.87V174.357C180.282 175.114 179.671 175.727 178.915 175.734H170.543V158.496H178.915C179.132 158.494 179.346 158.548 179.537 158.654C179.996 158.885 180.286 159.355 180.286 159.87Z" fill="black"/>
<path opacity="0.2" d="M179.537 159.87V174.357C179.536 175.115 178.923 175.73 178.165 175.734H170.543V158.496H178.165C178.923 158.497 179.537 159.111 179.537 159.869C179.537 159.87 179.537 159.87 179.537 159.87Z" fill="black"/>
<path d="M164.422 158.496H178.162C178.921 158.496 179.536 159.111 179.536 159.87V173.611C179.536 174.369 178.921 174.984 178.162 174.984H164.422C163.663 174.984 163.048 174.369 163.048 173.611V159.87C163.048 159.111 163.663 158.496 164.422 158.496Z" fill="url(#paint2_linear)"/>
<path d="M167.342 164.258C167.681 163.537 168.227 162.933 168.912 162.525C169.67 162.091 170.532 161.875 171.405 161.9C172.214 161.882 173.012 162.087 173.713 162.492C174.371 162.885 174.902 163.461 175.239 164.149C175.607 164.907 175.791 165.742 175.775 166.585C175.792 167.465 175.604 168.338 175.224 169.133C174.878 169.846 174.331 170.441 173.65 170.847C172.923 171.264 172.095 171.475 171.256 171.455C170.43 171.475 169.614 171.268 168.898 170.856C168.233 170.463 167.696 169.887 167.351 169.196C166.981 168.449 166.795 167.624 166.809 166.79C166.794 165.917 166.976 165.051 167.342 164.258ZM169.015 168.328C169.196 168.784 169.502 169.179 169.898 169.468C170.302 169.751 170.785 169.896 171.277 169.884C171.801 169.904 172.318 169.754 172.749 169.455C173.14 169.167 173.438 168.77 173.606 168.314C173.794 167.805 173.887 167.266 173.88 166.723C173.886 166.175 173.799 165.631 173.622 165.112C173.466 164.644 173.178 164.231 172.792 163.923C172.371 163.61 171.856 163.451 171.332 163.474C170.83 163.461 170.336 163.607 169.921 163.892C169.518 164.183 169.206 164.582 169.022 165.043C168.613 166.1 168.61 167.271 169.016 168.329L169.015 168.328Z" fill="white"/>
<path d="M187.031 156.248H193.776V162.993H187.031V156.248Z" fill="#50D9FF"/>
</g>
</g>
</g>
<g filter="url(#filter5_d)">
<mask id="path-39-outside-1" maskUnits="userSpaceOnUse" x="211.442" y="106.225" width="33.8446" height="35.9659" fill="black">
<rect fill="white" x="211.442" y="106.225" width="33.8446" height="35.9659"/>
<path d="M236.179 120.396C237.374 120.076 238.656 120.817 238.977 122.012L240.159 126.424C241.144 130.102 238.945 133.844 235.314 134.817L230.901 135.999C228.924 136.529 226.793 136.115 225.225 134.86L219.54 130.373C219.178 130.125 218.987 129.782 218.889 129.414C218.606 128.357 219.211 127.308 220.177 127.049C220.774 126.889 221.4 127.017 221.891 127.378L225.388 130.136L221.41 115.289C221.139 114.278 221.699 113.241 222.756 112.958C223.767 112.687 224.816 113.292 225.087 114.304L226.923 121.152C227.192 120.686 227.636 120.321 228.233 120.161C229.291 119.877 230.373 120.425 230.886 121.42C231.082 120.678 231.648 120.034 232.475 119.812C233.533 119.529 234.615 120.076 235.128 121.072C235.389 120.756 235.719 120.52 236.179 120.396ZM230.992 130.457L229.81 126.044C229.711 125.677 229.245 125.407 228.877 125.506C228.464 125.617 228.24 126.071 228.339 126.438L229.521 130.851C229.632 131.265 230.04 131.5 230.454 131.39C230.822 131.291 231.103 130.871 230.992 130.457ZM233.934 129.669L232.752 125.256C232.653 124.888 232.187 124.619 231.819 124.718C231.405 124.829 231.182 125.282 231.281 125.65L232.463 130.063C232.574 130.477 232.982 130.712 233.396 130.601C233.763 130.503 234.045 130.083 233.934 129.669ZM236.876 128.881L235.694 124.468C235.595 124.1 235.129 123.831 234.761 123.929C234.347 124.04 234.124 124.494 234.223 124.862L235.405 129.275C235.516 129.688 235.924 129.924 236.337 129.813C236.705 129.715 236.987 129.294 236.876 128.881Z"/>
</mask>
<path d="M236.179 120.396C237.374 120.076 238.656 120.817 238.977 122.012L240.159 126.424C241.144 130.102 238.945 133.844 235.314 134.817L230.901 135.999C228.924 136.529 226.793 136.115 225.225 134.86L219.54 130.373C219.178 130.125 218.987 129.782 218.889 129.414C218.606 128.357 219.211 127.308 220.177 127.049C220.774 126.889 221.4 127.017 221.891 127.378L225.388 130.136L221.41 115.289C221.139 114.278 221.699 113.241 222.756 112.958C223.767 112.687 224.816 113.292 225.087 114.304L226.923 121.152C227.192 120.686 227.636 120.321 228.233 120.161C229.291 119.877 230.373 120.425 230.886 121.42C231.082 120.678 231.648 120.034 232.475 119.812C233.533 119.529 234.615 120.076 235.128 121.072C235.389 120.756 235.719 120.52 236.179 120.396ZM230.992 130.457L229.81 126.044C229.711 125.677 229.245 125.407 228.877 125.506C228.464 125.617 228.24 126.071 228.339 126.438L229.521 130.851C229.632 131.265 230.04 131.5 230.454 131.39C230.822 131.291 231.103 130.871 230.992 130.457ZM233.934 129.669L232.752 125.256C232.653 124.888 232.187 124.619 231.819 124.718C231.405 124.829 231.182 125.282 231.281 125.65L232.463 130.063C232.574 130.477 232.982 130.712 233.396 130.601C233.763 130.503 234.045 130.083 233.934 129.669ZM236.876 128.881L235.694 124.468C235.595 124.1 235.129 123.831 234.761 123.929C234.347 124.04 234.124 124.494 234.223 124.862L235.405 129.275C235.516 129.688 235.924 129.924 236.337 129.813C236.705 129.715 236.987 129.294 236.876 128.881Z" fill="white"/>
<path d="M225.225 134.86L226.479 133.293L226.468 133.285L225.225 134.86ZM219.54 130.373L220.783 128.798L220.729 128.756L220.673 128.717L219.54 130.373ZM221.891 127.378L223.133 125.803L223.106 125.782L223.079 125.762L221.891 127.378ZM225.388 130.136L224.146 131.711L228.889 135.451L227.326 129.617L225.388 130.136ZM226.923 121.152L224.985 121.672L226.238 126.35L228.66 122.155L226.923 121.152ZM230.886 121.42L229.103 122.339L231.497 126.984L232.826 121.931L230.886 121.42ZM235.128 121.072L233.345 121.991L234.741 124.699L236.677 122.347L235.128 121.072ZM236.179 120.396L236.698 122.334C236.741 122.323 236.816 122.323 236.903 122.373C236.99 122.423 237.027 122.488 237.039 122.531L238.977 122.012L240.914 121.492C240.307 119.227 237.925 117.852 235.66 118.459L236.179 120.396ZM238.977 122.012L237.039 122.531L238.221 126.944L240.159 126.424L242.097 125.905L240.914 121.492L238.977 122.012ZM240.159 126.424L238.221 126.944C238.917 129.542 237.364 132.191 234.794 132.879L235.314 134.817L235.833 136.755C240.525 135.497 243.371 130.661 242.097 125.905L240.159 126.424ZM235.314 134.817L234.794 132.879L230.382 134.062L230.901 135.999L231.42 137.937L235.833 136.755L235.314 134.817ZM230.901 135.999L230.382 134.062C228.992 134.434 227.525 134.131 226.479 133.293L225.225 134.86L223.972 136.426C226.061 138.098 228.857 138.624 231.42 137.937L230.901 135.999ZM225.225 134.86L226.468 133.285L220.783 128.798L219.54 130.373L218.297 131.947L223.983 136.434L225.225 134.86ZM219.54 130.373L220.673 128.717C220.721 128.75 220.767 128.798 220.8 128.849C220.83 128.895 220.833 128.918 220.827 128.895L218.889 129.414L216.951 129.933C217.141 130.64 217.556 131.445 218.407 132.028L219.54 130.373ZM218.889 129.414L220.827 128.895C220.823 128.881 220.828 128.889 220.819 128.905C220.812 128.918 220.778 128.965 220.696 128.987L220.177 127.049L219.657 125.111C217.56 125.673 216.398 127.869 216.951 129.933L218.889 129.414ZM220.177 127.049L220.696 128.987C220.696 128.987 220.696 128.987 220.695 128.987C220.694 128.987 220.693 128.987 220.693 128.987C220.691 128.987 220.689 128.987 220.689 128.987C220.688 128.987 220.693 128.988 220.702 128.994L221.891 127.378L223.079 125.762C222.114 125.052 220.863 124.788 219.657 125.111L220.177 127.049ZM221.891 127.378L220.649 128.953L224.146 131.711L225.388 130.136L226.63 128.56L223.133 125.803L221.891 127.378ZM225.388 130.136L227.326 129.617L223.348 114.77L221.41 115.289L219.472 115.808L223.451 130.655L225.388 130.136ZM221.41 115.289L223.348 114.77C223.347 114.768 223.35 114.775 223.348 114.79C223.346 114.804 223.341 114.821 223.331 114.838C223.321 114.856 223.307 114.872 223.292 114.884C223.275 114.897 223.266 114.898 223.275 114.895L222.756 112.958L222.237 111.02C220.078 111.598 218.923 113.759 219.472 115.808L221.41 115.289ZM222.756 112.958L223.275 114.895C223.242 114.904 223.212 114.896 223.196 114.887C223.181 114.878 223.159 114.856 223.15 114.823L225.087 114.304L227.025 113.784C226.467 111.703 224.318 110.462 222.237 111.02L222.756 112.958ZM225.087 114.304L223.15 114.823L224.985 121.672L226.923 121.152L228.86 120.633L227.025 113.784L225.087 114.304ZM226.923 121.152L228.66 122.155C228.668 122.141 228.676 122.134 228.682 122.129C228.687 122.125 228.706 122.111 228.753 122.098L228.233 120.161L227.714 118.223C226.592 118.524 225.715 119.232 225.185 120.149L226.923 121.152ZM228.233 120.161L228.753 122.098C228.789 122.089 228.831 122.088 228.89 122.117C228.956 122.149 229.041 122.218 229.103 122.339L230.886 121.42L232.67 120.501C231.779 118.773 229.793 117.666 227.714 118.223L228.233 120.161ZM230.886 121.42L232.826 121.931C232.84 121.881 232.865 121.838 232.893 121.808C232.918 121.783 232.947 121.763 232.995 121.75L232.475 119.812L231.956 117.875C230.375 118.298 229.309 119.532 228.946 120.91L230.886 121.42ZM232.475 119.812L232.995 121.75C233.031 121.74 233.073 121.74 233.132 121.769C233.198 121.8 233.283 121.87 233.345 121.991L235.128 121.072L236.912 120.153C236.021 118.425 234.035 117.317 231.956 117.875L232.475 119.812ZM235.128 121.072L236.677 122.347C236.688 122.335 236.693 122.33 236.693 122.329C236.693 122.329 236.693 122.33 236.691 122.331C236.689 122.333 236.687 122.334 236.684 122.336C236.682 122.338 236.679 122.339 236.677 122.34C236.675 122.341 236.674 122.342 236.674 122.342C236.674 122.342 236.676 122.341 236.679 122.34C236.683 122.339 236.689 122.337 236.698 122.334L236.179 120.396L235.66 118.459C234.765 118.698 234.084 119.184 233.58 119.797L235.128 121.072ZM230.992 130.457L232.93 129.938L231.748 125.525L229.81 126.044L227.872 126.564L229.055 130.976L230.992 130.457ZM229.81 126.044L231.748 125.525C231.53 124.711 230.967 124.163 230.448 123.863C229.928 123.563 229.172 123.35 228.358 123.568L228.877 125.506L229.397 127.444C228.95 127.563 228.612 127.436 228.442 127.338C228.272 127.24 227.992 127.01 227.872 126.564L229.81 126.044ZM228.877 125.506L228.358 123.568C226.797 123.986 226.037 125.598 226.401 126.958L228.339 126.438L230.277 125.919C230.376 126.289 230.3 126.613 230.174 126.842C230.041 127.085 229.783 127.34 229.397 127.444L228.877 125.506ZM228.339 126.438L226.401 126.958L227.584 131.37L229.521 130.851L231.459 130.332L230.277 125.919L228.339 126.438ZM229.521 130.851L227.584 131.37C227.981 132.854 229.489 133.725 230.973 133.327L230.454 131.39L229.935 129.452C230.591 129.276 231.283 129.675 231.459 130.332L229.521 130.851ZM230.454 131.39L230.973 133.327C232.332 132.963 233.348 131.499 232.93 129.938L230.992 130.457L229.055 130.976C228.951 130.59 229.043 130.239 229.187 130.002C229.322 129.778 229.565 129.551 229.935 129.452L230.454 131.39ZM233.934 129.669L235.872 129.15L234.689 124.737L232.752 125.256L230.814 125.775L231.996 130.188L233.934 129.669ZM232.752 125.256L234.689 124.737C234.471 123.923 233.909 123.375 233.389 123.075C232.87 122.775 232.114 122.562 231.3 122.78L231.819 124.718L232.338 126.655C231.892 126.775 231.553 126.648 231.383 126.549C231.213 126.451 230.934 126.222 230.814 125.775L232.752 125.256ZM231.819 124.718L231.3 122.78C229.739 123.198 228.979 124.81 229.343 126.169L231.281 125.65L233.219 125.131C233.318 125.501 233.242 125.825 233.116 126.054C232.982 126.297 232.725 126.552 232.338 126.655L231.819 124.718ZM231.281 125.65L229.343 126.169L230.525 130.582L232.463 130.063L234.401 129.544L233.219 125.131L231.281 125.65ZM232.463 130.063L230.525 130.582C230.923 132.066 232.431 132.937 233.915 132.539L233.396 130.601L232.876 128.664C233.533 128.488 234.225 128.887 234.401 129.544L232.463 130.063ZM233.396 130.601L233.915 132.539C235.274 132.175 236.29 130.71 235.872 129.15L233.934 129.669L231.996 130.188C231.893 129.801 231.985 129.451 232.129 129.213C232.264 128.99 232.507 128.763 232.876 128.664L233.396 130.601ZM236.876 128.881L238.814 128.361L237.631 123.949L235.694 124.468L233.756 124.987L234.938 129.4L236.876 128.881ZM235.694 124.468L237.631 123.949C237.413 123.135 236.851 122.586 236.331 122.286C235.812 121.986 235.056 121.774 234.242 121.992L234.761 123.929L235.28 125.867C234.834 125.987 234.495 125.859 234.325 125.761C234.155 125.663 233.875 125.433 233.756 124.987L235.694 124.468ZM234.761 123.929L234.242 121.992C232.681 122.41 231.921 124.022 232.285 125.381L234.223 124.862L236.16 124.343C236.259 124.712 236.184 125.036 236.058 125.265C235.924 125.509 235.667 125.764 235.28 125.867L234.761 123.929ZM234.223 124.862L232.285 125.381L233.467 129.794L235.405 129.275L237.343 128.755L236.16 124.343L234.223 124.862ZM235.405 129.275L233.467 129.794C233.865 131.278 235.373 132.148 236.857 131.751L236.337 129.813L235.818 127.875C236.475 127.699 237.167 128.099 237.343 128.755L235.405 129.275ZM236.337 129.813L236.857 131.751C238.216 131.387 239.232 129.922 238.814 128.361L236.876 128.881L234.938 129.4C234.835 129.013 234.927 128.663 235.071 128.425C235.206 128.202 235.449 127.974 235.818 127.875L236.337 129.813Z" fill="black" mask="url(#path-39-outside-1)"/>
</g>
</g>
<defs>
<filter id="filter0_f" x="152.8" y="168.8" width="55.4" height="38.4" filterUnits="userSpaceOnUse" color-interpolation-filters="sRGB">
<feFlood flood-opacity="0" result="BackgroundImageFix"/>
<feBlend mode="normal" in="SourceGraphic" in2="BackgroundImageFix" result="shape"/>
<feGaussianBlur stdDeviation="6.1" result="effect1_foregroundBlur"/>
</filter>
<filter id="filter1_f" x="151.8" y="39.8" width="55.4" height="38.4" filterUnits="userSpaceOnUse" color-interpolation-filters="sRGB">
<feFlood flood-opacity="0" result="BackgroundImageFix"/>
<feBlend mode="normal" in="SourceGraphic" in2="BackgroundImageFix" result="shape"/>
<feGaussianBlur stdDeviation="6.1" result="effect1_foregroundBlur"/>
</filter>
<filter id="filter2_dd" x="149.157" y="12.0838" width="61.6087" height="61.6084" filterUnits="userSpaceOnUse" color-interpolation-filters="sRGB">
<feFlood flood-opacity="0" result="BackgroundImageFix"/>
<feColorMatrix in="SourceAlpha" type="matrix" values="0 0 0 0 0 0 0 0 0 0 0 0 0 0 0 0 0 0 127 0" result="hardAlpha"/>
<feOffset dy="3.84347"/>
<feGaussianBlur stdDeviation="2.40217"/>
<feColorMatrix type="matrix" values="0 0 0 0 0 0 0 0 0 0 0 0 0 0 0 0 0 0 0.05 0"/>
<feBlend mode="normal" in2="BackgroundImageFix" result="effect1_dropShadow"/>
<feColorMatrix in="SourceAlpha" type="matrix" values="0 0 0 0 0 0 0 0 0 0 0 0 0 0 0 0 0 0 127 0" result="hardAlpha"/>
<feOffset dy="0.960867"/>
<feGaussianBlur stdDeviation="0.960867"/>
<feColorMatrix type="matrix" values="0 0 0 0 0 0 0 0 0 0 0 0 0 0 0 0 0 0 0.05 0"/>
<feBlend mode="normal" in2="effect1_dropShadow" result="effect2_dropShadow"/>
<feBlend mode="normal" in="SourceGraphic" in2="effect2_dropShadow" result="shape"/>
</filter>
<filter id="filter3_ddd" x="104.25" y="82.0444" width="151.421" height="46.0094" filterUnits="userSpaceOnUse" color-interpolation-filters="sRGB">
<feFlood flood-opacity="0" result="BackgroundImageFix"/>
<feColorMatrix in="SourceAlpha" type="matrix" values="0 0 0 0 0 0 0 0 0 0 0 0 0 0 0 0 0 0 127 0" result="hardAlpha"/>
<feMorphology radius="3" operator="dilate" in="SourceAlpha" result="effect1_dropShadow"/>
<feOffset/>
<feComposite in2="hardAlpha" operator="out"/>
<feColorMatrix type="matrix" values="0 0 0 0 0 0 0 0 0 0.45631 0 0 0 0 1 0 0 0 0.4 0"/>
<feBlend mode="normal" in2="BackgroundImageFix" result="effect1_dropShadow"/>
<feColorMatrix in="SourceAlpha" type="matrix" values="0 0 0 0 0 0 0 0 0 0 0 0 0 0 0 0 0 0 127 0" result="hardAlpha"/>
<feOffset dy="3.60695"/>
<feGaussianBlur stdDeviation="2.25435"/>
<feColorMatrix type="matrix" values="0 0 0 0 0 0 0 0 0 0 0 0 0 0 0 0 0 0 0.08 0"/>
<feBlend mode="normal" in2="effect1_dropShadow" result="effect2_dropShadow"/>
<feColorMatrix in="SourceAlpha" type="matrix" values="0 0 0 0 0 0 0 0 0 0 0 0 0 0 0 0 0 0 127 0" result="hardAlpha"/>
<feOffset dy="0.901738"/>
<feGaussianBlur stdDeviation="0.901738"/>
<feColorMatrix type="matrix" values="0 0 0 0 0 0 0 0 0 0 0 0 0 0 0 0 0 0 0.1 0"/>
<feBlend mode="normal" in2="effect2_dropShadow" result="effect3_dropShadow"/>
<feBlend mode="normal" in="SourceGraphic" in2="effect3_dropShadow" result="shape"/>
</filter>
<filter id="filter4_dd" x="147.991" y="138.941" width="63.9389" height="63.9387" filterUnits="userSpaceOnUse" color-interpolation-filters="sRGB">
<feFlood flood-opacity="0" result="BackgroundImageFix"/>
<feColorMatrix in="SourceAlpha" type="matrix" values="0 0 0 0 0 0 0 0 0 0 0 0 0 0 0 0 0 0 127 0" result="hardAlpha"/>
<feOffset dy="3.98884"/>
<feGaussianBlur stdDeviation="2.49303"/>
<feColorMatrix type="matrix" values="0 0 0 0 0 0 0 0 0 0 0 0 0 0 0 0 0 0 0.05 0"/>
<feBlend mode="normal" in2="BackgroundImageFix" result="effect1_dropShadow"/>
<feColorMatrix in="SourceAlpha" type="matrix" values="0 0 0 0 0 0 0 0 0 0 0 0 0 0 0 0 0 0 127 0" result="hardAlpha"/>
<feOffset dy="0.99721"/>
<feGaussianBlur stdDeviation="0.99721"/>
<feColorMatrix type="matrix" values="0 0 0 0 0 0 0 0 0 0 0 0 0 0 0 0 0 0 0.05 0"/>
<feBlend mode="normal" in2="effect1_dropShadow" result="effect2_dropShadow"/>
<feBlend mode="normal" in="SourceGraphic" in2="effect2_dropShadow" result="shape"/>
</filter>
<filter id="filter5_d" x="203.473" y="107.576" width="52.2691" height="54.0254" filterUnits="userSpaceOnUse" color-interpolation-filters="sRGB">
<feFlood flood-opacity="0" result="BackgroundImageFix"/>
<feColorMatrix in="SourceAlpha" type="matrix" values="0 0 0 0 0 0 0 0 0 0 0 0 0 0 0 0 0 0 127 0" result="hardAlpha"/>
<feOffset dy="10.0305"/>
<feGaussianBlur stdDeviation="6.6703"/>
<feComposite in2="hardAlpha" operator="out"/>
<feColorMatrix type="matrix" values="0 0 0 0 0 0 0 0 0 0 0 0 0 0 0 0 0 0 0.08 0"/>
<feBlend mode="normal" in2="BackgroundImageFix" result="effect1_dropShadow"/>
<feBlend mode="normal" in="SourceGraphic" in2="effect1_dropShadow" result="shape"/>
</filter>
<linearGradient id="paint0_linear" x1="187.162" y1="87.4995" x2="193.965" y2="125.535" gradientUnits="userSpaceOnUse">
<stop stop-color="#F9FDFF"/>
<stop offset="1" stop-color="#F0F6FF"/>
</linearGradient>
<linearGradient id="paint1_linear" x1="182.909" y1="167.49" x2="182.909" y2="181.73" gradientUnits="userSpaceOnUse">
<stop stop-color="#35B8F1"/>
<stop offset="1" stop-color="#28A8EA"/>
</linearGradient>
<linearGradient id="paint2_linear" x1="165.912" y1="157.423" x2="176.672" y2="176.058" gradientUnits="userSpaceOnUse">
<stop stop-color="#1784D9"/>
<stop offset="0.5" stop-color="#107AD5"/>
<stop offset="1" stop-color="#0A63C9"/>
</linearGradient>
<clipPath id="clip0">
<rect width="359.333" height="206" rx="4" fill="white"/>
</clipPath>
<clipPath id="clip1">
<rect width="30.7477" height="31.7086" fill="white" transform="translate(164.782 23.6145)"/>
</clipPath>
<clipPath id="clip2">
<rect width="34" height="34" fill="white" transform="translate(162.162 150)"/>
</clipPath>
<clipPath id="clip3">
<rect width="33.7259" height="30.3533" fill="white" transform="translate(162.299 151.564)"/>
</clipPath>
</defs>
</svg>
