<svg width="360" height="206" viewBox="0 0 360 206" fill="none" xmlns="http://www.w3.org/2000/svg">
<g clip-path="url(#clip0)">
<rect width="359.333" height="206" rx="4" fill="#F3F4F6"/>
<circle cx="231.365" cy="0.773252" r="0.773252" fill="#E2E8F0"/>
<circle cx="231.365" cy="5.41266" r="0.773252" fill="#E2E8F0"/>
<circle cx="231.365" cy="10.0525" r="0.773252" fill="#E2E8F0"/>
<circle cx="231.365" cy="14.6922" r="0.773252" fill="#E2E8F0"/>
<circle cx="231.365" cy="19.3309" r="0.773252" fill="#E2E8F0"/>
<circle cx="231.365" cy="23.9705" r="0.773252" fill="#E2E8F0"/>
<circle cx="231.365" cy="28.6104" r="0.773252" fill="#E2E8F0"/>
<circle cx="231.365" cy="33.2498" r="0.773252" fill="#E2E8F0"/>
<circle cx="231.365" cy="37.8892" r="0.773252" fill="#E2E8F0"/>
<circle cx="231.365" cy="42.5291" r="0.773252" fill="#E2E8F0"/>
<circle cx="231.365" cy="47.1688" r="0.773252" fill="#E2E8F0"/>
<circle cx="231.365" cy="51.8074" r="0.773252" fill="#E2E8F0"/>
<circle cx="236.005" cy="0.773252" r="0.773252" fill="#E2E8F0"/>
<circle cx="236.005" cy="5.41266" r="0.773252" fill="#E2E8F0"/>
<circle cx="236.005" cy="10.0525" r="0.773252" fill="#E2E8F0"/>
<circle cx="236.005" cy="14.6922" r="0.773252" fill="#E2E8F0"/>
<circle cx="236.005" cy="19.3309" r="0.773252" fill="#E2E8F0"/>
<circle cx="236.005" cy="23.9705" r="0.773252" fill="#E2E8F0"/>
<circle cx="236.005" cy="28.6104" r="0.773252" fill="#E2E8F0"/>
<circle cx="236.005" cy="33.2498" r="0.773252" fill="#E2E8F0"/>
<circle cx="236.005" cy="37.8892" r="0.773252" fill="#E2E8F0"/>
<circle cx="236.005" cy="42.5291" r="0.773252" fill="#E2E8F0"/>
<circle cx="236.005" cy="47.1688" r="0.773252" fill="#E2E8F0"/>
<circle cx="236.005" cy="51.8074" r="0.773252" fill="#E2E8F0"/>
<circle cx="240.644" cy="0.773252" r="0.773252" fill="#E2E8F0"/>
<circle cx="240.644" cy="5.41266" r="0.773252" fill="#E2E8F0"/>
<circle cx="240.644" cy="10.0525" r="0.773252" fill="#E2E8F0"/>
<circle cx="240.644" cy="14.6922" r="0.773252" fill="#E2E8F0"/>
<circle cx="240.644" cy="19.3309" r="0.773252" fill="#E2E8F0"/>
<circle cx="240.644" cy="23.9705" r="0.773252" fill="#E2E8F0"/>
<circle cx="240.644" cy="28.6104" r="0.773252" fill="#E2E8F0"/>
<circle cx="240.644" cy="33.2498" r="0.773252" fill="#E2E8F0"/>
<circle cx="240.644" cy="37.8892" r="0.773252" fill="#E2E8F0"/>
<circle cx="240.644" cy="42.5291" r="0.773252" fill="#E2E8F0"/>
<circle cx="240.644" cy="47.1688" r="0.773252" fill="#E2E8F0"/>
<circle cx="240.644" cy="51.8074" r="0.773252" fill="#E2E8F0"/>
<circle cx="245.284" cy="0.773252" r="0.773252" fill="#E2E8F0"/>
<circle cx="245.284" cy="5.41266" r="0.773252" fill="#E2E8F0"/>
<circle cx="245.284" cy="10.0525" r="0.773252" fill="#E2E8F0"/>
<circle cx="245.284" cy="14.6922" r="0.773252" fill="#E2E8F0"/>
<circle cx="245.284" cy="19.3309" r="0.773252" fill="#E2E8F0"/>
<circle cx="245.284" cy="23.9705" r="0.773252" fill="#E2E8F0"/>
<circle cx="245.284" cy="28.6104" r="0.773252" fill="#E2E8F0"/>
<circle cx="245.284" cy="33.2498" r="0.773252" fill="#E2E8F0"/>
<circle cx="245.284" cy="37.8892" r="0.773252" fill="#E2E8F0"/>
<circle cx="245.284" cy="42.5291" r="0.773252" fill="#E2E8F0"/>
<circle cx="245.284" cy="47.1688" r="0.773252" fill="#E2E8F0"/>
<circle cx="245.284" cy="51.8074" r="0.773252" fill="#E2E8F0"/>
<circle cx="249.924" cy="0.773252" r="0.773252" fill="#E2E8F0"/>
<circle cx="249.924" cy="5.41266" r="0.773252" fill="#E2E8F0"/>
<circle cx="249.924" cy="10.0525" r="0.773252" fill="#E2E8F0"/>
<circle cx="249.924" cy="14.6922" r="0.773252" fill="#E2E8F0"/>
<circle cx="249.924" cy="19.3309" r="0.773252" fill="#E2E8F0"/>
<circle cx="249.924" cy="23.9705" r="0.773252" fill="#E2E8F0"/>
<circle cx="249.924" cy="28.6104" r="0.773252" fill="#E2E8F0"/>
<circle cx="249.924" cy="33.2498" r="0.773252" fill="#E2E8F0"/>
<circle cx="249.924" cy="37.8892" r="0.773252" fill="#E2E8F0"/>
<circle cx="249.924" cy="42.5291" r="0.773252" fill="#E2E8F0"/>
<circle cx="249.924" cy="47.1688" r="0.773252" fill="#E2E8F0"/>
<circle cx="249.924" cy="51.8074" r="0.773252" fill="#E2E8F0"/>
<circle cx="254.562" cy="0.773252" r="0.773252" fill="#E2E8F0"/>
<circle cx="254.562" cy="5.41266" r="0.773252" fill="#E2E8F0"/>
<circle cx="254.562" cy="10.0525" r="0.773252" fill="#E2E8F0"/>
<circle cx="254.562" cy="14.6922" r="0.773252" fill="#E2E8F0"/>
<circle cx="254.562" cy="19.3309" r="0.773252" fill="#E2E8F0"/>
<circle cx="254.562" cy="23.9705" r="0.773252" fill="#E2E8F0"/>
<circle cx="254.562" cy="28.6104" r="0.773252" fill="#E2E8F0"/>
<circle cx="254.562" cy="33.2498" r="0.773252" fill="#E2E8F0"/>
<circle cx="254.562" cy="37.8892" r="0.773252" fill="#E2E8F0"/>
<circle cx="254.562" cy="42.5291" r="0.773252" fill="#E2E8F0"/>
<circle cx="254.562" cy="47.1688" r="0.773252" fill="#E2E8F0"/>
<circle cx="254.562" cy="51.8074" r="0.773252" fill="#E2E8F0"/>
<circle cx="259.202" cy="0.773252" r="0.773252" fill="#E2E8F0"/>
<circle cx="259.202" cy="5.41266" r="0.773252" fill="#E2E8F0"/>
<circle cx="259.202" cy="10.0525" r="0.773252" fill="#E2E8F0"/>
<circle cx="259.202" cy="14.6922" r="0.773252" fill="#E2E8F0"/>
<circle cx="259.202" cy="19.3309" r="0.773252" fill="#E2E8F0"/>
<circle cx="259.202" cy="23.9705" r="0.773252" fill="#E2E8F0"/>
<circle cx="259.202" cy="28.6104" r="0.773252" fill="#E2E8F0"/>
<circle cx="259.202" cy="33.2498" r="0.773252" fill="#E2E8F0"/>
<circle cx="259.202" cy="37.8892" r="0.773252" fill="#E2E8F0"/>
<circle cx="259.202" cy="42.5291" r="0.773252" fill="#E2E8F0"/>
<circle cx="259.202" cy="47.1688" r="0.773252" fill="#E2E8F0"/>
<circle cx="259.202" cy="51.8074" r="0.773252" fill="#E2E8F0"/>
<circle cx="263.843" cy="0.773252" r="0.773252" fill="#E2E8F0"/>
<circle cx="263.843" cy="5.41266" r="0.773252" fill="#E2E8F0"/>
<circle cx="263.843" cy="10.0525" r="0.773252" fill="#E2E8F0"/>
<circle cx="263.843" cy="14.6922" r="0.773252" fill="#E2E8F0"/>
<circle cx="263.843" cy="19.3309" r="0.773252" fill="#E2E8F0"/>
<circle cx="263.843" cy="23.9705" r="0.773252" fill="#E2E8F0"/>
<circle cx="263.843" cy="28.6104" r="0.773252" fill="#E2E8F0"/>
<circle cx="263.843" cy="33.2498" r="0.773252" fill="#E2E8F0"/>
<circle cx="263.843" cy="37.8892" r="0.773252" fill="#E2E8F0"/>
<circle cx="263.843" cy="42.5291" r="0.773252" fill="#E2E8F0"/>
<circle cx="263.843" cy="47.1688" r="0.773252" fill="#E2E8F0"/>
<circle cx="263.843" cy="51.8074" r="0.773252" fill="#E2E8F0"/>
<circle cx="268.481" cy="0.773252" r="0.773252" fill="#E2E8F0"/>
<circle cx="268.481" cy="5.41266" r="0.773252" fill="#E2E8F0"/>
<circle cx="268.481" cy="10.0525" r="0.773252" fill="#E2E8F0"/>
<circle cx="268.481" cy="14.6922" r="0.773252" fill="#E2E8F0"/>
<circle cx="268.481" cy="19.3309" r="0.773252" fill="#E2E8F0"/>
<circle cx="268.481" cy="23.9705" r="0.773252" fill="#E2E8F0"/>
<circle cx="268.481" cy="28.6104" r="0.773252" fill="#E2E8F0"/>
<circle cx="268.481" cy="33.2498" r="0.773252" fill="#E2E8F0"/>
<circle cx="268.481" cy="37.8892" r="0.773252" fill="#E2E8F0"/>
<circle cx="268.481" cy="42.5291" r="0.773252" fill="#E2E8F0"/>
<circle cx="268.481" cy="47.1688" r="0.773252" fill="#E2E8F0"/>
<circle cx="268.481" cy="51.8074" r="0.773252" fill="#E2E8F0"/>
<circle cx="273.121" cy="0.773252" r="0.773252" fill="#E2E8F0"/>
<circle cx="273.121" cy="5.41266" r="0.773252" fill="#E2E8F0"/>
<circle cx="273.121" cy="10.0525" r="0.773252" fill="#E2E8F0"/>
<circle cx="273.121" cy="14.6922" r="0.773252" fill="#E2E8F0"/>
<circle cx="273.121" cy="19.3309" r="0.773252" fill="#E2E8F0"/>
<circle cx="273.121" cy="23.9705" r="0.773252" fill="#E2E8F0"/>
<circle cx="273.121" cy="28.6104" r="0.773252" fill="#E2E8F0"/>
<circle cx="273.121" cy="33.2498" r="0.773252" fill="#E2E8F0"/>
<circle cx="273.121" cy="37.8892" r="0.773252" fill="#E2E8F0"/>
<circle cx="273.121" cy="42.5291" r="0.773252" fill="#E2E8F0"/>
<circle cx="273.121" cy="47.1688" r="0.773252" fill="#E2E8F0"/>
<circle cx="273.121" cy="51.8074" r="0.773252" fill="#E2E8F0"/>
<circle cx="277.761" cy="0.773252" r="0.773252" fill="#E2E8F0"/>
<circle cx="277.761" cy="5.4129" r="0.773252" fill="#E2E8F0"/>
<circle cx="277.761" cy="10.0525" r="0.773252" fill="#E2E8F0"/>
<circle cx="277.761" cy="14.6922" r="0.773252" fill="#E2E8F0"/>
<circle cx="277.761" cy="19.3309" r="0.773252" fill="#E2E8F0"/>
<circle cx="277.761" cy="23.9705" r="0.773252" fill="#E2E8F0"/>
<circle cx="277.761" cy="28.6102" r="0.773252" fill="#E2E8F0"/>
<circle cx="277.761" cy="33.2498" r="0.773252" fill="#E2E8F0"/>
<circle cx="277.761" cy="37.8895" r="0.773252" fill="#E2E8F0"/>
<circle cx="277.761" cy="42.5291" r="0.773252" fill="#E2E8F0"/>
<circle cx="277.761" cy="47.1688" r="0.773252" fill="#E2E8F0"/>
<circle cx="277.761" cy="51.8074" r="0.773252" fill="#E2E8F0"/>
<circle cx="282.4" cy="0.773252" r="0.773252" fill="#E2E8F0"/>
<circle cx="282.4" cy="5.41266" r="0.773252" fill="#E2E8F0"/>
<circle cx="282.4" cy="10.0525" r="0.773252" fill="#E2E8F0"/>
<circle cx="282.4" cy="14.6922" r="0.773252" fill="#E2E8F0"/>
<circle cx="282.4" cy="19.3309" r="0.773252" fill="#E2E8F0"/>
<circle cx="282.4" cy="23.9705" r="0.773252" fill="#E2E8F0"/>
<circle cx="282.4" cy="28.6104" r="0.773252" fill="#E2E8F0"/>
<circle cx="282.4" cy="33.2498" r="0.773252" fill="#E2E8F0"/>
<circle cx="282.4" cy="37.8892" r="0.773252" fill="#E2E8F0"/>
<circle cx="282.4" cy="42.5291" r="0.773252" fill="#E2E8F0"/>
<circle cx="282.4" cy="47.1688" r="0.773252" fill="#E2E8F0"/>
<circle cx="282.4" cy="51.8074" r="0.773252" fill="#E2E8F0"/>
<circle cx="56.7733" cy="154.026" r="0.773252" fill="#E2E8F0"/>
<circle cx="56.7733" cy="158.666" r="0.773252" fill="#E2E8F0"/>
<circle cx="56.7733" cy="163.305" r="0.773252" fill="#E2E8F0"/>
<circle cx="56.7733" cy="167.945" r="0.773252" fill="#E2E8F0"/>
<circle cx="56.7733" cy="172.584" r="0.773252" fill="#E2E8F0"/>
<circle cx="56.7733" cy="177.223" r="0.773252" fill="#E2E8F0"/>
<circle cx="56.7733" cy="181.863" r="0.773252" fill="#E2E8F0"/>
<circle cx="56.7733" cy="186.503" r="0.773252" fill="#E2E8F0"/>
<circle cx="56.7733" cy="191.142" r="0.773252" fill="#E2E8F0"/>
<circle cx="56.7733" cy="195.782" r="0.773252" fill="#E2E8F0"/>
<circle cx="56.7733" cy="200.422" r="0.773252" fill="#E2E8F0"/>
<circle cx="56.7733" cy="205.06" r="0.773252" fill="#E2E8F0"/>
<circle cx="61.4129" cy="154.026" r="0.773252" fill="#E2E8F0"/>
<circle cx="61.4129" cy="158.666" r="0.773252" fill="#E2E8F0"/>
<circle cx="61.4129" cy="163.305" r="0.773252" fill="#E2E8F0"/>
<circle cx="61.4129" cy="167.945" r="0.773252" fill="#E2E8F0"/>
<circle cx="61.4129" cy="172.584" r="0.773252" fill="#E2E8F0"/>
<circle cx="61.4129" cy="177.223" r="0.773252" fill="#E2E8F0"/>
<circle cx="61.4129" cy="181.863" r="0.773252" fill="#E2E8F0"/>
<circle cx="61.4129" cy="186.503" r="0.773252" fill="#E2E8F0"/>
<circle cx="61.4129" cy="191.142" r="0.773252" fill="#E2E8F0"/>
<circle cx="61.4129" cy="195.782" r="0.773252" fill="#E2E8F0"/>
<circle cx="61.4129" cy="200.422" r="0.773252" fill="#E2E8F0"/>
<circle cx="61.4129" cy="205.06" r="0.773252" fill="#E2E8F0"/>
<circle cx="66.0526" cy="154.026" r="0.773252" fill="#E2E8F0"/>
<circle cx="66.0526" cy="158.666" r="0.773252" fill="#E2E8F0"/>
<circle cx="66.0526" cy="163.305" r="0.773252" fill="#E2E8F0"/>
<circle cx="66.0526" cy="167.945" r="0.773252" fill="#E2E8F0"/>
<circle cx="66.0526" cy="172.584" r="0.773252" fill="#E2E8F0"/>
<circle cx="66.0526" cy="177.223" r="0.773252" fill="#E2E8F0"/>
<circle cx="66.0526" cy="181.863" r="0.773252" fill="#E2E8F0"/>
<circle cx="66.0526" cy="186.503" r="0.773252" fill="#E2E8F0"/>
<circle cx="66.0526" cy="191.142" r="0.773252" fill="#E2E8F0"/>
<circle cx="66.0526" cy="195.782" r="0.773252" fill="#E2E8F0"/>
<circle cx="66.0526" cy="200.422" r="0.773252" fill="#E2E8F0"/>
<circle cx="66.0526" cy="205.06" r="0.773252" fill="#E2E8F0"/>
<circle cx="70.6922" cy="154.026" r="0.773252" fill="#E2E8F0"/>
<circle cx="70.6922" cy="158.666" r="0.773252" fill="#E2E8F0"/>
<circle cx="70.6922" cy="163.305" r="0.773252" fill="#E2E8F0"/>
<circle cx="70.6922" cy="167.945" r="0.773252" fill="#E2E8F0"/>
<circle cx="70.6922" cy="172.584" r="0.773252" fill="#E2E8F0"/>
<circle cx="70.6922" cy="177.223" r="0.773252" fill="#E2E8F0"/>
<circle cx="70.6922" cy="181.863" r="0.773252" fill="#E2E8F0"/>
<circle cx="70.6922" cy="186.503" r="0.773252" fill="#E2E8F0"/>
<circle cx="70.6922" cy="191.142" r="0.773252" fill="#E2E8F0"/>
<circle cx="70.6922" cy="195.782" r="0.773252" fill="#E2E8F0"/>
<circle cx="70.6922" cy="200.422" r="0.773252" fill="#E2E8F0"/>
<circle cx="70.6922" cy="205.06" r="0.773252" fill="#E2E8F0"/>
<circle cx="75.3318" cy="154.026" r="0.773252" fill="#E2E8F0"/>
<circle cx="75.3318" cy="158.666" r="0.773252" fill="#E2E8F0"/>
<circle cx="75.3318" cy="163.305" r="0.773252" fill="#E2E8F0"/>
<circle cx="75.3318" cy="167.945" r="0.773252" fill="#E2E8F0"/>
<circle cx="75.3318" cy="172.584" r="0.773252" fill="#E2E8F0"/>
<circle cx="75.3318" cy="177.223" r="0.773252" fill="#E2E8F0"/>
<circle cx="75.3318" cy="181.863" r="0.773252" fill="#E2E8F0"/>
<circle cx="75.3318" cy="186.503" r="0.773252" fill="#E2E8F0"/>
<circle cx="75.3318" cy="191.142" r="0.773252" fill="#E2E8F0"/>
<circle cx="75.3318" cy="195.782" r="0.773252" fill="#E2E8F0"/>
<circle cx="75.3318" cy="200.422" r="0.773252" fill="#E2E8F0"/>
<circle cx="75.3318" cy="205.06" r="0.773252" fill="#E2E8F0"/>
<circle cx="79.9705" cy="154.026" r="0.773252" fill="#E2E8F0"/>
<circle cx="79.9705" cy="158.666" r="0.773252" fill="#E2E8F0"/>
<circle cx="79.9705" cy="163.305" r="0.773252" fill="#E2E8F0"/>
<circle cx="79.9705" cy="167.945" r="0.773252" fill="#E2E8F0"/>
<circle cx="79.9705" cy="172.584" r="0.773252" fill="#E2E8F0"/>
<circle cx="79.9705" cy="177.223" r="0.773252" fill="#E2E8F0"/>
<circle cx="79.9705" cy="181.863" r="0.773252" fill="#E2E8F0"/>
<circle cx="79.9705" cy="186.503" r="0.773252" fill="#E2E8F0"/>
<circle cx="79.9705" cy="191.142" r="0.773252" fill="#E2E8F0"/>
<circle cx="79.9705" cy="195.782" r="0.773252" fill="#E2E8F0"/>
<circle cx="79.9705" cy="200.422" r="0.773252" fill="#E2E8F0"/>
<circle cx="79.9705" cy="205.06" r="0.773252" fill="#E2E8F0"/>
<circle cx="84.6102" cy="154.026" r="0.773252" fill="#E2E8F0"/>
<circle cx="84.6102" cy="158.666" r="0.773252" fill="#E2E8F0"/>
<circle cx="84.6102" cy="163.305" r="0.773252" fill="#E2E8F0"/>
<circle cx="84.6102" cy="167.945" r="0.773252" fill="#E2E8F0"/>
<circle cx="84.6102" cy="172.584" r="0.773252" fill="#E2E8F0"/>
<circle cx="84.6102" cy="177.223" r="0.773252" fill="#E2E8F0"/>
<circle cx="84.6102" cy="181.863" r="0.773252" fill="#E2E8F0"/>
<circle cx="84.6102" cy="186.503" r="0.773252" fill="#E2E8F0"/>
<circle cx="84.6102" cy="191.142" r="0.773252" fill="#E2E8F0"/>
<circle cx="84.6102" cy="195.782" r="0.773252" fill="#E2E8F0"/>
<circle cx="84.6102" cy="200.422" r="0.773252" fill="#E2E8F0"/>
<circle cx="84.6102" cy="205.06" r="0.773252" fill="#E2E8F0"/>
<circle cx="89.2508" cy="154.026" r="0.773252" fill="#E2E8F0"/>
<circle cx="89.2508" cy="158.666" r="0.773252" fill="#E2E8F0"/>
<circle cx="89.2508" cy="163.305" r="0.773252" fill="#E2E8F0"/>
<circle cx="89.2508" cy="167.945" r="0.773252" fill="#E2E8F0"/>
<circle cx="89.2508" cy="172.584" r="0.773252" fill="#E2E8F0"/>
<circle cx="89.2508" cy="177.223" r="0.773252" fill="#E2E8F0"/>
<circle cx="89.2508" cy="181.863" r="0.773252" fill="#E2E8F0"/>
<circle cx="89.2508" cy="186.503" r="0.773252" fill="#E2E8F0"/>
<circle cx="89.2508" cy="191.142" r="0.773252" fill="#E2E8F0"/>
<circle cx="89.2508" cy="195.782" r="0.773252" fill="#E2E8F0"/>
<circle cx="89.2508" cy="200.422" r="0.773252" fill="#E2E8F0"/>
<circle cx="89.2508" cy="205.06" r="0.773252" fill="#E2E8F0"/>
<circle cx="93.8895" cy="154.026" r="0.773252" fill="#E2E8F0"/>
<circle cx="93.8895" cy="158.666" r="0.773252" fill="#E2E8F0"/>
<circle cx="93.8895" cy="163.305" r="0.773252" fill="#E2E8F0"/>
<circle cx="93.8895" cy="167.945" r="0.773252" fill="#E2E8F0"/>
<circle cx="93.8895" cy="172.584" r="0.773252" fill="#E2E8F0"/>
<circle cx="93.8895" cy="177.223" r="0.773252" fill="#E2E8F0"/>
<circle cx="93.8895" cy="181.863" r="0.773252" fill="#E2E8F0"/>
<circle cx="93.8895" cy="186.503" r="0.773252" fill="#E2E8F0"/>
<circle cx="93.8895" cy="191.142" r="0.773252" fill="#E2E8F0"/>
<circle cx="93.8895" cy="195.782" r="0.773252" fill="#E2E8F0"/>
<circle cx="93.8895" cy="200.422" r="0.773252" fill="#E2E8F0"/>
<circle cx="93.8895" cy="205.06" r="0.773252" fill="#E2E8F0"/>
<circle cx="98.5291" cy="154.026" r="0.773252" fill="#E2E8F0"/>
<circle cx="98.5291" cy="158.666" r="0.773252" fill="#E2E8F0"/>
<circle cx="98.5291" cy="163.305" r="0.773252" fill="#E2E8F0"/>
<circle cx="98.5291" cy="167.945" r="0.773252" fill="#E2E8F0"/>
<circle cx="98.5291" cy="172.584" r="0.773252" fill="#E2E8F0"/>
<circle cx="98.5291" cy="177.223" r="0.773252" fill="#E2E8F0"/>
<circle cx="98.5291" cy="181.863" r="0.773252" fill="#E2E8F0"/>
<circle cx="98.5291" cy="186.503" r="0.773252" fill="#E2E8F0"/>
<circle cx="98.5291" cy="191.142" r="0.773252" fill="#E2E8F0"/>
<circle cx="98.5291" cy="195.782" r="0.773252" fill="#E2E8F0"/>
<circle cx="98.5291" cy="200.422" r="0.773252" fill="#E2E8F0"/>
<circle cx="98.5291" cy="205.06" r="0.773252" fill="#E2E8F0"/>
<circle cx="103.169" cy="154.026" r="0.773252" fill="#E2E8F0"/>
<circle cx="103.169" cy="158.666" r="0.773252" fill="#E2E8F0"/>
<circle cx="103.169" cy="163.305" r="0.773252" fill="#E2E8F0"/>
<circle cx="103.169" cy="167.945" r="0.773252" fill="#E2E8F0"/>
<circle cx="103.169" cy="172.584" r="0.773252" fill="#E2E8F0"/>
<circle cx="103.169" cy="177.223" r="0.773252" fill="#E2E8F0"/>
<circle cx="103.169" cy="181.863" r="0.773252" fill="#E2E8F0"/>
<circle cx="103.169" cy="186.503" r="0.773252" fill="#E2E8F0"/>
<circle cx="103.169" cy="191.142" r="0.773252" fill="#E2E8F0"/>
<circle cx="103.169" cy="195.782" r="0.773252" fill="#E2E8F0"/>
<circle cx="103.169" cy="200.422" r="0.773252" fill="#E2E8F0"/>
<circle cx="103.169" cy="205.06" r="0.773252" fill="#E2E8F0"/>
<circle cx="107.808" cy="154.026" r="0.773252" fill="#E2E8F0"/>
<circle cx="107.808" cy="158.666" r="0.773252" fill="#E2E8F0"/>
<circle cx="107.808" cy="163.305" r="0.773252" fill="#E2E8F0"/>
<circle cx="107.808" cy="167.945" r="0.773252" fill="#E2E8F0"/>
<circle cx="107.808" cy="172.584" r="0.773252" fill="#E2E8F0"/>
<circle cx="107.808" cy="177.223" r="0.773252" fill="#E2E8F0"/>
<circle cx="107.808" cy="181.863" r="0.773252" fill="#E2E8F0"/>
<circle cx="107.808" cy="186.503" r="0.773252" fill="#E2E8F0"/>
<circle cx="107.808" cy="191.142" r="0.773252" fill="#E2E8F0"/>
<circle cx="107.808" cy="195.782" r="0.773252" fill="#E2E8F0"/>
<circle cx="107.808" cy="200.422" r="0.773252" fill="#E2E8F0"/>
<circle cx="107.808" cy="205.06" r="0.773252" fill="#E2E8F0"/>
<g clip-path="url(#clip1)">
<path d="M156.862 213.43C160.972 209.317 160.972 202.649 156.862 198.536C152.751 194.423 146.087 194.423 141.976 198.536C137.866 202.649 137.866 209.317 141.976 213.43C146.087 217.543 152.751 217.543 156.862 213.43Z" fill="#D1D3D4"/>
<path d="M103.144 178.071C107.255 173.958 107.255 167.29 103.144 163.176C99.0335 159.063 92.3689 159.063 88.2583 163.176C84.1477 167.29 84.1477 173.958 88.2583 178.071C92.3689 182.184 99.0335 182.184 103.144 178.071Z" fill="#D1D3D4"/>
<path d="M187.781 33.9793C191.891 29.8663 191.891 23.1977 187.781 19.0847C183.67 14.9716 177.006 14.9717 172.895 19.0847C168.784 23.1977 168.784 29.8663 172.895 33.9793C177.006 38.0923 183.67 38.0923 187.781 33.9793Z" fill="#D1D3D4"/>
<path d="M127.933 116.001C127.432 116.555 126.913 116.955 126.378 117.226C125.834 117.499 125.274 117.639 124.699 117.667C123.774 117.711 122.81 117.465 121.814 117.024C121.805 117.019 121.794 117.015 121.785 117.01C121.243 116.768 120.694 116.469 120.136 116.127C119.996 116.041 119.854 115.952 119.712 115.859C118.476 115.062 117.203 114.078 115.91 113.07C113.872 111.481 111.947 108.558 111.618 105.74C111.523 104.926 111.561 104.121 111.768 103.359C112.003 102.499 112.453 101.694 113.17 100.995C113.649 100.528 114.176 100.175 114.742 99.9261C115.88 99.4264 117.173 99.3498 118.549 99.6208C118.931 99.6957 119.319 99.7986 119.712 99.9261C120.392 100.146 121.086 100.442 121.785 100.807C121.795 100.812 121.805 100.817 121.815 100.822C122.372 101.113 122.933 101.447 123.494 101.82C123.896 102.088 124.299 102.375 124.7 102.681C124.96 102.881 125.22 103.088 125.477 103.301C125.5 103.32 125.524 103.34 125.546 103.359C125.84 103.606 126.116 103.863 126.378 104.131C126.871 104.636 127.309 105.177 127.689 105.74C130.015 109.183 130.203 113.494 127.934 116L127.933 116.001Z" fill="#F2B486"/>
<path d="M121.784 100.808V117.011C121.243 116.769 120.694 116.469 120.136 116.128C119.996 116.041 119.854 115.952 119.712 115.86V99.9275C120.391 100.147 121.085 100.444 121.784 100.808Z" fill="#CCCCCC"/>
<path d="M121.177 64.6878H125.206V76.6143H121.177C120.553 76.6143 120.046 76.1072 120.046 75.4823V65.8192C120.046 65.1944 120.553 64.6873 121.177 64.6873V64.6878Z" fill="#475569"/>
<path d="M121.177 81.766H125.206V93.6924H121.177C120.553 93.6924 120.046 93.1853 120.046 92.5604V82.8974C120.046 82.2725 120.553 81.7654 121.177 81.7654V81.766Z" fill="#475569"/>
<path d="M213.053 162.303C212.563 165.489 211.29 171.478 209.38 177.578C207.636 183.152 207.884 190.566 207.94 191.804C207.945 191.92 207.948 191.983 207.948 191.983L167.991 208.63C167.958 208.581 167.926 208.534 167.894 208.486C166.87 206.991 165.949 205.747 165.089 204.68L165 204.57C164.992 204.56 164.984 204.55 164.977 204.541C164.955 204.514 164.933 204.488 164.912 204.461C164.815 204.342 164.718 204.225 164.622 204.11C164.465 203.922 164.31 203.739 164.156 203.561C163.554 202.865 162.977 202.248 162.409 201.68C162.382 201.652 162.354 201.626 162.327 201.599C160.282 199.571 158.343 198.167 155.762 195.988C155.093 195.424 154.228 194.643 153.236 193.72C151.847 192.427 150.209 190.854 148.512 189.2C147.868 188.573 147.216 187.932 146.565 187.293C145.671 186.412 144.782 185.532 143.923 184.678C143.829 184.585 143.734 184.491 143.641 184.398H163.256V152.499H193.426V143.308L196.306 142.263L196.278 141.292L195.645 119.136C195.645 119.136 195.689 117.311 196.31 115.653C196.497 115.156 196.736 114.675 197.041 114.262C198.266 112.605 199.679 111.768 201.301 111.694C201.336 111.691 201.372 111.69 201.408 111.69C201.448 111.688 201.491 111.687 201.533 111.687C201.586 111.687 201.639 111.688 201.693 111.69C202.747 111.718 204.067 112.405 204.96 113.708C205.581 114.613 205.997 115.814 205.978 117.3C205.943 119.841 206.162 122.588 206.515 125.624C206.665 126.919 206.84 128.265 207.029 129.67C207.666 134.374 210.947 146.329 212.367 151.278C213.787 156.226 213.541 159.117 213.052 162.302L213.053 162.303Z" fill="#F2B486"/>
<path d="M194.278 167.971V177.423C194.278 177.507 194.276 177.589 194.272 177.674C194.238 178.669 193.999 179.626 193.563 180.517C193.142 181.38 192.558 182.137 191.829 182.768C191.777 182.813 191.725 182.858 191.671 182.901L191.209 183.247C191.209 183.247 191.205 183.25 191.204 183.251L164.155 203.561C163.553 202.865 162.976 202.248 162.408 201.681C162.381 201.653 162.353 201.626 162.326 201.599C160.281 199.572 158.342 198.167 155.761 195.988C155.092 195.424 154.227 194.643 153.235 193.721C151.846 192.427 150.208 190.854 148.511 189.2C147.867 188.573 147.215 187.933 146.564 187.293C145.67 186.412 144.781 185.533 143.922 184.678C143.828 184.585 143.733 184.491 143.64 184.398H163.255V158.237L165.999 156.177L170.543 152.764L170.896 152.499L170.994 152.425L178.431 146.843L180.58 149.709L182.618 152.425L182.673 152.499L190.811 163.351L192.516 165.625L193.64 167.123L194.262 167.952L194.277 167.971H194.278Z" fill="#E6E6E6"/>
<path d="M184.967 40.0398H133.142C127.847 40.0398 123.555 44.3345 123.555 49.6331V173.058C123.555 178.356 127.847 182.651 133.142 182.651H184.967C190.262 182.651 194.554 178.356 194.554 173.058V49.6331C194.554 44.3345 190.262 40.0398 184.967 40.0398Z" fill="#738E9E"/>
<path d="M192.988 41.6065C190.845 39.4626 187.996 38.282 184.966 38.282H133.142C130.112 38.282 127.262 39.4626 125.12 41.6065C122.977 43.7504 121.797 46.601 121.797 49.6328V173.057C121.797 176.09 122.977 178.94 125.119 181.084C127.262 183.228 130.112 184.409 133.141 184.409H184.966C187.996 184.409 190.845 183.228 192.987 181.084C195.13 178.94 196.31 176.09 196.31 173.057V49.6328C196.31 46.601 195.13 43.7504 192.988 41.6065ZM192.797 173.058C192.797 177.379 189.284 180.894 184.966 180.894H133.141C128.823 180.894 125.31 177.379 125.31 173.058V49.6328C125.31 45.3123 128.824 41.7974 133.142 41.7974H184.966C189.285 41.7974 192.797 45.3123 192.797 49.6328V173.057V173.058Z" fill="#0F172A"/>
<path d="M192.988 41.6075C190.845 39.4635 187.996 38.283 184.966 38.283H133.142C130.112 38.283 127.262 39.4635 125.12 41.6075C122.977 43.7514 121.797 46.6019 121.797 49.6337V173.058C121.797 176.091 122.977 178.941 125.119 181.085C127.262 183.228 130.112 184.41 133.141 184.41H184.966C187.996 184.41 190.845 183.228 192.987 181.085C195.13 178.941 196.31 176.091 196.31 173.058V49.6332C196.31 46.6014 195.13 43.7508 192.988 41.6069V41.6075ZM195.603 173.058C195.603 175.901 194.496 178.574 192.487 180.584C190.478 182.595 187.807 183.702 184.966 183.702H133.141C130.3 183.702 127.629 182.594 125.619 180.584C123.61 178.574 122.504 175.901 122.504 173.058V49.6332C122.504 46.7906 123.611 44.1179 125.62 42.1071C127.628 40.097 130.299 38.9902 133.142 38.9902H184.966C187.808 38.9902 190.479 40.097 192.488 42.1071C194.497 44.1173 195.603 46.79 195.603 49.6332V173.058V173.058Z" fill="#475569"/>
<g style="mix-blend-mode:multiply">
<path d="M205.588 34.4636C184.93 34.4636 168.183 51.2205 168.183 71.8919C168.183 77.9469 169.62 83.6663 172.172 88.7271C172.848 90.0683 173.011 91.6102 172.622 93.0612L168.677 107.792C168.509 108.419 169.083 108.993 169.71 108.825L184.432 104.878C185.882 104.489 187.423 104.652 188.764 105.328C193.821 107.882 199.537 109.32 205.589 109.32C226.247 109.32 242.994 92.5633 242.995 71.8925C242.995 51.2382 226.231 34.4642 205.589 34.4642L205.588 34.4636Z" fill="#E6E7E8"/>
</g>
<path d="M209.848 33.4294C189.189 33.4294 172.442 50.1863 172.442 70.8577C172.442 76.9127 173.88 82.6321 176.432 87.6929C177.108 89.0341 177.27 90.576 176.882 92.027L172.937 106.758C172.769 107.385 173.343 107.959 173.97 107.791L188.692 103.844C190.142 103.455 191.683 103.618 193.023 104.294C198.081 106.848 203.797 108.286 209.849 108.286C230.507 108.286 247.254 91.5291 247.255 70.8583C247.255 50.204 230.491 33.43 209.849 33.43L209.848 33.4294Z" fill="white"/>
<path d="M210.367 49.3182C222.25 49.3182 231.943 59.0103 231.943 70.8935C231.943 82.861 222.25 92.4688 210.367 92.4688C198.4 92.4688 188.792 82.861 188.792 70.8935C188.792 59.0103 198.4 49.3182 210.367 49.3182ZM210.367 88.4234C219.975 88.4234 227.897 80.5855 227.897 70.8935C227.897 61.2858 219.975 53.3636 210.367 53.3636C200.675 53.3636 192.837 61.2858 192.837 70.8935C192.837 80.5855 200.675 88.4234 210.367 88.4234ZM210.367 74.9389C209.187 74.9389 208.345 74.0961 208.345 72.9162V62.1286C208.345 61.0329 209.187 60.1059 210.367 60.1059C211.463 60.1059 212.39 61.0329 212.39 62.1286V72.9162C212.39 74.0961 211.463 74.9389 210.367 74.9389ZM210.367 77.8043C211.8 77.8043 212.98 78.9842 212.98 80.417C212.98 81.8497 211.8 83.0296 210.367 83.0296C208.85 83.0296 207.67 81.8497 207.67 80.417C207.67 78.9842 208.85 77.8043 210.367 77.8043Z" fill="#EF4444"/>
<path d="M242.524 39.9492C242.067 39.9492 241.61 39.7749 241.262 39.4261C240.564 38.7281 240.564 37.5967 241.262 36.8992L246.287 31.871C246.984 31.1729 248.115 31.1729 248.812 31.871C249.51 32.569 249.51 33.7004 248.812 34.3979L243.787 39.4261C243.438 39.7749 242.981 39.9492 242.524 39.9492Z" fill="#EF4444"/>
<path d="M233.731 32.6426C233.675 32.6426 233.62 32.6403 233.564 32.6346C232.581 32.5437 231.859 31.673 231.95 30.6902L232.607 23.6095C232.697 22.6268 233.568 21.9041 234.55 21.995C235.532 22.0859 236.254 22.9566 236.163 23.9394L235.507 31.0206C235.421 31.9474 234.642 32.6426 233.731 32.6426Z" fill="#EF4444"/>
<path d="M249.825 48.7497C248.913 48.7497 248.135 48.0545 248.049 47.1277C247.958 46.1449 248.68 45.2748 249.662 45.1833L256.739 44.527C257.722 44.4361 258.591 45.1587 258.682 46.1415C258.773 47.1243 258.051 47.9944 257.068 48.0859L249.992 48.7422C249.936 48.7474 249.88 48.7502 249.825 48.7502V48.7497Z" fill="#EF4444"/>
<path d="M164.921 49.5911H153.187C152.155 49.5911 151.319 48.7541 151.319 47.7222C151.319 46.6903 152.156 45.8533 153.187 45.8533H164.921C165.953 45.8533 166.789 46.6903 166.789 47.7222C166.789 48.7541 165.953 49.5911 164.921 49.5911Z" fill="#0F172A"/>
<path d="M216.623 197.633L165.915 218.758L164.429 215.188C163.4 212.713 164.57 209.871 167.044 208.841L208.794 191.448C211.268 190.418 214.108 191.589 215.138 194.064L216.623 197.633V197.633Z" fill="#F2F2F2"/>
<path d="M217.953 197.079L216.624 197.632L165.915 218.757L164.585 219.311C161.357 220.657 159.829 224.366 161.174 227.596L163.839 234H240.177L226.234 200.492C224.889 197.261 221.182 195.733 217.954 197.078L217.953 197.079Z" fill="#334155"/>
<path d="M126.653 170.783C126.011 171.501 125.349 171.959 124.67 172.208C123.738 172.551 122.775 172.502 121.785 172.198C120.055 171.666 118.24 170.353 116.371 168.979C113.725 167.033 111.444 162.272 114.159 159.059C114.259 158.939 114.367 158.822 114.482 158.706C114.505 158.683 114.528 158.66 114.552 158.638C114.831 158.368 115.126 158.136 115.433 157.942C117.238 156.801 119.49 156.932 121.785 157.95C122.749 158.378 123.72 158.961 124.669 159.672C124.791 159.763 124.912 159.857 125.034 159.952C125.787 160.547 126.411 161.245 126.901 162.005C127.105 162.321 127.285 162.647 127.442 162.98C127.527 163.159 127.605 163.341 127.676 163.524C128.655 166.049 128.345 168.891 126.653 170.783V170.783Z" fill="#F2B486"/>
<path d="M128.996 162.339C128.984 162.314 128.972 162.289 128.96 162.263C128.771 161.862 128.553 161.469 128.313 161.095C128.245 160.99 128.175 160.886 128.103 160.784C127.535 159.972 126.854 159.25 126.074 158.634C125.608 158.267 125.14 157.93 124.669 157.623C124.381 157.435 124.093 157.259 123.804 157.094C123.514 156.927 123.222 156.774 122.931 156.632C122.72 156.529 122.51 156.433 122.299 156.342C122.127 156.269 121.956 156.2 121.785 156.135V157.95C122.151 158.112 122.519 158.297 122.886 158.503C122.901 158.512 122.916 158.52 122.93 158.528C123.092 158.62 123.253 158.715 123.414 158.814C123.594 158.925 123.775 159.042 123.954 159.163C124.074 159.244 124.193 159.327 124.312 159.412C124.432 159.497 124.551 159.583 124.669 159.673C124.731 159.718 124.792 159.764 124.852 159.81C124.913 159.857 124.974 159.904 125.035 159.952C125.788 160.547 126.412 161.245 126.902 162.005C127.105 162.321 127.286 162.646 127.442 162.979C127.476 163.051 127.509 163.123 127.54 163.196C127.553 163.225 127.566 163.255 127.579 163.285C127.595 163.322 127.61 163.361 127.626 163.399C127.642 163.44 127.659 163.482 127.675 163.524C127.696 163.576 127.715 163.628 127.734 163.681C127.748 163.718 127.761 163.755 127.774 163.791C127.783 163.817 127.791 163.842 127.801 163.868C127.814 163.907 127.827 163.947 127.839 163.986C127.847 164.011 127.855 164.035 127.863 164.06C127.92 164.243 127.97 164.427 128.014 164.612C128.027 164.669 128.041 164.728 128.053 164.785C128.066 164.849 128.079 164.912 128.09 164.975C128.096 165.003 128.101 165.032 128.106 165.059C128.111 165.089 128.117 165.118 128.122 165.148C128.173 165.454 128.205 165.76 128.219 166.066C128.221 166.088 128.222 166.111 128.223 166.134C128.224 166.16 128.225 166.186 128.226 166.212C128.227 166.234 128.227 166.254 128.227 166.275C128.227 166.297 128.227 166.318 128.229 166.339C128.249 167.987 127.731 169.578 126.653 170.782C126.472 170.985 126.29 171.166 126.106 171.327C126.066 171.364 126.025 171.398 125.984 171.432C125.553 171.79 125.116 172.043 124.67 172.206C124.587 172.237 124.503 172.265 124.42 172.29C124.224 172.347 124.027 172.388 123.828 172.413C123.658 172.435 123.487 172.445 123.315 172.445C123.188 172.445 123.059 172.44 122.931 172.429C122.775 172.415 122.618 172.393 122.461 172.365C122.397 172.353 122.333 172.34 122.269 172.326C122.205 172.312 122.141 172.296 122.076 172.28C122.012 172.263 121.947 172.245 121.883 172.226C121.851 172.217 121.818 172.207 121.786 172.197V173.936C122.178 174.03 122.559 174.088 122.932 174.112C123.061 174.121 123.189 174.125 123.316 174.125C123.781 174.125 124.233 174.071 124.671 173.963C125.857 173.669 126.94 172.98 127.905 171.903C129.025 170.65 129.704 169.049 129.87 167.27C130.023 165.613 129.722 163.91 128.997 162.339H128.996Z" fill="#CCCCCC"/>
<path d="M123.532 164.371C123.295 163.163 121.985 161.347 120.758 161.045C119.529 160.743 117.905 160.876 117.216 162.018C116.82 162.674 116.701 163.472 116.599 164.148C116.46 165.063 116.353 166.062 116.891 166.817C116.912 166.847 118.065 168.238 118.885 168.755C120.458 169.747 121.122 170.247 122.177 168.846C122.955 167.814 123.769 165.579 123.532 164.371V164.371Z" fill="#666666"/>
<path d="M127.238 161.724C126.371 162.493 125.52 162.916 124.67 163.067C123.713 163.237 122.759 163.061 121.786 162.645C119.442 161.641 116.995 159.235 114.174 156.866C110.575 153.842 108.992 145.9 112.509 143.022C113.05 142.578 113.622 142.272 114.218 142.087C114.425 142.023 114.634 141.973 114.846 141.937C115.32 141.858 115.807 141.849 116.305 141.903C118.039 142.089 119.903 143.039 121.786 144.46C122.747 145.187 123.714 146.037 124.67 146.972C124.789 147.089 124.908 147.207 125.027 147.326C125.209 147.508 125.39 147.693 125.571 147.88C125.682 147.995 125.791 148.112 125.897 148.23C126.037 148.383 126.173 148.539 126.304 148.696C130.016 153.122 130.569 158.767 127.236 161.725L127.238 161.724Z" fill="#F2B486"/>
<path d="M124.229 153.88C123.96 152.508 121.927 150.157 120.532 149.814C119.137 149.471 117.3 149.324 116.517 150.622C116.067 151.367 115.835 152.426 115.719 153.194C115.562 154.235 115.795 155.304 116.405 156.161C116.43 156.196 116.455 156.231 116.481 156.264C116.987 156.934 117.739 157.775 118.672 158.363C120.459 159.49 121.218 160.102 122.663 158.731C124.108 157.359 124.499 155.252 124.23 153.88H124.229Z" fill="#666666"/>
<path d="M126.885 133.344C130.507 137.56 130.513 143.65 127.171 146.276C123.223 149.379 119.623 145.539 115.812 141.363C112.999 138.28 111.06 131.812 115.141 128.999C118.57 126.635 123.096 128.933 126.884 133.344L126.885 133.344Z" fill="#F2B486"/>
<path d="M130.196 151.927C129.627 150.501 128.828 149.147 127.813 147.889C127.599 147.622 127.374 147.359 127.139 147.101C127.02 146.969 126.898 146.838 126.777 146.713C126.748 146.683 126.719 146.653 126.69 146.623C126.129 146.987 125.575 147.215 125.026 147.325C125.208 147.507 125.39 147.692 125.57 147.88C125.682 147.995 125.79 148.112 125.897 148.229C126.036 148.383 126.172 148.539 126.303 148.696C130.016 153.121 130.568 158.767 127.236 161.725C127.124 161.825 127.012 161.918 126.9 162.006C126.15 162.598 125.409 162.936 124.669 163.067C124.424 163.11 124.18 163.131 123.935 163.131C123.222 163.131 122.509 162.954 121.784 162.644C119.797 161.793 117.734 159.933 115.433 157.942C115.125 158.137 114.831 158.367 114.552 158.638C114.528 158.661 114.505 158.684 114.482 158.707C114.367 158.821 114.258 158.939 114.158 159.059C114.392 159.26 114.622 159.461 114.85 159.659C116.347 160.957 117.761 162.184 119.17 163.113C120.098 163.725 120.959 164.164 121.785 164.442C122.521 164.691 123.23 164.811 123.936 164.811C124.182 164.811 124.426 164.795 124.669 164.764C125.714 164.632 126.72 164.217 127.675 163.524C127.903 163.359 128.128 163.178 128.351 162.981C129.203 162.225 129.873 161.312 130.343 160.27C130.786 159.284 131.043 158.198 131.105 157.043C131.193 155.407 130.879 153.637 130.197 151.927H130.196Z" fill="#CCCCCC"/>
<path d="M130.717 136.807C130.267 135.412 129.594 134.115 128.713 132.941C128.537 132.706 128.351 132.476 128.157 132.25C127.226 131.165 126.269 130.217 125.299 129.416C125.09 129.243 124.88 129.077 124.67 128.918C124.263 128.611 123.854 128.329 123.443 128.073C123.271 127.966 123.101 127.864 122.93 127.768C122.823 127.707 122.715 127.648 122.609 127.592C122.378 127.468 122.027 127.322 121.784 127.216V129.056C121.784 129.056 121.789 129.058 121.791 129.059C121.848 129.089 121.904 129.12 121.962 129.15C121.964 129.151 121.967 129.153 121.97 129.155C122.026 129.186 122.082 129.218 122.139 129.251C122.147 129.255 122.156 129.26 122.164 129.265C122.219 129.295 122.273 129.327 122.328 129.36C122.369 129.385 122.41 129.409 122.451 129.434C122.486 129.455 122.521 129.477 122.557 129.499C122.681 129.576 122.806 129.657 122.93 129.741C122.96 129.761 122.99 129.781 123.019 129.801C123.22 129.936 123.419 130.079 123.618 130.228C123.658 130.259 123.698 130.289 123.737 130.32C123.818 130.381 123.898 130.444 123.978 130.508C124.027 130.548 124.078 130.587 124.127 130.628C124.132 130.632 124.136 130.636 124.141 130.64C124.198 130.686 124.256 130.734 124.314 130.782C124.432 130.881 124.551 130.984 124.67 131.088C124.717 131.13 124.764 131.172 124.811 131.214C124.858 131.256 124.906 131.299 124.952 131.342C124.999 131.385 125.047 131.428 125.093 131.473C125.162 131.536 125.23 131.601 125.298 131.666C125.324 131.691 125.348 131.715 125.374 131.739C125.421 131.785 125.467 131.829 125.514 131.876C125.545 131.905 125.576 131.937 125.607 131.968C125.637 131.998 125.668 132.029 125.699 132.06C125.749 132.11 125.8 132.162 125.85 132.213C125.89 132.254 125.929 132.295 125.968 132.336C126.013 132.382 126.057 132.428 126.1 132.476C126.365 132.755 126.626 133.045 126.884 133.345C127.615 134.197 128.2 135.124 128.638 136.085C128.662 136.138 128.686 136.189 128.709 136.242L128.713 136.251L128.738 136.312C128.762 136.366 128.785 136.42 128.807 136.473C128.911 136.726 129.006 136.982 129.091 137.237C129.121 137.329 129.15 137.42 129.178 137.512C129.197 137.574 129.215 137.636 129.233 137.697C129.249 137.754 129.265 137.809 129.279 137.866C129.295 137.924 129.31 137.984 129.325 138.043C129.657 139.372 129.726 140.709 129.538 141.941C129.512 142.114 129.482 142.283 129.444 142.452C129.313 143.059 129.117 143.635 128.855 144.167C128.812 144.256 128.767 144.343 128.72 144.429C128.718 144.433 128.715 144.437 128.714 144.441C128.653 144.552 128.589 144.66 128.522 144.767C128.453 144.878 128.381 144.986 128.305 145.091C128.229 145.196 128.152 145.298 128.069 145.398C127.988 145.497 127.902 145.594 127.814 145.689C127.77 145.736 127.725 145.782 127.68 145.828C127.52 145.988 127.351 146.138 127.173 146.279H127.172C127.141 146.304 127.109 146.328 127.077 146.352C127.014 146.4 126.953 146.446 126.89 146.489C126.859 146.511 126.828 146.533 126.797 146.554C126.768 146.574 126.739 146.594 126.709 146.612C126.703 146.617 126.697 146.62 126.691 146.624C126.664 146.642 126.636 146.659 126.609 146.677C126.587 146.69 126.565 146.704 126.543 146.718C126.521 146.73 126.499 146.744 126.477 146.757C126.451 146.773 126.422 146.789 126.395 146.805C126.371 146.818 126.348 146.831 126.325 146.844C126.296 146.86 126.265 146.876 126.236 146.892C126.205 146.908 126.175 146.924 126.144 146.938C126.051 146.985 125.959 147.028 125.866 147.067C125.835 147.08 125.804 147.092 125.774 147.104C125.755 147.112 125.737 147.119 125.719 147.125C125.696 147.135 125.671 147.144 125.647 147.152C125.607 147.167 125.565 147.181 125.525 147.195C125.507 147.201 125.491 147.207 125.474 147.212C125.452 147.219 125.428 147.225 125.406 147.232C125.378 147.241 125.349 147.249 125.32 147.258C125.314 147.259 125.306 147.262 125.299 147.263C125.262 147.274 125.224 147.284 125.188 147.292C125.138 147.304 125.089 147.315 125.039 147.325C125.036 147.327 125.032 147.328 125.028 147.328C125.01 147.331 124.993 147.335 124.975 147.337C124.874 147.356 124.771 147.372 124.67 147.384C124.63 147.388 124.591 147.392 124.552 147.395C124.519 147.397 124.486 147.4 124.454 147.402C124.375 147.407 124.297 147.409 124.219 147.409C124.175 147.409 124.13 147.408 124.086 147.407C124.068 147.406 124.05 147.406 124.031 147.405C124.002 147.403 123.972 147.402 123.943 147.4C123.923 147.398 123.906 147.398 123.887 147.395C123.79 147.388 123.693 147.376 123.595 147.362C123.574 147.359 123.552 147.356 123.53 147.352C123.517 147.351 123.503 147.348 123.489 147.346C123.471 147.343 123.453 147.339 123.434 147.336C123.409 147.331 123.383 147.327 123.357 147.321C123.335 147.316 123.313 147.313 123.291 147.307C123.254 147.299 123.216 147.291 123.178 147.282C123.118 147.267 123.058 147.251 122.998 147.234C122.976 147.228 122.954 147.221 122.931 147.215C122.928 147.215 122.925 147.213 122.922 147.212C122.897 147.205 122.871 147.197 122.846 147.189C122.769 147.165 122.69 147.139 122.614 147.111C122.59 147.103 122.567 147.095 122.544 147.085C122.518 147.076 122.493 147.066 122.467 147.056C122.442 147.047 122.417 147.036 122.392 147.026C122.362 147.015 122.334 147.003 122.305 146.991C122.233 146.96 122.161 146.928 122.089 146.894C122.039 146.87 121.988 146.846 121.937 146.821C121.908 146.806 121.877 146.79 121.846 146.774C121.828 146.766 121.811 146.756 121.793 146.747C121.791 146.746 121.788 146.745 121.786 146.744C121.786 146.744 121.786 146.744 121.786 146.744C121.762 146.732 121.739 146.72 121.716 146.707C121.711 146.705 121.706 146.701 121.701 146.699C121.618 146.654 121.536 146.609 121.454 146.56C121.451 146.558 121.448 146.557 121.444 146.555C121.36 146.506 121.277 146.454 121.193 146.402C121.049 146.312 120.905 146.216 120.762 146.116C120.734 146.096 120.705 146.076 120.677 146.056C120.675 146.055 120.672 146.053 120.671 146.052C120.627 146.021 120.584 145.989 120.54 145.957C120.518 145.941 120.496 145.924 120.475 145.909C120.428 145.874 120.382 145.84 120.336 145.804C119.966 145.522 119.597 145.211 119.227 144.879C119.187 144.841 119.146 144.804 119.105 144.767C119.051 144.718 118.997 144.669 118.944 144.617C118.91 144.587 118.877 144.556 118.844 144.525C118.667 144.358 118.49 144.186 118.311 144.01C118.27 143.969 118.23 143.929 118.19 143.89C118.103 143.802 118.015 143.714 117.928 143.625C117.884 143.581 117.84 143.535 117.797 143.49C117.753 143.446 117.709 143.401 117.665 143.356C117.577 143.265 117.49 143.173 117.402 143.081C117.358 143.035 117.315 142.99 117.271 142.942C117.095 142.757 116.919 142.569 116.743 142.379C116.598 142.222 116.453 142.065 116.306 141.906C115.809 141.853 115.322 141.862 114.848 141.941C114.637 141.977 114.427 142.026 114.22 142.09C114.336 142.23 114.455 142.368 114.576 142.499C116.19 144.269 117.538 145.713 118.966 146.864C119.82 147.553 120.618 148.064 121.405 148.427C121.533 148.487 121.66 148.541 121.786 148.593H121.787C121.787 148.593 121.792 148.594 121.793 148.595C122.174 148.747 122.555 148.866 122.932 148.947C123.366 149.041 123.795 149.089 124.22 149.089C124.372 149.089 124.523 149.082 124.672 149.07C124.882 149.054 125.092 149.026 125.301 148.986C125.64 148.921 125.975 148.825 126.307 148.698C126.821 148.504 127.325 148.235 127.817 147.892C127.949 147.801 128.08 147.703 128.211 147.601C128.386 147.463 128.554 147.317 128.716 147.164C130.152 145.809 131.051 143.871 131.27 141.633C131.423 140.07 131.232 138.401 130.72 136.81L130.717 136.807Z" fill="#CCCCCC"/>
<path d="M124.78 139.207C124.655 137.814 122.876 135.265 121.524 134.779C120.172 134.293 118.36 133.956 117.447 135.167C116.923 135.861 116.582 136.891 116.387 137.643C116.123 138.662 116.244 139.75 116.762 140.665C116.783 140.702 116.804 140.739 116.827 140.775C117.261 141.495 117.923 142.409 118.789 143.09C120.45 144.395 121.142 145.083 122.72 143.868C124.299 142.653 124.907 140.599 124.781 139.206L124.78 139.207Z" fill="#666666"/>
<path d="M206.515 125.625C206.283 125.611 205.533 125.545 204.582 125.261C203.431 124.918 202.893 124.134 202.158 122.983C201.424 121.832 201.301 118.696 201.179 117.544C201.057 116.393 201.13 115.462 201.84 114.482C202.55 113.502 204.925 113.698 204.925 113.698L204.962 113.709C205.583 114.613 205.998 115.814 205.978 117.299C205.944 119.841 206.162 122.589 206.515 125.625Z" fill="#666666"/>
<path d="M201.302 111.694C200.693 111.722 199.908 112.786 199.163 114.105C197.607 116.862 196.78 119.97 196.715 123.135L196.337 141.345C194.526 139.669 193.149 134.472 193.149 128.384C193.149 123.412 194.597 118.735 195.526 116.33C196.002 115.095 196.771 113.99 197.787 113.142C198.758 112.333 199.917 111.753 201.302 111.693L201.302 111.694Z" fill="#F2B486"/>
<path d="M195.526 116.329C195.734 115.792 195.996 115.279 196.311 114.801V112.341C195.33 113.282 194.555 114.452 194.05 115.759C193.881 116.195 193.664 116.791 193.426 117.517C192.61 120.015 191.567 124.052 191.567 128.383C191.567 131.452 191.9 134.399 192.53 136.904C192.787 137.926 193.088 138.849 193.426 139.654C193.497 139.821 193.569 139.983 193.643 140.141C194.119 141.157 194.664 141.952 195.262 142.506L196.31 143.477V141.319C194.995 140.074 193.912 136.969 193.426 133.019C193.248 131.571 193.15 130.008 193.15 128.383C193.15 127.044 193.255 125.727 193.426 124.468C193.892 121.056 194.848 118.086 195.526 116.329L195.526 116.329Z" fill="#B3B3B3"/>
<path fill-rule="evenodd" clip-rule="evenodd" d="M152.606 120.441C150.849 121.34 149.309 122.602 148.093 124.141C146.878 125.68 146.014 127.46 145.562 129.359C142.245 132.065 139.856 135.712 138.722 139.804C137.588 143.896 137.763 148.232 139.224 152.222C140.685 156.213 143.36 159.662 146.885 162.1C150.409 164.538 154.612 165.846 158.92 165.846C163.228 165.846 167.43 164.538 170.955 162.1C174.48 159.662 177.155 156.213 178.616 152.222C180.077 148.232 180.252 143.896 179.118 139.804C177.983 135.712 175.595 132.065 172.278 129.359C171.772 127.229 170.748 125.252 169.294 123.598C167.841 121.944 166.001 120.662 163.934 119.862C163.862 119.344 163.654 118.853 163.328 118.439C163.003 118.025 162.573 117.702 162.081 117.504C162.037 116.59 161.681 115.718 161.07 115.029C160.46 114.34 159.631 113.874 158.718 113.706C157.805 113.539 156.861 113.68 156.039 114.106C155.218 114.533 154.566 115.22 154.191 116.057C153.503 117.457 152.971 118.927 152.606 120.441Z" fill="#395360"/>
<path d="M153.8 136.101H164.486V148.377H153.8V136.101Z" fill="#FBAA6F"/>
<path fill-rule="evenodd" clip-rule="evenodd" d="M160.808 142.397L160.701 142.327C160.43 142.133 160.248 141.841 160.195 141.514C160.142 141.188 160.224 140.854 160.421 140.587C160.618 140.319 160.915 140.14 161.247 140.088C161.578 140.036 161.917 140.116 162.189 140.311C161.968 140.351 161.758 140.435 161.572 140.557C161.385 140.679 161.225 140.837 161.102 141.021C160.951 141.214 160.847 141.438 160.796 141.676C160.745 141.914 160.749 142.161 160.808 142.397ZM156.819 142.397C156.869 142.161 156.865 141.917 156.804 141.683C156.744 141.448 156.63 141.231 156.471 141.047C156.346 140.863 156.184 140.706 155.996 140.584C155.808 140.462 155.597 140.378 155.376 140.337C155.648 140.143 155.986 140.063 156.318 140.115C156.649 140.166 156.946 140.346 157.144 140.613C157.341 140.881 157.422 141.214 157.37 141.541C157.317 141.867 157.135 142.159 156.863 142.354C156.849 142.369 156.834 142.384 156.819 142.397ZM163.248 139.609H163.72L162.767 143.835L160.862 149.474H157.041L154.183 144.774L155.135 141.959C156.088 143.213 156.73 143.993 157.041 144.309C157.522 144.774 159.428 144.774 160.381 143.835C161.493 142.536 162.454 141.118 163.248 139.609Z" fill="#DC7F3C"/>
<path fill-rule="evenodd" clip-rule="evenodd" d="M146.444 138.732H151.128V130.84H147.513C147.788 128.944 148.544 127.146 149.712 125.614C150.879 124.081 152.42 122.863 154.192 122.072C154.869 119.149 155.673 117.176 156.605 116.153L156.765 116.004L156.863 115.917C157.141 115.698 157.473 115.555 157.825 115.504C158.24 115.44 158.664 115.501 159.042 115.68C159.421 115.859 159.734 116.147 159.942 116.506C160.15 116.865 160.242 117.278 160.206 117.689C160.17 118.101 160.007 118.492 159.74 118.81H159.686C159.609 118.906 159.519 118.991 159.419 119.064C158.999 119.497 158.609 119.957 158.253 120.441C158.963 119.713 159.906 119.248 160.924 119.126C161.129 119.124 161.331 119.173 161.512 119.266C161.781 119.417 161.979 119.666 162.064 119.96C162.149 120.253 162.114 120.567 161.966 120.836C161.847 121.052 161.659 121.225 161.432 121.327C163.763 121.823 165.881 123.016 167.497 124.742C169.113 126.468 170.149 128.644 170.462 130.972L170.569 131.735H167.158V138.749H171.459L173.053 150.525C169.295 152.823 164.59 153.971 158.938 153.971C153.286 153.971 148.605 152.82 144.895 150.517L146.444 138.732ZM159.918 146.965C162.215 143.23 163.364 141.006 163.364 140.293C163.364 138.337 160.47 136.733 159.027 136.733C157.585 136.733 154.69 138.328 154.69 140.293C154.69 141.006 155.821 143.233 158.083 146.974C158.185 147.129 158.325 147.257 158.49 147.344C158.655 147.432 158.84 147.476 159.027 147.474C159.208 147.483 159.387 147.441 159.544 147.354C159.702 147.267 159.831 147.139 159.918 146.983V146.965Z" fill="#BDCFC8"/>
<path fill-rule="evenodd" clip-rule="evenodd" d="M173.222 156.11C171.564 158.303 169.409 160.085 166.928 161.312C164.447 162.539 161.71 163.178 158.933 163.178C156.157 163.178 153.419 162.539 150.938 161.312C148.457 160.085 146.302 158.303 144.645 156.11L145.393 150.753C145.676 150.864 145.978 150.921 146.283 150.92C146.891 150.921 147.479 150.707 147.939 150.315C148.399 149.923 148.7 149.381 148.786 148.789V149.859C148.786 150.519 149.052 151.152 149.526 151.619C150.001 152.086 150.644 152.349 151.315 152.349C151.985 152.349 152.629 152.086 153.103 151.619C153.577 151.152 153.844 150.519 153.844 149.859V151.279C153.882 151.915 154.166 152.513 154.637 152.95C155.108 153.387 155.73 153.63 156.377 153.63C157.024 153.63 157.647 153.387 158.118 152.95C158.589 152.513 158.873 151.915 158.911 151.279C158.911 151.939 159.177 152.573 159.652 153.04C160.126 153.507 160.769 153.769 161.44 153.769C162.111 153.769 162.754 153.507 163.228 153.04C163.703 152.573 163.969 151.939 163.969 151.279V149.902C163.969 150.229 164.035 150.553 164.162 150.855C164.289 151.157 164.475 151.432 164.71 151.663C164.945 151.894 165.224 152.078 165.53 152.203C165.837 152.328 166.166 152.393 166.498 152.393C166.83 152.393 167.159 152.328 167.466 152.203C167.773 152.078 168.052 151.894 168.287 151.663C168.522 151.432 168.708 151.157 168.835 150.855C168.962 150.553 169.027 150.229 169.027 149.902V148.833C169.107 149.446 169.415 150.009 169.893 150.411C170.37 150.813 170.982 151.025 171.61 151.007C171.914 151.007 172.216 150.954 172.501 150.849L173.222 156.11Z" fill="#809EB0"/>
<path fill-rule="evenodd" clip-rule="evenodd" d="M145.161 152.454L145.393 150.797C145.676 150.908 145.978 150.964 146.283 150.963C146.891 150.965 147.479 150.751 147.939 150.359C148.399 149.967 148.7 149.425 148.786 148.833V149.903C148.786 150.563 149.052 151.196 149.526 151.663C150.001 152.13 150.644 152.393 151.315 152.393C151.986 152.393 152.629 152.13 153.103 151.663C153.577 151.196 153.844 150.563 153.844 149.903V151.323C153.882 151.959 154.166 152.557 154.637 152.994C155.108 153.431 155.73 153.674 156.377 153.674C157.025 153.674 157.647 153.431 158.118 152.994C158.589 152.557 158.873 151.959 158.911 151.323C158.911 151.983 159.177 152.617 159.652 153.084C160.126 153.551 160.769 153.813 161.44 153.813C162.111 153.813 162.754 153.551 163.229 153.084C163.703 152.617 163.969 151.983 163.969 151.323V149.903C163.969 150.563 164.236 151.196 164.71 151.663C165.184 152.13 165.828 152.393 166.498 152.393C167.169 152.393 167.812 152.13 168.287 151.663C168.761 151.196 169.028 150.563 169.028 149.903V148.833C169.107 149.446 169.415 150.009 169.893 150.411C170.37 150.813 170.982 151.025 171.61 151.007C171.914 151.007 172.216 150.954 172.501 150.849L172.723 152.507C172.365 152.679 171.97 152.766 171.572 152.76C171.173 152.754 170.781 152.656 170.428 152.473C170.075 152.291 169.771 152.028 169.54 151.708C169.309 151.388 169.158 151.019 169.099 150.63V151.7C169.099 152.36 168.832 152.994 168.358 153.461C167.884 153.928 167.24 154.19 166.57 154.19C165.899 154.19 165.256 153.928 164.781 153.461C164.307 152.994 164.041 152.36 164.041 151.7V153.12C164.041 153.781 163.774 154.414 163.3 154.881C162.825 155.348 162.182 155.611 161.511 155.611C160.841 155.611 160.197 155.348 159.723 154.881C159.249 154.414 158.982 153.781 158.982 153.12C158.944 153.757 158.66 154.354 158.189 154.791C157.718 155.228 157.096 155.472 156.449 155.472C155.802 155.472 155.179 155.228 154.708 154.791C154.237 154.354 153.953 153.757 153.915 153.12V151.656C153.915 152.317 153.649 152.95 153.174 153.417C152.7 153.884 152.057 154.146 151.386 154.146C150.715 154.146 150.072 153.884 149.598 153.417C149.123 152.95 148.857 152.317 148.857 151.656V150.586C148.78 151.196 148.476 151.756 148.004 152.158C147.532 152.559 146.925 152.774 146.301 152.761C145.906 152.76 145.516 152.67 145.161 152.498V152.454Z" fill="#738E9E"/>
<path fill-rule="evenodd" clip-rule="evenodd" d="M171.415 132.936C170.524 130.419 168.743 128.823 167.212 128.981C165.252 129.183 164.772 132.278 165.172 135.996C165.573 139.714 166.686 142.625 168.645 142.423C170.605 142.221 172.208 139.012 171.923 135.408C171.851 136.487 171.46 137.408 170.685 137.469C169.687 137.557 169.402 136.426 169.269 134.996C169.135 133.567 169.144 132.366 170.159 132.296C170.408 132.277 170.658 132.327 170.879 132.44C171.101 132.553 171.287 132.725 171.415 132.936Z" fill="#86A196"/>
<path fill-rule="evenodd" clip-rule="evenodd" d="M170.72 132.375C170.159 131.314 169.385 130.665 168.592 130.753C167.247 130.884 166.927 133.006 167.194 135.549C167.461 138.092 168.236 140.091 169.572 139.933C170.56 139.828 171.29 138.618 171.495 136.97C171.413 137.109 171.298 137.227 171.16 137.313C171.022 137.4 170.866 137.454 170.703 137.469C169.705 137.557 169.42 136.426 169.287 134.997C169.153 133.567 169.162 132.366 170.177 132.296C170.362 132.288 170.546 132.314 170.72 132.375Z" fill="white"/>
<path fill-rule="evenodd" clip-rule="evenodd" d="M146.319 132.936C147.209 130.419 148.99 128.823 150.522 128.981C152.481 129.183 152.962 132.278 152.562 135.996C152.161 139.714 151.048 142.625 149.088 142.423C147.129 142.221 145.526 139.012 145.811 135.408C145.883 136.487 146.265 137.408 147.049 137.469C148.047 137.557 148.331 136.426 148.456 134.996C148.581 133.567 148.59 132.366 147.566 132.296C147.315 132.272 147.064 132.318 146.838 132.428C146.613 132.538 146.424 132.708 146.292 132.918L146.319 132.936Z" fill="#86A196"/>
<path fill-rule="evenodd" clip-rule="evenodd" d="M147.005 132.375C147.566 131.314 148.35 130.665 149.143 130.753C150.478 130.884 150.808 133.006 150.532 135.549C150.256 138.092 149.499 140.091 148.154 139.933C147.166 139.828 146.435 138.618 146.23 136.969C146.315 137.109 146.431 137.227 146.571 137.313C146.71 137.4 146.868 137.454 147.032 137.469C148.02 137.557 148.314 136.426 148.439 134.996C148.564 133.567 148.564 132.366 147.548 132.296C147.356 132.28 147.163 132.301 146.979 132.357L147.005 132.375Z" fill="white"/>
<path fill-rule="evenodd" clip-rule="evenodd" d="M154.691 138.408C154.677 138.206 154.677 138.004 154.691 137.803C154.691 135.637 155.768 133.173 159.028 133.173C162.287 133.173 163.364 135.637 163.364 137.803C163.36 138.098 163.321 138.392 163.249 138.679C162.536 137.496 161.2 136.768 158.974 136.768C156.864 136.794 155.492 137.399 154.691 138.408Z" fill="#F4F8FF"/>
<path fill-rule="evenodd" clip-rule="evenodd" d="M161.387 121.335L158.555 121.195L162.055 120.178C162.075 120.414 162.021 120.651 161.902 120.858C161.783 121.064 161.604 121.23 161.387 121.335ZM158.253 120.441L157.077 121.318C157.808 120.309 158.407 119.213 158.858 118.056C159.116 117.303 159.213 116.506 159.143 115.715C159.496 115.907 159.785 116.195 159.977 116.545C160.168 116.895 160.252 117.291 160.221 117.687C160.166 118.193 159.929 118.663 159.553 119.012C159.085 119.456 158.65 119.934 158.253 120.441Z" fill="#86A196"/>
</g>
</g>
<defs>
<clipPath id="clip0">
<rect width="359.333" height="206" rx="4" fill="white"/>
</clipPath>
<clipPath id="clip1">
<rect width="188.208" height="218" fill="white" transform="translate(72.7266 16)"/>
</clipPath>
</defs>
</svg>
