<svg width="360" height="206" viewBox="0 0 360 206" fill="none" xmlns="http://www.w3.org/2000/svg">
<g clip-path="url(#clip0)">
<rect width="359.333" height="206" rx="4" fill="#F3F4F6"/>
<circle cx="217.698" cy="0.773252" r="0.773252" fill="#E2E8F0"/>
<circle cx="217.698" cy="5.41266" r="0.773252" fill="#E2E8F0"/>
<circle cx="217.698" cy="10.0525" r="0.773252" fill="#E2E8F0"/>
<circle cx="217.698" cy="14.6922" r="0.773252" fill="#E2E8F0"/>
<circle cx="217.698" cy="19.3309" r="0.773252" fill="#E2E8F0"/>
<circle cx="217.698" cy="23.9705" r="0.773252" fill="#E2E8F0"/>
<circle cx="217.698" cy="28.6104" r="0.773252" fill="#E2E8F0"/>
<circle cx="217.698" cy="33.2498" r="0.773252" fill="#E2E8F0"/>
<circle cx="217.698" cy="37.8892" r="0.773252" fill="#E2E8F0"/>
<circle cx="217.698" cy="42.5291" r="0.773252" fill="#E2E8F0"/>
<circle cx="217.698" cy="47.1688" r="0.773252" fill="#E2E8F0"/>
<circle cx="217.698" cy="51.8074" r="0.773252" fill="#E2E8F0"/>
<circle cx="222.338" cy="0.773252" r="0.773252" fill="#E2E8F0"/>
<circle cx="222.338" cy="5.41266" r="0.773252" fill="#E2E8F0"/>
<circle cx="222.338" cy="10.0525" r="0.773252" fill="#E2E8F0"/>
<circle cx="222.338" cy="14.6922" r="0.773252" fill="#E2E8F0"/>
<circle cx="222.338" cy="19.3309" r="0.773252" fill="#E2E8F0"/>
<circle cx="222.338" cy="23.9705" r="0.773252" fill="#E2E8F0"/>
<circle cx="222.338" cy="28.6104" r="0.773252" fill="#E2E8F0"/>
<circle cx="222.338" cy="33.2498" r="0.773252" fill="#E2E8F0"/>
<circle cx="222.338" cy="37.8892" r="0.773252" fill="#E2E8F0"/>
<circle cx="222.338" cy="42.5291" r="0.773252" fill="#E2E8F0"/>
<circle cx="222.338" cy="47.1688" r="0.773252" fill="#E2E8F0"/>
<circle cx="222.338" cy="51.8074" r="0.773252" fill="#E2E8F0"/>
<circle cx="226.977" cy="0.773252" r="0.773252" fill="#E2E8F0"/>
<circle cx="226.977" cy="5.41266" r="0.773252" fill="#E2E8F0"/>
<circle cx="226.977" cy="10.0525" r="0.773252" fill="#E2E8F0"/>
<circle cx="226.977" cy="14.6922" r="0.773252" fill="#E2E8F0"/>
<circle cx="226.977" cy="19.3309" r="0.773252" fill="#E2E8F0"/>
<circle cx="226.977" cy="23.9705" r="0.773252" fill="#E2E8F0"/>
<circle cx="226.977" cy="28.6104" r="0.773252" fill="#E2E8F0"/>
<circle cx="226.977" cy="33.2498" r="0.773252" fill="#E2E8F0"/>
<circle cx="226.977" cy="37.8892" r="0.773252" fill="#E2E8F0"/>
<circle cx="226.977" cy="42.5291" r="0.773252" fill="#E2E8F0"/>
<circle cx="226.977" cy="47.1688" r="0.773252" fill="#E2E8F0"/>
<circle cx="226.977" cy="51.8074" r="0.773252" fill="#E2E8F0"/>
<circle cx="231.617" cy="0.773252" r="0.773252" fill="#E2E8F0"/>
<circle cx="231.617" cy="5.41266" r="0.773252" fill="#E2E8F0"/>
<circle cx="231.617" cy="10.0525" r="0.773252" fill="#E2E8F0"/>
<circle cx="231.617" cy="14.6922" r="0.773252" fill="#E2E8F0"/>
<circle cx="231.617" cy="19.3309" r="0.773252" fill="#E2E8F0"/>
<circle cx="231.617" cy="23.9705" r="0.773252" fill="#E2E8F0"/>
<circle cx="231.617" cy="28.6104" r="0.773252" fill="#E2E8F0"/>
<circle cx="231.617" cy="33.2498" r="0.773252" fill="#E2E8F0"/>
<circle cx="231.617" cy="37.8892" r="0.773252" fill="#E2E8F0"/>
<circle cx="231.617" cy="42.5291" r="0.773252" fill="#E2E8F0"/>
<circle cx="231.617" cy="47.1688" r="0.773252" fill="#E2E8F0"/>
<circle cx="231.617" cy="51.8074" r="0.773252" fill="#E2E8F0"/>
<circle cx="236.257" cy="0.773252" r="0.773252" fill="#E2E8F0"/>
<circle cx="236.257" cy="5.41266" r="0.773252" fill="#E2E8F0"/>
<circle cx="236.257" cy="10.0525" r="0.773252" fill="#E2E8F0"/>
<circle cx="236.257" cy="14.6922" r="0.773252" fill="#E2E8F0"/>
<circle cx="236.257" cy="19.3309" r="0.773252" fill="#E2E8F0"/>
<circle cx="236.257" cy="23.9705" r="0.773252" fill="#E2E8F0"/>
<circle cx="236.257" cy="28.6104" r="0.773252" fill="#E2E8F0"/>
<circle cx="236.257" cy="33.2498" r="0.773252" fill="#E2E8F0"/>
<circle cx="236.257" cy="37.8892" r="0.773252" fill="#E2E8F0"/>
<circle cx="236.257" cy="42.5291" r="0.773252" fill="#E2E8F0"/>
<circle cx="236.257" cy="47.1688" r="0.773252" fill="#E2E8F0"/>
<circle cx="236.257" cy="51.8074" r="0.773252" fill="#E2E8F0"/>
<circle cx="240.895" cy="0.773252" r="0.773252" fill="#E2E8F0"/>
<circle cx="240.895" cy="5.41266" r="0.773252" fill="#E2E8F0"/>
<circle cx="240.895" cy="10.0525" r="0.773252" fill="#E2E8F0"/>
<circle cx="240.895" cy="14.6922" r="0.773252" fill="#E2E8F0"/>
<circle cx="240.895" cy="19.3309" r="0.773252" fill="#E2E8F0"/>
<circle cx="240.895" cy="23.9705" r="0.773252" fill="#E2E8F0"/>
<circle cx="240.895" cy="28.6104" r="0.773252" fill="#E2E8F0"/>
<circle cx="240.895" cy="33.2498" r="0.773252" fill="#E2E8F0"/>
<circle cx="240.895" cy="37.8892" r="0.773252" fill="#E2E8F0"/>
<circle cx="240.895" cy="42.5291" r="0.773252" fill="#E2E8F0"/>
<circle cx="240.895" cy="47.1688" r="0.773252" fill="#E2E8F0"/>
<circle cx="240.895" cy="51.8074" r="0.773252" fill="#E2E8F0"/>
<circle cx="245.535" cy="0.773252" r="0.773252" fill="#E2E8F0"/>
<circle cx="245.535" cy="5.41266" r="0.773252" fill="#E2E8F0"/>
<circle cx="245.535" cy="10.0525" r="0.773252" fill="#E2E8F0"/>
<circle cx="245.535" cy="14.6922" r="0.773252" fill="#E2E8F0"/>
<circle cx="245.535" cy="19.3309" r="0.773252" fill="#E2E8F0"/>
<circle cx="245.535" cy="23.9705" r="0.773252" fill="#E2E8F0"/>
<circle cx="245.535" cy="28.6104" r="0.773252" fill="#E2E8F0"/>
<circle cx="245.535" cy="33.2498" r="0.773252" fill="#E2E8F0"/>
<circle cx="245.535" cy="37.8892" r="0.773252" fill="#E2E8F0"/>
<circle cx="245.535" cy="42.5291" r="0.773252" fill="#E2E8F0"/>
<circle cx="245.535" cy="47.1688" r="0.773252" fill="#E2E8F0"/>
<circle cx="245.535" cy="51.8074" r="0.773252" fill="#E2E8F0"/>
<circle cx="250.176" cy="0.773252" r="0.773252" fill="#E2E8F0"/>
<circle cx="250.176" cy="5.41266" r="0.773252" fill="#E2E8F0"/>
<circle cx="250.176" cy="10.0525" r="0.773252" fill="#E2E8F0"/>
<circle cx="250.176" cy="14.6922" r="0.773252" fill="#E2E8F0"/>
<circle cx="250.176" cy="19.3309" r="0.773252" fill="#E2E8F0"/>
<circle cx="250.176" cy="23.9705" r="0.773252" fill="#E2E8F0"/>
<circle cx="250.176" cy="28.6104" r="0.773252" fill="#E2E8F0"/>
<circle cx="250.176" cy="33.2498" r="0.773252" fill="#E2E8F0"/>
<circle cx="250.176" cy="37.8892" r="0.773252" fill="#E2E8F0"/>
<circle cx="250.176" cy="42.5291" r="0.773252" fill="#E2E8F0"/>
<circle cx="250.176" cy="47.1688" r="0.773252" fill="#E2E8F0"/>
<circle cx="250.176" cy="51.8074" r="0.773252" fill="#E2E8F0"/>
<circle cx="254.814" cy="0.773252" r="0.773252" fill="#E2E8F0"/>
<circle cx="254.814" cy="5.41266" r="0.773252" fill="#E2E8F0"/>
<circle cx="254.814" cy="10.0525" r="0.773252" fill="#E2E8F0"/>
<circle cx="254.814" cy="14.6922" r="0.773252" fill="#E2E8F0"/>
<circle cx="254.814" cy="19.3309" r="0.773252" fill="#E2E8F0"/>
<circle cx="254.814" cy="23.9705" r="0.773252" fill="#E2E8F0"/>
<circle cx="254.814" cy="28.6104" r="0.773252" fill="#E2E8F0"/>
<circle cx="254.814" cy="33.2498" r="0.773252" fill="#E2E8F0"/>
<circle cx="254.814" cy="37.8892" r="0.773252" fill="#E2E8F0"/>
<circle cx="254.814" cy="42.5291" r="0.773252" fill="#E2E8F0"/>
<circle cx="254.814" cy="47.1688" r="0.773252" fill="#E2E8F0"/>
<circle cx="254.814" cy="51.8074" r="0.773252" fill="#E2E8F0"/>
<circle cx="259.454" cy="0.773252" r="0.773252" fill="#E2E8F0"/>
<circle cx="259.454" cy="5.41266" r="0.773252" fill="#E2E8F0"/>
<circle cx="259.454" cy="10.0525" r="0.773252" fill="#E2E8F0"/>
<circle cx="259.454" cy="14.6922" r="0.773252" fill="#E2E8F0"/>
<circle cx="259.454" cy="19.3309" r="0.773252" fill="#E2E8F0"/>
<circle cx="259.454" cy="23.9705" r="0.773252" fill="#E2E8F0"/>
<circle cx="259.454" cy="28.6104" r="0.773252" fill="#E2E8F0"/>
<circle cx="259.454" cy="33.2498" r="0.773252" fill="#E2E8F0"/>
<circle cx="259.454" cy="37.8892" r="0.773252" fill="#E2E8F0"/>
<circle cx="259.454" cy="42.5291" r="0.773252" fill="#E2E8F0"/>
<circle cx="259.454" cy="47.1688" r="0.773252" fill="#E2E8F0"/>
<circle cx="259.454" cy="51.8074" r="0.773252" fill="#E2E8F0"/>
<circle cx="264.094" cy="0.773252" r="0.773252" fill="#E2E8F0"/>
<circle cx="264.094" cy="5.4129" r="0.773252" fill="#E2E8F0"/>
<circle cx="264.094" cy="10.0525" r="0.773252" fill="#E2E8F0"/>
<circle cx="264.094" cy="14.6922" r="0.773252" fill="#E2E8F0"/>
<circle cx="264.094" cy="19.3309" r="0.773252" fill="#E2E8F0"/>
<circle cx="264.094" cy="23.9705" r="0.773252" fill="#E2E8F0"/>
<circle cx="264.094" cy="28.6102" r="0.773252" fill="#E2E8F0"/>
<circle cx="264.094" cy="33.2498" r="0.773252" fill="#E2E8F0"/>
<circle cx="264.094" cy="37.8895" r="0.773252" fill="#E2E8F0"/>
<circle cx="264.094" cy="42.5291" r="0.773252" fill="#E2E8F0"/>
<circle cx="264.094" cy="47.1688" r="0.773252" fill="#E2E8F0"/>
<circle cx="264.094" cy="51.8074" r="0.773252" fill="#E2E8F0"/>
<circle cx="268.733" cy="0.773252" r="0.773252" fill="#E2E8F0"/>
<circle cx="268.733" cy="5.41266" r="0.773252" fill="#E2E8F0"/>
<circle cx="268.733" cy="10.0525" r="0.773252" fill="#E2E8F0"/>
<circle cx="268.733" cy="14.6922" r="0.773252" fill="#E2E8F0"/>
<circle cx="268.733" cy="19.3309" r="0.773252" fill="#E2E8F0"/>
<circle cx="268.733" cy="23.9705" r="0.773252" fill="#E2E8F0"/>
<circle cx="268.733" cy="28.6104" r="0.773252" fill="#E2E8F0"/>
<circle cx="268.733" cy="33.2498" r="0.773252" fill="#E2E8F0"/>
<circle cx="268.733" cy="37.8892" r="0.773252" fill="#E2E8F0"/>
<circle cx="268.733" cy="42.5291" r="0.773252" fill="#E2E8F0"/>
<circle cx="268.733" cy="47.1688" r="0.773252" fill="#E2E8F0"/>
<circle cx="268.733" cy="51.8074" r="0.773252" fill="#E2E8F0"/>
<circle cx="43.1063" cy="154.026" r="0.773252" fill="#E2E8F0"/>
<circle cx="43.1063" cy="158.666" r="0.773252" fill="#E2E8F0"/>
<circle cx="43.1063" cy="163.305" r="0.773252" fill="#E2E8F0"/>
<circle cx="43.1063" cy="167.945" r="0.773252" fill="#E2E8F0"/>
<circle cx="43.1063" cy="172.584" r="0.773252" fill="#E2E8F0"/>
<circle cx="43.1063" cy="177.223" r="0.773252" fill="#E2E8F0"/>
<circle cx="43.1063" cy="181.863" r="0.773252" fill="#E2E8F0"/>
<circle cx="43.1063" cy="186.503" r="0.773252" fill="#E2E8F0"/>
<circle cx="43.1063" cy="191.142" r="0.773252" fill="#E2E8F0"/>
<circle cx="43.1063" cy="195.782" r="0.773252" fill="#E2E8F0"/>
<circle cx="43.1063" cy="200.422" r="0.773252" fill="#E2E8F0"/>
<circle cx="43.1063" cy="205.06" r="0.773252" fill="#E2E8F0"/>
<circle cx="47.7459" cy="154.026" r="0.773252" fill="#E2E8F0"/>
<circle cx="47.7459" cy="158.666" r="0.773252" fill="#E2E8F0"/>
<circle cx="47.7459" cy="163.305" r="0.773252" fill="#E2E8F0"/>
<circle cx="47.7459" cy="167.945" r="0.773252" fill="#E2E8F0"/>
<circle cx="47.7459" cy="172.584" r="0.773252" fill="#E2E8F0"/>
<circle cx="47.7459" cy="177.223" r="0.773252" fill="#E2E8F0"/>
<circle cx="47.7459" cy="181.863" r="0.773252" fill="#E2E8F0"/>
<circle cx="47.7459" cy="186.503" r="0.773252" fill="#E2E8F0"/>
<circle cx="47.7459" cy="191.142" r="0.773252" fill="#E2E8F0"/>
<circle cx="47.7459" cy="195.782" r="0.773252" fill="#E2E8F0"/>
<circle cx="47.7459" cy="200.422" r="0.773252" fill="#E2E8F0"/>
<circle cx="47.7459" cy="205.06" r="0.773252" fill="#E2E8F0"/>
<circle cx="52.3856" cy="154.026" r="0.773252" fill="#E2E8F0"/>
<circle cx="52.3856" cy="158.666" r="0.773252" fill="#E2E8F0"/>
<circle cx="52.3856" cy="163.305" r="0.773252" fill="#E2E8F0"/>
<circle cx="52.3856" cy="167.945" r="0.773252" fill="#E2E8F0"/>
<circle cx="52.3856" cy="172.584" r="0.773252" fill="#E2E8F0"/>
<circle cx="52.3856" cy="177.223" r="0.773252" fill="#E2E8F0"/>
<circle cx="52.3856" cy="181.863" r="0.773252" fill="#E2E8F0"/>
<circle cx="52.3856" cy="186.503" r="0.773252" fill="#E2E8F0"/>
<circle cx="52.3856" cy="191.142" r="0.773252" fill="#E2E8F0"/>
<circle cx="52.3856" cy="195.782" r="0.773252" fill="#E2E8F0"/>
<circle cx="52.3856" cy="200.422" r="0.773252" fill="#E2E8F0"/>
<circle cx="52.3856" cy="205.06" r="0.773252" fill="#E2E8F0"/>
<circle cx="57.0252" cy="154.026" r="0.773252" fill="#E2E8F0"/>
<circle cx="57.0252" cy="158.666" r="0.773252" fill="#E2E8F0"/>
<circle cx="57.0252" cy="163.305" r="0.773252" fill="#E2E8F0"/>
<circle cx="57.0252" cy="167.945" r="0.773252" fill="#E2E8F0"/>
<circle cx="57.0252" cy="172.584" r="0.773252" fill="#E2E8F0"/>
<circle cx="57.0252" cy="177.223" r="0.773252" fill="#E2E8F0"/>
<circle cx="57.0252" cy="181.863" r="0.773252" fill="#E2E8F0"/>
<circle cx="57.0252" cy="186.503" r="0.773252" fill="#E2E8F0"/>
<circle cx="57.0252" cy="191.142" r="0.773252" fill="#E2E8F0"/>
<circle cx="57.0252" cy="195.782" r="0.773252" fill="#E2E8F0"/>
<circle cx="57.0252" cy="200.422" r="0.773252" fill="#E2E8F0"/>
<circle cx="57.0252" cy="205.06" r="0.773252" fill="#E2E8F0"/>
<circle cx="61.6649" cy="154.026" r="0.773252" fill="#E2E8F0"/>
<circle cx="61.6649" cy="158.666" r="0.773252" fill="#E2E8F0"/>
<circle cx="61.6649" cy="163.305" r="0.773252" fill="#E2E8F0"/>
<circle cx="61.6649" cy="167.945" r="0.773252" fill="#E2E8F0"/>
<circle cx="61.6649" cy="172.584" r="0.773252" fill="#E2E8F0"/>
<circle cx="61.6649" cy="177.223" r="0.773252" fill="#E2E8F0"/>
<circle cx="61.6649" cy="181.863" r="0.773252" fill="#E2E8F0"/>
<circle cx="61.6649" cy="186.503" r="0.773252" fill="#E2E8F0"/>
<circle cx="61.6649" cy="191.142" r="0.773252" fill="#E2E8F0"/>
<circle cx="61.6649" cy="195.782" r="0.773252" fill="#E2E8F0"/>
<circle cx="61.6649" cy="200.422" r="0.773252" fill="#E2E8F0"/>
<circle cx="61.6649" cy="205.06" r="0.773252" fill="#E2E8F0"/>
<circle cx="66.3035" cy="154.026" r="0.773252" fill="#E2E8F0"/>
<circle cx="66.3035" cy="158.666" r="0.773252" fill="#E2E8F0"/>
<circle cx="66.3035" cy="163.305" r="0.773252" fill="#E2E8F0"/>
<circle cx="66.3035" cy="167.945" r="0.773252" fill="#E2E8F0"/>
<circle cx="66.3035" cy="172.584" r="0.773252" fill="#E2E8F0"/>
<circle cx="66.3035" cy="177.223" r="0.773252" fill="#E2E8F0"/>
<circle cx="66.3035" cy="181.863" r="0.773252" fill="#E2E8F0"/>
<circle cx="66.3035" cy="186.503" r="0.773252" fill="#E2E8F0"/>
<circle cx="66.3035" cy="191.142" r="0.773252" fill="#E2E8F0"/>
<circle cx="66.3035" cy="195.782" r="0.773252" fill="#E2E8F0"/>
<circle cx="66.3035" cy="200.422" r="0.773252" fill="#E2E8F0"/>
<circle cx="66.3035" cy="205.06" r="0.773252" fill="#E2E8F0"/>
<circle cx="70.9432" cy="154.026" r="0.773252" fill="#E2E8F0"/>
<circle cx="70.9432" cy="158.666" r="0.773252" fill="#E2E8F0"/>
<circle cx="70.9432" cy="163.305" r="0.773252" fill="#E2E8F0"/>
<circle cx="70.9432" cy="167.945" r="0.773252" fill="#E2E8F0"/>
<circle cx="70.9432" cy="172.584" r="0.773252" fill="#E2E8F0"/>
<circle cx="70.9432" cy="177.223" r="0.773252" fill="#E2E8F0"/>
<circle cx="70.9432" cy="181.863" r="0.773252" fill="#E2E8F0"/>
<circle cx="70.9432" cy="186.503" r="0.773252" fill="#E2E8F0"/>
<circle cx="70.9432" cy="191.142" r="0.773252" fill="#E2E8F0"/>
<circle cx="70.9432" cy="195.782" r="0.773252" fill="#E2E8F0"/>
<circle cx="70.9432" cy="200.422" r="0.773252" fill="#E2E8F0"/>
<circle cx="70.9432" cy="205.06" r="0.773252" fill="#E2E8F0"/>
<circle cx="75.5838" cy="154.026" r="0.773252" fill="#E2E8F0"/>
<circle cx="75.5838" cy="158.666" r="0.773252" fill="#E2E8F0"/>
<circle cx="75.5838" cy="163.305" r="0.773252" fill="#E2E8F0"/>
<circle cx="75.5838" cy="167.945" r="0.773252" fill="#E2E8F0"/>
<circle cx="75.5838" cy="172.584" r="0.773252" fill="#E2E8F0"/>
<circle cx="75.5838" cy="177.223" r="0.773252" fill="#E2E8F0"/>
<circle cx="75.5838" cy="181.863" r="0.773252" fill="#E2E8F0"/>
<circle cx="75.5838" cy="186.503" r="0.773252" fill="#E2E8F0"/>
<circle cx="75.5838" cy="191.142" r="0.773252" fill="#E2E8F0"/>
<circle cx="75.5838" cy="195.782" r="0.773252" fill="#E2E8F0"/>
<circle cx="75.5838" cy="200.422" r="0.773252" fill="#E2E8F0"/>
<circle cx="75.5838" cy="205.06" r="0.773252" fill="#E2E8F0"/>
<circle cx="80.2225" cy="154.026" r="0.773252" fill="#E2E8F0"/>
<circle cx="80.2225" cy="158.666" r="0.773252" fill="#E2E8F0"/>
<circle cx="80.2225" cy="163.305" r="0.773252" fill="#E2E8F0"/>
<circle cx="80.2225" cy="167.945" r="0.773252" fill="#E2E8F0"/>
<circle cx="80.2225" cy="172.584" r="0.773252" fill="#E2E8F0"/>
<circle cx="80.2225" cy="177.223" r="0.773252" fill="#E2E8F0"/>
<circle cx="80.2225" cy="181.863" r="0.773252" fill="#E2E8F0"/>
<circle cx="80.2225" cy="186.503" r="0.773252" fill="#E2E8F0"/>
<circle cx="80.2225" cy="191.142" r="0.773252" fill="#E2E8F0"/>
<circle cx="80.2225" cy="195.782" r="0.773252" fill="#E2E8F0"/>
<circle cx="80.2225" cy="200.422" r="0.773252" fill="#E2E8F0"/>
<circle cx="80.2225" cy="205.06" r="0.773252" fill="#E2E8F0"/>
<circle cx="84.8621" cy="154.026" r="0.773252" fill="#E2E8F0"/>
<circle cx="84.8621" cy="158.666" r="0.773252" fill="#E2E8F0"/>
<circle cx="84.8621" cy="163.305" r="0.773252" fill="#E2E8F0"/>
<circle cx="84.8621" cy="167.945" r="0.773252" fill="#E2E8F0"/>
<circle cx="84.8621" cy="172.584" r="0.773252" fill="#E2E8F0"/>
<circle cx="84.8621" cy="177.223" r="0.773252" fill="#E2E8F0"/>
<circle cx="84.8621" cy="181.863" r="0.773252" fill="#E2E8F0"/>
<circle cx="84.8621" cy="186.503" r="0.773252" fill="#E2E8F0"/>
<circle cx="84.8621" cy="191.142" r="0.773252" fill="#E2E8F0"/>
<circle cx="84.8621" cy="195.782" r="0.773252" fill="#E2E8F0"/>
<circle cx="84.8621" cy="200.422" r="0.773252" fill="#E2E8F0"/>
<circle cx="84.8621" cy="205.06" r="0.773252" fill="#E2E8F0"/>
<circle cx="89.5018" cy="154.026" r="0.773252" fill="#E2E8F0"/>
<circle cx="89.5018" cy="158.666" r="0.773252" fill="#E2E8F0"/>
<circle cx="89.5018" cy="163.305" r="0.773252" fill="#E2E8F0"/>
<circle cx="89.5018" cy="167.945" r="0.773252" fill="#E2E8F0"/>
<circle cx="89.5018" cy="172.584" r="0.773252" fill="#E2E8F0"/>
<circle cx="89.5018" cy="177.223" r="0.773252" fill="#E2E8F0"/>
<circle cx="89.5018" cy="181.863" r="0.773252" fill="#E2E8F0"/>
<circle cx="89.5018" cy="186.503" r="0.773252" fill="#E2E8F0"/>
<circle cx="89.5018" cy="191.142" r="0.773252" fill="#E2E8F0"/>
<circle cx="89.5018" cy="195.782" r="0.773252" fill="#E2E8F0"/>
<circle cx="89.5018" cy="200.422" r="0.773252" fill="#E2E8F0"/>
<circle cx="89.5018" cy="205.06" r="0.773252" fill="#E2E8F0"/>
<circle cx="94.1414" cy="154.026" r="0.773252" fill="#E2E8F0"/>
<circle cx="94.1414" cy="158.666" r="0.773252" fill="#E2E8F0"/>
<circle cx="94.1414" cy="163.305" r="0.773252" fill="#E2E8F0"/>
<circle cx="94.1414" cy="167.945" r="0.773252" fill="#E2E8F0"/>
<circle cx="94.1414" cy="172.584" r="0.773252" fill="#E2E8F0"/>
<circle cx="94.1414" cy="177.223" r="0.773252" fill="#E2E8F0"/>
<circle cx="94.1414" cy="181.863" r="0.773252" fill="#E2E8F0"/>
<circle cx="94.1414" cy="186.503" r="0.773252" fill="#E2E8F0"/>
<circle cx="94.1414" cy="191.142" r="0.773252" fill="#E2E8F0"/>
<circle cx="94.1414" cy="195.782" r="0.773252" fill="#E2E8F0"/>
<circle cx="94.1414" cy="200.422" r="0.773252" fill="#E2E8F0"/>
<circle cx="94.1414" cy="205.06" r="0.773252" fill="#E2E8F0"/>
<path d="M77.5684 153.314V129.727C77.5684 127.636 79.2633 125.941 81.3542 125.941L255.502 125.941C257.593 125.941 259.288 127.636 259.288 129.727V153.862" stroke="#CBD5E1" stroke-width="0.709841" stroke-linecap="round" stroke-linejoin="round" stroke-dasharray="1.42 1.42"/>
<rect x="115.303" y="22.6339" width="102.464" height="78.8026" rx="7.09841" fill="white"/>
<rect x="115.303" y="22.6339" width="102.464" height="78.8026" rx="7.09841" stroke="#CBD5E1" stroke-width="4.73227"/>
<path d="M139.236 31.0391C139.613 30.8173 140.101 31.1279 140.012 31.5715L138.415 41.1544C138.371 41.5093 137.993 41.7089 137.683 41.5758L134.932 40.4002L133.513 42.1304C133.202 42.5075 132.581 42.3079 132.581 41.7755V39.9787L137.905 33.4792C138.016 33.3461 137.838 33.1908 137.727 33.3018L131.361 38.9139L128.987 37.9157C128.588 37.7604 128.544 37.1837 128.943 36.9619L139.236 31.0391Z" fill="#60A5FA"/>
<path d="M160.531 31.0391C160.908 30.8173 161.396 31.1279 161.307 31.5715L159.71 41.1544C159.665 41.5093 159.288 41.7089 158.978 41.5758L156.227 40.4002L154.807 42.1304C154.497 42.5075 153.876 42.3079 153.876 41.7755V39.9787L159.2 33.4792C159.311 33.3461 159.133 33.1908 159.022 33.3018L152.656 38.9139L150.282 37.9157C149.883 37.7604 149.839 37.1837 150.238 36.9619L160.531 31.0391Z" fill="#F59E0B"/>
<path d="M181.825 31.0391C182.203 30.8173 182.691 31.1279 182.602 31.5715L181.005 41.1544C180.96 41.5093 180.583 41.7089 180.273 41.5758L177.522 40.4002L176.102 42.1304C175.792 42.5075 175.171 42.3079 175.171 41.7755V39.9787L180.495 33.4792C180.605 33.3461 180.428 33.1908 180.317 33.3018L173.951 38.9139L171.577 37.9157C171.178 37.7604 171.134 37.1837 171.533 36.9619L181.825 31.0391Z" fill="#10B981"/>
<path d="M203.121 31.0391C203.498 30.8173 203.986 31.1279 203.898 31.5715L202.301 41.1544C202.256 41.5093 201.879 41.7089 201.569 41.5758L198.818 40.4002L197.398 42.1304C197.088 42.5075 196.467 42.3079 196.467 41.7755V39.9787L201.79 33.4792C201.901 33.3461 201.724 33.1908 201.613 33.3018L195.247 38.9139L192.873 37.9157C192.474 37.7604 192.429 37.1837 192.829 36.9619L203.121 31.0391Z" fill="#F59E0B"/>
<path d="M139.236 56.4705C139.613 56.2487 140.101 56.5593 140.012 57.0029L138.415 66.5858C138.371 66.9407 137.993 67.1403 137.683 67.0072L134.932 65.8316L133.513 67.5618C133.202 67.9389 132.581 67.7393 132.581 67.2069V65.4101L137.905 58.9106C138.016 58.7775 137.838 58.6222 137.727 58.7332L131.361 64.3453L128.987 63.3471C128.588 63.1918 128.544 62.6151 128.943 62.3933L139.236 56.4705Z" fill="#60A5FA"/>
<path d="M160.531 56.4705C160.908 56.2487 161.396 56.5593 161.307 57.0029L159.71 66.5858C159.665 66.9407 159.288 67.1403 158.978 67.0072L156.227 65.8316L154.807 67.5618C154.497 67.9389 153.876 67.7393 153.876 67.2069V65.4101L159.2 58.9106C159.311 58.7775 159.133 58.6222 159.022 58.7332L152.656 64.3453L150.282 63.3471C149.883 63.1918 149.839 62.6151 150.238 62.3933L160.531 56.4705Z" fill="#F59E0B"/>
<path d="M181.826 56.4705C182.204 56.2487 182.692 56.5593 182.603 57.0029L181.006 66.5858C180.961 66.9407 180.584 67.1403 180.274 67.0072L177.523 65.8316L176.103 67.5618C175.793 67.9389 175.172 67.7393 175.172 67.2069V65.4101L180.496 58.9106C180.606 58.7775 180.429 58.6222 180.318 58.7332L173.952 64.3453L171.578 63.3471C171.179 63.1918 171.134 62.6151 171.534 62.3933L181.826 56.4705Z" fill="#10B981"/>
<path d="M203.121 56.4705C203.498 56.2487 203.986 56.5593 203.898 57.0029L202.301 66.5858C202.256 66.9407 201.879 67.1403 201.569 67.0072L198.818 65.8316L197.398 67.5618C197.088 67.9389 196.467 67.7393 196.467 67.2069V65.4101L201.79 58.9106C201.901 58.7775 201.724 58.6222 201.613 58.7332L195.247 64.3453L192.873 63.3471C192.474 63.1918 192.429 62.6151 192.829 62.3933L203.121 56.4705Z" fill="#F59E0B"/>
<path d="M149.883 81.9017C150.26 81.6799 150.748 81.9904 150.659 82.4341L149.062 92.0169C149.018 92.3718 148.641 92.5715 148.33 92.4384L145.58 91.2627L144.16 92.993C143.849 93.3701 143.228 93.1704 143.228 92.638V90.8412L148.552 84.3418C148.663 84.2087 148.486 84.0534 148.375 84.1643L142.008 89.7765L139.635 88.7783C139.235 88.623 139.191 88.0463 139.59 87.8244L149.883 81.9017Z" fill="#60A5FA"/>
<path d="M171.178 81.9017C171.555 81.6799 172.043 81.9904 171.954 82.4341L170.357 92.0169C170.313 92.3718 169.936 92.5715 169.625 92.4384L166.875 91.2627L165.455 92.993C165.144 93.3701 164.523 93.1704 164.523 92.638V90.8412L169.847 84.3418C169.958 84.2087 169.781 84.0534 169.67 84.1643L163.303 89.7765L160.93 88.7783C160.53 88.623 160.486 88.0463 160.885 87.8244L171.178 81.9017Z" fill="#10B981"/>
<path d="M192.474 81.9017C192.851 81.6799 193.339 81.9904 193.25 82.4341L191.653 92.0169C191.609 92.3718 191.232 92.5715 190.921 92.4384L188.171 91.2627L186.751 92.993C186.44 93.3701 185.819 93.1704 185.819 92.638V90.8412L191.143 84.3418C191.254 84.2087 191.076 84.0534 190.966 84.1643L184.599 89.7765L182.226 88.7783C181.826 88.623 181.782 88.0463 182.181 87.8244L192.474 81.9017Z" fill="#F59E0B"/>
<rect x="43.8048" y="149.685" width="66.4575" height="38.6812" rx="7.09841" fill="white"/>
<rect x="43.8048" y="149.685" width="66.4575" height="38.6812" rx="7.09841" stroke="#CBD5E1" stroke-width="4.73227"/>
<path d="M58.9483 168.47C57.8984 168.47 57.0554 167.627 57.0554 166.577C57.0554 165.542 57.8984 164.684 58.9483 164.684C59.9835 164.684 60.8412 165.542 60.8412 166.577C60.8412 167.627 59.9835 168.47 58.9483 168.47ZM60.2645 168.943C61.3588 168.943 62.2609 169.846 62.2609 170.94V171.546C62.2609 171.945 61.9356 172.256 61.5511 172.256H56.3456C55.9463 172.256 55.6357 171.945 55.6357 171.546V170.94C55.6357 169.846 56.523 168.943 57.6174 168.943H57.8688C58.1941 169.106 58.5638 169.18 58.9483 169.18C59.3328 169.18 59.6877 169.106 60.0131 168.943H60.2645Z" fill="#10B981"/>
<path d="M75.0997 168.47C74.0497 168.47 73.2068 167.627 73.2068 166.577C73.2068 165.542 74.0497 164.684 75.0997 164.684C76.1349 164.684 76.9926 165.542 76.9926 166.577C76.9926 167.627 76.1349 168.47 75.0997 168.47ZM76.4159 168.943C77.5102 168.943 78.4123 169.846 78.4123 170.94V171.546C78.4123 171.945 78.0869 172.256 77.7024 172.256H72.4969C72.0977 172.256 71.7871 171.945 71.7871 171.546V170.94C71.7871 169.846 72.6744 168.943 73.7687 168.943H74.0201C74.3455 169.106 74.7152 169.18 75.0997 169.18C75.4842 169.18 75.8391 169.106 76.1645 168.943H76.4159Z" fill="#10B981"/>
<path d="M91.2511 168.47C90.2011 168.47 89.3582 167.627 89.3582 166.577C89.3582 165.542 90.2011 164.684 91.2511 164.684C92.2863 164.684 93.144 165.542 93.144 166.577C93.144 167.627 92.2863 168.47 91.2511 168.47ZM92.5672 168.943C93.6616 168.943 94.5637 169.846 94.5637 170.94V171.546C94.5637 171.945 94.2383 172.256 93.8538 172.256H88.6483C88.249 172.256 87.9385 171.945 87.9385 171.546V170.94C87.9385 169.846 88.8258 168.943 89.9201 168.943H90.1715C90.4969 169.106 90.8666 169.18 91.2511 169.18C91.6356 169.18 91.9905 169.106 92.3158 168.943H92.5672Z" fill="#10B981"/>
<rect x="223.322" y="149.685" width="65.4288" height="38.6812" rx="7.09841" fill="white"/>
<rect x="223.322" y="149.685" width="65.4288" height="38.6812" rx="7.09841" stroke="#CBD5E1" stroke-width="4.73227"/>
<path d="M238.466 168.47C237.416 168.47 236.573 167.627 236.573 166.577C236.573 165.542 237.416 164.684 238.466 164.684C239.501 164.684 240.359 165.542 240.359 166.577C240.359 167.627 239.501 168.47 238.466 168.47ZM239.871 168.958C240.936 169.003 241.778 169.875 241.778 170.94V171.546C241.778 171.945 241.453 172.256 241.069 172.256H235.863C235.464 172.256 235.153 171.945 235.153 171.546V170.94C235.153 169.875 235.981 169.003 237.046 168.958L237.756 171.783L238.229 169.772L237.756 168.943H239.176L238.703 169.772L239.176 171.783L239.871 168.958Z" fill="#60A5FA"/>
<path d="M254.617 168.47C253.567 168.47 252.724 167.627 252.724 166.577C252.724 165.542 253.567 164.684 254.617 164.684C255.652 164.684 256.51 165.542 256.51 166.577C256.51 167.627 255.652 168.47 254.617 168.47ZM256.022 168.958C257.087 169.003 257.93 169.875 257.93 170.94V171.546C257.93 171.945 257.605 172.256 257.22 172.256H252.015C251.615 172.256 251.305 171.945 251.305 171.546V170.94C251.305 169.875 252.133 169.003 253.198 168.958L253.907 171.783L254.381 169.772L253.907 168.943H255.327L254.854 169.772L255.327 171.783L256.022 168.958Z" fill="#60A5FA"/>
<path d="M270.769 168.47C269.719 168.47 268.876 167.627 268.876 166.577C268.876 165.542 269.719 164.684 270.769 164.684C271.804 164.684 272.662 165.542 272.662 166.577C272.662 167.627 271.804 168.47 270.769 168.47ZM272.174 168.958C273.238 169.003 274.081 169.875 274.081 170.94V171.546C274.081 171.945 273.756 172.256 273.371 172.256H268.166C267.767 172.256 267.456 171.945 267.456 171.546V170.94C267.456 169.875 268.284 169.003 269.349 168.958L270.059 171.783L270.532 169.772L270.059 168.943H271.478L271.005 169.772L271.478 171.783L272.174 168.958Z" fill="#60A5FA"/>
<path d="M167.008 126.415V153.862" stroke="#CBD5E1" stroke-width="0.709841" stroke-linecap="round" stroke-linejoin="round" stroke-dasharray="1.42 1.42"/>
<path d="M167.008 104.173L167.008 126.415" stroke="#CBD5E1" stroke-width="0.709841" stroke-linecap="round" stroke-linejoin="round" stroke-dasharray="1.42 1.42"/>
<rect x="134.515" y="149.396" width="64.0426" height="38.4578" rx="7.09841" fill="white"/>
<rect x="134.515" y="149.396" width="64.0426" height="38.4578" rx="7.09841" stroke="#CBD5E1" stroke-width="4.73227"/>
<path d="M147.987 167.596C147.854 167.596 147.751 167.493 147.751 167.359V165.94C147.751 165.822 147.854 165.703 147.987 165.703H148.18C148.549 164.875 149.378 164.284 150.354 164.284C151.315 164.284 152.143 164.875 152.513 165.703H152.72C152.838 165.703 152.956 165.822 152.956 165.94V167.359C152.956 167.493 152.838 167.596 152.72 167.596H152.513C152.143 168.439 151.315 169.016 150.354 169.016C149.378 169.016 148.549 168.439 148.18 167.596H147.987ZM148.579 166.295V166.65C148.579 167.433 149.215 168.069 149.999 168.069H150.709C151.492 168.069 152.128 167.433 152.128 166.65V166.295C152.128 165.969 151.803 165.703 151.418 165.703H149.289C148.89 165.703 148.579 165.969 148.579 166.295ZM149.644 167.359L149.466 166.827L148.934 166.65L149.466 166.472L149.644 165.94L149.821 166.472L150.354 166.65L149.821 166.827L149.644 167.359ZM151.877 169.045C152.882 169.149 153.666 169.977 153.666 171.012V171.145C153.666 171.545 153.341 171.855 152.956 171.855H151.773V170.909C151.773 170.657 151.551 170.435 151.3 170.435H149.407C149.141 170.435 148.934 170.657 148.934 170.909V171.855H147.751C147.352 171.855 147.041 171.545 147.041 171.145V171.012C147.041 169.977 147.81 169.149 148.816 169.045C149.259 169.326 149.777 169.489 150.354 169.489C150.916 169.489 151.433 169.326 151.877 169.045ZM151.063 170.909C151.182 170.909 151.3 171.027 151.3 171.145C151.3 171.278 151.182 171.382 151.063 171.382C150.93 171.382 150.827 171.278 150.827 171.145C150.827 171.027 150.93 170.909 151.063 170.909ZM149.644 170.909C149.762 170.909 149.88 171.027 149.88 171.145V171.855H149.407V171.145C149.407 171.027 149.511 170.909 149.644 170.909Z" fill="#F59E0B"/>
<path d="M164.139 167.596C164.006 167.596 163.902 167.493 163.902 167.36V165.94C163.902 165.822 164.006 165.703 164.139 165.703H164.331C164.701 164.875 165.529 164.284 166.505 164.284C167.466 164.284 168.294 164.875 168.664 165.703H168.871C168.989 165.703 169.108 165.822 169.108 165.94V167.36C169.108 167.493 168.989 167.596 168.871 167.596H168.664C168.294 168.439 167.466 169.016 166.505 169.016C165.529 169.016 164.701 168.439 164.331 167.596H164.139ZM164.73 166.295V166.65C164.73 167.434 165.366 168.07 166.15 168.07H166.86C167.644 168.07 168.28 167.434 168.28 166.65V166.295C168.28 165.97 167.954 165.703 167.57 165.703H165.44C165.041 165.703 164.73 165.97 164.73 166.295ZM165.795 167.36L165.618 166.827L165.085 166.65L165.618 166.472L165.795 165.94L165.973 166.472L166.505 166.65L165.973 166.827L165.795 167.36ZM168.028 169.046C169.034 169.149 169.818 169.977 169.818 171.012V171.146C169.818 171.545 169.492 171.855 169.108 171.855H167.925V170.909C167.925 170.658 167.703 170.436 167.451 170.436H165.559C165.292 170.436 165.085 170.658 165.085 170.909V171.855H163.902C163.503 171.855 163.192 171.545 163.192 171.146V171.012C163.192 169.977 163.961 169.149 164.967 169.046C165.411 169.327 165.928 169.489 166.505 169.489C167.067 169.489 167.585 169.327 168.028 169.046ZM167.215 170.909C167.333 170.909 167.451 171.027 167.451 171.146C167.451 171.279 167.333 171.382 167.215 171.382C167.082 171.382 166.978 171.279 166.978 171.146C166.978 171.027 167.082 170.909 167.215 170.909ZM165.795 170.909C165.913 170.909 166.032 171.027 166.032 171.146V171.855H165.559V171.146C165.559 171.027 165.662 170.909 165.795 170.909Z" fill="#F59E0B"/>
<path d="M180.29 167.596C180.157 167.596 180.054 167.493 180.054 167.36V165.94C180.054 165.822 180.157 165.703 180.29 165.703H180.482C180.852 164.875 181.68 164.284 182.656 164.284C183.618 164.284 184.446 164.875 184.815 165.703H185.022C185.141 165.703 185.259 165.822 185.259 165.94V167.36C185.259 167.493 185.141 167.596 185.022 167.596H184.815C184.446 168.439 183.618 169.016 182.656 169.016C181.68 169.016 180.852 168.439 180.482 167.596H180.29ZM180.882 166.295V166.65C180.882 167.434 181.518 168.07 182.301 168.07H183.011C183.795 168.07 184.431 167.434 184.431 166.65V166.295C184.431 165.97 184.106 165.703 183.721 165.703H181.592C181.192 165.703 180.882 165.97 180.882 166.295ZM181.946 167.36L181.769 166.827L181.237 166.65L181.769 166.472L181.946 165.94L182.124 166.472L182.656 166.65L182.124 166.827L181.946 167.36ZM184.18 169.046C185.185 169.149 185.969 169.977 185.969 171.012V171.146C185.969 171.545 185.644 171.855 185.259 171.855H184.076V170.909C184.076 170.658 183.854 170.436 183.603 170.436H181.71C181.444 170.436 181.237 170.658 181.237 170.909V171.855H180.054C179.654 171.855 179.344 171.545 179.344 171.146V171.012C179.344 169.977 180.113 169.149 181.118 169.046C181.562 169.327 182.08 169.489 182.656 169.489C183.218 169.489 183.736 169.327 184.18 169.046ZM183.366 170.909C183.484 170.909 183.603 171.027 183.603 171.146C183.603 171.279 183.484 171.382 183.366 171.382C183.233 171.382 183.13 171.279 183.13 171.146C183.13 171.027 183.233 170.909 183.366 170.909ZM181.946 170.909C182.065 170.909 182.183 171.027 182.183 171.146V171.855H181.71V171.146C181.71 171.027 181.813 170.909 181.946 170.909Z" fill="#F59E0B"/>
</g>
<defs>
<clipPath id="clip0">
<rect width="359.333" height="206" rx="4" fill="white"/>
</clipPath>
</defs>
</svg>
