<svg width="360" height="206" viewBox="0 0 360 206" fill="none" xmlns="http://www.w3.org/2000/svg">
<rect width="359.333" height="206" rx="4" fill="#F3F4F6"/>
<circle cx="231.365" cy="0.773252" r="0.773252" fill="#E2E8F0"/>
<circle cx="231.365" cy="5.41266" r="0.773252" fill="#E2E8F0"/>
<circle cx="231.365" cy="10.0525" r="0.773252" fill="#E2E8F0"/>
<circle cx="231.365" cy="14.6922" r="0.773252" fill="#E2E8F0"/>
<circle cx="231.365" cy="19.3309" r="0.773252" fill="#E2E8F0"/>
<circle cx="231.365" cy="23.9705" r="0.773252" fill="#E2E8F0"/>
<circle cx="231.365" cy="28.6104" r="0.773252" fill="#E2E8F0"/>
<circle cx="231.365" cy="33.2498" r="0.773252" fill="#E2E8F0"/>
<circle cx="231.365" cy="37.8892" r="0.773252" fill="#E2E8F0"/>
<circle cx="231.365" cy="42.5291" r="0.773252" fill="#E2E8F0"/>
<circle cx="231.365" cy="47.1688" r="0.773252" fill="#E2E8F0"/>
<circle cx="231.365" cy="51.8074" r="0.773252" fill="#E2E8F0"/>
<circle cx="236.005" cy="0.773252" r="0.773252" fill="#E2E8F0"/>
<circle cx="236.005" cy="5.41266" r="0.773252" fill="#E2E8F0"/>
<circle cx="236.005" cy="10.0525" r="0.773252" fill="#E2E8F0"/>
<circle cx="236.005" cy="14.6922" r="0.773252" fill="#E2E8F0"/>
<circle cx="236.005" cy="19.3309" r="0.773252" fill="#E2E8F0"/>
<circle cx="236.005" cy="23.9705" r="0.773252" fill="#E2E8F0"/>
<circle cx="236.005" cy="28.6104" r="0.773252" fill="#E2E8F0"/>
<circle cx="236.005" cy="33.2498" r="0.773252" fill="#E2E8F0"/>
<circle cx="236.005" cy="37.8892" r="0.773252" fill="#E2E8F0"/>
<circle cx="236.005" cy="42.5291" r="0.773252" fill="#E2E8F0"/>
<circle cx="236.005" cy="47.1688" r="0.773252" fill="#E2E8F0"/>
<circle cx="236.005" cy="51.8074" r="0.773252" fill="#E2E8F0"/>
<circle cx="240.644" cy="0.773252" r="0.773252" fill="#E2E8F0"/>
<circle cx="240.644" cy="5.41266" r="0.773252" fill="#E2E8F0"/>
<circle cx="240.644" cy="10.0525" r="0.773252" fill="#E2E8F0"/>
<circle cx="240.644" cy="14.6922" r="0.773252" fill="#E2E8F0"/>
<circle cx="240.644" cy="19.3309" r="0.773252" fill="#E2E8F0"/>
<circle cx="240.644" cy="23.9705" r="0.773252" fill="#E2E8F0"/>
<circle cx="240.644" cy="28.6104" r="0.773252" fill="#E2E8F0"/>
<circle cx="240.644" cy="33.2498" r="0.773252" fill="#E2E8F0"/>
<circle cx="240.644" cy="37.8892" r="0.773252" fill="#E2E8F0"/>
<circle cx="240.644" cy="42.5291" r="0.773252" fill="#E2E8F0"/>
<circle cx="240.644" cy="47.1688" r="0.773252" fill="#E2E8F0"/>
<circle cx="240.644" cy="51.8074" r="0.773252" fill="#E2E8F0"/>
<circle cx="245.284" cy="0.773252" r="0.773252" fill="#E2E8F0"/>
<circle cx="245.284" cy="5.41266" r="0.773252" fill="#E2E8F0"/>
<circle cx="245.284" cy="10.0525" r="0.773252" fill="#E2E8F0"/>
<circle cx="245.284" cy="14.6922" r="0.773252" fill="#E2E8F0"/>
<circle cx="245.284" cy="19.3309" r="0.773252" fill="#E2E8F0"/>
<circle cx="245.284" cy="23.9705" r="0.773252" fill="#E2E8F0"/>
<circle cx="245.284" cy="28.6104" r="0.773252" fill="#E2E8F0"/>
<circle cx="245.284" cy="33.2498" r="0.773252" fill="#E2E8F0"/>
<circle cx="245.284" cy="37.8892" r="0.773252" fill="#E2E8F0"/>
<circle cx="245.284" cy="42.5291" r="0.773252" fill="#E2E8F0"/>
<circle cx="245.284" cy="47.1688" r="0.773252" fill="#E2E8F0"/>
<circle cx="245.284" cy="51.8074" r="0.773252" fill="#E2E8F0"/>
<circle cx="249.924" cy="0.773252" r="0.773252" fill="#E2E8F0"/>
<circle cx="249.924" cy="5.41266" r="0.773252" fill="#E2E8F0"/>
<circle cx="249.924" cy="10.0525" r="0.773252" fill="#E2E8F0"/>
<circle cx="249.924" cy="14.6922" r="0.773252" fill="#E2E8F0"/>
<circle cx="249.924" cy="19.3309" r="0.773252" fill="#E2E8F0"/>
<circle cx="249.924" cy="23.9705" r="0.773252" fill="#E2E8F0"/>
<circle cx="249.924" cy="28.6104" r="0.773252" fill="#E2E8F0"/>
<circle cx="249.924" cy="33.2498" r="0.773252" fill="#E2E8F0"/>
<circle cx="249.924" cy="37.8892" r="0.773252" fill="#E2E8F0"/>
<circle cx="249.924" cy="42.5291" r="0.773252" fill="#E2E8F0"/>
<circle cx="249.924" cy="47.1688" r="0.773252" fill="#E2E8F0"/>
<circle cx="249.924" cy="51.8074" r="0.773252" fill="#E2E8F0"/>
<circle cx="254.562" cy="0.773252" r="0.773252" fill="#E2E8F0"/>
<circle cx="254.562" cy="5.41266" r="0.773252" fill="#E2E8F0"/>
<circle cx="254.562" cy="10.0525" r="0.773252" fill="#E2E8F0"/>
<circle cx="254.562" cy="14.6922" r="0.773252" fill="#E2E8F0"/>
<circle cx="254.562" cy="19.3309" r="0.773252" fill="#E2E8F0"/>
<circle cx="254.562" cy="23.9705" r="0.773252" fill="#E2E8F0"/>
<circle cx="254.562" cy="28.6104" r="0.773252" fill="#E2E8F0"/>
<circle cx="254.562" cy="33.2498" r="0.773252" fill="#E2E8F0"/>
<circle cx="254.562" cy="37.8892" r="0.773252" fill="#E2E8F0"/>
<circle cx="254.562" cy="42.5291" r="0.773252" fill="#E2E8F0"/>
<circle cx="254.562" cy="47.1688" r="0.773252" fill="#E2E8F0"/>
<circle cx="254.562" cy="51.8074" r="0.773252" fill="#E2E8F0"/>
<circle cx="259.202" cy="0.773252" r="0.773252" fill="#E2E8F0"/>
<circle cx="259.202" cy="5.41266" r="0.773252" fill="#E2E8F0"/>
<circle cx="259.202" cy="10.0525" r="0.773252" fill="#E2E8F0"/>
<circle cx="259.202" cy="14.6922" r="0.773252" fill="#E2E8F0"/>
<circle cx="259.202" cy="19.3309" r="0.773252" fill="#E2E8F0"/>
<circle cx="259.202" cy="23.9705" r="0.773252" fill="#E2E8F0"/>
<circle cx="259.202" cy="28.6104" r="0.773252" fill="#E2E8F0"/>
<circle cx="259.202" cy="33.2498" r="0.773252" fill="#E2E8F0"/>
<circle cx="259.202" cy="37.8892" r="0.773252" fill="#E2E8F0"/>
<circle cx="259.202" cy="42.5291" r="0.773252" fill="#E2E8F0"/>
<circle cx="259.202" cy="47.1688" r="0.773252" fill="#E2E8F0"/>
<circle cx="259.202" cy="51.8074" r="0.773252" fill="#E2E8F0"/>
<circle cx="263.843" cy="0.773252" r="0.773252" fill="#E2E8F0"/>
<circle cx="263.843" cy="5.41266" r="0.773252" fill="#E2E8F0"/>
<circle cx="263.843" cy="10.0525" r="0.773252" fill="#E2E8F0"/>
<circle cx="263.843" cy="14.6922" r="0.773252" fill="#E2E8F0"/>
<circle cx="263.843" cy="19.3309" r="0.773252" fill="#E2E8F0"/>
<circle cx="263.843" cy="23.9705" r="0.773252" fill="#E2E8F0"/>
<circle cx="263.843" cy="28.6104" r="0.773252" fill="#E2E8F0"/>
<circle cx="263.843" cy="33.2498" r="0.773252" fill="#E2E8F0"/>
<circle cx="263.843" cy="37.8892" r="0.773252" fill="#E2E8F0"/>
<circle cx="263.843" cy="42.5291" r="0.773252" fill="#E2E8F0"/>
<circle cx="263.843" cy="47.1688" r="0.773252" fill="#E2E8F0"/>
<circle cx="263.843" cy="51.8074" r="0.773252" fill="#E2E8F0"/>
<circle cx="268.481" cy="0.773252" r="0.773252" fill="#E2E8F0"/>
<circle cx="268.481" cy="5.41266" r="0.773252" fill="#E2E8F0"/>
<circle cx="268.481" cy="10.0525" r="0.773252" fill="#E2E8F0"/>
<circle cx="268.481" cy="14.6922" r="0.773252" fill="#E2E8F0"/>
<circle cx="268.481" cy="19.3309" r="0.773252" fill="#E2E8F0"/>
<circle cx="268.481" cy="23.9705" r="0.773252" fill="#E2E8F0"/>
<circle cx="268.481" cy="28.6104" r="0.773252" fill="#E2E8F0"/>
<circle cx="268.481" cy="33.2498" r="0.773252" fill="#E2E8F0"/>
<circle cx="268.481" cy="37.8892" r="0.773252" fill="#E2E8F0"/>
<circle cx="268.481" cy="42.5291" r="0.773252" fill="#E2E8F0"/>
<circle cx="268.481" cy="47.1688" r="0.773252" fill="#E2E8F0"/>
<circle cx="268.481" cy="51.8074" r="0.773252" fill="#E2E8F0"/>
<circle cx="273.121" cy="0.773252" r="0.773252" fill="#E2E8F0"/>
<circle cx="273.121" cy="5.41266" r="0.773252" fill="#E2E8F0"/>
<circle cx="273.121" cy="10.0525" r="0.773252" fill="#E2E8F0"/>
<circle cx="273.121" cy="14.6922" r="0.773252" fill="#E2E8F0"/>
<circle cx="273.121" cy="19.3309" r="0.773252" fill="#E2E8F0"/>
<circle cx="273.121" cy="23.9705" r="0.773252" fill="#E2E8F0"/>
<circle cx="273.121" cy="28.6104" r="0.773252" fill="#E2E8F0"/>
<circle cx="273.121" cy="33.2498" r="0.773252" fill="#E2E8F0"/>
<circle cx="273.121" cy="37.8892" r="0.773252" fill="#E2E8F0"/>
<circle cx="273.121" cy="42.5291" r="0.773252" fill="#E2E8F0"/>
<circle cx="273.121" cy="47.1688" r="0.773252" fill="#E2E8F0"/>
<circle cx="273.121" cy="51.8074" r="0.773252" fill="#E2E8F0"/>
<circle cx="277.761" cy="0.773252" r="0.773252" fill="#E2E8F0"/>
<circle cx="277.761" cy="5.4129" r="0.773252" fill="#E2E8F0"/>
<circle cx="277.761" cy="10.0525" r="0.773252" fill="#E2E8F0"/>
<circle cx="277.761" cy="14.6922" r="0.773252" fill="#E2E8F0"/>
<circle cx="277.761" cy="19.3309" r="0.773252" fill="#E2E8F0"/>
<circle cx="277.761" cy="23.9705" r="0.773252" fill="#E2E8F0"/>
<circle cx="277.761" cy="28.6102" r="0.773252" fill="#E2E8F0"/>
<circle cx="277.761" cy="33.2498" r="0.773252" fill="#E2E8F0"/>
<circle cx="277.761" cy="37.8895" r="0.773252" fill="#E2E8F0"/>
<circle cx="277.761" cy="42.5291" r="0.773252" fill="#E2E8F0"/>
<circle cx="277.761" cy="47.1688" r="0.773252" fill="#E2E8F0"/>
<circle cx="277.761" cy="51.8074" r="0.773252" fill="#E2E8F0"/>
<circle cx="282.4" cy="0.773252" r="0.773252" fill="#E2E8F0"/>
<circle cx="282.4" cy="5.41266" r="0.773252" fill="#E2E8F0"/>
<circle cx="282.4" cy="10.0525" r="0.773252" fill="#E2E8F0"/>
<circle cx="282.4" cy="14.6922" r="0.773252" fill="#E2E8F0"/>
<circle cx="282.4" cy="19.3309" r="0.773252" fill="#E2E8F0"/>
<circle cx="282.4" cy="23.9705" r="0.773252" fill="#E2E8F0"/>
<circle cx="282.4" cy="28.6104" r="0.773252" fill="#E2E8F0"/>
<circle cx="282.4" cy="33.2498" r="0.773252" fill="#E2E8F0"/>
<circle cx="282.4" cy="37.8892" r="0.773252" fill="#E2E8F0"/>
<circle cx="282.4" cy="42.5291" r="0.773252" fill="#E2E8F0"/>
<circle cx="282.4" cy="47.1688" r="0.773252" fill="#E2E8F0"/>
<circle cx="282.4" cy="51.8074" r="0.773252" fill="#E2E8F0"/>
<circle cx="56.7733" cy="154.026" r="0.773252" fill="#E2E8F0"/>
<circle cx="56.7733" cy="158.666" r="0.773252" fill="#E2E8F0"/>
<circle cx="56.7733" cy="163.305" r="0.773252" fill="#E2E8F0"/>
<circle cx="56.7733" cy="167.945" r="0.773252" fill="#E2E8F0"/>
<circle cx="56.7733" cy="172.584" r="0.773252" fill="#E2E8F0"/>
<circle cx="56.7733" cy="177.223" r="0.773252" fill="#E2E8F0"/>
<circle cx="56.7733" cy="181.863" r="0.773252" fill="#E2E8F0"/>
<circle cx="56.7733" cy="186.503" r="0.773252" fill="#E2E8F0"/>
<circle cx="56.7733" cy="191.142" r="0.773252" fill="#E2E8F0"/>
<circle cx="56.7733" cy="195.782" r="0.773252" fill="#E2E8F0"/>
<circle cx="56.7733" cy="200.422" r="0.773252" fill="#E2E8F0"/>
<circle cx="56.7733" cy="205.06" r="0.773252" fill="#E2E8F0"/>
<circle cx="61.4129" cy="154.026" r="0.773252" fill="#E2E8F0"/>
<circle cx="61.4129" cy="158.666" r="0.773252" fill="#E2E8F0"/>
<circle cx="61.4129" cy="163.305" r="0.773252" fill="#E2E8F0"/>
<circle cx="61.4129" cy="167.945" r="0.773252" fill="#E2E8F0"/>
<circle cx="61.4129" cy="172.584" r="0.773252" fill="#E2E8F0"/>
<circle cx="61.4129" cy="177.223" r="0.773252" fill="#E2E8F0"/>
<circle cx="61.4129" cy="181.863" r="0.773252" fill="#E2E8F0"/>
<circle cx="61.4129" cy="186.503" r="0.773252" fill="#E2E8F0"/>
<circle cx="61.4129" cy="191.142" r="0.773252" fill="#E2E8F0"/>
<circle cx="61.4129" cy="195.782" r="0.773252" fill="#E2E8F0"/>
<circle cx="61.4129" cy="200.422" r="0.773252" fill="#E2E8F0"/>
<circle cx="61.4129" cy="205.06" r="0.773252" fill="#E2E8F0"/>
<circle cx="66.0526" cy="154.026" r="0.773252" fill="#E2E8F0"/>
<circle cx="66.0526" cy="158.666" r="0.773252" fill="#E2E8F0"/>
<circle cx="66.0526" cy="163.305" r="0.773252" fill="#E2E8F0"/>
<circle cx="66.0526" cy="167.945" r="0.773252" fill="#E2E8F0"/>
<circle cx="66.0526" cy="172.584" r="0.773252" fill="#E2E8F0"/>
<circle cx="66.0526" cy="177.223" r="0.773252" fill="#E2E8F0"/>
<circle cx="66.0526" cy="181.863" r="0.773252" fill="#E2E8F0"/>
<circle cx="66.0526" cy="186.503" r="0.773252" fill="#E2E8F0"/>
<circle cx="66.0526" cy="191.142" r="0.773252" fill="#E2E8F0"/>
<circle cx="66.0526" cy="195.782" r="0.773252" fill="#E2E8F0"/>
<circle cx="66.0526" cy="200.422" r="0.773252" fill="#E2E8F0"/>
<circle cx="66.0526" cy="205.06" r="0.773252" fill="#E2E8F0"/>
<circle cx="70.6922" cy="154.026" r="0.773252" fill="#E2E8F0"/>
<circle cx="70.6922" cy="158.666" r="0.773252" fill="#E2E8F0"/>
<circle cx="70.6922" cy="163.305" r="0.773252" fill="#E2E8F0"/>
<circle cx="70.6922" cy="167.945" r="0.773252" fill="#E2E8F0"/>
<circle cx="70.6922" cy="172.584" r="0.773252" fill="#E2E8F0"/>
<circle cx="70.6922" cy="177.223" r="0.773252" fill="#E2E8F0"/>
<circle cx="70.6922" cy="181.863" r="0.773252" fill="#E2E8F0"/>
<circle cx="70.6922" cy="186.503" r="0.773252" fill="#E2E8F0"/>
<circle cx="70.6922" cy="191.142" r="0.773252" fill="#E2E8F0"/>
<circle cx="70.6922" cy="195.782" r="0.773252" fill="#E2E8F0"/>
<circle cx="70.6922" cy="200.422" r="0.773252" fill="#E2E8F0"/>
<circle cx="70.6922" cy="205.06" r="0.773252" fill="#E2E8F0"/>
<circle cx="75.3318" cy="154.026" r="0.773252" fill="#E2E8F0"/>
<circle cx="75.3318" cy="158.666" r="0.773252" fill="#E2E8F0"/>
<circle cx="75.3318" cy="163.305" r="0.773252" fill="#E2E8F0"/>
<circle cx="75.3318" cy="167.945" r="0.773252" fill="#E2E8F0"/>
<circle cx="75.3318" cy="172.584" r="0.773252" fill="#E2E8F0"/>
<circle cx="75.3318" cy="177.223" r="0.773252" fill="#E2E8F0"/>
<circle cx="75.3318" cy="181.863" r="0.773252" fill="#E2E8F0"/>
<circle cx="75.3318" cy="186.503" r="0.773252" fill="#E2E8F0"/>
<circle cx="75.3318" cy="191.142" r="0.773252" fill="#E2E8F0"/>
<circle cx="75.3318" cy="195.782" r="0.773252" fill="#E2E8F0"/>
<circle cx="75.3318" cy="200.422" r="0.773252" fill="#E2E8F0"/>
<circle cx="75.3318" cy="205.06" r="0.773252" fill="#E2E8F0"/>
<circle cx="79.9705" cy="154.026" r="0.773252" fill="#E2E8F0"/>
<circle cx="79.9705" cy="158.666" r="0.773252" fill="#E2E8F0"/>
<circle cx="79.9705" cy="163.305" r="0.773252" fill="#E2E8F0"/>
<circle cx="79.9705" cy="167.945" r="0.773252" fill="#E2E8F0"/>
<circle cx="79.9705" cy="172.584" r="0.773252" fill="#E2E8F0"/>
<circle cx="79.9705" cy="177.223" r="0.773252" fill="#E2E8F0"/>
<circle cx="79.9705" cy="181.863" r="0.773252" fill="#E2E8F0"/>
<circle cx="79.9705" cy="186.503" r="0.773252" fill="#E2E8F0"/>
<circle cx="79.9705" cy="191.142" r="0.773252" fill="#E2E8F0"/>
<circle cx="79.9705" cy="195.782" r="0.773252" fill="#E2E8F0"/>
<circle cx="79.9705" cy="200.422" r="0.773252" fill="#E2E8F0"/>
<circle cx="79.9705" cy="205.06" r="0.773252" fill="#E2E8F0"/>
<circle cx="84.6102" cy="154.026" r="0.773252" fill="#E2E8F0"/>
<circle cx="84.6102" cy="158.666" r="0.773252" fill="#E2E8F0"/>
<circle cx="84.6102" cy="163.305" r="0.773252" fill="#E2E8F0"/>
<circle cx="84.6102" cy="167.945" r="0.773252" fill="#E2E8F0"/>
<circle cx="84.6102" cy="172.584" r="0.773252" fill="#E2E8F0"/>
<circle cx="84.6102" cy="177.223" r="0.773252" fill="#E2E8F0"/>
<circle cx="84.6102" cy="181.863" r="0.773252" fill="#E2E8F0"/>
<circle cx="84.6102" cy="186.503" r="0.773252" fill="#E2E8F0"/>
<circle cx="84.6102" cy="191.142" r="0.773252" fill="#E2E8F0"/>
<circle cx="84.6102" cy="195.782" r="0.773252" fill="#E2E8F0"/>
<circle cx="84.6102" cy="200.422" r="0.773252" fill="#E2E8F0"/>
<circle cx="84.6102" cy="205.06" r="0.773252" fill="#E2E8F0"/>
<circle cx="89.2508" cy="154.026" r="0.773252" fill="#E2E8F0"/>
<circle cx="89.2508" cy="158.666" r="0.773252" fill="#E2E8F0"/>
<circle cx="89.2508" cy="163.305" r="0.773252" fill="#E2E8F0"/>
<circle cx="89.2508" cy="167.945" r="0.773252" fill="#E2E8F0"/>
<circle cx="89.2508" cy="172.584" r="0.773252" fill="#E2E8F0"/>
<circle cx="89.2508" cy="177.223" r="0.773252" fill="#E2E8F0"/>
<circle cx="89.2508" cy="181.863" r="0.773252" fill="#E2E8F0"/>
<circle cx="89.2508" cy="186.503" r="0.773252" fill="#E2E8F0"/>
<circle cx="89.2508" cy="191.142" r="0.773252" fill="#E2E8F0"/>
<circle cx="89.2508" cy="195.782" r="0.773252" fill="#E2E8F0"/>
<circle cx="89.2508" cy="200.422" r="0.773252" fill="#E2E8F0"/>
<circle cx="89.2508" cy="205.06" r="0.773252" fill="#E2E8F0"/>
<circle cx="93.8895" cy="154.026" r="0.773252" fill="#E2E8F0"/>
<circle cx="93.8895" cy="158.666" r="0.773252" fill="#E2E8F0"/>
<circle cx="93.8895" cy="163.305" r="0.773252" fill="#E2E8F0"/>
<circle cx="93.8895" cy="167.945" r="0.773252" fill="#E2E8F0"/>
<circle cx="93.8895" cy="172.584" r="0.773252" fill="#E2E8F0"/>
<circle cx="93.8895" cy="177.223" r="0.773252" fill="#E2E8F0"/>
<circle cx="93.8895" cy="181.863" r="0.773252" fill="#E2E8F0"/>
<circle cx="93.8895" cy="186.503" r="0.773252" fill="#E2E8F0"/>
<circle cx="93.8895" cy="191.142" r="0.773252" fill="#E2E8F0"/>
<circle cx="93.8895" cy="195.782" r="0.773252" fill="#E2E8F0"/>
<circle cx="93.8895" cy="200.422" r="0.773252" fill="#E2E8F0"/>
<circle cx="93.8895" cy="205.06" r="0.773252" fill="#E2E8F0"/>
<circle cx="98.5291" cy="154.026" r="0.773252" fill="#E2E8F0"/>
<circle cx="98.5291" cy="158.666" r="0.773252" fill="#E2E8F0"/>
<circle cx="98.5291" cy="163.305" r="0.773252" fill="#E2E8F0"/>
<circle cx="98.5291" cy="167.945" r="0.773252" fill="#E2E8F0"/>
<circle cx="98.5291" cy="172.584" r="0.773252" fill="#E2E8F0"/>
<circle cx="98.5291" cy="177.223" r="0.773252" fill="#E2E8F0"/>
<circle cx="98.5291" cy="181.863" r="0.773252" fill="#E2E8F0"/>
<circle cx="98.5291" cy="186.503" r="0.773252" fill="#E2E8F0"/>
<circle cx="98.5291" cy="191.142" r="0.773252" fill="#E2E8F0"/>
<circle cx="98.5291" cy="195.782" r="0.773252" fill="#E2E8F0"/>
<circle cx="98.5291" cy="200.422" r="0.773252" fill="#E2E8F0"/>
<circle cx="98.5291" cy="205.06" r="0.773252" fill="#E2E8F0"/>
<circle cx="103.169" cy="154.026" r="0.773252" fill="#E2E8F0"/>
<circle cx="103.169" cy="158.666" r="0.773252" fill="#E2E8F0"/>
<circle cx="103.169" cy="163.305" r="0.773252" fill="#E2E8F0"/>
<circle cx="103.169" cy="167.945" r="0.773252" fill="#E2E8F0"/>
<circle cx="103.169" cy="172.584" r="0.773252" fill="#E2E8F0"/>
<circle cx="103.169" cy="177.223" r="0.773252" fill="#E2E8F0"/>
<circle cx="103.169" cy="181.863" r="0.773252" fill="#E2E8F0"/>
<circle cx="103.169" cy="186.503" r="0.773252" fill="#E2E8F0"/>
<circle cx="103.169" cy="191.142" r="0.773252" fill="#E2E8F0"/>
<circle cx="103.169" cy="195.782" r="0.773252" fill="#E2E8F0"/>
<circle cx="103.169" cy="200.422" r="0.773252" fill="#E2E8F0"/>
<circle cx="103.169" cy="205.06" r="0.773252" fill="#E2E8F0"/>
<circle cx="107.808" cy="154.026" r="0.773252" fill="#E2E8F0"/>
<circle cx="107.808" cy="158.666" r="0.773252" fill="#E2E8F0"/>
<circle cx="107.808" cy="163.305" r="0.773252" fill="#E2E8F0"/>
<circle cx="107.808" cy="167.945" r="0.773252" fill="#E2E8F0"/>
<circle cx="107.808" cy="172.584" r="0.773252" fill="#E2E8F0"/>
<circle cx="107.808" cy="177.223" r="0.773252" fill="#E2E8F0"/>
<circle cx="107.808" cy="181.863" r="0.773252" fill="#E2E8F0"/>
<circle cx="107.808" cy="186.503" r="0.773252" fill="#E2E8F0"/>
<circle cx="107.808" cy="191.142" r="0.773252" fill="#E2E8F0"/>
<circle cx="107.808" cy="195.782" r="0.773252" fill="#E2E8F0"/>
<circle cx="107.808" cy="200.422" r="0.773252" fill="#E2E8F0"/>
<circle cx="107.808" cy="205.06" r="0.773252" fill="#E2E8F0"/>
<path d="M257.809 23L141.58 59.0495V93.1989L257.809 23Z" fill="#64748B"/>
<path d="M99.459 58.3455L141.58 59.0495L257.808 23L99.459 58.3455Z" fill="#94A3B8"/>
<path d="M141.58 93.1989L156.996 74.7894L257.809 23L141.58 93.1989Z" fill="#64748B"/>
<path d="M257.809 23L156.996 74.7894L170.855 118.471L257.809 23Z" fill="#94A3B8"/>
<g clip-path="url(#clip0)">
<path opacity="0.03" d="M109.211 192.142C127.92 192.142 143.087 190.72 143.087 188.966C143.087 187.212 127.92 185.79 109.211 185.79C90.5011 185.79 75.334 187.212 75.334 188.966C75.334 190.72 90.5011 192.142 109.211 192.142Z" fill="black"/>
<path d="M118.783 189.077L117.746 186.024L117.219 185.233L116.437 182.864L116.321 181.497L113.27 178.124L113.986 175.873L97.9452 130.123L89.9482 122.281L109.162 125.886H109.165L118.783 189.077Z" fill="#F97316"/>
<path d="M119.326 180.494L121.169 182.864L119.329 186.976L118.783 189.077L118.182 182.47L116.411 179.169L117.118 178.136L109.165 125.886L128.96 118.355L120.414 179.235L119.326 180.494Z" fill="#FB923C"/>
<path d="M97.9452 130.123L96.3891 130.726L93.574 131.816L89.9482 122.281L97.9452 130.123Z" fill="#EA580C"/>
<path d="M117.076 188.829L117.22 187.603L113.271 186.023L114.06 182.337L110.882 180.746L74.4424 139.093L93.5745 131.816L96.3896 130.725L97.9458 130.122L113.987 175.872L113.271 178.124L116.321 181.497L116.438 182.864L117.22 185.233L117.747 186.023L118.659 189.077L117.076 188.829Z" fill="#FB923C"/>
<path d="M106.53 181.102L110.201 183.809H105.301L106.53 181.102Z" fill="#F97316"/>
<path d="M126.154 186.208L121.683 187.105L124.978 183.478L126.154 186.208Z" fill="#F97316"/>
<path d="M124.259 179.311L123.261 181.268L122.876 178.94L124.259 179.311Z" fill="#F97316"/>
</g>
<path d="M98.941 117.747C98.8559 117.738 98.7723 117.706 98.6985 117.651C98.4781 117.485 98.4313 117.169 98.5943 116.945C99.0147 116.364 99.4812 115.805 99.9816 115.282C100.172 115.083 100.487 115.079 100.683 115.273C100.879 115.467 100.883 115.787 100.692 115.987C100.223 116.477 99.786 117.001 99.3926 117.544C99.2841 117.693 99.1111 117.764 98.9417 117.746L98.941 117.747ZM102.663 114.099C102.524 114.084 102.391 114.01 102.305 113.883C102.15 113.653 102.207 113.339 102.432 113.18C103.009 112.775 103.624 112.398 104.26 112.059C104.502 111.93 104.802 112.025 104.929 112.272C105.056 112.519 104.962 112.824 104.72 112.954C104.12 113.274 103.539 113.63 102.995 114.012C102.894 114.083 102.776 114.11 102.663 114.099ZM107.303 111.778C107.115 111.758 106.947 111.629 106.884 111.435C106.797 111.171 106.938 110.885 107.198 110.797C107.853 110.575 108.54 110.38 109.24 110.216C109.507 110.154 109.772 110.324 109.834 110.595C109.896 110.867 109.729 111.138 109.462 111.201C108.792 111.357 108.135 111.544 107.51 111.756C107.441 111.779 107.371 111.786 107.303 111.779L107.303 111.778ZM112.368 110.694C112.139 110.671 111.951 110.486 111.927 110.245C111.898 109.968 112.095 109.72 112.368 109.69C112.76 109.648 113.163 109.613 113.566 109.587C113.86 109.567 114.154 109.546 114.448 109.522C114.72 109.499 114.96 109.707 114.982 109.985C115.004 110.263 114.8 110.507 114.527 110.529C114.228 110.554 113.929 110.575 113.63 110.595C113.24 110.621 112.85 110.655 112.472 110.696C112.437 110.699 112.402 110.699 112.368 110.696L112.368 110.694ZM117.534 110.194C117.311 110.17 117.125 109.994 117.095 109.757C117.059 109.481 117.25 109.227 117.521 109.191C118.203 109.1 118.887 108.996 119.557 108.882C119.827 108.836 120.083 109.021 120.128 109.297C120.173 109.572 119.99 109.832 119.721 109.878C119.04 109.994 118.343 110.099 117.65 110.192C117.611 110.197 117.572 110.198 117.534 110.193V110.194ZM122.645 109.273C122.439 109.251 122.26 109.099 122.212 108.882C122.152 108.61 122.319 108.34 122.586 108.278C123.268 108.122 123.939 107.952 124.581 107.774C124.846 107.701 125.118 107.86 125.19 108.13C125.261 108.399 125.105 108.676 124.841 108.749C124.185 108.93 123.5 109.104 122.805 109.264C122.751 109.276 122.696 109.279 122.644 109.274L122.645 109.273ZM127.632 107.816C127.449 107.796 127.284 107.673 127.217 107.484C127.124 107.222 127.258 106.932 127.515 106.838C128.183 106.593 128.821 106.334 129.41 106.067C129.661 105.955 129.953 106.07 130.065 106.325C130.175 106.579 130.063 106.878 129.812 106.991C129.201 107.267 128.541 107.535 127.852 107.788C127.779 107.815 127.705 107.823 127.632 107.816ZM120.75 104.406C120.507 104.38 120.314 104.175 120.306 103.919C120.297 103.641 120.512 103.407 120.786 103.399C121.41 103.38 122.074 103.298 122.758 103.156C123.026 103.101 123.288 103.277 123.343 103.55C123.397 103.823 123.224 104.09 122.956 104.146C122.216 104.299 121.497 104.388 120.816 104.41C120.794 104.41 120.771 104.41 120.749 104.407L120.75 104.406ZM117.682 103.992C117.649 103.988 117.616 103.981 117.583 103.971C116.902 103.752 116.233 103.447 115.591 103.064C115.355 102.923 115.276 102.613 115.414 102.373C115.553 102.132 115.857 102.051 116.093 102.193C116.671 102.538 117.272 102.812 117.881 103.007C118.142 103.091 118.288 103.375 118.205 103.641C118.133 103.873 117.911 104.015 117.682 103.992ZM132.301 105.532C132.159 105.517 132.024 105.439 131.939 105.309C131.787 105.076 131.85 104.763 132.077 104.609C132.681 104.2 133.196 103.776 133.608 103.349C133.799 103.15 134.113 103.147 134.309 103.342C134.505 103.537 134.507 103.857 134.315 104.057C133.855 104.534 133.287 105.003 132.626 105.451C132.526 105.518 132.411 105.544 132.301 105.532V105.532ZM125.786 103.248C125.606 103.229 125.443 103.109 125.374 102.924C125.277 102.664 125.406 102.372 125.662 102.273C126.254 102.044 126.87 101.781 127.547 101.469C127.797 101.354 128.09 101.467 128.203 101.721C128.316 101.975 128.205 102.274 127.956 102.389C127.26 102.709 126.624 102.981 126.013 103.217C125.938 103.246 125.86 103.255 125.786 103.247L125.786 103.248ZM113.41 101.115C113.284 101.101 113.162 101.039 113.077 100.931C112.57 100.296 112.208 99.6181 111.999 98.9162C111.92 98.6491 112.068 98.3674 112.329 98.2866C112.591 98.2057 112.868 98.3559 112.948 98.6231C113.119 99.1993 113.422 99.7617 113.846 100.295C114.019 100.511 113.987 100.829 113.774 101.005C113.668 101.093 113.537 101.129 113.41 101.116L113.41 101.115ZM130.501 101.043C130.34 101.026 130.189 100.929 130.11 100.771C129.985 100.523 130.082 100.219 130.325 100.092C130.93 99.7762 131.541 99.4498 132.162 99.1177C132.404 98.9884 132.704 99.083 132.831 99.33C132.958 99.5769 132.865 99.8823 132.622 100.012C131.999 100.345 131.384 100.674 130.776 100.99C130.688 101.036 130.592 101.053 130.499 101.043L130.501 101.043ZM135.308 101.454C135.041 101.426 134.843 101.186 134.865 100.911C134.911 100.337 134.782 99.7437 134.481 99.1466C134.356 98.8982 134.452 98.5942 134.696 98.4671C134.724 98.4519 134.753 98.4404 134.783 98.4317C134.756 98.4007 134.732 98.3653 134.712 98.3263C134.587 98.0786 134.683 97.7739 134.926 97.6461C135.605 97.2909 136.215 96.9782 136.79 96.6923C137.036 96.5695 137.333 96.6735 137.453 96.9241C137.573 97.1746 137.471 97.4772 137.225 97.5992C136.656 97.883 136.052 98.192 135.379 98.5444C135.351 98.5595 135.322 98.5711 135.292 98.5797C135.32 98.6108 135.343 98.6462 135.363 98.6852C135.749 99.452 135.915 100.228 135.854 100.992C135.832 101.27 135.592 101.477 135.32 101.454C135.316 101.454 135.312 101.454 135.308 101.453L135.308 101.454ZM112.621 96.1789C112.57 96.1738 112.519 96.1601 112.47 96.137C112.22 96.0229 112.108 95.724 112.22 95.4698C112.517 94.7947 112.958 94.1672 113.53 93.6055C113.727 93.412 114.041 93.4178 114.231 93.6185C114.421 93.8192 114.415 94.1391 114.218 94.3326C113.738 94.8041 113.37 95.3254 113.125 95.8829C113.035 96.0872 112.828 96.2006 112.621 96.1789ZM132.864 97.0215C132.769 97.0114 132.676 96.9732 132.597 96.906C132.128 96.5045 131.582 96.0973 130.974 95.6951C130.744 95.5435 130.679 95.2308 130.827 94.9969C130.976 94.7629 131.283 94.6958 131.513 94.8481C132.156 95.2727 132.735 95.7052 133.235 96.1327C133.445 96.3118 133.472 96.6309 133.295 96.8439C133.185 96.9768 133.022 97.0381 132.864 97.0215ZM139.784 96.3211C139.611 96.3031 139.453 96.1919 139.379 96.0179C139.271 95.7615 139.388 95.4648 139.639 95.355C140.301 95.0662 140.956 94.7969 141.587 94.5564C141.842 94.459 142.129 94.5904 142.225 94.8518C142.321 95.1124 142.191 95.4041 141.935 95.5016C141.319 95.737 140.678 95.9998 140.03 96.2829C139.95 96.3183 139.865 96.3298 139.784 96.3211ZM128.485 94.212C128.427 94.2062 128.369 94.1896 128.314 94.1615C127.698 93.8474 127.075 93.5651 126.461 93.3217C126.205 93.2206 126.079 92.9282 126.178 92.6683C126.278 92.4083 126.565 92.2791 126.82 92.3809C127.462 92.635 128.115 92.9304 128.758 93.2582C129.003 93.3831 129.102 93.6864 128.979 93.9355C128.884 94.129 128.684 94.233 128.485 94.212ZM116.454 92.8192C116.274 92.8004 116.111 92.6813 116.042 92.4971C115.944 92.2365 116.072 91.9448 116.328 91.8451C116.983 91.591 117.688 91.3982 118.425 91.2732C118.695 91.2278 118.95 91.4133 118.995 91.6884C119.04 91.9635 118.858 92.2235 118.588 92.2697C117.916 92.3838 117.275 92.5578 116.682 92.7888C116.607 92.8177 116.529 92.8271 116.454 92.8192H116.454ZM123.611 92.4451C123.594 92.4437 123.577 92.4408 123.561 92.4372C122.89 92.295 122.219 92.1975 121.572 92.1484C121.302 92.1303 121.094 91.8855 121.115 91.6076C121.135 91.3296 121.373 91.1209 121.646 91.1418C122.333 91.1938 123.05 91.2978 123.763 91.4494C124.031 91.5065 124.203 91.7736 124.147 92.0466C124.094 92.3022 123.86 92.4719 123.611 92.4459V92.4451Z" fill="black" fill-opacity="0.15"/>
<defs>
<clipPath id="clip0">
<rect width="68.9148" height="74.007" fill="white" transform="translate(74.3066 118.326)"/>
</clipPath>
</defs>
</svg>
