<svg width="400" height="214" viewBox="0 0 400 214" fill="none" xmlns="http://www.w3.org/2000/svg">
<g clip-path="url(#clip0)">
<path d="M33.865 211.803C33.865 211.803 -15.1935 144.246 18.6985 101.586C50.1265 62.0263 99.7434 85.1521 158.318 71.1782C216.892 57.2044 268.36 -19.3271 340.644 10.3624C445.112 53.2681 365.568 206.685 348.561 213.771L33.865 211.803Z" fill="#F0F0F1"/>
<g filter="url(#filter0_d)">
<path d="M42.4253 8.87755V48.9757C42.4251 49.7476 42.7184 50.4963 43.2562 51.0969C43.794 51.6976 44.5439 52.1139 45.3809 52.2767C45.6415 52.3275 45.9076 52.3527 46.1743 52.3518H115.246C115.513 52.3527 115.779 52.3275 116.04 52.2767C116.876 52.1132 117.625 51.6965 118.162 51.096C118.699 50.4954 118.992 49.7471 118.991 48.9757V8.87755C118.991 7.98216 118.597 7.12343 117.894 6.4903C117.192 5.85716 116.239 5.50146 115.246 5.50146H46.1703C45.1771 5.50146 44.2245 5.85716 43.5222 6.4903C42.8199 7.12343 42.4253 7.98216 42.4253 8.87755Z" fill="#DF9346"/>
</g>
<path d="M72.1055 29.515L42.4253 48.391V9.56787L72.1055 29.515Z" fill="#FDC966"/>
<path d="M89.1127 29.3362L118.991 9.56787V48.391L89.1127 29.3362Z" fill="#FDC966"/>
<path d="M77.5227 33.3131C78.464 33.8849 79.5732 34.1904 80.7083 34.1904C81.8433 34.1904 82.9526 33.8849 83.8939 33.3131L88.716 29.8208L118.991 48.5645V49.1224C118.978 49.8752 118.676 50.6006 118.138 51.1761C117.599 51.7515 116.857 52.1416 116.036 52.2803C115.775 52.3291 115.509 52.353 115.242 52.3519H46.1703C45.9038 52.353 45.6379 52.3291 45.3769 52.2803C44.5568 52.1408 43.8152 51.7504 43.2775 51.1751C42.7397 50.5997 42.4387 49.8747 42.4253 49.1224V48.5645L72.5617 29.9048L77.5227 33.3131Z" fill="#FBC866"/>
<path d="M46.1703 5.50146H115.246C117.315 5.50146 118.991 6.93201 118.991 8.70052V9.35499L83.8939 31.752C82.9507 32.3194 81.8422 32.6223 80.7083 32.6223C79.5743 32.6223 78.4658 32.3194 77.5227 31.752L42.4253 9.35499V8.70052C42.4253 6.93201 44.1015 5.50146 46.1703 5.50146Z" fill="#FFD688"/>
<g filter="url(#filter1_d)">
<path d="M45.7693 17.4628C40.5624 17.4628 36.3414 13.6576 36.3414 8.96357C36.3414 4.26958 40.5624 0.464355 45.7693 0.464355C50.9762 0.464355 55.1973 4.26958 55.1973 8.96357C55.1973 13.6576 50.9762 17.4628 45.7693 17.4628Z" fill="#E27730"/>
</g>
<path d="M45.2625 6.95164L44.4016 7.26279C43.2511 7.59897 42.5608 6.07008 43.87 5.68204L45.8972 5.00789C46.5577 4.74861 47.1627 4.99359 47.1627 5.9145V13.1745C47.1627 14.133 45.2644 14.1598 45.2644 13.1745L45.2625 6.95164Z" fill="white"/>
<path d="M230.049 69.9709L224.601 93.2762L245.117 100.633L259.632 87.2594L265.903 40.7547L230.049 69.9709Z" fill="#FFC7AB"/>
<path opacity="0.4" fill-rule="evenodd" clip-rule="evenodd" d="M227.497 79.5222C227.497 79.5222 245.479 80.2834 251.795 66.3326C255.059 59.1295 255.286 57.3541 255.286 57.3541L230.262 68.8329L227.497 79.5222Z" fill="#966954"/>
<path fill-rule="evenodd" clip-rule="evenodd" d="M221.941 32.595C219.013 36.6629 217.278 45.4419 216.583 53.2107C215.848 61.4751 215.163 66.7414 218.034 69.7995C223.652 75.7775 237.436 81.0012 261.354 60.833C268.37 54.9126 272.673 35.1033 257.478 27.312C242.291 19.528 227.475 24.902 221.941 32.595Z" fill="#FFC7AB"/>
<path fill-rule="evenodd" clip-rule="evenodd" d="M232.659 48.8573C233.322 48.8181 233.843 49.3999 233.82 50.168C233.802 50.9326 233.251 51.59 232.588 51.6293C231.925 51.6685 231.404 51.0867 231.427 50.3186C231.445 49.554 231.991 48.9001 232.659 48.8573Z" fill="#22282C"/>
<path fill-rule="evenodd" clip-rule="evenodd" d="M220.423 47.3651C221.086 47.3259 221.607 47.9077 221.585 48.6758C221.566 49.4404 221.016 50.0979 220.353 50.1371C219.69 50.1763 219.169 49.5945 219.191 48.8264C219.21 48.0618 219.756 47.4079 220.423 47.3651Z" fill="#22282C"/>
<path d="M225.844 58.7336C225.929 58.7302 226.013 58.6817 226.051 58.6036C226.101 58.4995 226.057 58.3855 225.949 58.3465C223.562 57.4822 224.737 53.7503 225.588 51.027C225.863 50.1531 226.103 49.398 226.199 48.8231C226.52 46.9679 225.713 45.3118 223.866 44.048C222.493 43.104 221.046 42.7118 220.984 42.6921C220.871 42.6617 220.753 42.7243 220.707 42.83C220.666 42.9371 220.724 43.0455 220.831 43.0743C220.891 43.0881 226.488 44.6459 225.773 48.7934C225.679 49.3392 225.444 50.0856 225.175 50.9465C224.278 53.8104 223.043 57.7335 225.762 58.7224C225.792 58.7272 225.823 58.7319 225.844 58.7336Z" fill="#22282C"/>
<path fill-rule="evenodd" clip-rule="evenodd" d="M262.71 26.6348C267.687 28.3056 271.659 31.7925 273.682 36.2975C275.705 40.8025 275.611 45.9234 273.428 50.4785C269.691 58.2598 264.02 65.5127 256.637 61.9514C246.129 56.8798 248.002 34.947 248.002 34.947C248.002 34.947 213.111 43.6096 210.18 30.5536C210.106 30.2215 210.257 29.8815 210.555 29.6822C210.855 29.4761 211.253 29.4593 211.565 29.6249C212.142 29.9351 212.843 30.2222 213.598 30.3708C213.933 30.4352 214.285 30.3557 214.556 30.1454C214.827 29.935 214.97 29.6286 214.96 29.3131C215.022 30.4527 214.992 30.0576 214.966 29.4186C214.665 23.2476 218.609 17.4506 224.826 14.9197C229.749 12.9126 236.459 11.2305 243.878 12.3275C259.598 14.6401 262.71 26.6348 262.71 26.6348Z" fill="#22282C"/>
<path fill-rule="evenodd" clip-rule="evenodd" d="M245.823 53.2876C245.281 52.5601 256.684 44.0908 262.72 48.7927C269.196 53.8341 258.734 62.3589 255.388 62.5472L245.823 53.2876Z" fill="#FFC7AB"/>
<path d="M255.145 53.3051L255.408 53.1528L257.372 55.6936L257.109 55.8459L255.145 53.3051Z" fill="#22282C"/>
<path d="M235.421 57.5824C238.548 57.4686 240.994 55.1676 241.046 52.1074C241.109 48.746 238.262 45.7197 234.708 45.3642C231.152 45.0038 228.208 47.4518 228.151 50.8124C228.094 54.1729 230.935 57.2001 234.489 57.5556C234.804 57.5826 235.113 57.595 235.421 57.5824ZM234.703 45.5528L234.699 45.7414C238.034 46.0788 240.699 48.9133 240.646 52.065C240.593 54.9374 238.3 57.0901 235.369 57.2005C235.082 57.2095 234.791 57.204 234.498 57.1735C231.162 56.836 228.497 54.0015 228.55 50.8499C228.608 47.6973 231.364 45.4089 234.7 45.7463L234.703 45.5528Z" fill="#CD6622"/>
<path d="M218.963 55.434C220.332 55.3853 221.604 54.9165 222.615 54.0768C223.855 53.0502 224.551 51.5846 224.581 49.9549C224.643 46.5935 221.797 43.5672 218.243 43.2117C214.687 42.8514 211.743 45.2995 211.686 48.66C211.629 52.0206 214.47 55.0478 218.024 55.4032C218.34 55.435 218.653 55.4418 218.963 55.434ZM217.357 43.5628C217.644 43.5538 217.935 43.5593 218.228 43.5898C221.564 43.9272 224.228 46.7617 224.175 49.9134C224.148 51.4411 223.496 52.8129 222.33 53.7759C221.169 54.738 219.637 55.1805 218.026 55.0173C214.69 54.6799 212.026 51.8454 212.079 48.6937C212.133 45.8261 214.426 43.6733 217.357 43.5628Z" fill="#CD6622"/>
<path d="M227.882 50.7645C227.987 50.7659 228.073 50.693 228.076 50.5953C228.082 50.487 227.993 50.3915 227.873 50.3767L224.865 49.9979C224.745 49.9832 224.643 50.0584 224.636 50.1667C224.63 50.2751 224.72 50.3706 224.84 50.3853L227.847 50.7641C227.86 50.7676 227.871 50.766 227.882 50.7645Z" fill="#CD6622"/>
<path d="M241.099 49.5651C241.123 49.5673 241.152 49.5637 241.173 49.5558L248.472 47.0872C248.58 47.0527 248.628 46.9371 248.579 46.8336C248.529 46.7301 248.399 46.6784 248.29 46.7128L240.992 49.1815C240.883 49.2159 240.836 49.3316 240.885 49.4351C240.922 49.514 241.011 49.5656 241.099 49.5651Z" fill="#CD6622"/>
<path fill-rule="evenodd" clip-rule="evenodd" d="M192.065 92.7833C198.896 88.9032 206.323 85.9355 214.1 83.9689C220.489 82.3654 227.114 80.7 227.114 80.7C227.114 80.7 226.167 90.9761 241.413 92.1544C256.649 93.3414 262.029 82.8172 262.029 82.8172C262.029 82.8172 314.032 91.9417 312.664 119.714C311.306 147.495 303.755 213.767 303.755 213.767H176.839L183.958 147.247L171.582 155.025L148.179 117.712C148.189 117.712 176.346 101.713 192.065 92.7833Z" fill="#E27730"/>
<path fill-rule="evenodd" clip-rule="evenodd" d="M163.489 194.683L191.007 208.733L285.744 211.798L295.517 182.892L297.945 175.708L299.015 172.518L299.766 170.322L300.476 168.204L254.378 156.201L254.337 156.307L253.143 159.868V159.886L250.345 168.231L245.068 183.955L163.489 194.683Z" fill="#FFC7AB"/>
<path fill-rule="evenodd" clip-rule="evenodd" d="M262.28 98.1233L244.791 157.556L300.23 172.749L312.719 116.895L262.28 98.1233Z" fill="#E27730"/>
<path d="M300.082 173.017L300.216 172.645L250.322 158.79L258.624 130.566L258.202 130.459L249.797 159.055L300.082 173.017Z" fill="#4B3735"/>
<path fill-rule="evenodd" clip-rule="evenodd" d="M97.0139 164.655C98.2074 167.588 100.088 170.178 102.47 172.299C104.853 174.411 107.748 176.054 110.985 177.056C117.468 179.07 124.675 178.375 130.72 175.154C140.38 170.011 152.223 164.377 160.647 160.484C167.042 157.525 171.477 155.553 171.477 155.553C171.477 155.553 152.374 122.526 151.555 121.767C151.488 121.706 151.066 121.824 150.346 122.088C144.935 124.079 122.736 134.378 107.026 141.735C97.7858 146.055 93.4478 155.991 97.0139 164.655Z" fill="#FFC7AB"/>
<path d="M129.957 142.378C129.957 142.378 105.285 98.4037 106.345 93.5776C107.401 88.7641 112.792 81.2757 109.436 77.5379C106.091 73.7958 102.817 80.8207 99.344 81.2158C96.5274 81.5228 94.1165 65.2522 86.8064 60.7556C85.676 60.0655 84.1932 60.0399 83.0086 60.6881C81.8191 61.3279 81.1755 62.5261 81.3392 63.7197C82.288 69.8431 84.3613 81.4261 86.885 84.2738C90.3804 88.1839 85.2989 73.0214 82.0774 74.2887C81.4301 74.5414 71.7601 76.1149 76.4844 85.7247C76.4844 85.7247 76.691 80.3546 72.6459 81.8545C66.2091 84.2288 68.7696 89.976 72.9704 100.196C77.1813 110.413 72.6453 88.1478 68.971 89.2488C62.2743 91.2489 65.627 98.4395 72.7441 119.382C80.7471 142.927 90.6316 169.624 106.772 176.722C131.71 187.687 129.957 142.378 129.957 142.378Z" fill="#FFC7AB"/>
<path d="M87.5136 99.2964C87.602 99.2995 87.6765 99.2562 87.7221 99.1835L92.7745 90.0888C92.8305 89.9906 92.7888 89.8724 92.6766 89.8273C92.5645 89.7822 92.4407 89.8263 92.3847 89.9245L87.4293 98.8399C86.4297 98.4297 81.7969 96.5641 78.7786 95.5835C78.6712 95.5468 78.5423 95.6036 78.501 95.7059C78.4596 95.8081 78.5116 95.9218 78.619 95.9584C81.994 97.0444 87.3818 99.26 87.4306 99.2805C87.45 99.293 87.4791 99.3011 87.5136 99.2964Z" fill="#22282C"/>
<path d="M81.0853 92.0177C81.7279 92.011 82.3893 91.8603 83.0765 91.5579C87.9717 89.3757 85.9433 84.849 85.9136 84.8058C85.8679 84.7043 85.7373 84.6682 85.6332 84.7094C85.5224 84.7581 85.4672 84.8667 85.5129 84.9683C85.5148 84.9815 86.0103 86.0457 85.9191 87.3447C85.8 89.0584 84.79 90.3544 82.9009 91.2045C81.7858 91.6998 80.7342 91.7555 79.7528 91.3638C76.7174 90.1537 75.3157 85.1175 75.3083 85.0646C75.278 84.961 75.1589 84.8963 75.0462 84.9318C74.9249 84.9618 74.854 85.0725 74.8843 85.1761C74.9382 85.391 76.3506 90.4462 79.5685 91.7257C80.0438 91.9237 80.5524 92.0229 81.0853 92.0177Z" fill="#22282C"/>
<path d="M74.7369 96.9916C75.2561 96.9888 75.7765 96.8786 76.3047 96.6532C77.4815 96.1594 78.2983 95.4221 78.713 94.4624C79.5424 92.543 78.4999 90.4301 78.4657 90.336C78.4098 90.2399 78.2846 90.1954 78.1793 90.248C78.0741 90.3006 78.0226 90.4118 78.0643 90.5107C78.0725 90.528 79.075 92.5672 78.3091 94.3351C77.9391 95.1912 77.2045 95.849 76.1405 96.295C75.2598 96.6666 74.381 96.6907 73.5404 96.3667C70.5316 95.2017 68.8108 90.0197 68.7937 89.9727C68.7588 89.8661 68.6405 89.8141 68.5271 89.8494C68.4137 89.8847 68.3481 89.9988 68.3755 90.1005C68.4528 90.3185 70.1733 95.5004 73.3589 96.7309C73.8092 96.9122 74.2687 97.0032 74.7369 96.9916Z" fill="#22282C"/>
<path d="M70.3972 101.76C71.0454 101.757 71.7312 101.525 72.4267 101.084C73.7758 100.221 74.5449 99.298 74.7147 98.3497C74.8892 97.3563 74.334 96.7106 74.3109 96.6836C74.234 96.5981 74.0971 96.5942 74.0069 96.6563C73.91 96.7262 73.8951 96.8488 73.9719 96.9343C73.9794 96.9391 74.4429 97.4898 74.2945 98.3077C74.1401 99.1457 73.4374 99.9673 72.1927 100.765C71.3101 101.338 70.4694 101.506 69.6991 101.263C67.3517 100.521 66.2351 96.3176 66.2256 96.2754C66.1982 96.1736 66.0795 96.1092 65.9588 96.1397C65.838 96.1701 65.7648 96.2793 65.7921 96.381C65.8387 96.5672 66.9728 100.83 69.5328 101.637C69.818 101.712 70.1087 101.755 70.3972 101.76Z" fill="#22282C"/>
<path d="M85.9714 87.4004C85.9868 87.3983 86.0111 87.4019 86.0332 87.3921C86.1547 87.3621 86.2252 87.2513 86.1948 87.1477L80.9986 67.3145C80.9683 67.2109 80.8491 67.1462 80.7364 67.1818C80.6236 67.2173 80.5444 67.3226 80.5747 67.4263L85.771 87.2593C85.7908 87.3442 85.8771 87.3998 85.9714 87.4004Z" fill="#22282C"/>
<path opacity="0.4" fill-rule="evenodd" clip-rule="evenodd" d="M149.416 121.464L162.097 160.276C168.558 157.186 173.025 155.13 173.025 155.13C173.025 155.13 151.551 121.887 150.664 121.13C150.577 121.061 150.15 121.179 149.416 121.464Z" fill="#966954"/>
<path d="M184.752 127.858L185.188 127.892L177.073 213.786L176.637 213.753L184.752 127.858Z" fill="#4B3735"/>
<path d="M2.67767 213.771H397.445C398.649 213.771 399.635 212.885 399.635 211.802C399.635 210.72 398.649 209.834 397.445 209.834H2.67767C1.47311 209.834 0.487549 210.72 0.487549 211.802C0.487549 212.885 1.47311 213.771 2.67767 213.771Z" fill="#22282C"/>
<path fill-rule="evenodd" clip-rule="evenodd" d="M148.117 202.591H232.533C234.74 202.591 236.529 204.199 236.529 206.179C236.529 208.164 234.74 209.766 232.533 209.766H148.117V202.591Z" fill="#22282C"/>
<path fill-rule="evenodd" clip-rule="evenodd" d="M54.7965 152.082C54.3032 150.078 54.8582 147.976 56.292 146.38C57.7258 144.778 59.8919 143.853 62.1736 143.853C85.7385 143.853 146.982 143.853 166.516 143.853C170.062 143.853 173.137 146.076 173.893 149.195C176.699 160.725 183.312 187.545 186.658 201.311C187.143 203.315 186.596 205.417 185.155 207.007C183.721 208.609 181.563 209.541 179.273 209.541C155.701 209.541 94.4721 209.541 74.9388 209.541C71.3852 209.541 68.3095 207.311 67.5617 204.192C64.7558 192.662 58.1266 165.842 54.7965 152.082Z" fill="#22282C"/>
<path fill-rule="evenodd" clip-rule="evenodd" d="M48.2412 151.571C47.7632 149.566 48.3105 147.469 49.7443 145.874C51.1781 144.278 53.3365 143.349 55.6182 143.349C79.183 143.349 140.419 143.349 159.96 143.349C163.514 143.349 166.589 145.574 167.337 148.692C170.135 160.27 176.765 187.731 180.11 201.54C180.596 203.545 180.049 205.648 178.615 207.244C177.181 208.846 175.015 209.775 172.733 209.775C149.168 209.775 87.9321 209.775 68.3911 209.775C64.8452 209.775 61.7696 207.543 61.0141 204.426C58.2082 192.841 51.5789 165.381 48.2412 151.571Z" fill="#738E9E"/>
<path d="M228.795 63.5318C229.945 63.5318 230.887 63.2858 231.61 62.7937C232.694 62.0655 232.858 61.0519 232.858 61.0126C232.88 60.9043 232.792 60.8059 232.672 60.7862C232.551 60.7665 232.442 60.8453 232.42 60.9535C232.398 61.0618 231.938 63.6007 227.635 63.0496C227.514 63.0299 227.405 63.1086 227.383 63.2169C227.361 63.3251 227.448 63.4236 227.569 63.4432C227.996 63.5023 228.412 63.5318 228.795 63.5318Z" fill="#22282C"/>
<path fill-rule="evenodd" clip-rule="evenodd" d="M334.076 163.781C334.076 163.781 317.783 141.684 341.463 117.778C348.515 110.655 356.148 108.642 356.694 111.264C356.967 112.557 357.396 117.028 354.166 125.642C350.245 136.038 337.401 157.866 334.076 163.781Z" fill="#699F88"/>
<path fill-rule="evenodd" clip-rule="evenodd" d="M330.089 162.331C330.089 162.331 328.882 137.26 307.137 130.389C306.842 130.295 306.513 130.39 306.334 130.624C305.643 131.506 304.395 134.045 307.073 139.04C310.535 145.486 326.768 159.237 330.089 162.331Z" fill="#699F88"/>
<path fill-rule="evenodd" clip-rule="evenodd" d="M344.756 162.151C344.756 162.151 344.644 150.609 353.546 137.194C362.009 124.424 370.069 124.652 371.358 124.724C374.269 124.873 372.75 139.728 365.094 150.117C357.449 160.511 344.756 162.151 344.756 162.151Z" fill="#699F88"/>
<path fill-rule="evenodd" clip-rule="evenodd" d="M325.848 168.428C325.848 168.428 321.675 156.231 312.761 152.36C303.84 148.49 304.195 149.143 304.392 150.854C304.588 152.566 305.364 159.382 311.629 164.417C317.894 169.452 325.848 168.428 325.848 168.428Z" fill="#699F88"/>
<path fill-rule="evenodd" clip-rule="evenodd" d="M359.936 169.238C359.936 169.238 354.454 188.632 374.065 200.766C374.065 200.766 382.385 185.584 372.848 174.446C371.828 173.258 368.662 170.726 367.288 170.114C363.337 168.374 359.936 169.238 359.936 169.238Z" fill="#699F88"/>
<path d="M335.422 193.401C335.433 193.312 336.341 184.534 340.984 172.302C345.266 161.025 353.676 144.423 369.467 129.377L369.149 129.111C362.152 135.773 355.998 143.301 350.873 151.479C346.766 158.023 343.306 164.99 340.568 172.194C335.914 184.465 335.005 193.283 334.995 193.371L335.422 193.401Z" fill="#615F5D"/>
<path d="M374.404 195.093C374.404 195.064 374.393 192.161 372.981 187.654C371.678 183.511 368.863 177.104 362.917 170.157C360.322 167.126 357.53 165.778 354.628 166.171C351.08 166.644 347.466 169.625 343.863 175.048C341.202 179.053 339.538 182.979 339.527 183.019L339.932 183.156C339.943 183.117 341.597 179.22 344.247 175.244C346.678 171.594 350.455 167.126 354.693 166.565C357.431 166.201 360.081 167.49 362.567 170.403C368.469 177.291 371.251 183.639 372.543 187.742C373.944 192.2 373.955 195.054 373.955 195.083L374.404 195.093Z" fill="#615F5D"/>
<path d="M340.831 190.281L341.236 190.124C341.225 190.094 339.867 187.181 338.521 181.651C337.272 176.543 335.761 168.1 335.673 156.862C335.586 145.634 339.747 135.222 343.24 128.461C347.04 121.13 350.906 116.397 350.938 116.348L350.588 116.111C350.544 116.161 346.657 120.914 342.846 128.284C340.601 132.614 338.827 136.974 337.557 141.264C335.969 146.627 335.192 151.873 335.224 156.872C335.312 168.159 336.823 176.632 338.083 181.759C339.462 187.319 340.82 190.252 340.831 190.281Z" fill="#615F5D"/>
<path d="M335.421 181.287C335.432 176.091 334.03 170.354 331.249 164.223C329.026 159.322 325.916 154.165 322.017 148.901C315.381 139.926 308.647 133.647 308.581 133.579L308.264 133.854C308.329 133.913 315.042 140.182 321.656 149.117C327.755 157.364 335.016 169.635 334.983 181.277L335.421 181.287Z" fill="#615F5D"/>
<path d="M330.8 184.918C331.49 180.775 330.625 176.436 328.227 172.037C326.311 168.524 323.42 164.951 319.631 161.438C313.192 155.455 306.293 151.617 306.216 151.578L305.987 151.912C306.052 151.952 312.918 155.76 319.313 161.714C325.205 167.185 331.896 175.648 330.362 184.859L330.8 184.918Z" fill="#615F5D"/>
<path d="M320.566 172.545H353.855V211.211H320.566V172.545Z" fill="#738E9E"/>
<path d="M364.615 175.943L314.718 176.624L309.992 173.103L359.89 172.422L364.615 175.943Z" fill="#22282C"/>
<path opacity="0.4" fill-rule="evenodd" clip-rule="evenodd" d="M252.843 159.843L252.92 159.882L295.299 182.89L297.73 175.706L298.803 172.518L252.931 159.863L252.843 159.843Z" fill="#966954"/>
</g>
<defs>
<filter id="filter0_d" x="42.4258" y="5.50146" width="76.5654" height="48.8908" filterUnits="userSpaceOnUse" color-interpolation-filters="sRGB">
<feFlood flood-opacity="0" result="BackgroundImageFix"/>
<feColorMatrix in="SourceAlpha" type="matrix" values="0 0 0 0 0 0 0 0 0 0 0 0 0 0 0 0 0 0 127 0" result="hardAlpha"/>
<feOffset dy="2.04041"/>
<feComposite in2="hardAlpha" operator="out"/>
<feColorMatrix type="matrix" values="0 0 0 0 0 0 0 0 0 0 0 0 0 0 0 0 0 0 0.15 0"/>
<feBlend mode="normal" in2="BackgroundImageFix" result="effect1_dropShadow"/>
<feBlend mode="normal" in="SourceGraphic" in2="effect1_dropShadow" result="shape"/>
</filter>
<filter id="filter1_d" x="36.3418" y="0.464355" width="18.8555" height="17.8147" filterUnits="userSpaceOnUse" color-interpolation-filters="sRGB">
<feFlood flood-opacity="0" result="BackgroundImageFix"/>
<feColorMatrix in="SourceAlpha" type="matrix" values="0 0 0 0 0 0 0 0 0 0 0 0 0 0 0 0 0 0 127 0" result="hardAlpha"/>
<feOffset dy="0.816164"/>
<feComposite in2="hardAlpha" operator="out"/>
<feColorMatrix type="matrix" values="0 0 0 0 0 0 0 0 0 0 0 0 0 0 0 0 0 0 0.15 0"/>
<feBlend mode="normal" in2="BackgroundImageFix" result="effect1_dropShadow"/>
<feBlend mode="normal" in="SourceGraphic" in2="effect1_dropShadow" result="shape"/>
</filter>
<clipPath id="clip0">
<rect width="400" height="214" fill="white" transform="matrix(-1 0 0 1 400 0)"/>
</clipPath>
</defs>
</svg>
