<svg width="24" height="24" viewBox="0 0 24 24" fill="none" xmlns="http://www.w3.org/2000/svg">
<path d="M4.8433 11.25C4.4058 11.25 4.06205 10.875 4.12455 10.4375C4.3433 9.40629 4.74955 8.43754 5.31205 7.59379C5.56205 7.21879 6.0933 7.18754 6.4058 7.50004C6.68705 7.78129 6.68705 8.21879 6.49955 8.53129C6.0933 9.15629 5.81205 9.84379 5.62455 10.5938C5.56205 10.9688 5.24955 11.25 4.8433 11.25ZM8.49955 6.53129C8.18705 6.71879 7.74955 6.71879 7.4683 6.43754C7.1558 6.12504 7.18705 5.59379 7.56205 5.34379C8.4058 4.78129 9.37455 4.37504 10.4058 4.15629C10.8433 4.09379 11.2495 4.43754 11.2495 4.87504C11.2495 5.28129 10.937 5.59379 10.562 5.65629C9.81205 5.84379 9.12455 6.12504 8.49955 6.53129ZM12.7495 19.1563C12.7495 18.75 13.0308 18.4375 13.4058 18.375C14.1558 18.1875 14.8433 17.9063 15.4683 17.5C15.7808 17.3125 16.2183 17.3125 16.4995 17.5938C16.812 17.9063 16.7808 18.4375 16.4058 18.6875C15.562 19.25 14.5933 19.6563 13.562 19.875C13.1245 19.9375 12.7495 19.5938 12.7495 19.1563ZM17.4683 15.5C17.8745 14.875 18.1558 14.1875 18.3433 13.4375C18.4058 13.0625 18.7183 12.75 19.1245 12.75C19.562 12.75 19.9058 13.1563 19.8433 13.5938C19.6245 14.625 19.2183 15.5938 18.6558 16.4375C18.4058 16.8125 17.8745 16.8438 17.562 16.5313C17.2808 16.25 17.2808 15.8125 17.4683 15.5ZM7.4683 17.5938C7.74955 17.3125 8.18705 17.2813 8.49955 17.5C9.12455 17.9063 9.81205 18.1875 10.562 18.3438C10.937 18.4375 11.2495 18.75 11.2495 19.1563C11.2495 19.5938 10.8433 19.9375 10.4058 19.8438C9.37455 19.6563 8.4058 19.25 7.56205 18.6563C7.18705 18.4375 7.1558 17.9063 7.4683 17.5938ZM5.31205 16.4375C4.74955 15.5938 4.3433 14.625 4.1558 13.5938C4.06205 13.1563 4.4058 12.75 4.8433 12.75C5.24955 12.75 5.56205 13.0625 5.6558 13.4375C5.81205 14.1875 6.0933 14.875 6.49955 15.5C6.7183 15.8125 6.68705 16.25 6.4058 16.5313C6.0933 16.8438 5.56205 16.8125 5.31205 16.4375ZM16.4995 6.43754C16.2183 6.71879 15.7808 6.71879 15.4683 6.53129C14.8433 6.12504 14.1558 5.84379 13.4058 5.65629C13.0308 5.59379 12.7495 5.28129 12.7495 4.87504C12.7495 4.43754 13.1245 4.09379 13.562 4.15629C14.5933 4.37504 15.562 4.78129 16.4058 5.34379C16.7808 5.59379 16.812 6.12504 16.4995 6.43754ZM17.4683 8.53129C17.2808 8.18754 17.2808 7.78129 17.562 7.50004C17.8745 7.18754 18.4058 7.21879 18.6558 7.56254C19.2183 8.43754 19.6245 9.40629 19.8433 10.4375C19.9058 10.875 19.562 11.25 19.1245 11.25C18.7183 11.25 18.4058 10.9688 18.3433 10.5938C18.1558 9.84379 17.8745 9.15629 17.4683 8.53129Z" fill="#EAB308"/>
</svg>
