<svg width="254" height="76" viewBox="0 0 254 76" fill="none" xmlns="http://www.w3.org/2000/svg">
<path fill-rule="evenodd" clip-rule="evenodd" d="M28.7871 10.2799C26.2948 11.5744 24.1119 13.3923 22.3877 15.6091C20.6635 17.8259 19.4389 20.3892 18.7976 23.1234C14.0938 27.021 10.7067 32.2746 9.0982 38.1678C7.48971 44.061 7.73817 50.3069 9.80969 56.0537C11.8812 61.8005 15.6749 66.7685 20.6735 70.2801C25.6721 73.7917 31.6322 75.676 37.7409 75.676C43.8497 75.676 49.8098 73.7917 54.8084 70.2801C59.8069 66.7685 63.6007 61.8005 65.6722 56.0537C67.7437 50.3069 67.9922 44.061 66.3837 38.1678C64.7752 32.2746 61.3881 27.021 56.6842 23.1234C55.9661 20.0562 54.5141 17.2091 52.4529 14.8268C50.3918 12.4445 47.7831 10.5981 44.851 9.44635C44.7499 8.69935 44.4539 7.99214 43.9928 7.3958C43.5317 6.79947 42.9217 6.33503 42.2242 6.04919C42.1614 4.73348 41.6562 3.47751 40.7905 2.48477C39.9247 1.49204 38.7491 0.820711 37.4542 0.579553C36.1592 0.338395 34.8208 0.541539 33.6557 1.15607C32.4907 1.7706 31.5672 2.76052 31.035 3.96543C30.0584 5.98228 29.3047 8.0996 28.7871 10.2799Z" fill="#395360"/>
<path d="M30.4794 32.8351H45.634V50.5155H30.4794V32.8351Z" fill="#FBAA6F"/>
<path fill-rule="evenodd" clip-rule="evenodd" d="M40.4183 41.9026L40.2668 41.8015C39.8816 41.5219 39.6233 41.1006 39.5487 40.6305C39.4741 40.1604 39.5893 39.6799 39.869 39.2947C40.1487 38.9095 40.5699 38.6512 41.04 38.5766C41.5101 38.502 41.9906 38.6172 42.3758 38.8969C42.0634 38.955 41.7659 39.0755 41.5012 39.2513C41.2364 39.4271 41.0099 39.6544 40.8351 39.9198C40.6213 40.1979 40.4728 40.5204 40.4006 40.8637C40.3285 41.2069 40.3345 41.562 40.4183 41.9026ZM34.7606 41.9026C34.8328 41.5623 34.8259 41.2101 34.7405 40.8729C34.6551 40.5357 34.4935 40.2226 34.2681 39.9577C34.0897 39.6929 33.8606 39.4661 33.594 39.2905C33.3273 39.1149 33.0285 38.994 32.7147 38.9348C33.0999 38.6551 33.5804 38.5399 34.0505 38.6145C34.5207 38.6891 34.9419 38.9474 35.2216 39.3326C35.5012 39.7178 35.6164 40.1983 35.5418 40.6684C35.4672 41.1385 35.2089 41.5598 34.8238 41.8394C34.804 41.8618 34.7829 41.8829 34.7606 41.9026ZM43.8786 37.8866H44.548L43.1967 43.9737L40.4941 52.0941H35.0763L31.0225 45.325L32.3737 41.2711C33.725 43.0771 34.6343 44.201 35.0763 44.6557C35.7583 45.325 38.4609 45.325 39.8122 43.9737C41.3889 42.1015 42.7527 40.06 43.8786 37.8866Z" fill="#DC7F3C"/>
<path fill-rule="evenodd" clip-rule="evenodd" d="M20.0479 36.6237H26.6907V25.2577H21.5634C21.9538 22.5264 23.0263 19.9374 24.6817 17.7302C26.3372 15.5229 28.5223 13.7684 31.0351 12.6288C31.9949 8.41922 33.1357 5.57772 34.4575 4.10435L34.6848 3.88966L34.8237 3.76337C35.2176 3.44792 35.6884 3.24305 36.1876 3.16982C36.7754 3.07695 37.3774 3.16523 37.9138 3.42292C38.4501 3.68061 38.8952 4.09548 39.19 4.61236C39.4848 5.12923 39.6152 5.7236 39.5639 6.31641C39.5126 6.90921 39.282 7.47235 38.9028 7.9309H38.8271C38.7169 8.06861 38.5896 8.19169 38.4482 8.29714C37.8523 8.91965 37.2995 9.5821 36.7938 10.2799C37.8009 9.23104 39.1392 8.56193 40.5825 8.38554C40.8727 8.38346 41.1589 8.45286 41.416 8.5876C41.7977 8.80527 42.0789 9.16385 42.1993 9.58645C42.3197 10.009 42.2697 10.462 42.0601 10.8482C41.8912 11.1601 41.6252 11.4084 41.3023 11.5554C44.6077 12.2701 47.6117 13.9881 49.9037 16.4746C52.1958 18.961 53.6641 22.0947 54.108 25.4471L54.2595 26.5458H49.4227V36.6489H55.5224L57.783 53.6095C52.4536 56.9183 45.7814 58.5727 37.7662 58.5727C29.7511 58.5727 23.1126 56.9141 17.8505 53.5969L20.0479 36.6237ZM39.1554 48.4822C42.4137 43.1023 44.0428 39.8988 44.0428 38.8716C44.0428 36.0554 39.9384 33.7443 37.8925 33.7443C35.8467 33.7443 31.7423 36.0428 31.7423 38.8716C31.7423 39.8988 33.3461 43.1065 36.5539 48.4948C36.6975 48.7186 36.8958 48.9021 37.13 49.028C37.3642 49.154 37.6266 49.2182 37.8925 49.2147C38.1482 49.2272 38.4022 49.1675 38.6255 49.0424C38.8489 48.9173 39.0325 48.732 39.1554 48.5075V48.4822Z" fill="#BDCFC8"/>
<path fill-rule="evenodd" clip-rule="evenodd" d="M58.0229 61.6542C55.6725 64.8128 52.6162 67.3781 49.098 69.1455C45.5798 70.9129 41.6971 71.8333 37.7599 71.8333C33.8227 71.8333 29.9401 70.9129 26.4219 69.1455C22.9037 67.3781 19.8473 64.8128 17.4969 61.6542L18.5577 53.9379C18.9595 54.0979 19.3882 54.1793 19.8206 54.1779C20.6828 54.1804 21.5168 53.8712 22.169 53.3073C22.8211 52.7433 23.2475 51.9626 23.3693 51.1091V52.6498C23.3693 53.601 23.7472 54.5133 24.4198 55.1859C25.0924 55.8585 26.0047 56.2364 26.9559 56.2364C27.9071 56.2364 28.8194 55.8585 29.492 55.1859C30.1646 54.5133 30.5425 53.601 30.5425 52.6498V54.6957C30.5968 55.6117 30.999 56.4725 31.6669 57.1019C32.3347 57.7313 33.2177 58.0818 34.1354 58.0818C35.0531 58.0818 35.9361 57.7313 36.604 57.1019C37.2718 56.4725 37.674 55.6117 37.7283 54.6957C37.7283 55.6469 38.1062 56.5592 38.7788 57.2318C39.4514 57.9044 40.3637 58.2823 41.3149 58.2823C42.2662 58.2823 43.1784 57.9044 43.851 57.2318C44.5237 56.5592 44.9015 55.6469 44.9015 54.6957V52.7129C44.9015 53.1839 44.9943 53.6503 45.1745 54.0855C45.3548 54.5206 45.619 54.916 45.952 55.249C46.2851 55.5821 46.6805 55.8463 47.1156 56.0265C47.5507 56.2068 48.0171 56.2995 48.4881 56.2995C48.9591 56.2995 49.4255 56.2068 49.8607 56.0265C50.2958 55.8463 50.6912 55.5821 51.0242 55.249C51.3573 54.916 51.6215 54.5206 51.8017 54.0855C51.982 53.6503 52.0747 53.1839 52.0747 52.7129V51.1722C52.1873 52.0558 52.6246 52.866 53.3016 53.4449C53.9785 54.0238 54.8467 54.3301 55.7371 54.3042C56.1682 54.3041 56.5959 54.2271 57 54.0769L58.0229 61.6542Z" fill="#809EB0"/>
<path fill-rule="evenodd" clip-rule="evenodd" d="M18.2294 56.3879L18.5577 54.001C18.9595 54.161 19.3882 54.2424 19.8206 54.241C20.6828 54.2436 21.5168 53.9344 22.169 53.3704C22.8212 52.8064 23.2475 52.0257 23.3693 51.1722V52.7129C23.3693 53.6641 23.7472 54.5764 24.4198 55.249C25.0924 55.9216 26.0047 56.2995 26.9559 56.2995C27.9071 56.2995 28.8194 55.9216 29.492 55.249C30.1646 54.5764 30.5425 53.6641 30.5425 52.7129V54.7588C30.5968 55.6749 30.9991 56.5356 31.6669 57.165C32.3347 57.7944 33.2177 58.1449 34.1354 58.1449C35.0531 58.1449 35.9361 57.7944 36.604 57.165C37.2718 56.5356 37.674 55.6749 37.7283 54.7588C37.7283 55.71 38.1062 56.6223 38.7788 57.2949C39.4514 57.9675 40.3637 58.3454 41.3149 58.3454C42.2662 58.3454 43.1784 57.9675 43.851 57.2949C44.5237 56.6223 44.9015 55.71 44.9015 54.7588V52.7129C44.9015 53.6641 45.2794 54.5764 45.952 55.249C46.6246 55.9216 47.5369 56.2995 48.4881 56.2995C49.4394 56.2995 50.3516 55.9216 51.0242 55.249C51.6969 54.5764 52.0747 53.6641 52.0747 52.7129V51.1722C52.1873 52.0558 52.6246 52.8659 53.3016 53.4449C53.9785 54.0238 54.8467 54.3301 55.7371 54.3041C56.1682 54.3041 56.5959 54.2271 57 54.0768L57.3157 56.4637C56.8075 56.712 56.2479 56.837 55.6824 56.8287C55.1168 56.8203 54.5612 56.6788 54.0605 56.4156C53.5599 56.1523 53.1283 55.7748 52.8009 55.3136C52.4734 54.8524 52.2593 54.3205 52.1758 53.7611V55.3018C52.1758 56.253 51.7979 57.1653 51.1253 57.8379C50.4527 58.5105 49.5404 58.8884 48.5892 58.8884C47.6379 58.8884 46.7257 58.5105 46.0531 57.8379C45.3804 57.1653 45.0026 56.253 45.0026 55.3018V57.3477C45.0026 58.2989 44.6247 59.2112 43.9521 59.8838C43.2795 60.5564 42.3672 60.9343 41.416 60.9343C40.4647 60.9343 39.5525 60.5564 38.8799 59.8838C38.2072 59.2112 37.8294 58.2989 37.8294 57.3477C37.775 58.2638 37.3728 59.1245 36.705 59.7539C36.0372 60.3833 35.1541 60.7338 34.2365 60.7338C33.3188 60.7338 32.4357 60.3833 31.7679 59.7539C31.1001 59.1245 30.6979 58.2638 30.6435 57.3477V55.2387C30.6435 56.1899 30.2657 57.1022 29.5931 57.7748C28.9204 58.4474 28.0082 58.8253 27.0569 58.8253C26.1057 58.8253 25.1935 58.4474 24.5208 57.7748C23.8482 57.1022 23.4703 56.1899 23.4703 55.2387V53.698C23.3611 54.5761 22.93 55.3825 22.2605 55.961C21.5909 56.5396 20.7305 56.8492 19.8459 56.8299C19.2851 56.829 18.7321 56.6994 18.2294 56.451V56.3879Z" fill="#738E9E"/>
<path fill-rule="evenodd" clip-rule="evenodd" d="M55.4593 28.2761C54.1964 24.6516 51.6706 22.3531 49.4984 22.5805C46.7201 22.8709 46.0381 27.3289 46.6064 32.6836C47.1747 38.0382 48.7533 42.231 51.5317 41.9405C54.31 41.65 56.5832 37.0279 56.1791 31.8374C56.0781 33.3908 55.5224 34.7168 54.4237 34.8052C53.0093 34.9315 52.6051 33.3024 52.4157 31.2439C52.2263 29.1854 52.2389 27.4552 53.6786 27.3542C54.0317 27.3273 54.3854 27.3994 54.6999 27.5622C55.0144 27.725 55.2773 27.9722 55.4593 28.2761Z" fill="#86A196"/>
<path fill-rule="evenodd" clip-rule="evenodd" d="M54.4742 27.4678C53.6786 25.9397 52.5799 25.0052 51.4559 25.1315C49.549 25.3209 49.0943 28.3771 49.4732 32.0395C49.8521 35.7019 50.9508 38.5812 52.8451 38.3539C54.2469 38.2024 55.2825 36.4596 55.5729 34.0854C55.456 34.2858 55.2931 34.4556 55.0977 34.5807C54.9023 34.7059 54.6799 34.7828 54.449 34.8052C53.0345 34.9315 52.6304 33.3024 52.441 31.2439C52.2516 29.1854 52.2642 27.4552 53.7039 27.3542C53.9656 27.3421 54.2272 27.3807 54.4742 27.4678Z" fill="white"/>
<path fill-rule="evenodd" clip-rule="evenodd" d="M19.8711 28.2761C21.134 24.6516 23.6598 22.3531 25.832 22.5805C28.6103 22.8709 29.2923 27.3289 28.724 32.6836C28.1557 38.0382 26.5771 42.231 23.7987 41.9405C21.0204 41.65 18.7472 37.0279 19.1513 31.8374C19.2523 33.3908 19.7954 34.7168 20.9067 34.8052C22.3211 34.9315 22.7253 33.3024 22.9021 31.2439C23.0789 29.1854 23.0915 27.4552 21.6392 27.3542C21.2844 27.3199 20.9272 27.3858 20.608 27.5443C20.2888 27.7028 20.0204 27.9475 19.8332 28.2508L19.8711 28.2761Z" fill="#86A196"/>
<path fill-rule="evenodd" clip-rule="evenodd" d="M20.8436 27.4678C21.6392 25.9397 22.7505 25.0052 23.8745 25.1315C25.7688 25.3209 26.2361 28.3771 25.8446 32.0395C25.4531 35.7019 24.3797 38.5812 22.4727 38.3539C21.0709 38.2024 20.0353 36.4596 19.7449 34.0854C19.8646 34.2861 20.0299 34.4558 20.2273 34.5808C20.4248 34.7059 20.6488 34.7828 20.8815 34.8052C22.2833 34.9315 22.7 33.3024 22.8768 31.2439C23.0536 29.1854 23.0536 27.4552 21.6139 27.3542C21.3413 27.3313 21.0669 27.3613 20.8057 27.4426L20.8436 27.4678Z" fill="white"/>
<path fill-rule="evenodd" clip-rule="evenodd" d="M31.7423 36.1564C31.7235 35.8663 31.7235 35.5752 31.7423 35.285C31.7423 32.1657 33.2704 28.617 37.8926 28.617C42.5147 28.617 44.0428 32.1657 44.0428 35.285C44.0367 35.7109 43.9816 36.1346 43.8786 36.5479C42.8683 34.843 40.974 33.7948 37.8168 33.7948C34.8237 33.8327 32.8789 34.7041 31.7423 36.1564Z" fill="#F4F8FF"/>
<path fill-rule="evenodd" clip-rule="evenodd" d="M41.2392 11.5681L37.2232 11.366L42.1864 9.90105C42.2138 10.2419 42.1382 10.583 41.9693 10.8803C41.8004 11.1776 41.546 11.4172 41.2392 11.5681ZM36.7938 10.2799L35.1268 11.5428C36.1634 10.0895 37.012 8.51103 37.6526 6.84487C38.0187 5.76086 38.1563 4.61278 38.0567 3.47296C38.5573 3.74998 38.9675 4.1652 39.2385 4.66906C39.5095 5.17292 39.6297 5.74412 39.5848 6.31446C39.5068 7.04278 39.1708 7.71917 38.6377 8.22142C37.9738 8.86178 37.3575 9.54978 36.7938 10.2799Z" fill="#86A196"/>
<path d="M103.938 40.4725C102.062 38.7225 101 36.2225 101 33.5975V33.285C101 28.91 104.125 25.16 108.438 24.4725C111.312 23.9725 114.188 24.91 116.25 26.91L117 27.66L117.75 26.91C119.75 24.91 122.688 23.9725 125.5 24.4725C129.812 25.16 133 28.91 133 33.285V33.5975C133 36.2225 131.875 38.7225 130 40.4725L118.688 51.035C118.25 51.4725 117.625 51.66 117 51.66C116.312 51.66 115.688 51.4725 115.25 51.035L103.938 40.4725Z" fill="#D63638"/>
<g clip-path="url(#clip0_1_1599)">
<path d="M192.484 10.1451C192.484 8.70188 191.334 7.54028 189.891 7.49335H174.697C173.746 7.49335 172.866 8.00961 172.409 8.83095L160.394 30.1621C159.408 31.9104 160.675 34.0811 162.682 34.0811H177.853C178.803 34.0693 179.671 33.5531 180.141 32.7317L192.109 11.5179C192.109 11.5179 192.109 11.5179 192.097 11.5179C192.343 11.1189 192.484 10.6496 192.484 10.1451Z" fill="#0065FF"/>
<path d="M245.566 37.8123C245.566 37.3195 245.425 36.8619 245.19 36.4747L230.97 11.2245L220.351 30.0096L224.059 36.5803C224.27 36.9558 224.375 37.3899 224.375 37.8592C224.375 38.2816 224.258 38.6805 224.082 39.0325L210.073 63.9072C209.756 64.3414 209.568 64.8694 209.568 65.456C209.568 66.911 210.741 68.096 212.196 68.1195H227.344C228.294 68.1195 229.174 67.6032 229.632 66.7819L245.308 38.9621C245.308 38.9621 245.296 38.9504 245.284 38.9504C245.449 38.5984 245.554 38.2229 245.554 37.8123H245.566Z" fill="#0065FF"/>
<path d="M230.97 11.2245L228.869 7.49335L218.521 25.6917L218.227 26.208L215.927 30.256C216.385 29.4581 217.242 28.9301 218.227 28.9301C219.107 28.9301 219.893 29.3643 220.374 30.0213L230.97 11.2245Z" fill="#004CBA"/>
<path d="M209.345 7.49335C209.31 7.49335 209.286 7.49335 209.251 7.49335C208.207 7.49335 207.303 8.10348 206.881 8.98348L186.265 45.4155C185.808 46.2251 184.928 46.7883 183.931 46.7883C182.933 46.7883 182.006 46.2016 181.56 45.3568L178.064 39.1616C177.595 38.3285 176.715 37.824 175.764 37.824L160.628 37.8709C158.622 37.8709 157.355 40.0416 158.34 41.7899L172.432 66.7936C172.901 67.6149 173.769 68.1312 174.72 68.1312H192.742C192.766 68.1312 192.789 68.1312 192.813 68.1312C193.822 68.1312 194.678 67.568 195.136 66.7349L208.066 44.0309L215.904 30.256L218.204 26.208L218.497 25.6917L228.857 7.49335H209.345Z" fill="#0065FF"/>
</g>
<defs>
<clipPath id="clip0_1_1599">
<rect width="88" height="61.0133" fill="white" transform="translate(158 7.49335)"/>
</clipPath>
</defs>
</svg>
