<svg width="338" height="259" viewBox="0 0 338 259" fill="none" xmlns="http://www.w3.org/2000/svg">
<g clip-path="url(#clip0_94_1656)">
<circle cx="338" cy="293" r="230" fill="#DAE5EC" fill-opacity="0.1"/>
<g filter="url(#filter0_d_94_1656)">
<rect x="52.5763" y="145.346" width="73.2471" height="73.2471" rx="19.1082" transform="rotate(-105 52.5763 145.346)" fill="white"/>
<mask id="mask0_94_1656" style="mask-type:alpha" maskUnits="userSpaceOnUse" x="53" y="75" width="51" height="51">
<path d="M70.8884 76.6296C70.9943 75.4873 72.4743 75.1086 73.1157 76.0595L74.9078 78.7151C77.5847 82.6821 81.1151 86.0001 85.2404 88.4261C89.3658 90.852 93.9815 92.3243 98.7496 92.7353L102.317 93.0426C103.452 93.1405 103.846 94.6024 102.914 95.2575L99.9744 97.3237C96.1611 100.004 92.9775 103.482 90.6451 107.518C88.3126 111.553 86.8873 116.048 86.4683 120.69L86.1237 124.506C86.0218 125.636 84.5693 126.028 83.9128 125.103L81.6197 121.873C78.9376 118.095 75.4691 114.942 71.4527 112.632C67.4363 110.322 62.9672 108.91 58.3528 108.491L54.7082 108.161C53.5792 108.059 53.1873 106.607 54.1113 105.95L57.157 103.786C60.9235 101.11 64.0676 97.6521 66.3742 93.6487C68.6808 89.6452 70.0955 85.1908 70.5216 80.5901L70.8884 76.6296Z" fill="#3186FF"/>
</mask>
<g mask="url(#mask0_94_1656)">
<g filter="url(#filter1_f_94_1656)">
<path d="M88.2404 126.702C106.473 121.816 118.041 105.865 114.078 91.0743C110.115 76.2834 92.1212 68.2535 73.8883 73.1389C55.6555 78.0244 44.0877 93.9753 48.0509 108.766C52.0141 123.557 70.0076 131.587 88.2404 126.702Z" fill="#3689FF"/>
</g>
<g filter="url(#filter2_f_94_1656)">
<path d="M62.2305 116.88C68.6027 115.173 72.3034 108.322 70.4963 101.577C68.6891 94.833 62.0585 90.7498 55.6863 92.4573C49.3141 94.1647 45.6134 101.016 47.4205 107.76C49.2277 114.505 55.8583 118.588 62.2305 116.88Z" fill="#F6C013"/>
</g>
<g filter="url(#filter3_f_94_1656)">
<path d="M60.1431 118.523C66.5153 116.816 70.216 109.964 68.4089 103.22C66.6017 96.4756 59.9711 92.3924 53.5989 94.0998C47.2267 95.8073 43.526 102.659 45.3331 109.403C47.1403 116.147 53.7709 120.23 60.1431 118.523Z" fill="#F6C013"/>
</g>
<g filter="url(#filter4_f_94_1656)">
<path d="M80.0352 75.192C79.5791 88.3123 63.98 101.849 56.7674 103.903L68.1608 64.5633L80.0352 75.192Z" fill="#FA4340"/>
</g>
<g filter="url(#filter5_f_94_1656)">
<path d="M78.4073 71.4762C77.9512 84.5965 62.3521 98.1337 55.1395 100.187L66.5328 60.8475L78.4073 71.4762Z" fill="#FA4340"/>
</g>
<g filter="url(#filter6_f_94_1656)">
<path d="M92.2599 120.479C85.3048 109.344 65.027 105.42 57.7542 107.249L87.2907 135.621L92.2599 120.479Z" fill="#14BB69"/>
</g>
<g filter="url(#filter7_f_94_1656)">
<path d="M94.4469 127.295C87.4918 116.161 67.214 112.237 59.9412 114.065L89.4777 142.437L94.4469 127.295Z" fill="#14BB69"/>
</g>
</g>
</g>
<g filter="url(#filter8_d_94_1656)">
<rect x="37.0707" y="244" width="73.4789" height="73.4789" rx="19.1082" transform="rotate(-105 37.0707 244)" fill="white"/>
<path d="M50.1414 211.526L58.5217 203.348L58.5575 202.822L58.3211 202.599L57.8387 202.729L56.1612 203.069L50.4843 204.427L45.5426 205.533L40.7397 206.548L39.4784 206.614L37.9668 205.441L37.8838 204.674L38.7063 203.733L40.1748 203.475L43.4061 202.841L48.2548 201.895L51.762 201.173L57.0206 200.335L57.833 200.118L57.8588 199.757L57.5251 199.629L57.2549 199.484L51.4351 197.465L45.158 195.364L41.8211 194.082L40.0349 193.458L39.0148 192.698L38.1201 190.679L39.0863 188.801L40.961 188.435L41.4647 188.436L43.7151 189.37L48.5275 191.387L54.7593 193.826L55.691 194.256L55.9379 193.959L55.9351 193.796L55.4393 193.317L51.2378 188.96L46.822 184.565L44.8982 182.767L44.1959 181.568C43.9261 181.069 43.7182 180.648 43.5719 180.102L44.5652 177.564L45.3536 177.053L47.5103 176.775L48.5902 177.302L50.6776 179.913L54.0204 184.01L58.9673 189.474L60.4228 191.097L61.3965 192.7L61.7298 193.182L62.0599 193.094L61.9782 192.789L61.289 189.151L60.6106 184.639L59.5828 178.873L59.3226 177.242L59.5995 175.127L60.8853 173.681L62.2604 173.938L63.6476 175.104L63.7563 176.068L64.1971 180.1L64.6551 186.48L64.9819 190.746L65.4262 190.627L65.7979 189.984L67.123 186.703L69.4193 181.462L70.4834 179.34L71.7538 176.973L72.6548 175.765L74.8128 175.187L77.0322 177.123L76.9744 179.751L75.508 183.164L74.3068 186.044L72.6188 190.306L71.7305 193.591L71.9441 193.779L72.3274 193.635L77.9535 190.767L81.0213 189.319L84.6907 187.629L86.6475 187.975L87.059 188.749L86.8259 190.621L82.9851 192.739L78.4199 194.996L71.6908 198.622L71.619 198.71L71.7545 198.809L75.0732 198.247L76.4772 197.952L79.8665 197.044L86.3013 195.823L88.2441 196.473L89.5914 197.54L89.6985 198.6L87.5066 200.575L83.8615 200.681L75.354 200.92L72.4284 200.969L72.0476 201.071L72.1088 201.299L74.9924 202.921L80.1951 205.582L86.7438 209.051L87.3335 210.186L86.9159 211.318L86.1778 211.407L80.6413 209.176L78.4457 208.091L73.5135 205.78L73.247 205.852L73.3422 206.207L74.6328 207.317L81.5055 213.367L82.3648 215.558L82.2067 216.39L81.0563 217.174L79.5919 217.294L75.6449 214.039L71.4728 210.3L67.9979 206.877L67.7502 207.12L70.4058 222.667L69.9532 223.619L68.5863 224.611L67.0584 223.986L65.9673 222.605L65.8135 219.34L65.5477 215.098L65.3507 211.723L64.8827 207.589L64.8843 206.174L64.8352 206.092L64.5534 206.208L62.6596 211.124L59.7521 218.502L57.181 223.327L56.4097 223.901L54.7043 223.528L54.4732 222.107L54.981 220.651L58.2691 212.967L60.2232 208.226L61.5565 205.433L61.4554 205.106L61.3412 205.137L50.3947 217.295L48.1152 218.232L46.8446 217.552L46.5532 215.957L46.8995 215.32L50.1507 211.51L50.1414 211.526Z" fill="#D97757"/>
</g>
<g filter="url(#filter9_d_94_1656)">
<rect x="141.269" y="119.709" width="73.2471" height="73.2471" rx="19.1082" transform="rotate(-105 141.269 119.709)" fill="white"/>
<g clip-path="url(#clip1_94_1656)">
<path d="M160.668 54.4914L146.338 68.8162C146.148 69.0062 146.011 69.2429 145.942 69.5024C145.872 69.762 145.871 70.0353 145.941 70.295L151.227 90.026C151.369 90.555 151.785 90.9635 152.31 91.1043L171.879 96.3515C172.188 96.4339 172.513 96.4337 172.822 96.3509C173.131 96.2682 173.413 96.1057 173.639 95.8799L187.965 81.5508C188.154 81.3612 188.291 81.1252 188.361 80.8663C188.431 80.6074 188.432 80.3348 188.363 80.0755L183.076 60.3445C183.006 60.085 182.869 59.8485 182.679 59.6586C182.489 59.4688 182.252 59.3322 181.993 59.2626L162.421 54.0217C162.113 53.9417 161.789 53.943 161.481 54.0255C161.173 54.108 160.892 54.2688 160.665 54.4924M148.001 69.6182L180.715 60.8524C181.179 60.7281 181.609 61.1553 181.483 61.6203L172.719 94.3346C172.66 94.5526 172.345 94.5557 172.286 94.337L167.314 75.7789C167.265 75.5966 167.168 75.4304 167.035 75.297C166.901 75.1636 166.735 75.0677 166.552 75.0188L148.002 70.0526C147.78 69.993 147.781 69.6772 148.001 69.6182Z" fill="black"/>
</g>
</g>
<g filter="url(#filter10_d_94_1656)">
<rect x="125.498" y="219.85" width="73.4789" height="73.4789" rx="19.1082" transform="rotate(-105 125.498 219.85)" fill="white"/>
<path d="M147.856 168.763L162.621 172.626C162.668 172.629 162.708 172.663 162.72 172.706L166.542 186.969C167.366 186.703 168.172 186.426 168.957 186.185C170.473 185.43 171.811 184.365 172.882 183.061C173.952 181.757 174.73 180.244 175.163 178.624C176.545 173.635 174.513 168.357 170.136 165.567C169.081 165.088 168.025 164.609 167.007 164.15C166.923 164.127 166.789 164.087 166.691 164.067L156.425 161.376C156.16 161.306 155.88 161.306 155.615 161.377C155.349 161.448 155.106 161.588 154.912 161.782L147.874 168.774L147.856 168.763ZM164.666 170.92L151.744 167.539L155.03 164.296C155.065 164.256 155.109 164.244 155.156 164.247L165.853 167.05C170.621 168.303 173.432 173.143 172.13 177.851C171.584 179.849 170.347 181.599 168.636 182.796L165.748 172.017C165.607 171.491 165.185 171.07 164.652 170.923L164.666 170.92Z" fill="black"/>
<path d="M155.156 168.736L159.07 183.331C159.091 183.372 159.08 183.424 159.049 183.456L148.442 193.941C149.083 194.512 149.725 195.062 150.323 195.613C151.734 196.529 153.328 197.136 155 197.393C156.671 197.65 158.381 197.551 160.015 197.102C165.068 195.762 168.687 191.353 168.968 186.195C168.866 185.049 168.764 183.903 168.663 182.799C168.642 182.716 168.611 182.58 168.579 182.487L165.862 172.337C165.794 172.074 165.655 171.834 165.461 171.643C165.268 171.451 165.025 171.314 164.759 171.246L155.156 168.756L155.156 168.736ZM161.575 184.218L158.15 171.445L162.615 172.618C162.668 172.629 162.7 172.66 162.72 172.701L165.552 183.278C166.812 187.994 163.96 192.848 159.192 194.114C157.172 194.657 155.028 194.484 153.134 193.624L161.149 185.699C161.54 185.313 161.7 184.739 161.565 184.208L161.575 184.218Z" fill="black"/>
<path d="M158.788 174.972L147.937 185.704C147.911 185.743 147.86 185.76 147.817 185.749L133.389 181.971C133.206 182.809 133.041 183.636 132.855 184.427C132.749 186.098 133.005 187.77 133.606 189.331C134.207 190.892 135.139 192.305 136.34 193.478C140.011 197.126 145.662 197.995 150.32 195.626C151.274 194.96 152.227 194.294 153.144 193.648C153.207 193.588 153.31 193.493 153.377 193.419L160.925 185.959C161.122 185.768 161.263 185.528 161.335 185.265C161.407 185.002 161.407 184.726 161.335 184.464L158.77 174.982L158.788 174.972ZM148.398 188.298L157.895 178.906L159.074 183.322C159.091 183.372 159.079 183.415 159.053 183.454L151.187 191.227C147.678 194.69 142.016 194.704 138.551 191.262C137.077 189.807 136.169 187.884 135.986 185.827L146.889 188.682C147.422 188.821 148.003 188.668 148.402 188.284L148.398 188.298Z" fill="black"/>
<path d="M155.121 181.235L140.355 177.373C140.308 177.37 140.268 177.335 140.257 177.292L136.435 163.029C135.61 163.296 134.804 163.573 134.019 163.814C132.503 164.568 131.165 165.633 130.095 166.937C129.025 168.241 128.247 169.754 127.813 171.375C126.432 176.363 128.464 181.641 132.841 184.431C133.896 184.91 134.951 185.39 135.97 185.848C136.053 185.872 136.187 185.912 136.285 185.932L146.551 188.622C146.816 188.693 147.096 188.693 147.362 188.622C147.628 188.55 147.87 188.411 148.064 188.217L155.102 181.225L155.121 181.235ZM138.31 179.079L151.232 182.46L147.947 185.703C147.911 185.743 147.868 185.754 147.821 185.752L137.123 182.948C132.355 181.696 129.544 176.855 130.847 172.147C131.393 170.149 132.629 168.4 134.34 167.203L137.229 177.982C137.37 178.508 137.791 178.928 138.325 179.075L138.31 179.079Z" fill="black"/>
<path d="M147.821 181.263L143.906 166.668C143.885 166.626 143.896 166.574 143.928 166.543L154.534 156.057C153.893 155.486 153.252 154.936 152.653 154.386C151.242 153.469 149.648 152.862 147.977 152.606C146.306 152.349 144.596 152.448 142.962 152.897C137.909 154.237 134.289 158.645 134.009 163.804C134.11 164.95 134.212 166.096 134.314 167.2C134.334 167.283 134.366 167.418 134.397 167.512L137.114 177.662C137.183 177.925 137.321 178.164 137.515 178.356C137.709 178.547 137.951 178.684 138.217 178.752L147.821 181.242L147.821 181.263ZM141.401 165.78L144.826 178.553L140.361 177.38C140.308 177.37 140.277 177.339 140.256 177.297L137.424 166.721C136.165 162.005 139.016 157.15 143.784 155.884C145.804 155.341 147.948 155.515 149.843 156.375L141.827 164.299C141.436 164.686 141.276 165.26 141.411 165.791L141.401 165.78Z" fill="black"/>
<path d="M144.188 175.027L155.039 164.295C155.065 164.256 155.116 164.238 155.16 164.25L169.587 168.027C169.771 167.19 169.936 166.363 170.122 165.572C170.228 163.9 169.971 162.229 169.37 160.668C168.769 159.107 167.837 157.693 166.636 156.521C162.965 152.872 157.314 152.004 152.656 154.372C151.703 155.039 150.749 155.705 149.832 156.35C149.77 156.41 149.666 156.506 149.6 156.58L142.051 164.039C141.855 164.231 141.713 164.471 141.641 164.733C141.569 164.996 141.569 165.273 141.641 165.535L144.207 175.017L144.188 175.027ZM154.579 161.7L145.082 171.093L143.903 166.677C143.886 166.626 143.897 166.584 143.923 166.545L151.789 158.771C155.298 155.308 160.96 155.294 164.426 158.736C165.9 160.191 166.807 162.115 166.991 164.172L156.087 161.317C155.555 161.177 154.973 161.33 154.575 161.715L154.579 161.7Z" fill="black"/>
</g>
<g clip-path="url(#clip2_94_1656)">
<path fill-rule="evenodd" clip-rule="evenodd" d="M291.092 115.294C298.037 113.102 306.35 119.791 309.659 130.233C312.969 140.675 310.023 150.917 303.078 153.11C296.133 155.302 287.821 148.614 284.511 138.171C281.201 127.729 284.148 117.486 291.092 115.294Z" fill="#23282C"/>
<path fill-rule="evenodd" clip-rule="evenodd" d="M188.673 143.763C195.613 141.903 203.514 148.877 206.317 159.338C209.12 169.799 205.765 179.788 198.824 181.648C191.884 183.508 183.984 176.535 181.181 166.073C178.377 155.611 181.733 145.623 188.673 143.763Z" fill="#23282C"/>
<path d="M274.121 145.573L221.598 159.646L237.996 220.845L290.519 206.771L274.121 145.573Z" fill="#FBAA6F"/>
<path d="M264.609 181.855L264.054 181.535C260.842 180.053 259.03 176.79 260.399 173.144C261.884 169.935 265.151 168.122 268.801 169.487C267.167 170.393 265.213 171.854 264.486 174.391C263.321 177.046 263.586 179.786 264.609 181.855ZM244.913 187.132C244.882 185.266 243.742 182.761 241.405 181.044C239.507 179.21 237.084 178.923 235.216 178.954C237.257 176.065 241.43 175.884 244.321 177.92C247.212 179.957 247.391 184.125 245.351 187.015C245.234 186.578 245.351 187.015 244.913 187.132ZM273.116 164.583L275.305 163.996L276.112 186.268L274.417 216.708L255.596 221.751L235.265 201.899L236.332 186.62C242.786 191.45 246.904 194.563 248.686 195.96C251.46 197.559 261.089 194.979 264.732 189.318C266.976 185.437 269.479 177.27 273.116 164.583Z" fill="#DC7F3C"/>
<path d="M189.222 182.378L212.419 176.162L201.877 136.82L183.932 141.629C181.288 121.254 190.084 101.562 205.046 89.1196C204.565 73.3189 205.927 62.6465 208.899 56.2282C209.219 55.6737 209.219 55.6737 209.54 55.1193L209.86 54.5649C210.939 53.3388 212.456 51.9955 214.089 51.0892C219.545 48.6903 225.851 51.2172 228.132 56.2282C229.39 59.1708 229.217 62.0282 228.052 64.6829C228.052 64.6829 228.052 64.6829 227.732 65.2373C227.411 65.7918 227.091 66.3462 226.77 66.9006C225.167 69.6726 224.002 72.3274 222.399 75.0994C226.48 69.3208 230.271 65.9624 233.773 65.0241C234.648 64.7896 235.641 64.9921 237.071 65.0774C240.166 66.1223 242.416 69.2675 241.368 72.3594C240.844 73.9054 240.203 75.0142 239.562 76.123C264.047 74.7157 287.146 89.141 296.652 112.362L298.027 115.742L281.395 120.199L290.765 155.169L311.774 149.54L335.348 206.004C320.01 222.295 298.336 234.194 270.761 241.582C243.187 248.971 218.467 249.504 197.038 243.064L189.222 182.378ZM266.323 205.759C272.666 183.913 275.428 171.46 274.491 167.963C271.914 158.346 255.682 153.794 248.242 155.787C240.801 157.781 228.903 169.402 231.597 179.456C232.534 182.953 241.269 192.794 257.131 208.222C258.913 209.618 260.46 210.141 262.648 209.555C264.837 208.968 265.916 207.742 266.323 205.759Z" fill="#BDCFC8"/>
<path d="M363.371 277.337C354.26 306.323 314.997 291.367 286.128 299.103C257.258 306.838 227.554 297.462 205.306 277.421L200.657 243.891C202.105 244.045 203.877 245.842 205.189 245.49C211.313 243.849 215.072 236.883 214.187 230.078L215.812 236.143C217.979 244.23 225.29 248.772 231.852 247.014C238.413 245.255 242.339 237.161 240.307 229.58L238.682 223.514L242.474 237.667C244.641 245.754 251.953 250.295 258.514 248.537C265.075 246.779 269.001 238.685 266.969 231.103C269.136 239.19 276.448 243.732 283.009 241.974C290.008 240.098 293.496 232.121 291.465 224.539L287.673 210.387L289.298 216.452C291.465 224.539 298.777 229.081 305.338 227.323C312.336 225.448 315.825 217.471 313.793 209.889L312.168 203.824C314.939 210.665 321.542 214.313 327.666 212.672C329.416 212.204 330.593 211.347 331.77 210.489L363.371 277.337Z" fill="#809EB0"/>
<path d="M201.927 252.473L200.495 243.796C201.919 243.881 203.779 243.849 205.087 243.499C211.188 241.864 215.134 235.675 214.49 229.784L215.889 235.007C217.755 241.97 224.82 245.675 231.357 243.924C237.894 242.172 242.043 234.996 240.294 228.467L238.895 223.244L242.16 235.431C244.026 242.395 251.091 246.1 257.628 244.348C264.165 242.597 268.314 235.421 266.565 228.892C268.431 235.856 275.496 239.561 282.033 237.809C289.005 235.941 292.719 228.881 290.969 222.353L287.704 210.166L289.103 215.389C290.969 222.353 298.034 226.058 304.571 224.306C311.544 222.438 315.257 215.378 313.508 208.85L312.109 203.627C314.613 209.487 321.009 212.438 327.11 210.803C328.853 210.336 330.044 209.55 331.235 208.765L334.758 216.684C333.248 218.022 331.621 218.924 329.442 219.508C323.341 221.143 316.829 217.756 314.441 212.332L315.841 217.555C317.707 224.518 313.441 231.259 306.904 233.011C299.931 234.879 293.185 230.622 291.436 224.094L290.036 218.871L293.302 231.058C295.168 238.022 290.902 244.762 284.365 246.514C277.392 248.382 270.647 244.125 268.897 237.597C270.763 244.561 266.497 251.302 259.96 253.053C253.423 254.805 246.242 250.665 244.493 244.136L241.227 231.949L242.627 237.172C244.493 244.136 240.227 250.877 233.69 252.629C227.153 254.38 219.971 250.24 218.222 243.711L216.822 238.488C217.584 244.815 213.52 250.569 207.419 252.204C205.24 252.788 203.351 252.558 201.927 252.473Z" fill="#738E9E"/>
<path d="M304.044 120.689C296.27 109.185 285.408 103.662 278.202 106.53C268.807 109.985 270.835 126.308 277.505 144.198C284.175 162.089 293.848 175.427 303.125 171.535C312.083 168.198 316.065 149.796 309.949 132.225C310.917 137.588 310.455 142.866 306.633 144.358C301.936 146.085 299.1 140.755 296.35 133.995C294.039 127.118 292.399 120.998 297.096 119.271C299.605 118.13 302.145 118.855 304.044 120.689Z" fill="#86A196"/>
<path d="M299.839 119.005C295.808 114.463 291.049 112.458 287.109 113.514C280.778 116.147 281.839 127.107 286.549 139.432C291.258 151.757 297.891 160.756 304.223 158.122C308.92 156.395 310.782 149.337 309.869 140.68C309.345 142.226 308.266 143.452 306.633 144.358C301.935 146.085 299.1 140.754 296.35 133.995C294.038 127.118 292.399 120.998 297.096 119.271C297.972 119.037 298.847 118.802 299.839 119.005Z" fill="white"/>
<path d="M180.616 153.762C181.596 139.912 188.241 129.698 195.916 128.579C205.78 126.873 212.185 142.023 215.353 160.852C218.522 179.68 216.814 196.067 206.834 197.336C197.408 198.925 184.758 184.979 181.269 166.705C183.112 171.833 186.152 176.173 190.208 175.554C195.14 174.701 194.93 168.667 193.931 161.438C192.495 154.327 190.855 148.207 185.923 149.06C183.618 149.209 181.781 151.107 180.616 153.762Z" fill="#86A196"/>
<path d="M182.777 150.201C183.998 144.252 187.117 140.137 191.057 139.081C197.856 138.196 202.418 148.218 204.502 161.247C206.585 174.275 205.34 185.385 198.541 186.27C193.609 187.123 188.468 181.941 185.367 173.87C186.593 174.947 188.141 175.47 190.009 175.438C194.94 174.585 194.731 168.55 193.732 161.321C192.296 154.21 190.656 148.09 185.724 148.943C184.411 149.295 183.536 149.53 182.777 150.201Z" fill="white"/>
<path d="M229.02 169.839C228.786 168.965 227.997 167.771 227.763 166.896C224.834 155.968 226.807 142.321 243.002 137.982C259.196 133.643 267.728 144.475 270.656 155.403C271.125 157.152 271.476 158.463 271.39 159.892C266.365 155.147 258.746 152.972 247.804 155.904C237.854 159.039 231.671 163.975 229.02 169.839Z" fill="#F4F8FF"/>
<path d="M239.913 76.0286C231.917 77.7024 226.986 78.5554 225.673 78.9072L241.337 69.0878C242.04 71.7106 241.633 73.6936 239.913 76.0286Z" fill="#86A196"/>
<path d="M222.68 74.741L218.161 80.6369C220.695 74.3358 222.236 67.8322 222.581 62.1175C223.075 58.7057 222.458 54.6543 220.849 50.4003C225.257 51.0933 227.945 54.1212 229.116 58.4925C229.584 60.241 229.091 63.6528 227.371 65.9877C226.41 67.6509 224.807 70.423 222.68 74.741Z" fill="#86A196"/>
</g>
<path d="M259.26 39.8104C257.772 37.4375 257.353 34.5055 258.094 31.7429L258.182 31.414C259.415 26.8096 263.776 23.7481 268.529 24.246C271.709 24.5341 274.484 26.3351 276.1 29.0242L276.681 30.0259L277.686 29.449C280.364 27.9107 283.733 27.756 286.565 29.0789C290.93 31.0239 293.242 35.8734 292.008 40.4778L291.92 40.8066C291.18 43.5693 289.286 45.8817 286.81 47.1924L271.873 55.1045C271.287 55.4411 270.574 55.4614 269.913 55.2843C269.186 55.0896 268.579 54.7153 268.24 54.1309L259.26 39.8104Z" fill="#D63638"/>
</g>
<defs>
<filter id="filter0_d_94_1656" x="29.7969" y="55.6367" width="97.3523" height="97.3523" filterUnits="userSpaceOnUse" color-interpolation-filters="sRGB">
<feFlood flood-opacity="0" result="BackgroundImageFix"/>
<feColorMatrix in="SourceAlpha" type="matrix" values="0 0 0 0 0 0 0 0 0 0 0 0 0 0 0 0 0 0 127 0" result="hardAlpha"/>
<feOffset dy="3.82164"/>
<feGaussianBlur stdDeviation="1.91082"/>
<feComposite in2="hardAlpha" operator="out"/>
<feColorMatrix type="matrix" values="0 0 0 0 0 0 0 0 0 0 0 0 0 0 0 0 0 0 0.25 0"/>
<feBlend mode="normal" in2="BackgroundImageFix" result="effect1_dropShadow_94_1656"/>
<feBlend mode="normal" in="SourceGraphic" in2="effect1_dropShadow_94_1656" result="shape"/>
</filter>
<filter id="filter1_f_94_1656" x="42.2547" y="66.6898" width="77.6193" height="66.4607" filterUnits="userSpaceOnUse" color-interpolation-filters="sRGB">
<feFlood flood-opacity="0" result="BackgroundImageFix"/>
<feBlend mode="normal" in="SourceGraphic" in2="BackgroundImageFix" result="shape"/>
<feGaussianBlur stdDeviation="2.50911" result="effect1_foregroundBlur_94_1656"/>
</filter>
<filter id="filter2_f_94_1656" x="38.0411" y="83.1476" width="41.8345" height="43.0422" filterUnits="userSpaceOnUse" color-interpolation-filters="sRGB">
<feFlood flood-opacity="0" result="BackgroundImageFix"/>
<feBlend mode="normal" in="SourceGraphic" in2="BackgroundImageFix" result="shape"/>
<feGaussianBlur stdDeviation="4.46063" result="effect1_foregroundBlur_94_1656"/>
</filter>
<filter id="filter3_f_94_1656" x="35.9537" y="84.7902" width="41.8345" height="43.0422" filterUnits="userSpaceOnUse" color-interpolation-filters="sRGB">
<feFlood flood-opacity="0" result="BackgroundImageFix"/>
<feBlend mode="normal" in="SourceGraphic" in2="BackgroundImageFix" result="shape"/>
<feGaussianBlur stdDeviation="4.46063" result="effect1_foregroundBlur_94_1656"/>
</filter>
<filter id="filter4_f_94_1656" x="47.8461" y="55.6422" width="41.1103" height="57.1814" filterUnits="userSpaceOnUse" color-interpolation-filters="sRGB">
<feFlood flood-opacity="0" result="BackgroundImageFix"/>
<feBlend mode="normal" in="SourceGraphic" in2="BackgroundImageFix" result="shape"/>
<feGaussianBlur stdDeviation="4.46063" result="effect1_foregroundBlur_94_1656"/>
</filter>
<filter id="filter5_f_94_1656" x="46.2181" y="51.9264" width="41.1103" height="57.1814" filterUnits="userSpaceOnUse" color-interpolation-filters="sRGB">
<feFlood flood-opacity="0" result="BackgroundImageFix"/>
<feBlend mode="normal" in="SourceGraphic" in2="BackgroundImageFix" result="shape"/>
<feGaussianBlur stdDeviation="4.46063" result="effect1_foregroundBlur_94_1656"/>
</filter>
<filter id="filter6_f_94_1656" x="48.8329" y="97.8971" width="52.3483" height="46.6448" filterUnits="userSpaceOnUse" color-interpolation-filters="sRGB">
<feFlood flood-opacity="0" result="BackgroundImageFix"/>
<feBlend mode="normal" in="SourceGraphic" in2="BackgroundImageFix" result="shape"/>
<feGaussianBlur stdDeviation="4.46063" result="effect1_foregroundBlur_94_1656"/>
</filter>
<filter id="filter7_f_94_1656" x="51.0199" y="104.714" width="52.3483" height="46.6448" filterUnits="userSpaceOnUse" color-interpolation-filters="sRGB">
<feFlood flood-opacity="0" result="BackgroundImageFix"/>
<feBlend mode="normal" in="SourceGraphic" in2="BackgroundImageFix" result="shape"/>
<feGaussianBlur stdDeviation="4.46063" result="effect1_foregroundBlur_94_1656"/>
</filter>
<filter id="filter8_d_94_1656" x="14.2313" y="154.007" width="97.6362" height="97.6364" filterUnits="userSpaceOnUse" color-interpolation-filters="sRGB">
<feFlood flood-opacity="0" result="BackgroundImageFix"/>
<feColorMatrix in="SourceAlpha" type="matrix" values="0 0 0 0 0 0 0 0 0 0 0 0 0 0 0 0 0 0 127 0" result="hardAlpha"/>
<feOffset dy="3.82164"/>
<feGaussianBlur stdDeviation="1.91082"/>
<feComposite in2="hardAlpha" operator="out"/>
<feColorMatrix type="matrix" values="0 0 0 0 0 0 0 0 0 0 0 0 0 0 0 0 0 0 0.25 0"/>
<feBlend mode="normal" in2="BackgroundImageFix" result="effect1_dropShadow_94_1656"/>
<feBlend mode="normal" in="SourceGraphic" in2="effect1_dropShadow_94_1656" result="shape"/>
</filter>
<filter id="filter9_d_94_1656" x="118.489" y="30" width="97.3523" height="97.3523" filterUnits="userSpaceOnUse" color-interpolation-filters="sRGB">
<feFlood flood-opacity="0" result="BackgroundImageFix"/>
<feColorMatrix in="SourceAlpha" type="matrix" values="0 0 0 0 0 0 0 0 0 0 0 0 0 0 0 0 0 0 127 0" result="hardAlpha"/>
<feOffset dy="3.82164"/>
<feGaussianBlur stdDeviation="1.91082"/>
<feComposite in2="hardAlpha" operator="out"/>
<feColorMatrix type="matrix" values="0 0 0 0 0 0 0 0 0 0 0 0 0 0 0 0 0 0 0.25 0"/>
<feBlend mode="normal" in2="BackgroundImageFix" result="effect1_dropShadow_94_1656"/>
<feBlend mode="normal" in="SourceGraphic" in2="effect1_dropShadow_94_1656" result="shape"/>
</filter>
<filter id="filter10_d_94_1656" x="102.659" y="129.856" width="97.6362" height="97.6364" filterUnits="userSpaceOnUse" color-interpolation-filters="sRGB">
<feFlood flood-opacity="0" result="BackgroundImageFix"/>
<feColorMatrix in="SourceAlpha" type="matrix" values="0 0 0 0 0 0 0 0 0 0 0 0 0 0 0 0 0 0 127 0" result="hardAlpha"/>
<feOffset dy="3.82164"/>
<feGaussianBlur stdDeviation="1.91082"/>
<feComposite in2="hardAlpha" operator="out"/>
<feColorMatrix type="matrix" values="0 0 0 0 0 0 0 0 0 0 0 0 0 0 0 0 0 0 0.25 0"/>
<feBlend mode="normal" in2="BackgroundImageFix" result="effect1_dropShadow_94_1656"/>
<feBlend mode="normal" in="SourceGraphic" in2="effect1_dropShadow_94_1656" result="shape"/>
</filter>
<clipPath id="clip0_94_1656">
<rect width="338" height="259" fill="white"/>
</clipPath>
<clipPath id="clip1_94_1656">
<rect width="43.8191" height="43.8191" fill="white" transform="translate(140.32 59.6963) rotate(-15)"/>
</clipPath>
<clipPath id="clip2_94_1656">
<rect width="144.192" height="269.576" fill="white" transform="translate(149.057 67.9336) rotate(-15)"/>
</clipPath>
</defs>
</svg>
