<svg width="128" height="128" viewBox="0 0 128 128" fill="none" xmlns="http://www.w3.org/2000/svg">
<rect width="128" height="128" transform="translate(128 5.59506e-06) rotate(90)" fill="url(#paint0_linear_2818_6236)"/>
<path d="M106.668 70.5313C106.668 70.7714 106.682 70.9973 106.696 71.2374C106.908 74.2183 107.289 97.9103 68.1133 113.832C66.7995 114.355 65.4148 114.609 64.0303 114.609C62.6461 114.624 61.2478 114.369 59.9483 113.832C20.7724 97.9103 21.1534 74.2183 21.3653 71.2374C21.3935 70.9973 21.3936 70.7714 21.3936 70.5313L21.1954 38.3057C21.1672 33.9828 23.7246 30.0409 27.6944 28.2891L59.5948 14.2745C61.0074 13.653 62.5189 13.3566 64.0303 13.3565C65.5419 13.3565 67.0541 13.6529 68.4669 14.2745L100.353 28.2891C104.322 30.0409 106.88 33.9686 106.852 38.3057L106.668 70.5313ZM41.6465 89.3262C42.0588 89.1716 42.0588 88.5912 41.6465 88.4366L39.9327 87.8057C39.8041 87.7542 39.701 87.6512 39.6495 87.5225L39.0186 85.8087C38.864 85.3966 38.2847 85.3967 38.1299 85.8087L37.4981 87.5225C37.4465 87.6512 37.3436 87.7542 37.2149 87.8057L35.501 88.4366C35.0891 88.5913 35.0891 89.1716 35.501 89.3262L37.2149 89.9571C37.3436 90.0086 37.4466 90.1116 37.4981 90.2403L38.1299 91.9542C38.2847 92.3659 38.864 92.3661 39.0186 91.9542L39.6495 90.2403C39.701 90.1116 39.804 90.0087 39.9327 89.9571L41.6465 89.3262ZM50.0665 74.1407C51.024 73.1831 51.0894 71.6477 50.2237 70.6114C45.4753 64.971 42.3268 59.2651 41.0938 54.3331C39.9001 57.232 39.2315 60.4065 39.2315 63.7383C39.2315 69.6803 41.3299 75.137 44.8057 79.4131L50.0665 74.1407ZM62.9083 61.2462C65.7546 58.3866 65.4002 53.6119 62.0948 51.2901L62.1075 51.2901C54.7622 46.1484 48.6236 45.0068 46.6426 46.9346L46.5899 46.9874C44.3337 49.3222 46.157 57.3763 53.6075 66.5059C54.5913 67.6996 56.4016 67.7783 57.4903 66.6895L62.9083 61.2462ZM72.7198 86.9952C67.9845 85.5916 62.5673 82.4436 57.2549 77.7872C56.2187 76.8821 54.6573 76.9474 53.6866 77.918L53.7003 77.9317L48.5313 83.1124C52.7813 86.536 58.186 88.5831 64.0626 88.5831C67.1057 88.5831 70.0176 88.0052 72.7198 86.9952ZM79.6729 44.4298C75.4098 40.9799 69.9922 38.9073 64.0762 38.9073C60.2461 38.9073 56.6257 39.799 53.3858 41.3467C58.3704 42.5273 64.1946 45.7811 69.9268 50.7657C70.9631 51.6705 72.5236 51.6044 73.4942 50.6339L79.6729 44.4298ZM80.709 81.6827C82.9781 79.3344 81.1288 71.2279 73.5997 62.046C72.6159 60.8523 70.8056 60.7742 69.7169 61.876L69.7032 61.876L61.1251 70.4942C60.0496 71.5697 60.1146 73.3531 61.2686 74.337C70.2801 82.0368 78.3213 84.0046 80.6563 81.7354L80.709 81.6827ZM88.9063 63.751C88.9062 57.8353 86.8336 52.4178 83.3838 48.1417L77.1407 54.4122C76.1831 55.3697 76.1173 56.9042 76.9962 57.9405L76.9835 57.9532C81.9286 63.7903 85.1421 69.7195 86.3096 74.7696C87.9623 71.451 88.9063 67.7123 88.9063 63.751ZM95.2637 38.4796C95.9963 38.2044 95.9962 37.1746 95.2637 36.8995L92.2159 35.7764C91.9869 35.6848 91.8036 35.5015 91.712 35.2725L90.5899 32.2257C90.315 31.4925 89.2838 31.4925 89.0088 32.2257L87.8858 35.2725C87.7941 35.5015 87.6109 35.6848 87.3819 35.7764L84.335 36.8995C83.6019 37.1744 83.6019 38.2046 84.335 38.4796L87.3819 39.6026C87.611 39.6942 87.7941 39.8775 87.8858 40.1065L89.0088 43.1534C89.2838 43.8865 90.315 43.8865 90.5899 43.1534L91.712 40.1065C91.8036 39.8775 91.9869 39.6943 92.2159 39.6026L95.2637 38.4796Z" fill="white"/>
<defs>
<linearGradient id="paint0_linear_2818_6236" x1="19.1359" y1="8.68687e-07" x2="88.2553" y2="138.3" gradientUnits="userSpaceOnUse">
<stop offset="0.159115" stop-color="#9718E7"/>
<stop offset="1" stop-color="#5A2ED4"/>
</linearGradient>
</defs>
</svg>
