<svg width="100%" height="100%" overflow="visible" style="display: block;" viewBox="0 -5.75 37.5 37.5" fill="none" xmlns="http://www.w3.org/2000/svg">
<g id="WPConsent Icon 1" clip-path="url(#clip0_896_721)">
<path id="Vector" d="M14.695 1.13C14.695 0.515 14.205 0.02 13.59 0H7.11495C6.70995 0 6.33495 0.22 6.13995 0.57L1.01995 9.66C0.599953 10.405 1.13995 11.33 1.99495 11.33H8.45995C8.86495 11.325 9.23495 11.105 9.43495 10.755L14.535 1.715C14.535 1.715 14.535 1.715 14.53 1.715C14.635 1.545 14.695 1.345 14.695 1.13Z" fill="var(--fill-0, #0065FF)"/>
<path id="Vector_2" d="M37.315 12.92C37.315 12.71 37.255 12.515 37.155 12.35L31.095 1.59003L26.57 9.59503L28.15 12.395C28.24 12.555 28.285 12.74 28.285 12.94C28.285 13.12 28.235 13.29 28.16 13.44L22.19 24.04C22.055 24.225 21.975 24.45 21.975 24.7C21.975 25.32 22.475 25.825 23.095 25.835H29.55C29.955 25.835 30.33 25.615 30.525 25.265L37.205 13.41C37.205 13.41 37.2 13.405 37.195 13.405C37.265 13.255 37.31 13.095 37.31 12.92H37.315Z" fill="var(--fill-0, #0065FF)"/>
<path id="Vector_3" d="M31.0951 1.59L30.2001 0L25.7901 7.755L25.6651 7.975L24.6851 9.7C24.8801 9.36 25.2451 9.135 25.6651 9.135C26.0401 9.135 26.3751 9.32 26.5801 9.6L31.0951 1.59Z" fill="var(--fill-0, #004CBA)"/>
<path id="Vector_4" d="M21.8799 0C21.8649 0 21.8549 0 21.8399 0C21.3949 0 21.0099 0.26 20.8299 0.635L12.0449 16.16C11.8499 16.505 11.4749 16.745 11.0499 16.745C10.6249 16.745 10.2299 16.495 10.0399 16.135L8.54986 13.495C8.34986 13.14 7.97486 12.925 7.56986 12.925L1.11986 12.945C0.264859 12.945 -0.275141 13.87 0.144859 14.615L6.14986 25.27C6.34986 25.62 6.71986 25.84 7.12486 25.84H14.8049C14.8149 25.84 14.8249 25.84 14.8349 25.84C15.2649 25.84 15.6299 25.6 15.8249 25.245L21.3349 15.57L24.6749 9.7L25.6549 7.975L25.7799 7.755L30.1949 0H21.8799Z" fill="var(--fill-0, #0065FF)"/>
</g>
<defs>
<clipPath id="clip0_896_721">
<rect width="37.5" height="26" fill="white"/>
</clipPath>
</defs>
</svg>
