<svg preserveAspectRatio="none" width="100%" height="100%" overflow="visible" style="display: block;" viewBox="0 0 60 60" fill="none" xmlns="http://www.w3.org/2000/svg">
<g id="Frame 509">
<rect x="0.5" y="0.5" width="59" height="59" rx="3.5" fill="var(--fill-0, #F6F6F6)"/>
<rect x="0.5" y="0.5" width="59" height="59" rx="3.5" stroke="var(--stroke-0, #DCDCDE)"/>
<path id="Vector" d="M47.5472 26.8844H46.4817C46.3849 26.8844 46.288 26.8522 46.1589 26.8522C45.7392 26.7553 45.3518 26.5939 44.9643 26.4002C44.8675 26.3356 44.7706 26.3033 44.706 26.2387C44.6737 26.2065 44.6092 26.1742 44.5769 26.1419C44.5123 26.1096 44.48 26.0773 44.4155 26.0128C44.254 25.8836 44.1249 25.7545 43.9635 25.5931C43.9635 25.5931 43.9635 25.5931 43.9312 25.5608C43.8343 25.4639 43.7698 25.3671 43.7052 25.2702C43.6083 25.1411 43.5438 25.0119 43.4469 24.8827C43.3501 24.689 43.2532 24.4953 43.1564 24.2693C43.124 24.1402 43.0595 24.0111 43.0272 23.8819C42.9949 23.7851 42.9949 23.6882 42.9627 23.6236C42.9949 23.5267 42.9627 23.3976 42.9627 23.2685C42.9627 23.2362 42.9627 23.2039 42.9627 23.1717C42.9627 22.7842 42.9949 22.4291 43.0917 22.0739C43.2532 21.525 43.5114 21.0085 43.8021 20.5242C43.8666 20.4597 43.9312 20.3951 43.9635 20.2982L44.5446 19.6848C45.0289 19.2005 45.0612 18.3934 44.6092 17.8768C44.028 17.1665 43.3824 16.4885 42.672 15.8751L23.107 35.1818C22.7842 35.4724 22.2676 35.2787 22.2676 34.8266C22.2999 31.4367 22.3645 25.6576 22.3968 22.7519C22.3968 22.2676 23.0425 22.1062 23.3008 22.5259L25.3347 26.0773C25.4962 26.3679 25.8836 26.4002 26.1096 26.1742L35.1818 17.102C35.1818 17.102 35.1495 17.102 35.1495 17.0697C35.0204 17.0051 34.9235 16.9405 34.7944 16.876C34.7298 16.8114 34.633 16.7791 34.5684 16.7145C34.4716 16.65 34.3747 16.5531 34.2779 16.4885C34.2456 16.4562 34.2456 16.4562 34.2132 16.424C33.9227 16.1334 33.729 15.8428 33.5353 15.52C33.2447 14.9711 33.051 14.39 32.9541 13.8088C32.9219 13.712 32.9219 13.5828 32.8896 13.486C32.8896 13.4214 32.8896 13.3568 32.8896 13.2923V12.4528C32.8896 11.7103 32.3407 11.1291 31.6304 11.0646C31.0816 11.0323 30.5327 11 29.9839 11C29.4673 11 28.9185 11.0323 28.4019 11.0646C27.6916 11.1291 27.1428 11.7103 27.1428 12.4206C27.1428 12.8403 27.1104 13.3246 27.0136 13.8088C26.9167 14.39 26.7231 14.9711 26.4325 15.52C26.271 15.8428 26.045 16.1334 25.7545 16.3917C25.7221 16.424 25.7221 16.424 25.6899 16.4562C25.5931 16.5531 25.4962 16.6177 25.3993 16.6822C25.3347 16.7468 25.2379 16.7791 25.1734 16.8437C25.0442 16.9082 24.9474 16.9728 24.8182 17.0374C24.6245 17.1342 24.3985 17.2311 24.2048 17.2634C24.0433 17.328 23.9142 17.3602 23.7527 17.3602C23.6236 17.3925 23.5267 17.3925 23.3976 17.3925H23.3654C23.1717 17.3925 22.9456 17.3925 22.7519 17.3925C22.6873 17.3925 22.6228 17.3925 22.5582 17.3602C22.4936 17.3602 22.4291 17.328 22.3968 17.328C22.2999 17.2957 22.2031 17.2957 22.1062 17.2634C21.6865 17.1342 21.2991 16.9728 20.9439 16.7791C20.7502 16.6822 20.5887 16.5531 20.4274 16.424C20.3628 16.3594 20.2982 16.3271 20.2337 16.2625L19.5879 15.5845C19.1037 15.068 18.2642 15.0034 17.7154 15.4554C16.8437 16.198 16.0365 17.0051 15.3263 17.8768C14.8743 18.4257 14.9388 19.2005 15.3908 19.6848L15.972 20.2982C16.0365 20.3628 16.1011 20.4274 16.1334 20.5242C16.424 20.9762 16.7145 21.525 16.8437 22.0739C16.9405 22.4291 16.9728 22.7842 16.9728 23.1717C16.9728 23.2039 16.9728 23.2362 16.9728 23.2685C16.9728 23.3976 16.9405 23.4945 16.9405 23.6236C16.9405 23.7205 16.9082 23.8174 16.876 23.8819C16.8437 24.0111 16.8114 24.1402 16.7468 24.2693C16.6822 24.4953 16.5854 24.689 16.4562 24.8827C16.3917 25.0119 16.2948 25.1411 16.198 25.2702C16.1334 25.3671 16.0365 25.4639 15.972 25.5608C15.972 25.5608 15.972 25.5608 15.9397 25.5931C15.8105 25.7545 15.6491 25.8836 15.4877 26.0128C15.4231 26.045 15.3908 26.1096 15.3263 26.1419C15.294 26.1742 15.2294 26.2065 15.1971 26.2387C15.1003 26.3033 15.0034 26.3356 14.9388 26.4002C14.5514 26.5939 14.164 26.7553 13.7443 26.8522C13.6474 26.8522 13.5506 26.8844 13.4214 26.8844H12.356C11.678 26.8844 11.0646 27.401 11 28.1113C11.0323 28.7248 11 29.3704 11 29.9839C11 30.5005 11.0323 31.017 11.0646 31.5336C11.1291 32.2438 11.678 32.7927 12.3883 32.7927L13.3568 32.825C13.4537 32.825 13.5506 32.825 13.6474 32.8573C14.0348 32.9541 14.39 33.0833 14.7451 33.2447C15.068 33.4061 15.3585 33.6321 15.6491 33.8904C15.6814 33.9227 15.6814 33.9227 15.7137 33.955C15.8105 34.0519 15.8751 34.1487 15.9397 34.2132C16.0042 34.2779 16.0688 34.3424 16.1011 34.4393C16.1657 34.5684 16.2625 34.6653 16.3271 34.7944C16.424 34.9881 16.5208 35.1818 16.5854 35.4078C16.65 35.5692 16.6822 35.6984 16.7145 35.8598C16.7468 35.9889 16.7468 36.0858 16.7791 36.2149V36.2473C16.8114 36.441 16.8114 36.667 16.7791 36.8607C16.7791 36.9252 16.7791 36.9898 16.7791 37.0544C16.7791 37.119 16.7791 37.1835 16.7468 37.2158C16.7145 37.3127 16.7145 37.4096 16.6822 37.5064C16.5854 37.9261 16.424 38.3135 16.2303 38.6687C16.1657 38.7978 16.1011 38.9269 16.0042 39.0238C15.9397 39.0884 15.9074 39.1853 15.8105 39.2498L15.1971 39.9278C14.7128 40.4121 14.6483 41.187 15.068 41.7357C15.746 42.6075 16.5208 43.4146 17.328 44.1249L37.2158 24.5922C37.5387 24.3016 38.0553 24.4953 38.0553 24.9474C38.023 28.3373 37.9584 34.1164 37.9261 37.0221C37.9261 37.5064 37.2804 37.6678 37.0221 37.2481L34.9881 33.6967C34.8266 33.4061 34.4393 33.3738 34.2132 33.5998L24.7537 43.0595C24.7537 43.0595 24.7859 43.0595 24.7859 43.0917C24.8827 43.1564 24.9796 43.2209 25.0765 43.3177C25.0765 43.3177 25.0765 43.3177 25.1087 43.3501C25.2702 43.4792 25.3993 43.6083 25.5284 43.7698C25.5608 43.8343 25.6253 43.8666 25.6576 43.9312C25.6899 43.9635 25.7221 44.028 25.7545 44.0603C25.819 44.1572 25.8513 44.2218 25.9159 44.3186C26.1419 44.6737 26.3033 45.0612 26.4002 45.4809C26.5939 46.1912 26.6584 46.9015 26.6584 47.5149C26.6584 48.2251 27.2073 48.8063 27.8853 48.8709C28.5633 48.9355 29.2736 49 29.9839 49C30.6942 49 31.3721 48.9677 32.0825 48.8709C32.7604 48.8063 33.3093 48.2251 33.3093 47.5149C33.3093 46.9015 33.3738 46.1589 33.5675 45.4809C33.6644 45.0934 33.8258 44.706 34.0519 44.3186C34.1164 44.2218 34.1487 44.1572 34.2132 44.0603C34.2456 44.028 34.2779 43.9635 34.3101 43.9312C34.3424 43.8666 34.4069 43.8343 34.4393 43.7698C34.5684 43.6083 34.6976 43.4792 34.859 43.3501C34.859 43.3501 34.859 43.3501 34.8913 43.3177C34.9881 43.2532 35.085 43.1564 35.1818 43.0917C35.311 42.9949 35.4401 42.9303 35.6015 42.8658C35.7952 42.7689 35.9889 42.672 36.2149 42.6075C36.3441 42.5752 36.4733 42.5429 36.6023 42.5106C36.6992 42.4783 36.7961 42.4783 36.893 42.4783C37.0221 42.4783 37.119 42.4461 37.2481 42.4461C37.2804 42.4461 37.3127 42.4461 37.3449 42.4461C37.7324 42.4461 38.0875 42.5106 38.4427 42.6075C38.9269 42.7689 39.3789 42.9949 39.7987 43.2855C39.8632 43.3501 39.96 43.4146 40.0247 43.4792L40.7026 44.1895C41.2192 44.706 42.0264 44.7384 42.5752 44.2863C43.4469 43.5114 44.2218 42.7043 44.9321 41.8004C45.3518 41.2515 45.2872 40.4766 44.8029 39.9924L44.1895 39.379C44.1249 39.3144 44.0603 39.2498 43.9958 39.1529C43.9311 39.0238 43.8343 38.9269 43.7698 38.7978C43.5761 38.4427 43.4146 38.0552 43.3177 37.6355C43.2855 37.5387 43.2532 37.4418 43.2532 37.3449C43.2532 37.2804 43.2209 37.2158 43.2209 37.1835C43.2209 37.119 43.2209 37.0544 43.2209 36.9898C43.2209 36.7961 43.2209 36.6024 43.2209 36.3764V36.3441C43.2209 36.215 43.2532 36.1181 43.2855 35.9889C43.3177 35.8276 43.3501 35.6984 43.4146 35.537C43.4792 35.3432 43.5761 35.1173 43.6729 34.9235C43.7375 34.7944 43.8021 34.6976 43.8989 34.5684C43.9635 34.5038 43.9958 34.4069 44.0603 34.3424C44.1249 34.2456 44.2218 34.1487 44.2863 34.0841C44.3186 34.0519 44.3186 34.0519 44.3509 34.0195C44.6092 33.7613 44.9321 33.5353 45.2549 33.3738C45.61 33.1801 45.9652 33.051 46.3526 32.9864C46.4494 32.9541 46.5463 32.9541 46.6432 32.9541L47.6117 32.9219C48.322 32.8896 48.8708 32.3407 48.9355 31.6627C48.9677 31.1462 49 30.6296 49 30.113C49 29.4673 48.9677 28.8539 48.9032 28.2404C48.8063 27.4333 48.2251 26.9167 47.5472 26.8844Z" fill="var(--fill-0, #FE4715)"/>
</g>
</svg>
