<svg width="100%" height="100%" overflow="visible" style="display: block;" viewBox="0 -1.6865 34.5452 34.5452" fill="none" xmlns="http://www.w3.org/2000/svg">
<g id="cc3cAI.tif">
<path id="Union" d="M21.3934 0.3195C22.0985 0.109585 22.8484 0.109585 23.5535 0.3195C26.4296 1.17568 29.9268 2.25688 32.5602 3.11187C33.8204 3.52104 34.5452 5.03088 34.5452 6.76027C34.5452 16.7538 32.6374 25.613 23.0591 30.8608C22.6961 31.0597 22.2507 31.0597 21.8878 30.8608C12.3094 25.613 10.4014 16.7538 10.4014 6.76027C10.4014 5.03087 11.1265 3.52103 12.3867 3.11187C15.02 2.25688 18.5173 1.17568 21.3934 0.3195Z" fill="url(#paint0_linear_896_682)"/>
<path id="Vector" d="M12.0042 24.7136C12.453 25.5383 12.1781 26.4858 11.4646 26.8835C10.7512 27.2811 9.84845 27.0727 9.39838 26.3068C6.27855 20.8918 4.96541 14.4399 5.07281 8.21948C5.17127 6.38338 7.88833 6.37315 7.974 8.23482C8.02003 14.1433 9.05315 19.5621 12.0055 24.7149L12.0042 24.7136Z" fill="url(#paint1_linear_896_682)"/>
<path id="Vector_2" d="M2.35069 23.7381C0.853429 19.6299 -0.0722892 16.138 0.00442785 11.8444C0.0108209 11.5107 0.118225 11.1808 0.336868 10.9289C1.1603 9.97887 2.99639 10.4711 2.99639 12.0157C3.15366 15.7608 3.79553 19.2003 5.16748 22.6922C5.7646 24.4055 3.07694 25.5371 2.35069 23.7381Z" fill="url(#paint2_linear_896_682)"/>
<path id="Vector_3" d="M20.7542 20.4958C20.3191 20.4958 19.9057 20.306 19.6224 19.9766L16.0765 16.1136C15.5384 15.4887 15.6089 14.5453 16.2351 14.0072C16.86 13.4691 17.8034 13.541 18.3415 14.1658L20.7555 16.7114L27.1506 9.72672C27.6887 9.10185 28.6307 9.03002 29.2569 9.56813C29.8818 10.1062 29.9536 11.0483 29.4155 11.6745L21.8887 19.9766C21.6054 20.306 21.192 20.4971 20.7569 20.4971L20.7542 20.4958Z" fill="var(--fill-0, white)"/>
</g>
<defs>
<linearGradient id="paint0_linear_896_682" x1="22.4732" y1="-8.6569e-07" x2="22.4732" y2="31.1722" gradientUnits="userSpaceOnUse">
<stop offset="0.480769" stop-color="#10B981"/>
<stop offset="1" stop-color="#008A5C"/>
</linearGradient>
<linearGradient id="paint1_linear_896_682" x1="8.64453" y1="6.84049" x2="8.64453" y2="27.0809" gradientUnits="userSpaceOnUse">
<stop offset="0.480769" stop-color="#10B981"/>
<stop offset="1" stop-color="#008A5C"/>
</linearGradient>
<linearGradient id="paint2_linear_896_682" x1="2.62667" y1="10.4446" x2="2.62667" y2="24.6512" gradientUnits="userSpaceOnUse">
<stop offset="0.480769" stop-color="#10B981"/>
<stop offset="1" stop-color="#008A5C"/>
</linearGradient>
</defs>
</svg>
