<svg width="242" height="76" viewBox="0 0 242 76" fill="none" xmlns="http://www.w3.org/2000/svg">
<path fill-rule="evenodd" clip-rule="evenodd" d="M28.7874 10.2799C26.2951 11.5744 24.1122 13.3923 22.388 15.6091C20.6638 17.8259 19.4392 20.3892 18.798 23.1234C14.0941 27.021 10.707 32.2746 9.0985 38.1678C7.49002 44.061 7.73848 50.3069 9.81 56.0537C11.8815 61.8005 15.6753 66.7685 20.6738 70.2801C25.6724 73.7917 31.6325 75.676 37.7413 75.676C43.85 75.676 49.8101 73.7917 54.8087 70.2801C59.8073 66.7685 63.601 61.8005 65.6725 56.0537C67.744 50.3069 67.9925 44.061 66.384 38.1678C64.7755 32.2746 61.3884 27.021 56.6846 23.1234C55.9664 20.0562 54.5144 17.2091 52.4532 14.8268C50.3921 12.4445 47.7834 10.5981 44.8513 9.44635C44.7502 8.69935 44.4542 7.99214 43.9931 7.3958C43.532 6.79947 42.922 6.33503 42.2245 6.04919C42.1617 4.73348 41.6565 3.47751 40.7908 2.48477C39.925 1.49204 38.7494 0.820711 37.4545 0.579553C36.1595 0.338395 34.8211 0.541539 33.656 1.15607C32.491 1.7706 31.5675 2.76052 31.0353 3.96543C30.0587 5.98228 29.305 8.0996 28.7874 10.2799Z" fill="#395360"/>
<path d="M30.4795 32.8351H45.6341V50.5155H30.4795V32.8351Z" fill="#FBAA6F"/>
<path fill-rule="evenodd" clip-rule="evenodd" d="M40.4183 41.9026L40.2668 41.8015C39.8816 41.5219 39.6233 41.1006 39.5487 40.6305C39.4741 40.1604 39.5893 39.6799 39.869 39.2947C40.1487 38.9095 40.5699 38.6512 41.04 38.5766C41.5101 38.502 41.9906 38.6172 42.3758 38.8969C42.0634 38.955 41.7659 39.0755 41.5012 39.2513C41.2364 39.4271 41.0099 39.6544 40.8351 39.9198C40.6213 40.1979 40.4728 40.5204 40.4006 40.8637C40.3285 41.2069 40.3345 41.562 40.4183 41.9026ZM34.7606 41.9026C34.8328 41.5623 34.8259 41.2101 34.7405 40.8729C34.6551 40.5357 34.4935 40.2226 34.2681 39.9577C34.0897 39.6929 33.8606 39.4661 33.594 39.2905C33.3273 39.1149 33.0285 38.994 32.7147 38.9348C33.0999 38.6551 33.5804 38.5399 34.0505 38.6145C34.5207 38.6891 34.9419 38.9474 35.2216 39.3326C35.5012 39.7178 35.6164 40.1983 35.5418 40.6684C35.4672 41.1385 35.2089 41.5598 34.8238 41.8394C34.804 41.8618 34.7829 41.8829 34.7606 41.9026ZM43.8786 37.8866H44.548L43.1967 43.9737L40.4941 52.0941H35.0763L31.0225 45.325L32.3737 41.2711C33.725 43.0771 34.6343 44.201 35.0763 44.6557C35.7583 45.325 38.4609 45.325 39.8122 43.9737C41.3889 42.1015 42.7527 40.06 43.8786 37.8866Z" fill="#DC7F3C"/>
<path fill-rule="evenodd" clip-rule="evenodd" d="M20.048 36.6237H26.6908V25.2577H21.5635C21.9539 22.5264 23.0263 19.9374 24.6818 17.7302C26.3373 15.5229 28.5223 13.7684 31.0351 12.6288C31.9949 8.41922 33.1357 5.57772 34.4575 4.10435L34.6849 3.88966L34.8238 3.76337C35.2177 3.44792 35.6884 3.24305 36.1877 3.16982C36.7754 3.07695 37.3775 3.16523 37.9138 3.42292C38.4502 3.68061 38.8953 4.09548 39.1901 4.61236C39.4848 5.12923 39.6153 5.7236 39.564 6.31641C39.5127 6.90921 39.2821 7.47235 38.9029 7.9309H38.8271C38.717 8.06861 38.5896 8.19169 38.4483 8.29714C37.8523 8.91965 37.2996 9.5821 36.7939 10.2799C37.801 9.23104 39.1392 8.56193 40.5825 8.38554C40.8728 8.38346 41.159 8.45286 41.416 8.5876C41.7978 8.80527 42.079 9.16385 42.1994 9.58645C42.3198 10.009 42.2698 10.462 42.0601 10.8482C41.8913 11.1601 41.6252 11.4084 41.3024 11.5554C44.6077 12.2701 47.6117 13.9881 49.9038 16.4746C52.1959 18.961 53.6642 22.0947 54.1081 25.4471L54.2596 26.5458H49.4228V36.6489H55.5225L57.7831 53.6095C52.4537 56.9183 45.7814 58.5727 37.7663 58.5727C29.7512 58.5727 23.1126 56.9141 17.8506 53.5969L20.048 36.6237ZM39.1555 48.4822C42.4137 43.1023 44.0429 39.8988 44.0429 38.8716C44.0429 36.0554 39.9385 33.7443 37.8926 33.7443C35.8467 33.7443 31.7423 36.0428 31.7423 38.8716C31.7423 39.8988 33.3462 43.1065 36.5539 48.4948C36.6976 48.7186 36.8959 48.9021 37.1301 49.028C37.3643 49.154 37.6267 49.2182 37.8926 49.2147C38.1483 49.2272 38.4023 49.1675 38.6256 49.0424C38.8489 48.9173 39.0325 48.732 39.1555 48.5075V48.4822Z" fill="#BDCFC8"/>
<path fill-rule="evenodd" clip-rule="evenodd" d="M58.0231 61.6542C55.6727 64.8128 52.6163 67.3781 49.0981 69.1455C45.5799 70.9129 41.6973 71.8333 37.7601 71.8333C33.8229 71.8333 29.9402 70.9129 26.422 69.1455C22.9038 67.3781 19.8475 64.8128 17.4971 61.6542L18.5579 53.9379C18.9597 54.0979 19.3884 54.1793 19.8208 54.1779C20.683 54.1804 21.517 53.8712 22.1692 53.3073C22.8213 52.7433 23.2476 51.9626 23.3695 51.1091V52.6498C23.3695 53.601 23.7474 54.5133 24.42 55.1859C25.0926 55.8585 26.0049 56.2364 26.9561 56.2364C27.9073 56.2364 28.8196 55.8585 29.4922 55.1859C30.1648 54.5133 30.5427 53.601 30.5427 52.6498V54.6957C30.597 55.6117 30.9992 56.4725 31.6671 57.1019C32.3349 57.7313 33.2179 58.0818 34.1356 58.0818C35.0533 58.0818 35.9363 57.7313 36.6042 57.1019C37.272 56.4725 37.6742 55.6117 37.7285 54.6957C37.7285 55.6469 38.1064 56.5592 38.779 57.2318C39.4516 57.9044 40.3639 58.2823 41.3151 58.2823C42.2663 58.2823 43.1786 57.9044 43.8512 57.2318C44.5238 56.5592 44.9017 55.6469 44.9017 54.6957V52.7129C44.9017 53.1839 44.9945 53.6503 45.1747 54.0855C45.355 54.5206 45.6192 54.916 45.9522 55.249C46.2853 55.5821 46.6806 55.8463 47.1158 56.0265C47.5509 56.2068 48.0173 56.2995 48.4883 56.2995C48.9593 56.2995 49.4257 56.2068 49.8608 56.0265C50.296 55.8463 50.6914 55.5821 51.0244 55.249C51.3575 54.916 51.6217 54.5206 51.8019 54.0855C51.9821 53.6503 52.0749 53.1839 52.0749 52.7129V51.1722C52.1874 52.0558 52.6248 52.866 53.3017 53.4449C53.9787 54.0238 54.8469 54.3301 55.7373 54.3042C56.1684 54.3041 56.5961 54.2271 57.0002 54.0769L58.0231 61.6542Z" fill="#809EB0"/>
<path fill-rule="evenodd" clip-rule="evenodd" d="M18.2295 56.3879L18.5578 54.001C18.9596 54.161 19.3883 54.2424 19.8207 54.241C20.6829 54.2436 21.517 53.9344 22.1691 53.3704C22.8213 52.8064 23.2476 52.0257 23.3694 51.1722V52.7129C23.3694 53.6641 23.7473 54.5764 24.4199 55.249C25.0925 55.9216 26.0048 56.2995 26.956 56.2995C27.9073 56.2995 28.8195 55.9216 29.4921 55.249C30.1648 54.5764 30.5426 53.6641 30.5426 52.7129V54.7588C30.597 55.6749 30.9992 56.5356 31.667 57.165C32.3348 57.7944 33.2179 58.1449 34.1355 58.1449C35.0532 58.1449 35.9363 57.7944 36.6041 57.165C37.2719 56.5356 37.6741 55.6749 37.7285 54.7588C37.7285 55.71 38.1063 56.6223 38.779 57.2949C39.4516 57.9675 40.3638 58.3454 41.3151 58.3454C42.2663 58.3454 43.1785 57.9675 43.8512 57.2949C44.5238 56.6223 44.9017 55.71 44.9017 54.7588V52.7129C44.9017 53.6641 45.2795 54.5764 45.9521 55.249C46.6248 55.9216 47.537 56.2995 48.4883 56.2995C49.4395 56.2995 50.3517 55.9216 51.0244 55.249C51.697 54.5764 52.0749 53.6641 52.0749 52.7129V51.1722C52.1874 52.0558 52.6247 52.8659 53.3017 53.4449C53.9787 54.0238 54.8468 54.3301 55.7372 54.3041C56.1684 54.3041 56.596 54.2271 57.0001 54.0768L57.3158 56.4637C56.8076 56.712 56.2481 56.837 55.6825 56.8287C55.1169 56.8203 54.5613 56.6788 54.0607 56.4156C53.56 56.1523 53.1285 55.7748 52.801 55.3136C52.4735 54.8524 52.2594 54.3205 52.1759 53.7611V55.3018C52.1759 56.253 51.798 57.1653 51.1254 57.8379C50.4528 58.5105 49.5405 58.8884 48.5893 58.8884C47.6381 58.8884 46.7258 58.5105 46.0532 57.8379C45.3806 57.1653 45.0027 56.253 45.0027 55.3018V57.3477C45.0027 58.2989 44.6248 59.2112 43.9522 59.8838C43.2796 60.5564 42.3673 60.9343 41.4161 60.9343C40.4649 60.9343 39.5526 60.5564 38.88 59.8838C38.2074 59.2112 37.8295 58.2989 37.8295 57.3477C37.7752 58.2638 37.373 59.1245 36.7051 59.7539C36.0373 60.3833 35.1543 60.7338 34.2366 60.7338C33.3189 60.7338 32.4359 60.3833 31.768 59.7539C31.1002 59.1245 30.698 58.2638 30.6437 57.3477V55.2387C30.6437 56.1899 30.2658 57.1022 29.5932 57.7748C28.9206 58.4474 28.0083 58.8253 27.0571 58.8253C26.1058 58.8253 25.1936 58.4474 24.521 57.7748C23.8483 57.1022 23.4705 56.1899 23.4705 55.2387V53.698C23.3612 54.5761 22.9301 55.3825 22.2606 55.961C21.591 56.5396 20.7307 56.8492 19.846 56.8299C19.2853 56.829 18.7322 56.6994 18.2295 56.451V56.3879Z" fill="#738E9E"/>
<path fill-rule="evenodd" clip-rule="evenodd" d="M55.4595 28.2761C54.1966 24.6516 51.6709 22.3531 49.4987 22.5805C46.7203 22.8709 46.0384 27.3289 46.6067 32.6836C47.175 38.0382 48.7536 42.231 51.5319 41.9405C54.3103 41.65 56.5835 37.0279 56.1794 31.8374C56.0783 33.3908 55.5227 34.7168 54.4239 34.8052C53.0095 34.9315 52.6054 33.3024 52.416 31.2439C52.2265 29.1854 52.2392 27.4552 53.6788 27.3542C54.032 27.3273 54.3856 27.3994 54.7001 27.5622C55.0146 27.725 55.2776 27.9722 55.4595 28.2761Z" fill="#86A196"/>
<path fill-rule="evenodd" clip-rule="evenodd" d="M54.4743 27.4678C53.6787 25.9397 52.58 25.0052 51.456 25.1315C49.549 25.3209 49.0944 28.3771 49.4733 32.0395C49.8521 35.7019 50.9508 38.5812 52.8452 38.3539C54.247 38.2024 55.2825 36.4596 55.573 34.0854C55.4561 34.2858 55.2932 34.4556 55.0978 34.5807C54.9024 34.7059 54.68 34.7828 54.449 34.8052C53.0346 34.9315 52.6305 33.3024 52.441 31.2439C52.2516 29.1854 52.2642 27.4552 53.7039 27.3542C53.9656 27.3421 54.2272 27.3807 54.4743 27.4678Z" fill="white"/>
<path fill-rule="evenodd" clip-rule="evenodd" d="M19.8711 28.2761C21.134 24.6516 23.6597 22.3531 25.8319 22.5805C28.6102 22.8709 29.2922 27.3289 28.7239 32.6836C28.1556 38.0382 26.577 42.231 23.7986 41.9405C21.0203 41.65 18.7471 37.0279 19.1512 31.8374C19.2523 33.3908 19.7953 34.7168 20.9066 34.8052C22.3211 34.9315 22.7252 33.3024 22.902 31.2439C23.0788 29.1854 23.0914 27.4552 21.6391 27.3542C21.2844 27.3199 20.9272 27.3858 20.6079 27.5443C20.2887 27.7028 20.0203 27.9475 19.8332 28.2508L19.8711 28.2761Z" fill="#86A196"/>
<path fill-rule="evenodd" clip-rule="evenodd" d="M20.8438 27.4678C21.6394 25.9397 22.7508 25.0052 23.8748 25.1315C25.7691 25.3209 26.2364 28.3771 25.8449 32.0395C25.4534 35.7019 24.3799 38.5812 22.473 38.3539C21.0711 38.2024 20.0356 36.4596 19.7451 34.0854C19.8649 34.2861 20.0301 34.4558 20.2276 34.5808C20.425 34.7059 20.6491 34.7828 20.8817 34.8052C22.2835 34.9315 22.7003 33.3024 22.8771 31.2439C23.0539 29.1854 23.0539 27.4552 21.6142 27.3542C21.3416 27.3313 21.0671 27.3613 20.8059 27.4426L20.8438 27.4678Z" fill="white"/>
<path fill-rule="evenodd" clip-rule="evenodd" d="M31.7426 36.1564C31.7238 35.8663 31.7238 35.5752 31.7426 35.285C31.7426 32.1657 33.2707 28.617 37.8929 28.617C42.515 28.617 44.0431 32.1657 44.0431 35.285C44.037 35.7109 43.9819 36.1346 43.8789 36.5479C42.8686 34.843 40.9743 33.7948 37.8171 33.7948C34.824 33.8327 32.8792 34.7041 31.7426 36.1564Z" fill="#F4F8FF"/>
<path fill-rule="evenodd" clip-rule="evenodd" d="M41.2393 11.5681L37.2233 11.366L42.1865 9.90105C42.214 10.2419 42.1383 10.583 41.9694 10.8803C41.8005 11.1776 41.5462 11.4172 41.2393 11.5681ZM36.794 10.2799L35.127 11.5428C36.1635 10.0895 37.0122 8.51103 37.6527 6.84487C38.0188 5.76086 38.1564 4.61278 38.0568 3.47296C38.5574 3.74998 38.9677 4.1652 39.2386 4.66906C39.5096 5.17292 39.6298 5.74412 39.5849 6.31446C39.5069 7.04278 39.171 7.71917 38.6378 8.22142C37.9739 8.86178 37.3576 9.54978 36.794 10.2799Z" fill="#86A196"/>
<path d="M103.938 40.4725C102.062 38.7225 101 36.2225 101 33.5975V33.285C101 28.91 104.125 25.16 108.438 24.4725C111.312 23.9725 114.188 24.91 116.25 26.91L117 27.66L117.75 26.91C119.75 24.91 122.688 23.9725 125.5 24.4725C129.812 25.16 133 28.91 133 33.285V33.5975C133 36.2225 131.875 38.7225 130 40.4725L118.688 51.035C118.25 51.4725 117.625 51.66 117 51.66C116.312 51.66 115.688 51.4725 115.25 51.035L103.938 40.4725Z" fill="#D63638"/>
<g clip-path="url(#clip0_1_2978)">
<path fill-rule="evenodd" clip-rule="evenodd" d="M226.365 76H165.812C161.429 76 158 72.5711 158 68.2233V7.77674C158 3.42884 161.429 0 165.812 0H226.365C230.713 0 234.177 3.42884 234.177 7.77674V68.2233C234.177 72.5711 230.713 76 226.365 76ZM176.841 61.8604C176.452 61.8604 175.922 61.7544 175.533 61.6483C173.695 60.9414 172.811 58.9266 173.518 57.0883L189.425 16.3665C190.132 14.5637 192.147 13.6447 193.985 14.3516C195.823 15.0586 196.707 17.0735 196 18.9116L180.164 59.6334C179.669 61.0474 178.255 61.8604 176.841 61.8604ZM199.641 56.6996C200.348 57.4066 201.267 57.7247 202.186 57.7247C203.105 57.7247 204.024 57.4066 204.731 56.6996L217.174 44.3627C219.401 42.1357 219.401 38.3889 217.174 36.1619L204.731 23.719C203.423 22.305 201.196 22.305 199.782 23.719C198.368 25.027 198.368 27.254 199.782 28.668L211.235 40.1917L199.676 51.7153C198.192 53.0586 198.192 55.2856 199.641 56.6996Z" fill="#0065FF"/>
</g>
<defs>
<clipPath id="clip0_1_2978">
<rect width="76" height="76" fill="white" transform="translate(158)"/>
</clipPath>
</defs>
</svg>
