<svg xmlns="http://www.w3.org/2000/svg" width="20" height="20" viewBox="0 0 20 20" fill="none">
  <path opacity="0.25" d="M11.0328 15.6018C13.098 16.2365 13.7521 16.8909 14.3867 18.9558C14.4376 19.1218 14.6731 19.1218 14.724 18.9558C15.3586 16.8905 16.013 16.2365 18.078 15.6018C18.244 15.551 18.244 15.3154 18.078 15.2645C16.0127 14.6299 15.3586 13.9755 14.724 11.9106C14.6731 11.7445 14.4376 11.7445 14.3867 11.9106C13.7521 13.9758 13.0977 14.6299 11.0328 15.2645C10.8667 15.3154 10.8667 15.551 11.0328 15.6018Z" fill="#7A30E2"/>
  <path d="M1.63204 9.59251C5.3796 8.44062 6.56697 7.25362 7.71849 3.50606C7.81103 3.20501 8.23791 3.20501 8.33046 3.50606C9.48235 7.25362 10.6693 8.44099 14.4169 9.59251C14.718 9.68506 14.718 10.1119 14.4169 10.2045C10.6693 11.3564 9.48198 12.5434 8.33046 16.2909C8.23791 16.592 7.81103 16.592 7.71849 16.2909C6.5666 12.5434 5.3796 11.356 1.63204 10.2045C1.33099 10.1119 1.33099 9.68506 1.63204 9.59251Z" fill="#7A30E2"/>
  <path opacity="0.5" d="M11.0328 4.07874C13.098 3.44409 13.7521 2.78968 14.3867 0.724773C14.4376 0.558702 14.6731 0.558702 14.724 0.724773C15.3586 2.79005 16.013 3.44409 18.078 4.07874C18.244 4.12958 18.244 4.36516 18.078 4.416C16.0127 5.05065 15.3586 5.70506 14.724 7.76997C14.6731 7.93604 14.4376 7.93604 14.3867 7.76997C13.7521 5.70469 13.0977 5.05065 11.0328 4.416C10.8667 4.36516 10.8667 4.12958 11.0328 4.07874Z" fill="#7A30E2"/>
</svg>
