<svg width="87" height="86" viewBox="0 0 87 86" fill="none" xmlns="http://www.w3.org/2000/svg">
<g filter="url(#filter0_d_210_3161)">
<path d="M43.4917 74.2911C62.3619 74.2911 77.6592 58.9937 77.6592 40.1236C77.6592 21.2534 62.3619 5.95605 43.4917 5.95605C24.6215 5.95605 9.32422 21.2534 9.32422 40.1236C9.32422 58.9937 24.6215 74.2911 43.4917 74.2911Z" fill="#F0F0F1"/>
<path d="M43.4922 3.45605C63.7429 3.45631 80.1592 19.8733 80.1592 40.124C80.1589 60.3746 63.7427 76.7908 43.4922 76.791C23.2414 76.791 6.82447 60.3747 6.82422 40.124C6.82422 19.8731 23.2413 3.45605 43.4922 3.45605Z" stroke="white" stroke-width="5"/>
</g>
<mask id="mask0_210_3161" style="mask-type:alpha" maskUnits="userSpaceOnUse" x="9" y="5" width="69" height="70">
<path d="M43.4917 74.2911C62.3619 74.2911 77.6592 58.9937 77.6592 40.1236C77.6592 21.2534 62.3619 5.95605 43.4917 5.95605C24.6215 5.95605 9.32422 21.2534 9.32422 40.1236C9.32422 58.9937 24.6215 74.2911 43.4917 74.2911Z" fill="white"/>
</mask>
<g mask="url(#mask0_210_3161)">
<path d="M29.298 16.4941C30.2004 16.5195 31.0889 16.7227 31.9126 17.092C32.7364 17.4613 33.4792 17.9895 34.0985 18.6464C34.7178 19.3032 35.2014 20.0757 35.5217 20.9198C35.8419 21.7638 35.9926 22.6627 35.9649 23.565C36.0184 24.4736 35.8856 25.3835 35.5747 26.2389C35.2638 27.0942 34.7813 27.8771 34.157 28.5392C33.5326 29.2014 32.7795 29.729 31.9438 30.0896C31.1082 30.4502 30.2077 30.6362 29.2975 30.6362C28.3874 30.6362 27.4869 30.4502 26.6513 30.0896C25.8156 29.729 25.0625 29.2014 24.4381 28.5392C23.8138 27.8771 23.3313 27.0942 23.0204 26.2389C22.7095 25.3835 22.5767 24.4736 22.6302 23.565C22.6025 22.6626 22.7532 21.7637 23.0735 20.9196C23.3938 20.0755 23.8775 19.3029 24.4969 18.6461C25.1163 17.9892 25.8592 17.461 26.6831 17.0918C27.5069 16.7225 28.3955 16.5194 29.298 16.4941V16.4941Z" fill="#7F3E13"/>
<path d="M29.2979 18.4467C27.9971 18.509 26.7732 19.081 25.8909 20.0389C25.0086 20.9968 24.539 22.2635 24.5836 23.565C24.5295 24.217 24.6111 24.8731 24.8235 25.4919C25.0358 26.1107 25.3742 26.6787 25.8172 27.1601C26.2603 27.6414 26.7984 28.0257 27.3975 28.2885C27.9966 28.5513 28.6437 28.687 29.2979 28.687C29.9521 28.687 30.5992 28.5513 31.1983 28.2885C31.7974 28.0257 32.3355 27.6414 32.7785 27.1601C33.2215 26.6787 33.5599 26.1107 33.7723 25.4919C33.9846 24.8731 34.0663 24.217 34.0121 23.565C34.0567 22.2635 33.5871 20.9968 32.7048 20.0389C31.8226 19.081 30.5987 18.509 29.2979 18.4467Z" fill="#B85A1B"/>
<path d="M29.2984 20.4004C28.5133 20.4563 27.7822 20.8205 27.2647 21.4137C26.7473 22.0068 26.4856 22.7806 26.5368 23.566C26.4825 23.9604 26.5133 24.3619 26.6272 24.7434C26.7411 25.1249 26.9354 25.4776 27.197 25.7777C27.4586 26.0778 27.7815 26.3184 28.1439 26.4833C28.5063 26.6481 28.8998 26.7334 29.298 26.7334C29.6961 26.7334 30.0896 26.6481 30.452 26.4833C30.8144 26.3184 31.1373 26.0778 31.3989 25.7777C31.6606 25.4776 31.8548 25.1249 31.9687 24.7434C32.0826 24.3619 32.1134 23.9604 32.0591 23.566C32.1042 22.7822 31.8405 22.0118 31.3244 21.4201C30.8084 20.8284 30.0811 20.4623 29.2984 20.4004Z" fill="#63300F"/>
<path d="M57.6842 16.4941C58.5866 16.5196 59.4751 16.7227 60.2988 17.0921C61.1226 17.4614 61.8654 17.9896 62.4847 18.6464C63.104 19.3033 63.5876 20.0758 63.9079 20.9198C64.2282 21.7639 64.3788 22.6628 64.3511 23.5651C64.4046 24.4737 64.2718 25.3836 63.9609 26.2389C63.65 27.0943 63.1676 27.8771 62.5432 28.5393C61.9188 29.2015 61.1657 29.7291 60.3301 30.0897C59.4944 30.4503 58.5939 30.6363 57.6838 30.6363C56.7736 30.6363 55.8731 30.4503 55.0375 30.0897C54.2019 29.7291 53.4487 29.2015 52.8244 28.5393C52.2 27.8771 51.7175 27.0943 51.4066 26.2389C51.0957 25.3836 50.963 24.4737 51.0164 23.5651C50.9888 22.6627 51.1394 21.7637 51.4597 20.9196C51.7801 20.0756 52.2638 19.303 52.8832 18.6461C53.5026 17.9893 54.2455 17.4611 55.0693 17.0918C55.8931 16.7226 56.7817 16.5194 57.6842 16.4941V16.4941Z" fill="#7F3E13"/>
<path d="M57.6841 18.4467C56.3833 18.509 55.1594 19.081 54.2771 20.0389C53.3949 20.9968 52.9252 22.2635 52.9698 23.565C52.9157 24.217 52.9974 24.8731 53.2097 25.4919C53.4221 26.1107 53.7604 26.6787 54.2035 27.1601C54.6465 27.6414 55.1846 28.0257 55.7837 28.2885C56.3828 28.5513 57.0299 28.687 57.6841 28.687C58.3383 28.687 58.9854 28.5513 59.5845 28.2885C60.1836 28.0257 60.7217 27.6414 61.1647 27.1601C61.6078 26.6787 61.9462 26.1107 62.1585 25.4919C62.3708 24.8731 62.4525 24.217 62.3984 23.565C62.443 22.2635 61.9733 20.9968 61.0911 20.0389C60.2088 19.081 58.9849 18.509 57.6841 18.4467Z" fill="#B85A1B"/>
<path d="M57.6851 20.4004C56.9 20.4563 56.1689 20.8205 55.6515 21.4137C55.134 22.0068 54.8723 22.7806 54.9235 23.566C54.8692 23.9604 54.9 24.3619 55.0139 24.7434C55.1278 25.1249 55.3221 25.4776 55.5837 25.7777C55.8453 26.0778 56.1682 26.3184 56.5306 26.4833C56.893 26.6481 57.2865 26.7334 57.6847 26.7334C58.0828 26.7334 58.4763 26.6481 58.8387 26.4833C59.2012 26.3184 59.524 26.0778 59.7857 25.7777C60.0473 25.4776 60.2416 25.1249 60.3555 24.7434C60.4693 24.3619 60.5001 23.9604 60.4458 23.566C60.4909 22.7822 60.2272 22.0118 59.7112 21.4201C59.1951 20.8284 58.4678 20.4623 57.6851 20.4004Z" fill="#4F2800"/>
<path d="M40.7815 19.7937C41.2011 19.7937 41.6114 19.9181 41.9603 20.1513C42.3092 20.3844 42.5812 20.7158 42.7418 21.1035C42.9024 21.4912 42.9444 21.9179 42.8625 22.3294C42.7806 22.741 42.5786 23.1191 42.2818 23.4158C41.9851 23.7126 41.607 23.9147 41.1954 23.9965C40.7838 24.0784 40.3572 24.0364 39.9695 23.8758C39.5818 23.7152 39.2504 23.4432 39.0173 23.0943C38.7841 22.7454 38.6597 22.3352 38.6597 21.9155C38.6597 21.3528 38.8832 20.8131 39.2811 20.4152C39.6791 20.0172 40.2187 19.7937 40.7815 19.7937ZM46.1688 19.7937C46.5885 19.7937 46.9987 19.9181 47.3476 20.1513C47.6966 20.3844 47.9685 20.7158 48.1291 21.1035C48.2897 21.4912 48.3317 21.9179 48.2499 22.3294C48.168 22.741 47.9659 23.1191 47.6692 23.4158C47.3724 23.7126 46.9944 23.9147 46.5828 23.9965C46.1712 24.0784 45.7446 24.0364 45.3569 23.8758C44.9692 23.7152 44.6378 23.4432 44.4046 23.0943C44.1715 22.7454 44.047 22.3352 44.047 21.9155C44.047 21.6369 44.1019 21.361 44.2085 21.1035C44.3152 20.8461 44.4715 20.6122 44.6685 20.4152C44.8655 20.2181 45.0994 20.0618 45.3569 19.9552C45.6143 19.8486 45.8902 19.7937 46.1688 19.7937Z" fill="#7F3E13"/>
<path d="M68.1566 28.6158V41.7481H68.2915C69.2165 42.1034 70.0115 42.7318 70.5708 43.5498C71.1302 44.3677 71.4274 45.3365 71.423 46.3274V55.7901L43.5082 65.0153L15.5933 56.0591V46.3957C15.5889 45.4048 15.8862 44.436 16.4455 43.6181C17.0048 42.8002 17.7998 42.1718 18.7248 41.8164H18.8597V28.5825C18.8597 19.4905 68.1574 19.4905 68.1574 28.5825L68.1566 28.6158Z" fill="#7F3E13"/>
<path d="M21.0821 29.1208V43.3003L19.9375 43.7718C19.3176 44.0065 18.7848 44.426 18.4114 44.9736C18.038 45.5212 17.8419 46.1704 17.8498 46.8332V56.7998L43.5088 65.0496L69.1677 56.5974V46.8332C69.1713 46.1711 68.9736 45.5235 68.6007 44.9763C68.2279 44.4291 67.6976 44.0082 67.0801 43.7692L65.9355 43.2977V29.1182C65.9355 22.3838 21.1163 22.3838 21.1163 29.1182L21.0821 29.1208Z" fill="#B85A1B"/>
<path d="M21.0821 29.1216V43.3011L19.9375 43.7726C19.3177 44.0072 18.7851 44.4266 18.4116 44.9741C18.0382 45.5215 17.8421 46.1705 17.8498 46.8331V56.8007L43.5088 65.0504V59.6289C34.6192 59.6622 25.7297 53.8375 28.0864 42.3213H43.5088V24.1041C32.2959 24.1041 21.0829 25.7877 21.0829 29.1549L21.0821 29.1216Z" fill="#E1762F"/>
<path d="M26.8403 39.3249H60.21C64.9585 64.3774 21.7579 64.1758 26.8403 39.3249Z" fill="#E5895B"/>
<path d="M28.4903 41.2774C28.0188 45.1494 28.861 48.8874 31.7225 51.7839C34.5841 54.6805 39.3667 56.1275 43.5753 56.1275C47.7704 56.248 51.8493 54.7394 54.9564 51.918C57.9538 49.0223 58.896 45.2511 58.4919 41.2774H28.4903Z" fill="#E5895B"/>
<path d="M49.0981 52.962C51.3541 55.8577 57.8869 54.6789 55.9316 48.551L49.0981 52.962Z" fill="#FAD395"/>
<path d="M47.0444 52.3223C49.5703 55.5545 57.7525 53.6351 55.8665 46.6317L47.0444 52.3223Z" fill="#4F2800"/>
<path d="M49.233 50.6376C49.4247 50.5699 49.6323 50.5615 49.8289 50.6136C50.0254 50.6657 50.2016 50.7759 50.3345 50.9298C50.4674 51.0836 50.5509 51.274 50.5739 51.476C50.5969 51.678 50.5584 51.8822 50.4635 52.062C50.3686 52.2418 50.2217 52.3888 50.0419 52.4838C49.8621 52.5788 49.6579 52.6173 49.4559 52.5944C49.2539 52.5715 49.0634 52.4881 48.9095 52.3553C48.7556 52.2224 48.6454 52.0462 48.5932 51.8497C48.5193 51.6042 48.5449 51.3394 48.6647 51.1126C48.7844 50.8857 48.9885 50.7152 49.233 50.6376ZM54.587 46.9339C54.5826 46.5536 54.4279 46.1906 54.1567 45.924C53.8855 45.6574 53.5198 45.5091 53.1395 45.5113C52.7592 45.5135 52.3953 45.6661 52.1271 45.9357C51.859 46.2054 51.7085 46.5703 51.7085 46.9505C51.7085 47.3308 51.859 47.6957 52.1271 47.9653C52.3953 48.235 52.7592 48.3876 53.1395 48.3898C53.5198 48.392 53.8855 48.2436 54.1567 47.9771C54.4279 47.7105 54.5826 47.3475 54.587 46.9672V46.9339Z" fill="white"/>
<path d="M52.5326 53.5685C53.4889 53.2812 54.3399 52.7197 54.9803 51.9536C55.6207 51.1875 56.0224 50.2504 56.1355 49.2583C54.6544 49.0558 52.1627 51.1776 52.5326 53.5685Z" fill="#AD6151"/>
<path d="M30.2748 39.3248H56.7443C60.4788 57.2055 26.2678 57.0373 30.2748 39.3248Z" fill="#FAD395"/>
<path d="M43.5085 49.4943C43.659 48.4149 44.0886 47.3936 44.7547 46.5311C47.9203 46.0263 50.6811 43.6354 49.8055 39.291C47.7933 38.5835 45.6765 38.2193 43.5435 38.2139L42.2622 42.3217L43.5435 49.5618L43.5085 49.4943Z" fill="#4F2800"/>
<path d="M43.5082 49.4941C43.3577 48.4148 42.9281 47.3934 42.2619 46.531C39.0963 46.0261 36.3356 43.6353 37.2111 39.2909C39.2236 38.5833 41.3408 38.2191 43.474 38.2137V49.4941H43.5082Z" fill="#63300F"/>
<path d="M38.8273 39.9307C41.9046 39.1027 45.1461 39.1027 48.2234 39.9307C49.5021 43.1971 37.3795 43.1638 38.8273 39.9307Z" fill="#AD6151"/>
<path d="M38.4574 30.8384C39.1566 30.8384 39.8402 31.0458 40.4216 31.4343C41.003 31.8228 41.4561 32.3749 41.7237 33.021C41.9913 33.667 42.0613 34.3778 41.9249 35.0637C41.7885 35.7495 41.4518 36.3794 40.9573 36.8739C40.4629 37.3683 39.8329 37.7051 39.1471 37.8415C38.4613 37.9779 37.7504 37.9079 37.1044 37.6403C36.4584 37.3727 35.9062 36.9195 35.5177 36.3381C35.1292 35.7567 34.9219 35.0732 34.9219 34.3739C34.9219 33.4363 35.2944 32.537 35.9574 31.874C36.6204 31.2109 37.5197 30.8384 38.4574 30.8384Z" fill="white"/>
<path d="M38.7272 32.0504C39.2467 32.0504 39.7545 32.2044 40.1865 32.493C40.6184 32.7816 40.9551 33.1919 41.1539 33.6718C41.3527 34.1518 41.4047 34.6799 41.3034 35.1894C41.202 35.6989 40.9518 36.1669 40.5845 36.5343C40.2172 36.9016 39.7492 37.1518 39.2396 37.2531C38.7301 37.3545 38.202 37.3025 37.722 37.1037C37.2421 36.9049 36.8319 36.5682 36.5433 36.1363C36.2546 35.7043 36.1006 35.1965 36.1006 34.677C36.1092 33.983 36.3887 33.32 36.8795 32.8292C37.3702 32.3385 38.0333 32.059 38.7272 32.0504Z" fill="#1B1D23"/>
<path d="M48.6268 30.8384C47.9275 30.8384 47.244 31.0457 46.6626 31.4342C46.0812 31.8227 45.628 32.3749 45.3604 33.0209C45.0928 33.6669 45.0228 34.3778 45.1592 35.0636C45.2957 35.7494 45.6324 36.3794 46.1268 36.8738C46.6213 37.3683 47.2512 37.705 47.9371 37.8414C48.6229 37.9778 49.3337 37.9078 49.9798 37.6402C50.6258 37.3726 51.178 36.9195 51.5664 36.3381C51.9549 35.7567 52.1623 35.0731 52.1623 34.3739C52.1623 33.4362 51.7898 32.5369 51.1268 31.8739C50.4637 31.2109 49.5645 30.8384 48.6268 30.8384Z" fill="white"/>
<path d="M48.3576 32.0503C47.8381 32.0503 47.3302 32.2043 46.8983 32.493C46.4664 32.7816 46.1297 33.1918 45.9309 33.6718C45.7321 34.1517 45.6801 34.6798 45.7814 35.1894C45.8828 35.6989 46.1329 36.1669 46.5003 36.5342C46.8676 36.9016 47.3356 37.1517 47.8451 37.2531C48.3547 37.3544 48.8828 37.3024 49.3627 37.1036C49.8427 36.9048 50.2529 36.5681 50.5415 36.1362C50.8302 35.7042 50.9842 35.1964 50.9842 34.6769C50.9756 33.983 50.6961 33.3199 50.2053 32.8292C49.7146 32.3384 49.0515 32.0589 48.3576 32.0503Z" fill="#1B1D23"/>
<path d="M41.0172 29.6595C38.4968 29.1134 35.8627 29.5732 33.6763 30.9408C32.9349 26.6289 40.2416 25.3493 41.0172 29.6595Z" fill="#63300F"/>
<path d="M45.3267 27.5056C47.8471 26.9594 50.4812 27.4192 52.6676 28.7868C53.4081 24.4407 46.1014 23.1612 45.3267 27.5056Z" fill="#4F2800"/>
<path d="M71.3898 55.8577V83.0319C71.3898 83.9071 71.0421 84.7464 70.4233 85.3652C69.8045 85.984 68.9652 86.3317 68.09 86.3317H18.8598C17.9846 86.3317 17.1453 85.984 16.5265 85.3652C15.9077 84.7464 15.5601 83.9071 15.5601 83.0319V56.0934L43.4749 62.7604L71.3898 55.8577Z" fill="#7EAABA"/>
<path d="M69.1671 58.72L43.5082 65.0504L17.8159 58.9224V82.4937C17.8159 82.9314 17.9898 83.3512 18.2993 83.6606C18.6088 83.9701 19.0285 84.144 19.4662 84.144H67.5177C67.9554 84.144 68.3751 83.9701 68.6846 83.6606C68.9941 83.3512 69.168 82.9314 69.168 82.4937L69.1671 58.72Z" fill="#D3E8EF"/>
<path d="M43.509 65.0501L17.8501 58.9213V82.4926C17.8501 82.9303 18.024 83.3501 18.3335 83.6596C18.6429 83.9691 19.0627 84.1429 19.5004 84.1429H43.509V65.0501Z" fill="white"/>
<path d="M43.5093 71.7182H65.0937V74.6139H43.5093V71.7182ZM43.5093 77.712H65.0937V80.6077H43.5093V77.712Z" fill="#036AAB"/>
<path d="M21.9243 71.7182H43.5088V74.6139H21.9243V71.7182ZM43.5088 80.6077V77.712H21.9243V80.6077H43.5088Z" fill="#0399ED"/>
<path d="M30.6792 69.8322H33.4066V83.0319H30.6792V69.8322Z" fill="white"/>
<path d="M23.1025 57.8777L43.4749 62.7603L36.2015 69.6297C31.4873 66.8681 26.8063 63.8041 23.1025 57.8777Z" fill="#7EAABA"/>
<path d="M28.8608 61.5483C30.9935 63.5876 33.3551 65.3731 35.8985 66.8691L38.9625 63.9734L28.8608 61.5483Z" fill="white"/>
<path d="M63.8807 57.8778L43.5083 62.7603L50.7817 69.6297C55.496 66.8681 60.1427 63.8042 63.8807 57.8778Z" fill="#7EAABA"/>
<path d="M58.0884 61.5484C55.9558 63.5877 53.5942 65.3732 51.0508 66.8691L47.9868 63.9734L58.0884 61.5484Z" fill="white"/>
</g>
<defs>
<filter id="filter0_d_210_3161" x="-0.000105858" y="-1.20611" width="86.9836" height="86.9837" filterUnits="userSpaceOnUse" color-interpolation-filters="sRGB">
<feFlood flood-opacity="0" result="BackgroundImageFix"/>
<feColorMatrix in="SourceAlpha" type="matrix" values="0 0 0 0 0 0 0 0 0 0 0 0 0 0 0 0 0 0 127 0" result="hardAlpha"/>
<feOffset dy="2.16216"/>
<feGaussianBlur stdDeviation="2.16216"/>
<feComposite in2="hardAlpha" operator="out"/>
<feColorMatrix type="matrix" values="0 0 0 0 0 0 0 0 0 0 0 0 0 0 0 0 0 0 0.15 0"/>
<feBlend mode="normal" in2="BackgroundImageFix" result="effect1_dropShadow_210_3161"/>
<feBlend mode="normal" in="SourceGraphic" in2="effect1_dropShadow_210_3161" result="shape"/>
</filter>
</defs>
</svg>
